<svg xmlns="http://www.w3.org/2000/svg" viewBox="0 0 500 425.28"><defs><style>.cls-1{fill:#fafafa;}.cls-2{fill:#ebebeb;}.cls-3{fill:#f5f5f5;}.cls-4{fill:#f0f0f0;}.cls-10,.cls-11,.cls-13,.cls-15,.cls-17,.cls-18,.cls-5{fill:#fff;}.cls-6{fill:#e0e0e0;}.cls-7{fill:#4c9aff;}.cls-11,.cls-18,.cls-8{opacity:0.1;}.cls-9{fill:none;stroke:#fff;stroke-miterlimit:10;stroke-width:0.5px;opacity:0.8;}.cls-10,.cls-21,.cls-22{opacity:0.4;}.cls-11{isolation:isolate;}.cls-12,.cls-13,.cls-20{opacity:0.2;}.cls-14{opacity:0.3;}.cls-15{opacity:0.5;}.cls-16,.cls-21{fill:#263238;}.cls-17{opacity:0.7;}.cls-19{fill:#ff8b7b;}.cls-23{fill:#a02724;}</style></defs><g id="Layer_2" data-name="Layer 2"><g id="Character"><g id="Shadows"><ellipse id="path--inject-112" class="cls-1" cx="250" cy="413.96" rx="193.89" ry="11.32"/></g><g id="Detailed_Background" data-name="Detailed Background"><rect class="cls-2" y="356.12" width="500" height="0.25"/><rect class="cls-3" x="370.49" y="366.61" width="53.07" height="0.25"/><rect class="cls-3" x="272.56" y="371.08" width="58.66" height="0.25"/><rect class="cls-3" x="340.92" y="371.08" width="19.19" height="0.25"/><rect class="cls-3" x="100.47" y="366.61" width="43.19" height="0.25"/><rect class="cls-3" x="79.46" y="364.61" width="15.44" height="0.25"/><rect class="cls-3" x="131.47" y="370.83" width="54.2" height="0.25"/><path class="cls-2" d="M238.4,291.59H45.31a5.71,5.71,0,0,1-5.71-5.71V14.45a5.72,5.72,0,0,1,5.71-5.66H238.4a5.71,5.71,0,0,1,5.7,5.71h0V285.88A5.7,5.7,0,0,1,238.4,291.59ZM45.31,9a5.47,5.47,0,0,0-5.46,5.46V285.88a5.46,5.46,0,0,0,5.46,5.46H238.4a5.45,5.45,0,0,0,5.45-5.46V14.45A5.46,5.46,0,0,0,238.4,9Z"/><path class="cls-2" d="M454.7,291.59H261.6a5.71,5.71,0,0,1-5.7-5.71V14.45a5.71,5.71,0,0,1,5.7-5.66H454.7a5.72,5.72,0,0,1,5.7,5.66V285.88A5.71,5.71,0,0,1,454.7,291.59ZM261.6,9a5.46,5.46,0,0,0-5.45,5.46V285.88a5.45,5.45,0,0,0,5.45,5.46H454.7a5.47,5.47,0,0,0,5.47-5.46V14.45A5.48,5.48,0,0,0,454.7,9Z"/><polygon class="cls-4" points="78.44 166.24 71.27 166.24 69.28 163.64 80.42 163.64 78.44 166.24"/><path class="cls-4" d="M89.45,134.36a14.63,14.63,0,0,1-4.9,10.87,9.57,9.57,0,0,0-3.32,7.14v1.11H68.48v-1.11a9.61,9.61,0,0,0-3.31-7.14,14.59,14.59,0,0,1,10.45-25.49A14.71,14.71,0,0,1,89.45,134.36Z"/><rect class="cls-5" x="70.38" y="138.25" width="0.88" height="15.32" transform="translate(-27.76 17.12) rotate(-11.54)"/><rect class="cls-5" x="71.23" y="145.47" width="15.32" height="0.88" transform="translate(-79.81 194.16) rotate(-78.51)"/><polygon class="cls-5" points="76.62 144.93 74.86 141.74 73.08 144.93 69.77 141.12 70.43 140.54 72.92 143.41 74.86 139.92 76.79 143.41 79.28 140.54 79.94 141.12 76.62 144.93"/><polygon class="cls-4" points="81.23 153.41 81.23 163.57 68.48 163.64 68.48 153.48 81.23 153.41"/><rect class="cls-5" x="68.48" y="163.17" width="12.74" height="0.88" transform="translate(-0.97 0.45) rotate(-0.34)"/><rect class="cls-5" x="68.48" y="153.01" width="12.74" height="0.88" transform="translate(-0.91 0.45) rotate(-0.34)"/><polygon class="cls-2" points="383.28 398.3 331.4 398.3 348.08 413.44 401.59 413.44 383.28 398.3"/><polygon class="cls-5" points="324.48 421.23 285.98 400.65 318.08 388.87 355.37 407.28 324.48 421.23"/><polygon class="cls-6" points="292.97 393.62 339.26 393.62 325.26 410.93 273.95 410.93 292.97 393.62"/><path class="cls-6" d="M365.47,150.87a114.46,114.46,0,0,0-5-33.52l29.41-25.87L371.4,59.4,334.29,72A115.33,115.33,0,0,0,276.23,38.4L268.52,0h-37L223.8,38.4A115.41,115.41,0,0,0,165.71,72L128.6,59.4,110.08,91.48l29.41,25.87a115.85,115.85,0,0,0,0,67.07l-29.41,25.85,18.52,32.08,37.11-12.56a115.61,115.61,0,0,0,58.09,33.58l7.68,38.4h37l7.71-38.4a115.52,115.52,0,0,0,58.06-33.58l37.11,12.56,18.52-32.08-29.41-25.85A114.71,114.71,0,0,0,365.47,150.87ZM250,213.21a60,60,0,1,1,60-60A60,60,0,0,1,250,213.21Z"/><path class="cls-4" d="M425.2,289.46c-3.08-1.69.7-15.89-3.46-22.09-3-4.55-8.57-7.3-10.6-12.38a12.11,12.11,0,0,1,2.59-12.72,2.75,2.75,0,0,1,1-.75,3.14,3.14,0,0,1,1.4-.07c2.7.26,5.5.71,7.75,2.24,2.76,1.89,4.29,5.19,4.78,8.5S428.46,291.26,425.2,289.46Z"/><path class="cls-4" d="M426.64,269.48c0-.36,0-.71-.05-1.07a12.46,12.46,0,0,0-.11,1.73Z"/><path class="cls-4" d="M436.42,245.85a1.73,1.73,0,0,0-.61-.53,2,2,0,0,0-.87-.12,10.24,10.24,0,0,0-5,1,7.74,7.74,0,0,0-3.48,5.08,22.89,22.89,0,0,0-.32,6.3l.45,10.85a12.94,12.94,0,0,1,3.4-7.22c2.37-2.51,5.79-4.12,7.35-7.2A7.63,7.63,0,0,0,436.42,245.85Z"/><path class="cls-4" d="M431.32,311.39c0-.18,0-.34,0-.52-.81-11.05-2.87-31.48-12.76-41.32-2-2.05-5.5-3.52-8.46-2.54a7.08,7.08,0,0,0-2.8,1.85c-3.24,3.25-4.19,7.64-4.06,11.82a28.81,28.81,0,0,0,4.64,14.6c4,6.17,10.15,11.18,15.2,16.8s-.4,21.55,7.73,19.31C431.52,331.19,431.34,313.75,431.32,311.39Z"/><path class="cls-4" d="M426.28,319.26q.33-15.15.65-30.31c.2-9.36.79-19.59,8.41-26.76,1.94-1.82,4.88-3.48,7.64-2.72a6.59,6.59,0,0,1,2.65,1.56c3.11,2.83,4.19,6.81,4.27,10.64a26.45,26.45,0,0,1-3.57,13.6c-3.33,5.84-8.77,10.71-13.14,16.1s1.39,19.72-6.17,18.05Z"/><path class="cls-3" d="M438.81,357.52h0a35.87,35.87,0,0,1-21.65,0h0l-8.47-38.59h38.59Z"/><rect class="cls-5" x="410.34" y="325.56" width="35.19" height="0.8"/></g><g id="Smartphone_Screen" data-name="Smartphone Screen"><g id="_Group_" data-name="&lt;Group&gt;"><path class="cls-7" d="M381.24,269.7H323.76a8.9,8.9,0,0,1-9-9.87l10.94-125.09a11,11,0,0,1,10.74-9.87h57.48a8.9,8.9,0,0,1,9,9.87L392,259.83A11,11,0,0,1,381.24,269.7Z"/><path class="cls-8" d="M381.24,269.7H323.76a8.9,8.9,0,0,1-9-9.87l10.94-125.09a11,11,0,0,1,10.74-9.87h57.48a8.9,8.9,0,0,1,9,9.87L392,259.83A11,11,0,0,1,381.24,269.7Z"/><path class="cls-9" d="M357.84,260.48a5.23,5.23,0,0,1-5.1,4.7,4.24,4.24,0,0,1-4.29-4.7,5.23,5.23,0,0,1,5.11-4.7A4.24,4.24,0,0,1,357.84,260.48Z"/><path class="cls-9" d="M373.54,136.05H354.93a1.58,1.58,0,0,1-1.6-1.74l0-.44a1.94,1.94,0,0,1,1.9-1.75h18.61a1.58,1.58,0,0,1,1.6,1.75l0,.44A1.94,1.94,0,0,1,373.54,136.05Z"/><polygon class="cls-10" points="387.02 248.86 320.81 248.86 330.15 142.15 396.35 142.15 387.02 248.86"/><polygon class="cls-11" points="369.83 125.32 337.77 269.7 357.04 269.7 388.77 125.32 369.83 125.32"/><polygon class="cls-11" points="354.84 125.32 322.78 269.7 332.49 269.7 364.23 125.32 354.84 125.32"/><polygon class="cls-7" points="341.86 243.09 325.49 243.09 326.48 231.78 342.84 231.78 341.86 243.09"/><polygon class="cls-7" points="362.62 243.09 346.25 243.09 347.24 231.78 363.61 231.78 362.62 243.09"/><polygon class="cls-7" points="383.39 243.09 367.02 243.09 368.01 231.78 384.38 231.78 383.39 243.09"/><polygon class="cls-7" points="385.92 214.23 328.01 214.23 327.92 215.23 385.83 215.23 385.92 214.23"/><polygon class="cls-12" points="385.92 214.23 328.01 214.23 327.92 215.23 385.83 215.23 385.92 214.23"/><polygon class="cls-7" points="386.25 210.41 380.91 210.41 381.38 205.07 386.72 205.07 386.25 210.41"/><polygon class="cls-7" points="359.99 210.41 354.65 210.41 355.12 205.07 360.46 205.07 359.99 210.41"/><polygon class="cls-7" points="333.73 210.41 328.39 210.41 328.86 205.07 334.2 205.07 333.73 210.41"/><polygon class="cls-7" points="385 224.69 369.81 224.69 370.13 221.02 385.32 221.02 385 224.69"/><polygon class="cls-7" points="367 199.26 329.39 199.26 329.72 195.53 367.33 195.53 367 199.26"/><polygon class="cls-13" points="367 199.26 329.39 199.26 329.72 195.53 367.33 195.53 367 199.26"/><polygon class="cls-7" points="351.06 149.88 333.71 149.88 334.06 145.92 351.4 145.92 351.06 149.88"/><polygon class="cls-13" points="351.06 149.88 333.71 149.88 334.06 145.92 351.4 145.92 351.06 149.88"/><path class="cls-7" d="M331.54,227.29h0a4.15,4.15,0,0,1-4.2-4.6h0a5.12,5.12,0,0,1,5-4.6h0a4.15,4.15,0,0,1,4.2,4.6h0A5.12,5.12,0,0,1,331.54,227.29Z"/><polygon class="cls-7" points="387.73 192.53 329.95 192.53 333.44 152.62 391.23 152.62 387.73 192.53"/><path class="cls-14" d="M325.4,138h21.06a10,10,0,0,0,9.81-9l.36-4.14H336.72A11.31,11.31,0,0,0,325.67,135Z"/></g><rect class="cls-7" x="401.67" y="158.5" width="4.83" height="1" transform="translate(216.33 550.56) rotate(-85.86)"/><rect class="cls-7" x="398.07" y="144.84" width="14.01" height="1" transform="translate(230.87 538.87) rotate(-85.86)"/></g><g id="Monitor_Screen" data-name="Monitor Screen"><g id="_Group_2" data-name="&lt;Group&gt;"><polygon class="cls-7" points="344.44 124.96 174.82 124.96 184.22 17.43 353.85 17.43 344.44 124.96"/><path class="cls-7" d="M342.1,133.37H175a7.73,7.73,0,0,1-7.83-8.58l9.35-106.86a9.55,9.55,0,0,1,9.33-8.58H353a7.74,7.74,0,0,1,7.83,8.58l-9.35,106.86A9.55,9.55,0,0,1,342.1,133.37Z"/><polygon class="cls-7" points="344.44 124.96 174.82 124.96 184.22 17.43 353.85 17.43 344.44 124.96"/><polygon class="cls-10" points="344.44 124.96 174.82 124.96 184.22 17.43 353.85 17.43 344.44 124.96"/><polygon class="cls-7" points="333.44 48.63 302.3 48.63 303.83 31.11 334.98 31.11 333.44 48.63"/><polygon class="cls-7" points="330.42 83.19 299.27 83.19 300.81 65.67 331.95 65.67 330.42 83.19"/><polygon class="cls-7" points="327.39 117.75 296.25 117.75 297.78 100.23 328.93 100.23 327.39 117.75"/><polygon class="cls-7" points="193.65 104.33 193.56 105.33 283.45 105.33 283.54 104.33 193.65 104.33"/><polygon class="cls-12" points="283.54 104.33 193.65 104.33 193.56 105.33 283.45 105.33 283.54 104.33"/><polygon class="cls-11" points="205.3 9.4 172.17 133.32 183.31 133.32 216.08 9.4 205.3 9.4"/><polygon class="cls-11" points="222.5 9.4 189.37 133.32 211.48 133.32 244.24 9.4 222.5 9.4"/><polygon class="cls-7" points="284.54 92.89 194.76 92.89 200.19 30.88 289.96 30.88 284.54 92.89"/><path class="cls-7" d="M197.23,117.34h0a4.15,4.15,0,0,1-4.2-4.6h0a5.12,5.12,0,0,1,5-4.6h0a4.15,4.15,0,0,1,4.2,4.6h0A5.12,5.12,0,0,1,197.23,117.34Z"/><polygon class="cls-7" points="238.98 100.51 194.1 100.51 194.44 96.55 239.33 96.55 238.98 100.51"/><polygon class="cls-13" points="238.98 100.51 194.1 100.51 194.44 96.55 239.33 96.55 238.98 100.51"/><polygon class="cls-7" points="282.57 114.72 265.23 114.72 265.57 110.76 282.92 110.76 282.57 114.72"/><polygon class="cls-7" points="283.87 100.51 279.91 100.51 280.25 96.55 284.22 96.55 283.87 100.51"/><polygon class="cls-7" points="277.15 100.51 273.19 100.51 273.54 96.55 277.5 96.55 277.15 100.51"/><polygon class="cls-7" points="270.44 100.51 266.47 100.51 266.82 96.55 270.78 96.55 270.44 100.51"/><polygon class="cls-15" points="290.3 27.07 222.97 27.07 223.26 23.66 290.6 23.66 290.3 27.07"/><polygon class="cls-7" points="217.65 27.34 200.31 27.34 200.65 23.38 218 23.38 217.65 27.34"/><polygon class="cls-13" points="217.65 27.34 200.31 27.34 200.65 23.38 218 23.38 217.65 27.34"/></g><rect class="cls-7" x="336.79" y="4.15" width="1" height="4.83" transform="translate(327.91 343.79) rotate(-89.52)"/><rect class="cls-7" x="323.09" y="-0.55" width="1" height="14.01" transform="matrix(0.01, -1, 1, 0.01, 314.44, 329.98)"/></g><g id="Drawing_Table" data-name="Drawing Table"><polygon class="cls-16" points="281.06 154.13 286.47 154.13 276.51 264.31 271.38 264.31 281.06 154.13"/><polygon class="cls-13" points="281.06 154.13 286.47 154.13 276.51 264.31 271.38 264.31 281.06 154.13"/><rect class="cls-16" x="283.04" y="206.93" width="1" height="53.78" transform="translate(-28.16 39.11) rotate(-7.52)"/><polygon class="cls-7" points="273.94 258.38 107.25 258.38 116.37 154.13 283.06 154.13 273.94 258.38"/><polygon class="cls-17" points="273.94 258.38 107.25 258.38 116.37 154.13 283.06 154.13 273.94 258.38"/><polygon class="cls-16" points="143.77 270.88 150.67 270.88 161.95 417.28 156.96 417.28 143.77 270.88"/><polygon class="cls-16" points="309.56 269.88 316.46 269.88 327.74 417.28 322.75 417.28 309.56 269.88"/><rect class="cls-7" x="108.63" y="269.88" width="205.78" height="23.21"/><polygon class="cls-14" points="278.27 270.06 277.46 293.07 314.41 293.09 314.41 269.88 278.27 270.06"/><rect class="cls-12" x="108.66" y="270.06" width="166.48" height="23.21"/><polygon class="cls-16" points="113.18 269.88 106.28 269.88 106.07 417.28 111.05 417.28 113.18 269.88"/><polygon class="cls-16" points="278.97 269.88 272.07 269.88 271.87 417.28 276.85 417.28 278.97 269.88"/><polygon class="cls-13" points="106.28 269.88 106.07 417.28 111.05 417.28 113.18 269.88 106.28 269.88"/><polygon class="cls-18" points="278.97 269.88 272.07 269.88 271.87 417.28 276.85 417.28 278.97 269.88"/><path class="cls-16" d="M100.54,264.31h0c0-3.13,1.16-5.66,2.6-5.67H319.6c1.44,0,2.6,2.54,2.6,5.67h0c0,3.12-1.16,5.66-2.6,5.67H103.14C101.7,270,100.54,267.43,100.54,264.31Z"/><path class="cls-18" d="M100.54,264.31h0c0-3.13,1.16-5.66,2.6-5.67H319.6c1.44,0,2.6,2.54,2.6,5.67h0c0,3.12-1.16,5.66-2.6,5.67H103.14C101.7,270,100.54,267.43,100.54,264.31Z"/><path class="cls-16" d="M266.33,264.31h0c0-3.13,1.17-5.66,2.6-5.67H319.6c1.44,0,2.6,2.54,2.6,5.67h0c0,3.12-1.16,5.66-2.6,5.67H268.93C267.5,270,266.33,267.43,266.33,264.31Z"/><polygon class="cls-5" points="263.32 244.95 212.87 244.95 219.98 163.63 270.44 163.63 263.32 244.95"/><path class="cls-5" d="M263.78,245.45H212.33l7.2-82.32H271Zm-50.37-1h49.46l7-80.32H220.44Z"/><path class="cls-6" d="M229.37,241.32H217.08l.75-8.64h12.29Zm-11.75-.5h11.29l.67-7.64H218.29Z"/><path class="cls-6" d="M244.33,241.32H232l.76-8.64h12.29Zm-11.75-.5h11.29l.67-7.64H233.25Z"/><path class="cls-6" d="M259.28,241.32H247l.76-8.64H260Zm-11.74-.5h11.28l.67-7.64H248.21Z"/><rect class="cls-6" x="219.14" y="220.4" width="41.71" height="0.5"/><path class="cls-6" d="M247.57,208.75H220l.27-3.18h27.59Zm-27-.5h26.59l.19-2.18H220.71Z"/><path class="cls-6" d="M260.36,229.07H248.91l.28-3.14h11.44Zm-10.9-.5H259.9l.18-2.14H249.65Z"/><path class="cls-6" d="M261.43,216.78h-4.35l.38-4.35h4.35Zm-3.8-.5H261l.29-3.35h-3.34Z"/><path class="cls-6" d="M242.52,216.78h-4.35l.38-4.35h4.35Zm-3.81-.5h3.35l.29-3.35H239Z"/><path class="cls-6" d="M223.61,216.78h-4.35l.38-4.35H224Zm-3.81-.5h3.35l.29-3.35h-3.35Z"/><path class="cls-6" d="M236.26,171.19h-13l.3-3.35h13Zm-12.45-.5h12l.2-2.35H224Z"/><path class="cls-6" d="M222.26,229.94h-1.1a2.71,2.71,0,0,1-2.06-.89,2.77,2.77,0,0,1-.71-2.15l.1-1.09a3.33,3.33,0,0,1,3.25-3h1.09a2.74,2.74,0,0,1,2.78,3l-.1,1.1A3.33,3.33,0,0,1,222.26,229.94Zm-.52-6.62a2.83,2.83,0,0,0-2.76,2.53l-.09,1.1a2.24,2.24,0,0,0,2.27,2.49h1.1A2.84,2.84,0,0,0,225,226.9l.09-1.09a2.29,2.29,0,0,0-.58-1.77,2.26,2.26,0,0,0-1.7-.72Z"/><path class="cls-6" d="M262.59,202.91H220.47l0-.27,2.53-29h42.12l0,.27Zm-41.58-.5h41.12l2.47-28.25H223.48Z"/><rect class="cls-6" x="242.56" y="164.02" width="0.5" height="48.53" transform="translate(-52.71 272.4) rotate(-53.68)"/><rect class="cls-6" x="218.46" y="194.73" width="28.14" height="0.5" transform="translate(-68.72 158.47) rotate(-33.07)"/><polygon class="cls-6" points="228.99 241.27 217.91 233.13 218.21 232.72 229.29 240.87 228.99 241.27"/><rect class="cls-6" x="216.14" y="236.75" width="14.92" height="0.5" transform="translate(-93.1 160.39) rotate(-33.07)"/><polygon class="cls-6" points="243.95 241.27 232.87 233.13 233.17 232.72 244.25 240.87 243.95 241.27"/><rect class="cls-6" x="231.1" y="236.75" width="14.92" height="0.5" transform="translate(-90.69 168.61) rotate(-33.08)"/><polygon class="cls-6" points="258.9 241.27 247.83 233.13 248.13 232.72 259.2 240.87 258.9 241.27"/><rect class="cls-6" x="246.06" y="236.75" width="14.92" height="0.5" transform="translate(-88.26 176.77) rotate(-33.08)"/><polygon class="cls-5" points="206.54 227.37 113.29 227.37 118.85 163.82 212.1 163.82 206.54 227.37"/><path class="cls-5" d="M207,227.87H112.75l5.65-64.55h94.24Zm-93.16-1h92.24l5.47-62.55H119.31Z"/><rect class="cls-6" x="124.14" y="216.06" width="50.62" height="0.5"/><path class="cls-6" d="M175.84,206.84h-51l0-.27,3.07-35.15h51.06l0,.27Zm-50.51-.5h50.05l3-34.42h-50Z"/><path class="cls-6" d="M126.87,223.6h-1.38A2,2,0,0,1,124,223a2,2,0,0,1-.5-1.54l.12-1.38a2.38,2.38,0,0,1,2.32-2.13h1.37a2,2,0,0,1,2,2.18l-.12,1.37A2.38,2.38,0,0,1,126.87,223.6Zm-.92-5.18a1.86,1.86,0,0,0-1.82,1.68l-.12,1.37a1.5,1.5,0,0,0,.37,1.16,1.47,1.47,0,0,0,1.11.47h1.38a1.87,1.87,0,0,0,1.82-1.67l.12-1.38a1.48,1.48,0,0,0-1.49-1.63Z"/><path class="cls-6" d="M150,213.13H124.23l.24-2.73h25.78Zm-25.23-.5h24.77l.16-1.73H124.93Z"/><path class="cls-6" d="M174.47,222.13H164.2l.24-2.73h10.27Zm-9.72-.5H174l.16-1.73H164.9Z"/><path class="cls-6" d="M175.29,213.13h-2.73l.23-2.73h2.74Zm-2.19-.5h1.73l.15-1.73h-1.73Z"/><path class="cls-6" d="M171.51,213.13h-2.74l.24-2.73h2.74Zm-2.19-.5h1.73l.15-1.73h-1.73Z"/><path class="cls-6" d="M167.72,213.13H165l.24-2.73H168Zm-2.18-.5h1.73l.15-1.73h-1.73Z"/><path class="cls-6" d="M179.17,168.77H140.75l.21-2.42h38.42Zm-37.87-.5h37.41l.13-1.42H141.42Z"/><path class="cls-6" d="M138.26,168.92H128l.24-2.73H138.5Zm-9.72-.5h9.26l.16-1.73h-9.27Z"/><path class="cls-6" d="M203.29,182.91h-18l.91-10.36h18Zm-17.49-.5h17l.83-9.36h-17Z"/><path class="cls-6" d="M201.59,202.37h-18l.91-10.36h18Zm-17.5-.5h17l.82-9.36h-17Z"/><path class="cls-6" d="M199.89,221.83h-18l.9-10.36h18Zm-17.5-.5h17l.82-9.36h-17Z"/><rect class="cls-6" x="184.29" y="177.48" width="20.88" height="0.5" transform="translate(-60.9 113.23) rotate(-28.23)"/><polygon class="cls-6" points="202.94 182.88 186.26 173.01 186.51 172.58 203.19 182.45 202.94 182.88"/><rect class="cls-6" x="182.58" y="196.94" width="20.88" height="0.5" transform="matrix(0.88, -0.47, 0.47, 0.88, -70.21, 114.42)"/><rect class="cls-6" x="192.77" y="187.5" width="0.5" height="19.38" transform="matrix(0.51, -0.86, 0.86, 0.51, -74.97, 262.91)"/><path class="cls-6" d="M181.83,222l.94-10.72,8.56,5.06,9.07-4.86.24.44-8.81,4.72,8,4.71-.26.43-8.21-4.86Zm1.37-9.89-.79,9,8.4-4.5Z"/><rect class="cls-6" x="119.87" y="188.88" width="63.98" height="0.5" transform="translate(-78.6 113.5) rotate(-33.07)"/><rect class="cls-6" x="151.61" y="159.65" width="0.5" height="58.95" transform="translate(-90.47 199.46) rotate(-53.68)"/></g><g id="Character-2" data-name="Character"><path class="cls-19" d="M182.61,384.36l-1.1,24.37s9,2.79,9.88-.91c.57-2.29,2.27-10.23,3.8-16.41.59-2.35,0-4.62-1.2-5.5C192,384.45,188.61,384.48,182.61,384.36Z"/><path class="cls-19" d="M126.68,383.11l-9.35,18.45s5.33,6.74,7.56,4c3-3.68,12.79-15.68,12.79-15.68S141.08,390.36,126.68,383.11Z"/><polygon class="cls-12" points="122.26 391.82 132.6 396.16 136.76 391.05 124.88 386.65 122.26 391.82"/><polygon class="cls-12" points="182.21 393.33 181.95 398.94 193.4 398.94 194.8 393.33 182.21 393.33"/><path class="cls-19" d="M122.78,241.05l4.44,5.18,5.36-3.94s-1.78-7.75-2.6-7.2l-7.2,4.89Z"/><path class="cls-12" d="M122.78,241.05l4.44,5.18,5.36-3.94s-1.78-7.75-2.6-7.2l-7.2,4.89Z"/><path class="cls-19" d="M127.05,174.18l-19.59,17.65A8.88,8.88,0,0,0,106.27,202c4.88,9,16.51,27.08,16.51,27.08l5.7-4.09s-6.84-20.23-9.64-24.47a.57.57,0,0,1,.12-.77l16.58-13.66Z"/><g class="cls-20"><path d="M127.05,174.18l-19.59,17.65A8.88,8.88,0,0,0,106.27,202c4.88,9,16.51,27.08,16.51,27.08l5.7-4.09s-6.84-20.23-9.64-24.47a.57.57,0,0,1,.12-.77l16.58-13.66Z"/></g><path class="cls-19" d="M122.78,229.1V240l8-5.44s.53-9.18-2.32-9.53Z"/><path class="cls-12" d="M122.78,229.1V240l8-5.44s.53-9.18-2.32-9.53Z"/><path class="cls-7" d="M168.06,317.52a73.08,73.08,0,0,1-1.8,14.34C160.56,356,138,390.51,138,390.51l-13.15-4.93s18.57-50,20.71-62.75c1.74-10.4-14.29-48.39-18.94-63.83-3.36-11.16,1.37-21.6,1.37-21.6s12.08,1.64,26.4,2.54l5.63,25.92,2.6,12a139.2,139.2,0,0,1,4.3,20.43l.12.9c.1.78.2,1.55.28,2.3A112.94,112.94,0,0,1,168.06,317.52Z"/><path class="cls-10" d="M168.06,317.52a73.08,73.08,0,0,1-1.8,14.34C160.56,356,138,390.51,138,390.51l-13.15-4.93s18.57-50,20.71-62.75c1.74-10.4-14.29-48.39-18.94-63.83-3.36-11.16,1.37-21.6,1.37-21.6s12.08,1.64,26.4,2.54l5.63,25.92,2.6,12a139.2,139.2,0,0,1,4.3,20.43l.12.9c.1.78.2,1.55.28,2.3A112.94,112.94,0,0,1,168.06,317.52Z"/><path class="cls-21" d="M168.06,317.52c-1.86-6.4-9.49-25.39-19.49-44.23-10.09-19,1-23.56,1-23.56,4.23,1.54,7.71,7.89,10.48,16.13,3.27,9.73,5.55,22.14,6.9,32.43l.12.9c.1.78.2,1.55.28,2.3A112.94,112.94,0,0,1,168.06,317.52Z"/><path class="cls-7" d="M177.23,243.34l-34.15-2.59s-2.34,7.88-2.34,13.57c0,20.8,14.68,19.78,19.21,30.2,10,23.08,19.12,37.23,20.23,43.72.87,5.1,1,68.49,1,68.49h13.32S206.15,347.12,204,327,177.23,243.34,177.23,243.34Z"/><g class="cls-22"><path class="cls-5" d="M177.23,243.34l-34.15-2.59s-2.34,7.88-2.34,13.57c0,20.8,14.68,19.78,19.21,30.2,10,23.08,19.12,37.23,20.23,43.72.87,5.1,1,68.49,1,68.49h13.32S206.15,347.12,204,327,177.23,243.34,177.23,243.34Z"/></g><path class="cls-7" d="M223.28,175.67l19.84,10a1.05,1.05,0,0,1,.27.2l1.29,1.48-1.84-.05a1.06,1.06,0,0,1-.35-.09l-20.18-9.42a.9.9,0,0,1-.45-1.13l.2-.49A.88.88,0,0,1,223.28,175.67Z"/><path id="_Path_" data-name="&lt;Path&gt;" class="cls-19" d="M226.86,184.12l6.38-3.44-1.05,9.2s-5.24,3.07-8.41-.14Z"/><path id="_Path_2" data-name="&lt;Path&gt;" class="cls-19" d="M240.41,184.38l-.5,2.92a2.16,2.16,0,0,1-1.86,1.79l-5.86.79,1.05-9.2,5.49,1.21A2.18,2.18,0,0,1,240.41,184.38Z"/><path class="cls-19" d="M178.36,183.78s5.19,26.08,17.1,30.41c10.72,3.89,32.26-23,32.26-23l-.86-7.08-27,17.52L189,174.15A134.57,134.57,0,0,0,178.36,183.78Z"/><path class="cls-7" d="M128.61,407.44a16.23,16.23,0,0,1-2.21-2,.2.2,0,0,1,0-.26.22.22,0,0,1,.23-.12c.49.08,4.74.75,5.28,1.95a.73.73,0,0,1-.06.7,1.28,1.28,0,0,1-1,.62A3.57,3.57,0,0,1,128.61,407.44Zm-1.42-1.84c1.49,1.51,2.81,2.35,3.57,2.3a.8.8,0,0,0,.65-.42.26.26,0,0,0,0-.27C131.16,406.53,128.91,405.92,127.19,405.6Z"/><path class="cls-7" d="M126.42,405.46a.44.44,0,0,1-.08-.11.25.25,0,0,1,0-.22c.09-.15,2.72-3,4.45-1.78l.16.11c.46.4.42.75.31,1-.49,1-3.55,1.28-4.79,1Zm4.17-1.73c-1.11-.81-2.84.72-3.56,1.38,1.37.12,3.57-.27,3.86-.86,0,0,.12-.17-.19-.44Z"/><path class="cls-16" d="M116.46,400.66l-4.48,8a1.51,1.51,0,0,0,.6,2.05c2.43,1.41,5.7,3.42,7.12,4.05,7.33,3.29,11.68,2.43,15.83,2.33a2.25,2.25,0,0,0,1.93-2.93l-.18-.63a1.55,1.55,0,0,0-1.07-1.08c-6-1.59-9.49-8.22-9.49-8.22l-8.37-4.09A1.48,1.48,0,0,0,116.46,400.66Z"/><path class="cls-7" d="M194.34,410.33a16.77,16.77,0,0,1-2.7-1.3.2.2,0,0,1-.11-.24.21.21,0,0,1,.18-.17c.49-.07,4.76-.65,5.62.34a.7.7,0,0,1,.14.68,1.28,1.28,0,0,1-.76.89A3.64,3.64,0,0,1,194.34,410.33Zm-1.9-1.36c1.87,1,3.37,1.43,4.09,1.17a.79.79,0,0,0,.5-.59.25.25,0,0,0-.05-.27C196.51,408.71,194.18,408.78,192.44,409Z"/><path class="cls-7" d="M191.45,409.24l-.11-.08a.26.26,0,0,1,0-.23c.05-.16,1.74-3.66,3.76-3l.18.06c.55.25.62.6.58.85-.2,1.07-3,2.25-4.29,2.37Zm3.49-2.86c-1.29-.45-2.51,1.51-3,2.35,1.35-.28,3.34-1.29,3.45-1.93,0,0,.06-.2-.32-.37Z"/><path class="cls-16" d="M180.11,410.64c-.12,1.7-.06,4.27,0,7,0,1.33.82,3.52,2,4,1.86.71,4.88.48,8.3-.07,4.47-.73,11.89-4.57,14.9-6.2a2.56,2.56,0,0,0,1.13-3.3c-.14-.28-.27-.52-.38-.71a.94.94,0,0,0-.84-.47c-4.09.12-4.68-.06-8.5-.06a6.41,6.41,0,0,1-5.45-2.69s-4.6,1.42-8.17.68S180.11,410.64,180.11,410.64Z"/><path class="cls-7" d="M145.78,159.43a93.61,93.61,0,0,0-11.17,5.66,32.84,32.84,0,0,0-9.25,7.5,3.75,3.75,0,0,0-1.06,2.63,4,4,0,0,0,.7,1.59,44,44,0,0,0,11.59,12.11,56.5,56.5,0,0,1,7-19.45c1.68-2.89,3.68-5.76,4-9.09Z"/><path class="cls-23" d="M196.4,139.68a24.15,24.15,0,0,0,.62,6.51c-1.48.5-3.08-.8-3.08-.8Z"/><path d="M195.26,145.41a2.67,2.67,0,0,1-.75-.11c-1.8-.53-2.69-2.88-2-5.24s2.72-3.83,4.51-3.31a3,3,0,0,1,2,2,5.24,5.24,0,0,1,0,3.21C198.44,144,196.86,145.41,195.26,145.41Zm1-8.27c-1.36,0-2.75,1.25-3.28,3.06-.62,2.1.12,4.16,1.65,4.62a2.1,2.1,0,0,0,.61.09c1.38,0,2.76-1.29,3.28-3.07a4.75,4.75,0,0,0,0-2.89,2.56,2.56,0,0,0-1.65-1.72A2.1,2.1,0,0,0,196.28,137.14Z"/><path class="cls-19" d="M171.3,138.35l3.32,6.8,4.54,9.26a8.32,8.32,0,0,0-2,2.33c-1.29,1.93-2.3,3.32,1.64,6.86a2.9,2.9,0,0,1,.94,3c-.42,1.31-1.9,2.41-6.48,1a21.75,21.75,0,0,1-10.93-8c-1.34-1.79-.81-2.86.85-4.31C168,151.31,170.14,144.18,171.3,138.35Z"/><path class="cls-19" d="M193.53,148.83a13.33,13.33,0,0,1-10.12,6,12.41,12.41,0,0,1-4.12-.35,11.39,11.39,0,0,1-7.48-6.25c-2.86-6-.92-11.06,1.61-20a12.88,12.88,0,0,1,20.76-6.4C201.55,128.24,198.18,141.61,193.53,148.83Z"/><path class="cls-12" d="M183.41,154.87a12.41,12.41,0,0,1-4.12-.35l-.13-.11,1.36-1.37S180.59,154.6,183.41,154.87Z"/><path class="cls-16" d="M179.43,117a3.42,3.42,0,0,0-3.56-2.13,6,6,0,0,1,2.36,3Z"/><path class="cls-16" d="M206.86,131.63c-2.34,2.46-8.38,1.43-8.38,1.43l-2.55-2.51c-.57-.5-1.75-1.05-2.58,1.84l-1.13,2.46s-2.94,4.81-7.33,7.13c-.62.33-2.35,1.53-2.35,1.53a9.87,9.87,0,0,1-10.14.39l-1.17-.46a3.31,3.31,0,0,1-2.1-2.89c-.28-4.94-.54-17.07,3.48-21,3.69-3.64,5.67-2.49,7-2.85.78-.21,4.53-2.72,9.83-.9,9.88,3.4,9.51,9.25,11.5,9a5.47,5.47,0,0,0,3.15-1.67c-.17.29-2.3,3.71-1.29,3.81s3.71-2.24,3.48-1.57-3.14,3.68-1.38,4.43c1.59.66,4.21-1.71,4.21-1.71S209.21,129.17,206.86,131.63Z"/><rect x="193.38" y="130.24" width="0.5" height="14.31" transform="translate(-27.42 224.03) rotate(-56.76)"/><path class="cls-19" d="M182.94,136.52a8.48,8.48,0,0,0,1.55,5.85c1.59,2.15,4.35.69,5.13-1.82.7-2.26.21-5.84-2-7.08S183.22,134,182.94,136.52Z"/><path class="cls-16" d="M145.78,159.43s-9.49,11.2-12.56,37.2-5.57,43.42-5.57,43.42l50,3.56s-1.9-16.7,0-29.54,14.66-43.38,11.84-48.3c-1.43-2.5-12.25-7.29-22.53-8C157,157.06,145.78,159.43,145.78,159.43Z"/><path class="cls-7" d="M177,164.82c-2.65,2.37-4.14,5.76-5.2,9.14a12,12,0,0,0-.74,4.34,13.68,13.68,0,0,0,1.93,5.37l4.68,8.89a47.74,47.74,0,0,0,16.74-3.67,2.78,2.78,0,0,0,1.66-1.28c.51-1.2-2.62-10.68-3-14.43C192.11,165.2,184,158.48,177,164.82Z"/><path class="cls-7" d="M157,157.89l4.14-3.22a5.11,5.11,0,0,1,3.43-1.07c2.88.15,8.61.15,13.47,2,4.41,1.7,3.47,5.44,3.47,5.44S173.07,157.63,157,157.89Z"/><path class="cls-7" d="M128.35,235c-2.77,3.08-2.77,12.54-2.77,12.54s25.77,2.54,37.28,2.54a101.51,101.51,0,0,0,13.25-.89l.76-5.58,1.63,5.19,2.29-.52-3.63-10.78Z"/><path class="cls-7" d="M141.07,390.54c.06,0-2.76,5-2.76,5l-16-6.32,1.35-4.87Z"/><path class="cls-7" d="M197.64,391.29c.07,0-1,5.42-1,5.42H179.59l-.46-5Z"/></g></g></g></svg>