<svg xmlns="http://www.w3.org/2000/svg" viewBox="0 0 2574.99 1321.52"><defs><style>.cls-1{fill:#ebf2f9;}.cls-2{fill:#acd29a;}.cls-3{fill:#ffb07b;}.cls-4{fill:#365da4;}.cls-5{fill:#2b478b;}.cls-6{fill:#c65447;}.cls-7{fill:#ea8e50;}.cls-8{fill:#d86713;}.cls-9{fill:#f1a34f;}.cls-10{fill:#80bdcc;}.cls-11{fill:#5f9aa8;}.cls-12{fill:#2c3a64;}.cls-13{fill:#35488b;}.cls-14{fill:#935c2f;}.cls-15{fill:#a16d3c;}.cls-16{fill:#d3782f;}.cls-17{fill:#e69d43;}.cls-18{fill:#4a75cb;}.cls-19{fill:#699dee;}.cls-20{fill:#c3e0f4;}.cls-21{fill:#1e3d70;}.cls-22{fill:#233862;}.cls-23{fill:#2a4e96;}.cls-24{fill:#82b378;}.cls-25{fill:#2e3552;}</style></defs><g id="Layer_2" data-name="Layer 2"><g id="_Layer_" data-name="&lt;Layer&gt;"><path class="cls-1" d="M341.91,1314S-155.52,816.16,153.39,518.49s553.06,88.76,721.91,60.29C1089,542.74,1181.45.52,1501,0c363.54-.58,630.36,214.32,488.23,726.12-104.83,377.48,615.73,68.36,509.9,595.24Z"/><path class="cls-2" d="M1426.83,1249.33c-67.62-10.89-118.67,12.8-167.76,6-39.15-5.43-59.55-45-112.16-56.25,12.52-7.38,27.1-16.61,34.06-23.32,13.54-13,33-39.12,0-40.15-23.73-.74-42.21,38.79-50.71,61a161.67,161.67,0,0,0-25.41,0c10.86-35,32-102.74,37.21-115.75,7-17.71-22.56-76.75-57.45-10.49-24.47,46.47-7.85,100.17,4.26,128.11a193.44,193.44,0,0,0-27.2,6.46c-28.84-65.79-120.56-253.34-220-230-108.4,25.41,123.84,151.5,182.41,245-47.84,22.18-89.89,49.12-162.56,29.45-193.14-52.29-208.46,65.36-208.46,65.36l863.11.29S1494.45,1260.21,1426.83,1249.33Z"/><path class="cls-3" d="M1192,826c.89,8.3,12.64,8,25.92,6s9.85,1.5,28.53,1.14,24.91-6.74,25.72-9.44c.73-2.39-8.33-4.09-18-6.11l-3.67-.78c-10.94-2.4-18.39-10.28-27.91-17.06-9-6.42-15.08-35.85-15.08-35.85l-26.56-.16s8.35,26.62,12.69,35.87c2.56,5.45-.16,12.44-1,17.68A32.5,32.5,0,0,0,1192,826Z"/><path class="cls-4" d="M1218,832c13.29-2,9.85,1.5,28.53,1.14s24.91-6.74,25.72-9.44c.73-2.39-8.33-4.09-18-6.11l-.11.18a52.39,52.39,0,0,1-27.23,5.82c-12.58-.84-25.54-5.65-34.21-6.3a32.5,32.5,0,0,0-.6,8.7C1192.93,834.29,1204.68,834,1218,832Z"/><path class="cls-3" d="M984.46,824.67c.57,8.33,12.33,8.48,25.68,7s9.78,1.87,28.46,2.21,25.15-5.8,26.06-8.46c.82-2.37-8.17-4.4-17.78-6.79l-3.64-.92c-10.84-2.81-18-11-27.24-18.09-8.77-6.76-1.56-34.79-1.56-34.79l-20.15-9.52s-2.77,28.89-4.26,43.5c-.61,6-3.59,12-4.65,17.2A32.79,32.79,0,0,0,984.46,824.67Z"/><path class="cls-4" d="M1010.14,831.66c13.34-1.49,9.78,1.87,28.46,2.21s25.15-5.8,26.06-8.46c.82-2.37-8.17-4.4-17.78-6.79l-.12.18a52.3,52.3,0,0,1-27.43,4.78c-12.53-1.31-25.3-6.6-34-7.58a32.79,32.79,0,0,0-.92,8.67C985,833,996.79,833.15,1010.14,831.66Z"/><path class="cls-5" d="M1029.72,408.67s-5.58,27-11.18,164.06a442.74,442.74,0,0,0-17.88,56.4c-7.52,31-12.83,160.48-12.83,160.48s3,4.32,12.1,4.87a26.28,26.28,0,0,0,13.22-2.81s52.27-169.56,77.72-235.39,40.35-159.82,40.35-159.82Z"/><path class="cls-5" d="M1092.58,420.24s4.13,27.28,46.33,157.78a442.07,442.07,0,0,0,2.75,59.1c3.68,31.71,46.4,156.56,46.4,156.56s5.67,2,14.19-.28a44.66,44.66,0,0,0,14.11-6.84s-16.37-178.45-15.3-249-17.48-163.91-17.48-163.91Z"/><path class="cls-6" d="M1167.32,42.3c-6.61-4.21-14.75-5-20.47-5a9.68,9.68,0,0,1,4.46-1.85c-3.51-.71-11.59,2.41-11.59,2.41-48.27-21.43-59.63,50.66-59.44,67.55s-.66,36.28-26,50.15c-49.84,27.3-11.64,81.21-11.64,81.21-9,25.74,24.24,57.27,24.24,57.27-.56-13.67,62.18-100.75,96-120.62,8.56-11.34,12.43-31.93,12.73-33.56-2.2,16.38-5.47,25.46-8.25,30.53C1196.4,146.26,1184.86,53.45,1167.32,42.3Z"/><path class="cls-3" d="M1156.81,164.1c.17.08-15.83,8.39-27.87,5.1-11.32-3.09-18.71-17.77-18.56-17.8,4.79-1,6.18-7.54,6.08-35.85l2.17.43,35.13,7,1.31.25s-.84,11.47-.86,22.27c0,2.29,0,4.54.11,6.65C1154.55,158.38,1155.25,163.37,1156.81,164.1Z"/><path class="cls-7" d="M1154.21,145.46c0,2.29,0,4.54.11,6.65-20.44-.82-32.22-24.19-36.66-34.44l36.1,5.27,1.31.25S1154.23,134.66,1154.21,145.46Z"/><path class="cls-6" d="M1114.86,112s-10.69-16.88-13.25-31.32c-1.83-10.31,3.42-48.51,41.81-43a52.16,52.16,0,0,1,21.63,8.18c8.34,5.63,20.37,17.78,6.92,51.12l-3.49,11.26Z"/><path class="cls-3" d="M1157.21,140.17s-47.83-6.32-43.44-36,1.19-50.57,31.91-47.79,35,15,35.92,25.28S1169.77,141.05,1157.21,140.17Z"/><path class="cls-6" d="M1167.53,58.84s-18.26,32.93-39.08,35.09-28.72-4.5-28.72-4.5a57.38,57.38,0,0,0,23.57-30.77S1160.14,40.78,1167.53,58.84Z"/><path class="cls-6" d="M1163.87,61.19s8.59,9.24,9.84,17.16,0,23.67,4.62,23.81c0,0,13.38-22.23,4.31-37.29C1173,48.91,1163.87,61.19,1163.87,61.19Z"/><path class="cls-8" d="M1481.53,465.09c-10-21.25-37.93-38.84-61.44-38.85a69.84,69.84,0,0,0-44.52,15.57,11.72,11.72,0,0,1-18.83-6.66l-20.57-95.59a25.82,25.82,0,0,0-30.67-19.81L972.59,391.4a25.23,25.23,0,0,0-19.35,30l71.57,332.55a26.17,26.17,0,0,0,17.67,19.44l-4.37,1.24H1051l.11,0a27.1,27.1,0,0,0,4.78-.57l7.25-1.56h0l85.44-18.39a16.13,16.13,0,0,0,8.8-26.34,69.23,69.23,0,1,1,116-18.35,11,11,0,0,0,3.25,13l-5,2.43h11.55a11.17,11.17,0,0,0,2.67-.25l102-22a25.83,25.83,0,0,0,19.81-30.68l-20.44-95a12.09,12.09,0,0,1,14.83-14.26,68.86,68.86,0,0,0,31.74.6C1476.51,554,1501.46,507.31,1481.53,465.09Z"/><path class="cls-9" d="M1408.33,426.24a69.83,69.83,0,0,0-44.51,15.57,11.72,11.72,0,0,1-18.83-6.66l-20.57-95.59a25.82,25.82,0,0,0-30.67-19.81L960.83,391.4a25.23,25.23,0,0,0-19.35,30l71.57,332.55A26.2,26.2,0,0,0,1044.17,774l92.68-20a16.13,16.13,0,0,0,8.81-26.34,69.23,69.23,0,1,1,116-18.35,11,11,0,0,0,12.47,15.15l102-22a25.83,25.83,0,0,0,19.82-30.68l-20.45-95a12.1,12.1,0,0,1,14.84-14.26,68.86,68.86,0,0,0,31.74.6c42.68-9.18,67.64-55.91,47.71-98.13C1459.74,443.84,1431.84,426.25,1408.33,426.24Z"/><path class="cls-3" d="M1286.53,299.82s20.76,3.4,26.21,16.9-2.16,22.65-5.08,22.62-8.53-2.19-11.16-9.2S1286.53,299.82,1286.53,299.82Z"/><path class="cls-3" d="M1000.66,360.07s23.31,0,31.69,13.75,1.74,25.14-1.47,25.64-9.71-.86-13.84-8S1000.66,360.07,1000.66,360.07Z"/><path class="cls-10" d="M1287.11,315.49c-2.07-.44-11.11-1.5-22.6-3.31-21.16-3.32-50.67-9.17-60.57-18.3-2.68-2.48-8.92-16.12-15.41-31.76-6.57,34.62-6.93,61.18-5.19,81.39l-143,30.79c12.27-24.79,31.25-55.54,27.69-80.42-1.32-9.23-6.37-21.88-8.26-36.1-.16-1.22-.29-2.45-.4-3.69-20.06,16.52-43.24,34.74-43.79,38.38-.93,6.11,14.69,73.73,14.69,73.73-3.88,8.93-20.72,7.05-20.72,7.05-15.79-11.27-39-75.15-37.14-89.3s59.41-94.8,73.35-114.07c13.76-19,64-18.57,65.21-18.56h0c40,24,43.56,4.05,43.56,4.05s36,6.85,42.24,17.5,33.36,91.4,35.28,94.24c4,5.95,69.7,29.74,70.87,36.63S1293,316.74,1287.11,315.49Z"/><path class="cls-11" d="M1090.17,363.61l-49.88,10.69c12.42-24.73,28.75-55.52,25.18-80.25-1.34-9.23-4.33-20.15-5.77-34.44-.14-1.37-.38-5.52-.38-5.52s35.32,27.8,35.94,57.88C1095.58,327.58,1092.86,348,1090.17,363.61Z"/><path class="cls-11" d="M1265.84,312.36c-21.42-3.32-51.29-9.17-61.31-18.3-2.72-2.49-9-16.14-15.61-31.8,0,0-2.31-25.17,4.27-24.23s16.26,45.58,23.17,48.4C1222.54,289,1256.73,302.08,1265.84,312.36Z"/><g id="man"><path class="cls-12" d="M2321.09,1271.28c-3,10.18-17,17-18.84,29.4a27,27,0,0,1-6.05,14h-43.4c.43-2.39,2.34-5,8-6.19,12-2.64,16.6-17.25,15.85-30.82-.31-5.68-.17-12.17.11-17.78.38-7.77,1-13.87,1-13.87l25.62-6,2.7,3.46,2.58,3.32S2324.1,1261.11,2321.09,1271.28Z"/><path class="cls-12" d="M2119,1314.7h-87.8c2-2.33,5.36-4.58,11.06-5.51,13.52-2.19,36.92-10,42.14-27.31.17-.55.32-1.12.45-1.7,4.14-18.46,34.29,5.66,34.29,5.66s.09.74.23,2C2119.88,1293,2121.06,1307.13,2119,1314.7Z"/><path class="cls-13" d="M2045.84,825.53s4.58,57.12,10,125.78c7.31,93.27,16.11,207.84,17,229.54,1.5,37.69,7.54,98,7.54,98s14.31,14.32,42.95,8.29c0,0,25.53-86.06,32.82-177.11.11-1.5.23-3,.34-4.5,6.78-92.7,17.33-287.89,17.33-287.89Z"/><path class="cls-12" d="M2045.84,825.53s4.58,57.12,10,125.78L2156.09,1110c.11-1.5.23-3,.34-4.5,6.78-92.7,17.33-287.89,17.33-287.89Z"/><path class="cls-13" d="M2066.75,832.31s82.52,206.87,136.78,304.08,71.21,124.35,71.21,124.35,31.09-12.44,33.92-20.92c0,0-20.75-187.68-57.09-233.43C2231,980.54,2206.92,903,2205.79,875.83s-7.35-80.82-7.35-80.82Z"/><path class="cls-14" d="M2109.07,513c-3.67-21.66-3.78-34.5-3.78-34.5l41.87-33.74c-1.56,46.39,28.17,68.7,28.17,68.7s-55.79,27.47-88,17.3A77.29,77.29,0,0,1,2109.07,513Z"/><path class="cls-15" d="M2095.43,477.72s53.26,8.85,58.26-24.4,15.24-54.51-18.55-61.57-42.33,4.64-46.7,15.33S2081.7,474.57,2095.43,477.72Z"/><path class="cls-15" d="M1908.35,546.28l-11.33-7s-14.14-20.88-38.29-7.91c0,0-9.57,6.1-3.15,11.21s4.69,2.22,13.59,9.62,20.4,10,27.82,6l9.52-.9Z"/><path class="cls-16" d="M1894.89,548.46c2.92-9.13,4.31-9.94,4.31-9.94s91.71,10.84,100.35,11.48,128.71-24.1,128.71-24.1L2185,594.74s-167.14,6.3-189,4.25c-36.15-3.38-101.7-37-101.7-37A26.77,26.77,0,0,1,1894.89,548.46Z"/><path class="cls-17" d="M2204.73,805.58c.16,3.55-7.16,7.45-10.33,8.88-23.94,10.73-46.24,18.19-71.43,20.61-29.88,3.07-65.19-3.65-77.29-3.5a5.2,5.2,0,0,1-3.4-1.28c-.8-.65-1.45-37.15-.8-83.16,0-1.78,0-3.73.15-5.5V741q.07-7.2.23-14.58c.3-13.45.81-27.26,1.39-41,.88-20.23,2.08-40.11,3.74-57.72,1.74-18.39,4-34.32,6.76-45.62,6.46-26,21.32-43.12,34.88-55.72l11.14-9.84a52.83,52.83,0,0,0,34.72-4.2c12.75-6.3,26.64-13.08,28.9-11.47,17.22,12.87,28.81,42.08,34.75,79.21a411.51,411.51,0,0,1,4.67,65.5q-.06,13.38-.83,27.11c-2.88,49,.08,91.54,1.77,116.25C2204.24,796,2204.62,801.69,2204.73,805.58Z"/><path class="cls-18" d="M1921.58,352.29l-336.85-53.5a26.25,26.25,0,0,0-30,21.81l-14.91,93.89c-.69,4.35.41,16.57.41,16.57l12.14,1.81a16.25,16.25,0,0,0,2.11.31h0a16.07,16.07,0,0,0,6.77-.92,69.42,69.42,0,1,1-24.83,115.08,10.9,10.9,0,0,0-6.57-3.11h0l-12.7-1.9-15.82,114.52a25.9,25.9,0,0,0,21.51,29.64L1619,701.77a12.14,12.14,0,0,1,8,19,69.07,69.07,0,0,0-12.06,29.45c-6.86,43.24,27.79,83.49,74.48,80.14,23.51-1.68,50-21.4,58.57-43.37a70,70,0,0,0,1.57-47.26,11.75,11.75,0,0,1,13-15.2L1859.41,740A25.88,25.88,0,0,0,1889,718.44l53.56-337.21A25.29,25.29,0,0,0,1921.58,352.29Z"/><path class="cls-16" d="M2164.62,579.07s-25.82,120.5-122.76,147.34c.3-13.45.81-27.26,1.39-41,.88-20.23,2.08-40.11,3.74-57.72a34.36,34.36,0,0,1,4.84-2.08C2084.73,614.79,2164.62,579.07,2164.62,579.07Z"/><path class="cls-19" d="M1735.52,785.15a69.94,69.94,0,0,0,1.56-47.26,11.76,11.76,0,0,1,13.05-15.2L1847,738.07a25.89,25.89,0,0,0,29.62-21.5l53.55-337.22a25.28,25.28,0,0,0-21-28.94l-336.85-53.5a26.26,26.26,0,0,0-30,21.81l-14.91,93.89a16.17,16.17,0,0,0,21.43,17.77,69.42,69.42,0,1,1-24.83,115.07,11.08,11.08,0,0,0-18.68,6.18L1488.82,655a25.9,25.9,0,0,0,21.52,29.64l96.22,15.28a12.13,12.13,0,0,1,8,19,69.13,69.13,0,0,0-12,29.45c-6.87,43.24,27.78,83.49,74.48,80.14C1700.45,826.84,1727,807.12,1735.52,785.15Z"/><path class="cls-15" d="M1908.75,624l-13.85-2.29s-15.79-22.85-43.31-10c0,0-10.92,6.11-3.7,11.82s5.3,2.57,15.29,10.83,23,11.55,31.47,7.52l10.8-.56Z"/><path class="cls-17" d="M1898.16,631c.45-10.19,5.87-11.28,5.87-11.28S2009,612.78,2018,611s92.61-71,92.61-71,32.31-29,54.95-19.24c19.67,8.52,25.83,25.32,26.82,40.77A44.89,44.89,0,0,1,2166.46,605c-37.53,17.53-112.58,51.94-129.67,54.9-38,6.61-135.81-14.57-135.81-14.57A32.08,32.08,0,0,1,1898.16,631Z"/><path class="cls-12" d="M2088.44,407.08s-21.62-16-7.52-40.93c0,0,17,5.63,41.17,0s45.77,2.35,48.59,10.8c0,0,9.4,3.76,10.34,17.86s-27.33,58.51-27.33,58.51-6-7.52-4.39-12.69,6.81-16.68.47-16.68-8.46,9.4-11,5.64,2.11-19.5-5.41-22.09S2096.9,411.84,2088.44,407.08Z"/></g><path class="cls-20" d="M1353.67,1302.7l-95.22-432.33h26.21a11.33,11.33,0,0,0,11.29-11.3v-14.6a11.33,11.33,0,0,0-11.29-11.3H952.17a11.34,11.34,0,0,0-11.3,11.3v14.6a11.34,11.34,0,0,0,11.3,11.3h33.74L890.69,1302.7a10.79,10.79,0,1,0,21.07,4.67l96.25-437h228.34l96.25,437a10.82,10.82,0,0,0,12.86,8.23h0A10.86,10.86,0,0,0,1353.67,1302.7Z"/><path class="cls-2" d="M1985.1,1037.94c-35.24-33.83-162.12,179.65-162.12,179.65S2020.35,1071.78,1985.1,1037.94Z"/><path class="cls-2" d="M1980.87,1136.63c-31.2-12.48-130.91,92.64-153.37,116.91a498.35,498.35,0,0,0-56.68-4.13c-157.9-2.82-229.52,68.69-229.52,68.69l440.46,1.5s-39-49.54-149.7-65.43c27-12.77,107-50,136.13-57.13C2003.43,1188.37,2016.12,1150.72,1980.87,1136.63Z"/><path class="cls-8" d="M1856.64,922.37h-95.06a16.17,16.17,0,0,0-14.19,24c5.75,10.4-14.46,100.49-57.05,102.84a69.43,69.43,0,0,1-60.5-109.31,11.07,11.07,0,0,0-9-17.48H1516.18a25.9,25.9,0,0,0-25.9,25.89s-9.48,112.31-17.55,108.28a69,69,0,0,0-27.36-7.18h-.09c-1.17-.06-2.35-.09-3.53-.09s-18.41-.3-18.41-.3l-2.61,138.79,15,.16c14.23-.43,26.57-1.76,37.55-7.35a11.75,11.75,0,0,1,17,10.5v98a25.89,25.89,0,0,0,25.89,25.88h341.44a25.29,25.29,0,0,0,25.29-25.29V948.62A26.26,26.26,0,0,0,1856.64,922.37Z"/><path class="cls-9" d="M1407.9,1186.13a70,70,0,0,0,46.92-5.87,11.75,11.75,0,0,1,17,10.51v98a25.89,25.89,0,0,0,25.89,25.89H1839.2a25.29,25.29,0,0,0,25.29-25.29V948.33a26.26,26.26,0,0,0-26.26-26.26h-95.06A16.17,16.17,0,0,0,1729,946a69.42,69.42,0,1,1-117.55-6.47,11.08,11.08,0,0,0-9-17.49H1497.77a25.9,25.9,0,0,0-25.9,25.9v97.43a12.13,12.13,0,0,1-17.55,10.85,69.11,69.11,0,0,0-31-7.29c-43.78,0-78.1,40.54-67.47,86.13C1361.22,1158,1384.86,1181.17,1407.9,1186.13Z"/><path class="cls-2" d="M419.29,1316.6l61.36.45s-2.13-14.85-43.44-18.68h0c-16-44.48-63.06-164.16-103.92-158.5-40.34,5.59,55.2,115.38,94.06,158.07a96.63,96.63,0,0,0-15.35,1.21c-9.37-18.64-27.93-45-57.72-43.79-31.71,1.28,11.49,30.24,41.23,48-15.07,5.4-23.2,12.88-23.2,12.88l46.28.34.84.45Z"/><path class="cls-7" d="M638.54,820.72l9.08,7.37s24.84-8.91,30.45,20.61c0,0,1.49,12.58-6.48,12.6s-4.68-1.37-16-1-20.64-5.62-22.29-14.78l-5.4-7.76Z"/><path class="cls-21" d="M637.51,836.54c7.25-7.56,6.66-13.15,6.66-13.15s-83.88-68.68-92.38-74.28c-5.8-3.81-67.58-58.57-96.46-92C441,640.59,423.27,647,403,652.84l-16.72,4.79c-20.18,5.79-25.43,34-8.87,47.75C424,744,501.62,787.47,516.14,796.6c36,22.68,106.59,49.62,106.59,49.62A44.67,44.67,0,0,0,637.51,836.54Z"/><path class="cls-22" d="M735.68,1257.77S756,1273,787.23,1265c0,0,25.15-5.73,30.67,6.82,0,0-38.57,19.59-48.33,25-7.36,4-15,10.41-20.46,15.34a10.12,10.12,0,0,1-14.65-1.13c-1.7-2.08-3.64-4.57-5.76-7.45-6-8.06-19.81-34.09-19.81-34.09Z"/><path class="cls-5" d="M745.19,1250.73s-12.4,28.58-41,23.33c0,0-58.39-48.22-98.44-98.31-13-16.27-24.08-32.74-30.59-47.81-26.56-61.49-98.24-153.2-143.81-199.68l114-41.25s36.53,73.47,85.12,163.72C665.51,1115.75,706.79,1189.49,745.19,1250.73Z"/><path class="cls-22" d="M630.48,1050.73l-24.74,125c-13-16.27-24.08-32.74-30.59-47.81-26.56-61.49-98.24-153.2-143.81-199.68l114-41.25S581.89,960.48,630.48,1050.73Z"/><path class="cls-22" d="M537,1274s-1.24,22.8,26.4,25.84c0,0,15.8.09,15.85,14.6l-80.36.26s-2.33-5.86-2.9-18.4c-.43-9.63,9.34-34.81,9.34-34.81Z"/><path class="cls-5" d="M508,887s50.8,55.82,83.05,156.38c17.54,54.71-32.16,192.27-41.85,240.07,0,0-33.34,2.83-56.14-6,0,0-1.73-98.72,11.6-174.81,7.46-42.58-66.88-91.07-99.37-168-22.1-52.34,4.79-51.45,37.83-52.71Z"/><path class="cls-3" d="M449.32,638c-28.26,16-86.12,1.24-86.12,1.24S386.7,612.36,376,569.1l22.19,11.27,23.84,12.1a197.72,197.72,0,0,1,2.61,21.37c.27,3.53.52,7.48.69,11.79A74.11,74.11,0,0,1,449.32,638Z"/><path class="cls-23" d="M553,884.13c0,5-5.72,7.34-6.94,7.58-11.4,2.09-43.23,14.47-71.9,17.31-24.14,2.53-46.56.12-71.19-4.82-3.26-.66-10.91-2.72-11.46-5.84-.68-3.42-95-192.26-21.67-273.38,1.72-1.9,16.19,1.53,29.43,4.67a54.35,54.35,0,0,0,33.44-2.73l12.41,6.53c15.25,8.49,44.08,38.66,47.46,62.34,1.71,12,8.6,21,10.59,31.55q1.11,5.88,2.27,11.47,2.25,11,4.64,20.9c4.31,17.91,8.86,33.32,13.33,46.64,4.76,14.14,9.42,25.9,13.59,35.74,5.41,12.76,10,22.29,12.83,29.6C551.8,876.83,553,880.86,553,884.13Z"/><path class="cls-21" d="M549.79,871.69C416.66,809,370.55,688.53,370.55,688.53s108.17,39.9,134.85,50.28q2.25,11,4.64,20.9c4.31,17.91,8.86,33.32,13.33,46.64,4.76,14.14,9.42,25.9,13.59,35.74C542.37,854.85,546.93,864.38,549.79,871.69Z"/><path class="cls-18" d="M925.82,738.29l-28.51-90.42a16.16,16.16,0,0,0-19.79-10.7h0c-.42.12-.83.27-1.25.42l-10,3.34s-15.65,16.12-26.89,19.37c-34.54,10-67.32-8.41-79.92-42.09-14-37.45,2.25-78.58,39.89-90.45,12.89-4.06,38.24,3.51,38.24,3.51l10.17-3.38A11,11,0,0,0,855.08,514L823.7,414.46a25.83,25.83,0,0,0-32.4-16.87l-92.68,29.23A12.1,12.1,0,0,1,683,413.38a68.84,68.84,0,0,0-2.36-31.65c-13.14-41.65-62-62.13-102.16-38.34-20.23,12-35.13,41.39-32.95,64.79a69.82,69.82,0,0,0,19.66,42.87,11.72,11.72,0,0,1-4.87,19.37l-93.25,29.41a25.82,25.82,0,0,0-16.86,32.39L552.67,857a25.22,25.22,0,0,0,31.64,16.46L908.72,771.14A26.18,26.18,0,0,0,925.82,738.29Z"/><path class="cls-19" d="M535.71,411.47a69.75,69.75,0,0,0,19.65,42.87,11.72,11.72,0,0,1-4.87,19.37l-93.25,29.41a25.82,25.82,0,0,0-16.86,32.39L542.8,860.28a25.22,25.22,0,0,0,31.64,16.46L898.86,774.43A26.19,26.19,0,0,0,916,741.58l-28.52-90.42a16.12,16.12,0,0,0-27-6.3,69.24,69.24,0,1,1-29.11-113.75,11,11,0,0,0,13.92-13.84l-31.38-99.53a25.83,25.83,0,0,0-32.4-16.86l-92.68,29.23a12.1,12.1,0,0,1-15.58-13.44A68.9,68.9,0,0,0,670.81,385c-13.14-41.64-62-62.12-102.16-38.34C548.42,358.65,533.52,388.07,535.71,411.47Z"/><path class="cls-3" d="M627.68,835.34l11.5,4.22s23-16.29,37.38,10.2c0,0,5.19,11.57-3,14.08s-5.23.15-16.77,4-22.92,1.07-27.28-7.17l-7.82-5.74Z"/><path class="cls-23" d="M637.14,851.61c4.26-11.1,6.2-16.13,6.2-16.13s-86.93-70.85-95.78-76.93c-6-4.14-66.13-49-95.42-84.06a61.3,61.3,0,0,0-59.6-20.65l-18.25,3.83c-22,4.62-29.19,32.51-12.1,47.16C410.33,746.1,491.52,794,506.66,803.92c37.58,24.71,120.7,59.34,120.7,59.34S633.8,860.32,637.14,851.61Z"/><path class="cls-7" d="M424.66,613.84c-27.79,1.56-45.87-21.39-45.87-21.39s12.57-7,19.42-12.08l23.84,12.1A197.72,197.72,0,0,1,424.66,613.84Z"/><path class="cls-3" d="M436.5,585.3S394.39,615.52,376,589s-36.25-40.47-10.14-60.89,38.41-14,46.71-6.61S447,576.76,436.5,585.3Z"/><path class="cls-22" d="M417,497.56a67.71,67.71,0,0,0-4.91-17.36s-2.64,10.95-22.64,9.44-51.72,2-62.29,24.76c-.67,1.45-1.27,3-1.8,4.47-1.91-5-2.38-12.63-2.38-12.63-3.8,9.82,0,22.1,0,22.1h0c-.06.35-.11.71-.16,1.07-4.41,3.73-8.12,15.34-8.12,15.34,1.33-3.24,4.58-5.35,7.48-6.65-.09,17.74,7.1,35.08,19.73,40.24,18.46,7.55,18.31,1.79,36.88,14.11,0,0,5-6.18,1.59-10.33s-16.23-10.19-9.06-16.23,9.81.75,12.45-3.4-10.56-16.23,6.42-27.56S418.5,507.75,417,497.56Z"/><path class="cls-24" d="M1501.05,1314.85s-21.29-31.48-54.62-28.94c-10.13.77-26.59,3.24-45.7,5.87-14.42-50.32-54.17-169.92-107.77-176.66-54.75-6.87,52.38,126.14,96.19,178.22-8,1.05-16.28,2.08-24.66,3-23.19-24.77-63.61-61.46-97.36-58.64s29.51,37.81,75.23,60.69c-28,2.1-54.65,1.87-70.91-4.41-39.81-15.4-76.4,20.88-76.4,20.88Z"/><rect class="cls-25" y="1314.69" width="2574.99" height="6.83" rx="2.92"/></g></g></svg>