<svg xmlns="http://www.w3.org/2000/svg" width="106.09" height="28.31" viewBox="0 0 106.09 28.31">
  <g id="appstore" transform="translate(0.038)">
    <g id="Badges">
      <path id="Path_20" data-name="Path 20" d="M16.81,13.16a5.61,5.61,0,0,1,2.68-4.72A5.75,5.75,0,0,0,15,6c-1.9-.2-3.75,1.14-4.73,1.14S7.74,6,6.12,6A6,6,0,0,0,1,9.14c-2.19,3.8-.55,9.39,1.55,12.47,1.05,1.5,2.28,3.19,3.89,3.13s2.17-1,4.07-1,2.44,1,4.08,1,2.76-1.51,3.77-3a12.47,12.47,0,0,0,1.73-3.52,5.42,5.42,0,0,1-3.28-5.06Z" fill="#fff"/>
      <path id="Path_21" data-name="Path 21" d="M13.71,4A5.58,5.58,0,0,0,15,0a5.61,5.61,0,0,0-3.64,1.89A5.26,5.26,0,0,0,10,5.7,4.65,4.65,0,0,0,13.71,4Z" fill="#fff"/>
      <path id="Path_22" data-name="Path 22" d="M39.61,24.52h-2.2l-1.2-3.79H32l-1.15,3.79H28.72l4.16-12.9h2.56Zm-3.77-5.38-1.09-3.37c-.11-.34-.33-1.15-.65-2.43h0c-.13.55-.33,1.36-.61,2.43l-1.07,3.37Z" fill="#fff"/>
      <path id="Path_23" data-name="Path 23" d="M50.3,19.75A5.32,5.32,0,0,1,49,23.51a3.79,3.79,0,0,1-2.86,1.22,2.86,2.86,0,0,1-2.64-1.32h0v4.9H41.41v-10c0-1,0-2-.07-3.06h1.82l.11,1.47h0a3.67,3.67,0,0,1,5.89-.36A5.14,5.14,0,0,1,50.3,19.75Zm-2.11.08a3.82,3.82,0,0,0-.61-2.24,2.19,2.19,0,0,0-3.19-.41,2.39,2.39,0,0,0-.81,1.33,2.51,2.51,0,0,0-.1.63v1.55a2.52,2.52,0,0,0,.62,1.72,2.27,2.27,0,0,0,3.44-.21A4,4,0,0,0,48.19,19.83Z" fill="#fff"/>
      <path id="Path_24" data-name="Path 24" d="M61,19.75a5.32,5.32,0,0,1-1.28,3.76,3.79,3.79,0,0,1-2.86,1.22,2.86,2.86,0,0,1-2.64-1.32h0v4.9h-2.1v-10c0-1,0-2-.08-3.06h1.82L54,16.69h0a3.67,3.67,0,0,1,5.89-.36A5.14,5.14,0,0,1,61,19.75Zm-2.11.08a3.82,3.82,0,0,0-.61-2.24,2.12,2.12,0,0,0-1.8-.92,2.15,2.15,0,0,0-1.39.51,2.39,2.39,0,0,0-.81,1.33,3.07,3.07,0,0,0-.1.63v1.55a2.48,2.48,0,0,0,.63,1.72,2.06,2.06,0,0,0,1.61.69,2.11,2.11,0,0,0,1.82-.9A3.91,3.91,0,0,0,58.89,19.83Z" fill="#fff"/>
      <path id="Path_25" data-name="Path 25" d="M73,20.9a3.42,3.42,0,0,1-1.15,2.68,5,5,0,0,1-3.51,1.13,6.22,6.22,0,0,1-3.35-.8l.48-1.73a5.66,5.66,0,0,0,3,.83,2.84,2.84,0,0,0,1.82-.53,1.73,1.73,0,0,0,.65-1.41,1.8,1.8,0,0,0-.54-1.32,4.94,4.94,0,0,0-1.78-1c-2.26-.84-3.39-2.08-3.39-3.7a3.29,3.29,0,0,1,1.19-2.61,4.67,4.67,0,0,1,3.16-1,6.26,6.26,0,0,1,2.93.62L72,13.72a5.15,5.15,0,0,0-2.47-.59,2.48,2.48,0,0,0-1.7.54,1.49,1.49,0,0,0-.52,1.16,1.6,1.6,0,0,0,.59,1.27,7,7,0,0,0,1.88,1,6.36,6.36,0,0,1,2.45,1.57A3.26,3.26,0,0,1,73,20.9Z" fill="#fff"/>
      <path id="Path_26" data-name="Path 26" d="M79.8,16.77H77.52v4.52c0,1.14.4,1.72,1.21,1.72a3.4,3.4,0,0,0,.92-.1l.06,1.57a4.54,4.54,0,0,1-1.61.23A2.51,2.51,0,0,1,76.18,24a3.68,3.68,0,0,1-.69-2.51V16.77H74.14V15.22h1.35V13.51l2-.61v2.32H79.8Z" fill="#fff"/>
      <path id="Path_27" data-name="Path 27" d="M90.08,19.79a5.11,5.11,0,0,1-1.22,3.52,4.37,4.37,0,0,1-3.41,1.42,4.13,4.13,0,0,1-3.26-1.36A4.94,4.94,0,0,1,81,20a5.09,5.09,0,0,1,1.25-3.55A4.36,4.36,0,0,1,85.6,15a4.28,4.28,0,0,1,3.3,1.36,4.93,4.93,0,0,1,1.18,3.43Zm-2.14.07a4.22,4.22,0,0,0-.56-2.21,2,2,0,0,0-1.85-1.11,2.09,2.09,0,0,0-1.9,1.11,4.29,4.29,0,0,0-.55,2.25,4.22,4.22,0,0,0,.55,2.21,2.09,2.09,0,0,0,1.88,1.11,2.06,2.06,0,0,0,1.85-1.13,4.14,4.14,0,0,0,.58-2.23Z" fill="#fff"/>
      <path id="Path_28" data-name="Path 28" d="M96.8,17a4.4,4.4,0,0,0-.65-.05,1.93,1.93,0,0,0-1.68.82A3.08,3.08,0,0,0,94,19.64v4.88H91.88V18.15c0-1.08,0-2-.08-2.93h1.81L93.7,17h.06a3.18,3.18,0,0,1,1-1.48,2.53,2.53,0,0,1,1.5-.5,3.77,3.77,0,0,1,.51,0Z" fill="#fff"/>
      <path id="Path_29" data-name="Path 29" d="M106.05,19.43a4.28,4.28,0,0,1-.08.94h-6.2a2.71,2.71,0,0,0,.9,2.1,3,3,0,0,0,2,.65,6.72,6.72,0,0,0,2.51-.44l.32,1.44a7.83,7.83,0,0,1-3.12.57A4.53,4.53,0,0,1,99,23.42,4.72,4.72,0,0,1,97.78,20a5.31,5.31,0,0,1,1.15-3.5,3.94,3.94,0,0,1,3.25-1.5,3.46,3.46,0,0,1,3,1.49,5,5,0,0,1,.87,2.94Zm-2-.54a2.85,2.85,0,0,0-.4-1.59,1.82,1.82,0,0,0-1.65-.86,2,2,0,0,0-1.65.84,3.13,3.13,0,0,0-.61,1.61Z" fill="#fff"/>
      <path id="Path_30" data-name="Path 30" d="M35.16,3.68a3.14,3.14,0,0,1-1,2.57,4,4,0,0,1-2.7.8A12.66,12.66,0,0,1,30,7V.74A10.65,10.65,0,0,1,31.7.61a3.72,3.72,0,0,1,2.51.73,2.92,2.92,0,0,1,.95,2.34Zm-1.07,0A2.35,2.35,0,0,0,33.5,2a2.33,2.33,0,0,0-1.72-.59,3.92,3.92,0,0,0-.82.07V6.22a5.29,5.29,0,0,0,.69,0,2.4,2.4,0,0,0,1.8-.65,2.59,2.59,0,0,0,.64-1.86Z" fill="#fff"/>
      <path id="Path_31" data-name="Path 31" d="M40.84,4.67a2.5,2.5,0,0,1-.6,1.73,2.14,2.14,0,0,1-1.68.7A2,2,0,0,1,37,6.43a2.4,2.4,0,0,1-.6-1.68A2.49,2.49,0,0,1,37,3a2.33,2.33,0,0,1,3.28,0,2.39,2.39,0,0,1,.56,1.67Zm-1.05,0a2,2,0,0,0-.28-1.09,1.054,1.054,0,0,0-1.84,0,2.12,2.12,0,0,0-.27,1.11,2.06,2.06,0,0,0,.27,1.08,1,1,0,0,0,1.83,0,2,2,0,0,0,.29-1.06Z" fill="#fff"/>
      <path id="Path_32" data-name="Path 32" d="M48.46,2.43,47,7h-.9l-.6-2a13.108,13.108,0,0,1-.36-1.47h0A10.539,10.539,0,0,1,44.75,5l-.63,2h-.94L41.84,2.43h1L43.4,4.6c.12.51.23,1,.31,1.47h0c.07-.39.2-.87.37-1.46l.65-2.18h.83l.62,2.13c.15.52.27,1,.37,1.51h0a11.941,11.941,0,0,1,.31-1.51l.55-2.13Z" fill="#fff"/>
      <path id="Path_33" data-name="Path 33" d="M53.73,7h-1V4.38c0-.81-.31-1.21-.92-1.21a.9.9,0,0,0-.73.33,1.18,1.18,0,0,0-.29.79V7h-1V2.43h.89v.71h0a1.4,1.4,0,0,1,.53-.55,1.7,1.7,0,0,1,.92-.26,1.45,1.45,0,0,1,1.06.42,2,2,0,0,1,.53,1.51Z" fill="#fff"/>
      <path id="Path_34" data-name="Path 34" d="M56.53,7h-1V.33h1Z" fill="#fff"/>
      <path id="Path_35" data-name="Path 35" d="M62.51,4.67a2.5,2.5,0,0,1-.6,1.73,2.13,2.13,0,0,1-1.67.7,2,2,0,0,1-1.61-.67A2.4,2.4,0,0,1,58,4.75,2.49,2.49,0,0,1,58.65,3a2.33,2.33,0,0,1,3.28,0,2.39,2.39,0,0,1,.58,1.67Zm-1,0a2,2,0,0,0-.28-1.09,1.054,1.054,0,0,0-1.84,0,2.12,2.12,0,0,0-.27,1.11,2.06,2.06,0,0,0,.27,1.08,1.032,1.032,0,0,0,1.83-.01,2,2,0,0,0,.24-1.05Z" fill="#fff"/>
      <path id="Path_36" data-name="Path 36" d="M67.43,7h-.91l-.08-.53h0a1.55,1.55,0,0,1-1.33.63,1.42,1.42,0,0,1-1-.41,1.33,1.33,0,0,1-.35-.93,1.41,1.41,0,0,1,.7-1.28,3.64,3.64,0,0,1,2-.44V4c0-.6-.32-.9-.95-.9a2.15,2.15,0,0,0-1.19.33L64,2.73a2.89,2.89,0,0,1,1.57-.4c1.2,0,1.79.63,1.79,1.89V5.91A7.619,7.619,0,0,0,67.43,7ZM66.38,5.43V4.72c-1.13,0-1.69.29-1.69.92a.7.7,0,0,0,.2.54.71.71,0,0,0,.5.18A1,1,0,0,0,66,6.15a.85.85,0,0,0,.35-.54A.9.9,0,0,0,66.38,5.43Z" fill="#fff"/>
      <path id="Path_37" data-name="Path 37" d="M73.21,7H72.3V6.26h0a1.52,1.52,0,0,1-1.47.84,1.72,1.72,0,0,1-1.37-.65,2.48,2.48,0,0,1-.55-1.68A2.69,2.69,0,0,1,69.43,3a1.87,1.87,0,0,1,1.42-.64A1.36,1.36,0,0,1,72.13,3h0V.33h1V5.77C73.17,6.21,73.18,6.62,73.21,7ZM72.15,5.07V4.31a1.39,1.39,0,0,0,0-.32,1.15,1.15,0,0,0-.36-.62,1,1,0,0,0-.68-.25,1.06,1.06,0,0,0-.9.45,2,2,0,0,0-.32,1.16,1.79,1.79,0,0,0,.31,1.1,1.05,1.05,0,0,0,.89.45,1,1,0,0,0,.8-.37A1.25,1.25,0,0,0,72.15,5.07Z" fill="#fff"/>
      <path id="Path_38" data-name="Path 38" d="M81.9,4.67a2.46,2.46,0,0,1-.61,1.73,2.12,2.12,0,0,1-1.67.7A2,2,0,0,1,78,6.43a2.4,2.4,0,0,1-.6-1.68A2.48,2.48,0,0,1,78,3a2.17,2.17,0,0,1,1.67-.68A2.08,2.08,0,0,1,81.31,3a2.4,2.4,0,0,1,.59,1.67Zm-1.06,0a2.1,2.1,0,0,0-.27-1.09,1.05,1.05,0,0,0-1.84,0,2,2,0,0,0-.28,1.11,2,2,0,0,0,.28,1.08,1,1,0,0,0,1.83,0,2,2,0,0,0,.28-1.06Z" fill="#fff"/>
      <path id="Path_39" data-name="Path 39" d="M87.36,7h-1V4.38c0-.81-.31-1.21-.93-1.21a.92.92,0,0,0-.73.33,1.18,1.18,0,0,0-.28.79V7h-1V2.43h.9v.71h0a1.47,1.47,0,0,1,.53-.55,1.73,1.73,0,0,1,.92-.26,1.43,1.43,0,0,1,1.06.42,2,2,0,0,1,.53,1.51Z" fill="#fff"/>
      <path id="Path_40" data-name="Path 40" d="M94.2,3.19H93.08V5.41c0,.56.2.84.59.84a2,2,0,0,0,.46,0v.77a2.42,2.42,0,0,1-.79.11,1.21,1.21,0,0,1-.94-.37,1.81,1.81,0,0,1-.34-1.23V3.19H91.4V2.43h.66V1.59l1-.3V2.43H94.2Z" fill="#fff"/>
      <path id="Path_41" data-name="Path 41" d="M99.58,7h-1V4.4c0-.82-.3-1.23-.92-1.23a1,1,0,0,0-1,.71,1.31,1.31,0,0,0,0,.37V7h-1V.33h1V3.08h0A1.54,1.54,0,0,1,98,2.33a1.39,1.39,0,0,1,1,.42,2,2,0,0,1,.52,1.53Z" fill="#fff"/>
      <path id="Path_42" data-name="Path 42" d="M105.13,4.5a2.07,2.07,0,0,1,0,.46h-3a1.33,1.33,0,0,0,.45,1,1.51,1.51,0,0,0,1,.32,3.3,3.3,0,0,0,1.24-.22l.16.71a3.85,3.85,0,0,1-1.54.28,2.25,2.25,0,0,1-1.67-.62,2.33,2.33,0,0,1-.6-1.68,2.58,2.58,0,0,1,.56-1.72,2,2,0,0,1,1.6-.74,1.68,1.68,0,0,1,1.49.74A2.4,2.4,0,0,1,105.13,4.5Zm-1-.27a1.34,1.34,0,0,0-.2-.78.88.88,0,0,0-.81-.42,1,1,0,0,0-.8.41,1.63,1.63,0,0,0-.31.79Z" fill="#fff"/>
    </g>
  </g>
</svg>
