<svg xmlns="http://www.w3.org/2000/svg" viewBox="0 0 2842.43 1489.44"><defs><style>.cls-1{fill:#ebf3fa;}.cls-2{fill:#d9e7fa;}.cls-3{fill:#dce9fa;}.cls-4{fill:#dceaf9;}.cls-5,.cls-7{fill:#f8fbff;}.cls-5{opacity:0.5;}.cls-6{fill:#c7dcf9;}.cls-8{fill:#82b378;}.cls-9{fill:#f99746;}.cls-10{fill:#ed7d2b;}.cls-11{fill:#ffb27d;}.cls-12{fill:#233862;}.cls-13{fill:#2a4e96;}.cls-14{fill:#ed985f;}.cls-15{fill:#2c3a64;}.cls-16{fill:#fff;}.cls-17{fill:#a2c5f9;}.cls-18{fill:#afcdfb;}.cls-19{fill:#d2e4f9;}.cls-20{fill:#ed975d;}.cls-21{fill:#a8d29f;}.cls-22{fill:#2e3552;}.cls-23{fill:#d36d1a;}.cls-24{fill:#f49540;}.cls-25{fill:#ffa255;}</style></defs><g id="Layer_2" data-name="Layer 2"><g id="Слой_1" data-name="Слой 1"><path class="cls-1" d="M176,1487C109.26,1308.93,57.85,1101.64,65.16,911.89c6.25-146.69,44.21-304,236.38-484.68C679.05,74,1111.87,414.82,1379.68,177.76c261.85-231.56,751.82-235,971-21.35,111.3,111.24,132.75,248.5,92.71,397.25-12.37,45.56-28.77,86.5-48.65,128.74-59.9,125.3-10.56,200.35,65,269,65.79,60,138,105.41,192.54,180.83,76.78,108.66,57.11,235.09-3.22,355.48Z"/><rect class="cls-2" x="1384.69" y="813.16" width="155.84" height="572.93" transform="translate(2925.22 2199.25) rotate(180)"/><rect class="cls-3" x="1349.69" y="813.16" width="155.84" height="572.93" transform="translate(2855.21 2199.25) rotate(180)"/><rect class="cls-2" x="1349.69" y="849.63" width="155.8" height="41.35"/><rect class="cls-2" x="1349.69" y="939.32" width="155.8" height="41.36"/><rect class="cls-2" x="1349.69" y="1029.01" width="155.8" height="41.35"/><rect class="cls-2" x="1349.69" y="1118.7" width="155.8" height="41.35"/><rect class="cls-2" x="1349.69" y="1208.4" width="155.8" height="41.35"/><rect class="cls-2" x="1349.69" y="1298.09" width="155.8" height="41.35"/><rect class="cls-2" x="1135.56" y="878.9" width="155.84" height="507.19" transform="translate(2426.96 2264.99) rotate(180)"/><rect class="cls-3" x="1100.56" y="878.9" width="155.84" height="507.19" transform="translate(2356.95 2264.99) rotate(180)"/><rect class="cls-2" x="1100.56" y="925.54" width="155.8" height="35.5"/><rect class="cls-2" x="1100.56" y="1002.54" width="155.8" height="35.5"/><rect class="cls-2" x="1100.56" y="1079.54" width="155.8" height="35.5"/><rect class="cls-2" x="1100.56" y="1156.54" width="155.8" height="35.5"/><rect class="cls-2" x="1100.56" y="1233.54" width="155.8" height="35.5"/><rect class="cls-2" x="1100.56" y="1310.54" width="155.8" height="35.5"/><rect class="cls-4" x="1559.62" y="1364.14" width="65.26" height="89.87"/><path class="cls-3" d="M2649,1487.68c60.33-120.39,80-246.82,3.22-355.48-54.54-75.39-126.68-120.84-192.45-180.75H2316.88V795.94h-98.69v101h-22.51V776.36H2097v226H1972.17v131.78h-46.63v33.18H1818.41v-57.16h-61.5V954.8h-76v286.73h-76v245.86Z"/><rect class="cls-2" x="2096.93" y="791.62" width="98.75" height="23.02"/><rect class="cls-2" x="2096.93" y="834.87" width="98.75" height="23.02"/><rect class="cls-2" x="2096.93" y="873.79" width="98.75" height="23.02"/><rect class="cls-2" x="2218.11" y="873.79" width="98.75" height="23.02"/><rect class="cls-2" x="2218.11" y="834.87" width="98.75" height="23.02"/><rect class="cls-2" x="2218.11" y="796.02" width="98.75" height="23.02"/><rect class="cls-2" x="2096.93" y="911.52" width="219.95" height="23.02"/><rect class="cls-2" x="2096.93" y="949.25" width="219.95" height="23.02"/><rect class="cls-2" x="1680.96" y="954.83" width="76.64" height="35.54"/><rect class="cls-2" x="1680.96" y="1007.68" width="76.64" height="35.54"/><rect class="cls-2" x="1680.96" y="1060.53" width="76.64" height="35.54"/><rect class="cls-2" x="1680.96" y="1115.94" width="76.64" height="35.54"/><rect class="cls-2" x="1680.96" y="1169.62" width="76.64" height="35.54"/><rect class="cls-2" x="1680.96" y="1223.31" width="76.64" height="35.54"/><rect class="cls-2" x="1680.96" y="1279.47" width="76.64" height="35.54"/><rect class="cls-2" x="2096.93" y="986.12" width="219.95" height="14.62"/><rect class="cls-2" x="1756.54" y="954.83" width="28.26" height="155.31"/><rect class="cls-2" x="1818.41" y="1110.14" width="56.85" height="57.16"/><path class="cls-2" d="M2316.85,796v23l0,92.47v39.94h19.59V797.85l-2.64-1.83Z"/><rect class="cls-2" x="2195.68" y="776.37" width="12.04" height="120.44"/><rect class="cls-2" x="1992.56" y="1025.01" width="16.73" height="22.27"/><rect class="cls-2" x="2023.85" y="1025.01" width="16.73" height="22.27"/><rect class="cls-2" x="2054.44" y="1025.01" width="16.73" height="22.27"/><rect class="cls-2" x="2083.44" y="1025.01" width="16.73" height="22.27"/><rect class="cls-2" x="2113" y="1025.01" width="16.73" height="22.27"/><rect class="cls-2" x="2142.89" y="1025.01" width="16.73" height="22.27"/><rect class="cls-2" x="2174.18" y="1025.01" width="16.73" height="22.27"/><rect class="cls-2" x="2204.77" y="1025.01" width="16.73" height="22.27"/><rect class="cls-2" x="2233.77" y="1025.01" width="16.73" height="22.27"/><rect class="cls-2" x="2263.33" y="1025.01" width="16.73" height="22.27"/><rect class="cls-2" x="2294.13" y="1025.01" width="16.73" height="22.27"/><rect class="cls-2" x="2325.42" y="1025.01" width="16.73" height="22.27"/><rect class="cls-2" x="2356" y="1025.01" width="16.73" height="22.27"/><rect class="cls-2" x="2385" y="1025.01" width="16.73" height="22.27"/><rect class="cls-2" x="2414.56" y="1025.01" width="16.73" height="22.27"/><rect class="cls-2" x="2444.46" y="1025.01" width="16.73" height="22.27"/><rect class="cls-2" x="1992.56" y="1064.31" width="16.73" height="22.27"/><rect class="cls-2" x="2023.85" y="1064.31" width="16.73" height="22.27"/><rect class="cls-2" x="2054.44" y="1064.31" width="16.73" height="22.27"/><rect class="cls-2" x="2083.44" y="1064.31" width="16.73" height="22.27"/><rect class="cls-2" x="2113" y="1064.31" width="16.73" height="22.27"/><rect class="cls-2" x="2142.89" y="1064.31" width="16.73" height="22.27"/><rect class="cls-2" x="2174.18" y="1064.31" width="16.73" height="22.27"/><rect class="cls-2" x="2204.77" y="1064.31" width="16.73" height="22.27"/><rect class="cls-2" x="2233.77" y="1064.31" width="16.73" height="22.27"/><rect class="cls-2" x="2263.33" y="1064.31" width="16.73" height="22.27"/><rect class="cls-2" x="2294.13" y="1064.31" width="16.73" height="22.27"/><rect class="cls-2" x="2325.42" y="1064.31" width="16.73" height="22.27"/><rect class="cls-2" x="2356" y="1064.31" width="16.73" height="22.27"/><rect class="cls-2" x="2385" y="1064.31" width="16.73" height="22.27"/><rect class="cls-2" x="2414.56" y="1064.31" width="16.73" height="22.27"/><rect class="cls-2" x="2444.46" y="1064.31" width="16.73" height="22.27"/><rect class="cls-2" x="1992.56" y="1103" width="16.73" height="22.27"/><rect class="cls-2" x="2023.85" y="1103" width="16.73" height="22.27"/><rect class="cls-2" x="2054.44" y="1103" width="16.73" height="22.27"/><rect class="cls-2" x="2083.44" y="1103" width="16.73" height="22.27"/><rect class="cls-2" x="2113" y="1103" width="16.73" height="22.27"/><rect class="cls-2" x="2142.89" y="1103" width="16.73" height="22.27"/><rect class="cls-2" x="2174.18" y="1103" width="16.73" height="22.27"/><rect class="cls-2" x="2204.77" y="1103" width="16.73" height="22.27"/><rect class="cls-2" x="2233.77" y="1103" width="16.73" height="22.27"/><rect class="cls-2" x="2263.33" y="1103" width="16.73" height="22.27"/><rect class="cls-2" x="2294.13" y="1103" width="16.73" height="22.27"/><rect class="cls-2" x="2325.42" y="1103" width="16.73" height="22.27"/><rect class="cls-2" x="2356" y="1103" width="16.73" height="22.27"/><rect class="cls-2" x="2385" y="1103" width="16.73" height="22.27"/><rect class="cls-2" x="2414.56" y="1103" width="16.73" height="22.27"/><rect class="cls-2" x="2444.46" y="1103" width="16.73" height="22.27"/><rect class="cls-2" x="1992.56" y="1144.11" width="16.73" height="22.27"/><rect class="cls-2" x="2023.85" y="1144.11" width="16.73" height="22.27"/><rect class="cls-2" x="2054.44" y="1144.11" width="16.73" height="22.27"/><rect class="cls-2" x="2083.44" y="1144.11" width="16.73" height="22.27"/><rect class="cls-2" x="2113" y="1144.11" width="16.73" height="22.27"/><rect class="cls-2" x="2142.89" y="1144.11" width="16.73" height="22.27"/><rect class="cls-2" x="2174.18" y="1144.11" width="16.73" height="22.27"/><rect class="cls-2" x="2204.77" y="1144.11" width="16.73" height="22.27"/><rect class="cls-2" x="2233.77" y="1144.11" width="16.73" height="22.27"/><rect class="cls-2" x="2263.33" y="1144.11" width="16.73" height="22.27"/><rect class="cls-2" x="2294.13" y="1144.11" width="16.73" height="22.27"/><rect class="cls-2" x="2325.42" y="1144.11" width="16.73" height="22.27"/><rect class="cls-2" x="2356" y="1144.11" width="16.73" height="22.27"/><rect class="cls-2" x="2385" y="1144.11" width="16.73" height="22.27"/><rect class="cls-2" x="2414.56" y="1144.11" width="16.73" height="22.27"/><rect class="cls-2" x="2444.46" y="1144.11" width="16.73" height="22.27"/><rect class="cls-2" x="1992.56" y="1183.41" width="16.73" height="22.27"/><rect class="cls-2" x="2023.85" y="1183.41" width="16.73" height="22.27"/><rect class="cls-2" x="2054.44" y="1183.41" width="16.73" height="22.27"/><rect class="cls-2" x="2083.44" y="1183.41" width="16.73" height="22.27"/><rect class="cls-2" x="2113" y="1183.41" width="16.73" height="22.27"/><rect class="cls-2" x="2142.89" y="1183.41" width="16.73" height="22.27"/><rect class="cls-2" x="2174.18" y="1183.41" width="16.73" height="22.27"/><rect class="cls-2" x="2204.77" y="1183.41" width="16.73" height="22.27"/><rect class="cls-2" x="2233.77" y="1183.41" width="16.73" height="22.27"/><rect class="cls-2" x="2263.33" y="1183.41" width="16.73" height="22.27"/><rect class="cls-2" x="2294.13" y="1183.41" width="16.73" height="22.27"/><rect class="cls-2" x="2325.42" y="1183.41" width="16.73" height="22.27"/><rect class="cls-2" x="2356" y="1183.41" width="16.73" height="22.27"/><rect class="cls-2" x="2385" y="1183.41" width="16.73" height="22.27"/><rect class="cls-2" x="2414.56" y="1183.41" width="16.73" height="22.27"/><rect class="cls-2" x="2444.46" y="1183.41" width="16.73" height="22.27"/><rect class="cls-2" x="1992.56" y="1222.11" width="16.73" height="22.27"/><rect class="cls-2" x="2023.85" y="1222.11" width="16.73" height="22.27"/><rect class="cls-2" x="2054.44" y="1222.11" width="16.73" height="22.27"/><rect class="cls-2" x="2083.44" y="1222.11" width="16.73" height="22.27"/><rect class="cls-2" x="2113" y="1222.11" width="16.73" height="22.27"/><rect class="cls-2" x="2142.89" y="1222.11" width="16.73" height="22.27"/><rect class="cls-2" x="2174.18" y="1222.11" width="16.73" height="22.27"/><rect class="cls-2" x="2204.77" y="1222.11" width="16.73" height="22.27"/><rect class="cls-2" x="2233.77" y="1222.11" width="16.73" height="22.27"/><rect class="cls-2" x="2263.33" y="1222.11" width="16.73" height="22.27"/><rect class="cls-2" x="2294.13" y="1222.11" width="16.73" height="22.27"/><rect class="cls-2" x="2325.42" y="1222.11" width="16.73" height="22.27"/><rect class="cls-2" x="2356" y="1222.11" width="16.73" height="22.27"/><rect class="cls-2" x="2385" y="1222.11" width="16.73" height="22.27"/><rect class="cls-2" x="2414.56" y="1222.11" width="16.73" height="22.27"/><rect class="cls-2" x="2444.46" y="1222.11" width="16.73" height="22.27"/><rect class="cls-2" x="1875.25" y="1291.88" width="387.79" height="197.56"/><rect class="cls-2" x="1581.2" y="1390.66" width="387.79" height="98.78"/><rect class="cls-3" x="1901.16" y="1315.01" width="72.25" height="36.59"/><rect class="cls-3" x="1993.9" y="1315.01" width="72.25" height="36.59"/><rect class="cls-3" x="2084.88" y="1315.01" width="72.25" height="36.59"/><rect class="cls-3" x="2174.11" y="1315.01" width="72.25" height="36.59"/><rect class="cls-4" x="1696.21" y="939.36" width="2.02" height="15.47"/><rect class="cls-4" x="1768.63" y="939.36" width="2.02" height="15.47"/><rect class="cls-3" x="1372.36" y="1318.74" width="266.26" height="169.1"/><rect class="cls-2" x="1372.36" y="1296.64" width="266.26" height="54.96"/><rect class="cls-2" x="1390.49" y="1367.89" width="13.67" height="18.2"/><rect class="cls-2" x="1416.06" y="1367.89" width="13.67" height="18.2"/><rect class="cls-2" x="1441.06" y="1367.89" width="13.67" height="18.2"/><rect class="cls-2" x="1464.76" y="1367.89" width="13.67" height="18.2"/><rect class="cls-2" x="1488.92" y="1367.89" width="13.67" height="18.2"/><rect class="cls-2" x="1513.36" y="1367.89" width="13.67" height="18.2"/><rect class="cls-2" x="1538.93" y="1367.89" width="13.67" height="18.2"/><rect class="cls-2" x="1563.93" y="1367.89" width="13.67" height="18.2"/><rect class="cls-2" x="1587.63" y="1367.89" width="13.67" height="18.2"/><rect class="cls-2" x="1611.79" y="1367.89" width="13.67" height="18.2"/><rect class="cls-2" x="1390.49" y="1400.01" width="13.67" height="18.2"/><rect class="cls-2" x="1416.06" y="1400.01" width="13.67" height="18.2"/><rect class="cls-2" x="1441.06" y="1400.01" width="13.67" height="18.2"/><rect class="cls-2" x="1464.76" y="1400.01" width="13.67" height="18.2"/><rect class="cls-2" x="1488.92" y="1400.01" width="13.67" height="18.2"/><rect class="cls-2" x="1513.36" y="1400.01" width="13.67" height="18.2"/><rect class="cls-2" x="1538.93" y="1400.01" width="13.67" height="18.2"/><rect class="cls-2" x="1563.93" y="1400.01" width="13.67" height="18.2"/><rect class="cls-2" x="1587.63" y="1400.01" width="13.67" height="18.2"/><rect class="cls-2" x="1611.79" y="1400.01" width="13.67" height="18.2"/><rect class="cls-2" x="1390.49" y="1431.64" width="13.67" height="18.2"/><rect class="cls-2" x="1416.06" y="1431.64" width="13.67" height="18.2"/><rect class="cls-2" x="1441.06" y="1431.64" width="13.67" height="18.2"/><rect class="cls-2" x="1464.76" y="1431.64" width="13.67" height="18.2"/><rect class="cls-2" x="1488.92" y="1431.64" width="13.67" height="18.2"/><rect class="cls-2" x="1513.36" y="1431.64" width="13.67" height="18.2"/><rect class="cls-2" x="1538.93" y="1431.64" width="13.67" height="18.2"/><rect class="cls-2" x="1563.93" y="1431.64" width="13.67" height="18.2"/><rect class="cls-2" x="1587.63" y="1431.64" width="13.67" height="18.2"/><rect class="cls-2" x="1611.79" y="1431.64" width="13.67" height="18.2"/><rect class="cls-3" x="1105.36" y="1318.74" width="266.26" height="169.1"/><rect class="cls-2" x="1105.36" y="1296.64" width="266.26" height="54.96"/><rect class="cls-2" x="1123.49" y="1367.89" width="13.67" height="18.2"/><rect class="cls-2" x="1149.06" y="1367.89" width="13.67" height="18.2"/><rect class="cls-2" x="1174.06" y="1367.89" width="13.67" height="18.2"/><rect class="cls-2" x="1197.77" y="1367.89" width="13.67" height="18.2"/><rect class="cls-2" x="1221.92" y="1367.89" width="13.67" height="18.2"/><rect class="cls-2" x="1246.36" y="1367.89" width="13.67" height="18.2"/><rect class="cls-2" x="1271.93" y="1367.89" width="13.67" height="18.2"/><rect class="cls-2" x="1296.93" y="1367.89" width="13.67" height="18.2"/><rect class="cls-2" x="1320.63" y="1367.89" width="13.67" height="18.2"/><rect class="cls-2" x="1344.79" y="1367.89" width="13.67" height="18.2"/><rect class="cls-2" x="1123.49" y="1400.01" width="13.67" height="18.2"/><rect class="cls-2" x="1149.06" y="1400.01" width="13.67" height="18.2"/><rect class="cls-2" x="1174.06" y="1400.01" width="13.67" height="18.2"/><rect class="cls-2" x="1197.77" y="1400.01" width="13.67" height="18.2"/><rect class="cls-2" x="1221.92" y="1400.01" width="13.67" height="18.2"/><rect class="cls-2" x="1246.36" y="1400.01" width="13.67" height="18.2"/><rect class="cls-2" x="1271.93" y="1400.01" width="13.67" height="18.2"/><rect class="cls-2" x="1296.93" y="1400.01" width="13.67" height="18.2"/><rect class="cls-2" x="1320.63" y="1400.01" width="13.67" height="18.2"/><rect class="cls-2" x="1344.79" y="1400.01" width="13.67" height="18.2"/><rect class="cls-2" x="1123.49" y="1431.64" width="13.67" height="18.2"/><rect class="cls-2" x="1149.06" y="1431.64" width="13.67" height="18.2"/><rect class="cls-2" x="1174.06" y="1431.64" width="13.67" height="18.2"/><rect class="cls-2" x="1197.77" y="1431.64" width="13.67" height="18.2"/><rect class="cls-2" x="1221.92" y="1431.64" width="13.67" height="18.2"/><rect class="cls-2" x="1246.36" y="1431.64" width="13.67" height="18.2"/><rect class="cls-2" x="1271.93" y="1431.64" width="13.67" height="18.2"/><rect class="cls-2" x="1296.93" y="1431.64" width="13.67" height="18.2"/><rect class="cls-2" x="1320.63" y="1431.64" width="13.67" height="18.2"/><rect class="cls-2" x="1344.79" y="1431.64" width="13.67" height="18.2"/><rect class="cls-3" x="821.75" y="1318.74" width="266.26" height="169.1"/><rect class="cls-2" x="821.75" y="1296.64" width="266.26" height="54.96"/><rect class="cls-2" x="839.88" y="1367.89" width="13.67" height="18.2"/><rect class="cls-2" x="865.45" y="1367.89" width="13.67" height="18.2"/><rect class="cls-2" x="890.45" y="1367.89" width="13.67" height="18.2"/><rect class="cls-2" x="914.16" y="1367.89" width="13.67" height="18.2"/><rect class="cls-2" x="938.31" y="1367.89" width="13.67" height="18.2"/><rect class="cls-2" x="962.75" y="1367.89" width="13.67" height="18.2"/><rect class="cls-2" x="988.32" y="1367.89" width="13.67" height="18.2"/><rect class="cls-2" x="1013.32" y="1367.89" width="13.67" height="18.2"/><rect class="cls-2" x="1037.02" y="1367.89" width="13.67" height="18.2"/><rect class="cls-2" x="1061.18" y="1367.89" width="13.67" height="18.2"/><rect class="cls-2" x="839.88" y="1400.01" width="13.67" height="18.2"/><rect class="cls-2" x="865.45" y="1400.01" width="13.67" height="18.2"/><rect class="cls-2" x="890.45" y="1400.01" width="13.67" height="18.2"/><rect class="cls-2" x="914.16" y="1400.01" width="13.67" height="18.2"/><rect class="cls-2" x="938.31" y="1400.01" width="13.67" height="18.2"/><rect class="cls-2" x="962.75" y="1400.01" width="13.67" height="18.2"/><rect class="cls-2" x="988.32" y="1400.01" width="13.67" height="18.2"/><rect class="cls-2" x="1013.32" y="1400.01" width="13.67" height="18.2"/><rect class="cls-2" x="1037.02" y="1400.01" width="13.67" height="18.2"/><rect class="cls-2" x="1061.18" y="1400.01" width="13.67" height="18.2"/><rect class="cls-2" x="839.88" y="1431.64" width="13.67" height="18.2"/><rect class="cls-2" x="865.45" y="1431.64" width="13.67" height="18.2"/><rect class="cls-2" x="890.45" y="1431.64" width="13.67" height="18.2"/><rect class="cls-2" x="914.16" y="1431.64" width="13.67" height="18.2"/><rect class="cls-2" x="938.31" y="1431.64" width="13.67" height="18.2"/><rect class="cls-2" x="962.75" y="1431.64" width="13.67" height="18.2"/><rect class="cls-2" x="988.32" y="1431.64" width="13.67" height="18.2"/><rect class="cls-2" x="1013.32" y="1431.64" width="13.67" height="18.2"/><rect class="cls-2" x="1037.02" y="1431.64" width="13.67" height="18.2"/><rect class="cls-2" x="1061.18" y="1431.64" width="13.67" height="18.2"/><path class="cls-5" d="M2443.37,553.66c40-148.75,18.59-286-92.71-397.25-1.45-1.41-2.92-2.81-4.39-4.2L85.56,764.91c-13,50.41-18.36,99.26-20.4,147q-.93,24.36-.6,49.08l2336.15-291.5C2417.9,631.74,2432.26,594.55,2443.37,553.66Z"/><path class="cls-6" d="M1551.6,1481.51H173.83c-4.44-11.28-15.27-39.64-28.48-80.14-9.54-29.22-20.3-64.76-30.8-104.77-7.32-27.9-14.5-58-21-89.6v-19.61l137.6-112s284.86-9.22,402.24,125.36,445.29,19.9,534.61,96.52,163.47,144.71,249,125.78S1551.6,1481.51,1551.6,1481.51Z"/><path class="cls-7" d="M865.45,376.74,210.19,528.53c30-38.89,60.54-72.43,91.43-101.34Z"/><circle class="cls-7" cx="1860.77" cy="156.31" r="36.67" transform="translate(1281.12 1931.4) rotate(-76.72)"/><path class="cls-8" d="M2513.58,1480.79H2405c-5.82-4.93,4-16.14,14.31-16.89,4.47-.34,10.12.59,16.58,2,1.49-19.85,10-109.08,42.19-105.5,36.16,4,0,39.3-10.23,60.19-7.57,15.47-15.56,37.65-19.21,48.13,2.94.63,6,1.26,9.08,1.83,4.8-14.72,22.63-64.23,45.31-61.34,26.63,3.37,15.93,23.22-2.95,35-13.84,8.66-30.85,21-38.93,26.92a115.08,115.08,0,0,0,21.24,1.71C2501,1472.36,2510.06,1477.85,2513.58,1480.79Z"/><path class="cls-8" d="M865.58,1478.81c-3.38-5.3-13.53-19-27.05-17.23-14.74,2,16.27,11.69,25.76,17.27a15.82,15.82,0,0,1-5.25-.61c-6.35-2.27-17.21,2.07-20.69,3.59h60.42a9.61,9.61,0,0,0-4.32-5.52c-1-.61-3-.69-5.56-.5,3.59-4.23,6.08-17.76-3.92-14.28-7.3,2.54-7.28,10.81-6.57,15.7-1.55.25-3.13.49-4.68.71-3-15.33-13.65-60.25-35.21-61.45-21.86-1.22,18.53,46.59,32,61.88C868.77,1478.58,867.11,1478.74,865.58,1478.81Z"/><path class="cls-9" d="M1600.51,1066.87c-12.6,13.72-31.49,27.87-1.45,59.26,38.51,40.21,98.08,213.53,98.08,213.53-2.05,6.62,0,15.81-4.66,18.51-7.62,4.37-27.07-9-27.07-9S1488.53,1166,1474.18,1124.78c-10.6-30.42,43.57-177.79,76-255,11.48-27.36,20.23-45.91,22.41-47.35.34-.22.67-.43,1-.63,19.06-12.09,37-10.54,53-1.28a77,77,0,0,1,10,7c39.58,32.1,65,108.26,62.36,124.09-1.83,11-21.13,34.36-42.31,57.34-4.4,4.77-8.88,9.52-13.3,14.15C1624.07,1043.23,1605.91,1061,1600.51,1066.87Z"/><path class="cls-10" d="M1656.63,1008.9c-4.4,4.77-8.88,9.52-13.3,14.15l-93.17-153.27c11.48-27.36,20.23-45.91,22.41-47.35.34-.22.67-.43,1-.63l53-1.28,9.58-.22.41,7.17Z"/><path class="cls-11" d="M1603.89,475.74s19.82,48.44,14.68,77.27-73.36,172.43-98.23,197-189.76-80-189.76-80l16.23-15.51s130.43,33.21,137.33,22.79S1524.24,462.28,1603.89,475.74Z"/><path class="cls-9" d="M1600,855.4s33.84,169.17,119.21,288.19c82.5,115,125.41,291.29,125.41,291.29s5.48,4.27,16.25-.31,18,1,20.18-4.26c0,0-15.58-278.24-58.39-339.16-24.19-34.42-37.09-160.77-36.27-195.16s-14.22-76.53-14.22-76.53Z"/><path class="cls-12" d="M1880.24,1480.3l-20,.14c-6.7-1-11.65-2.91-18.51-3.76-10.43-1.29-15.19,3-16.14,4l-.18.2-84.79.6c-2.16-3-.16-10.11,1.81-15.31a12.06,12.06,0,0,1,7.89-7.31c9-2.67,26.68-5.11,42.81-19.92,9.08-8.32,43.89-30.66,43.89-30.66l.19,0c.77,0,4.43,1.1,20.43,14.42,8.27,6.87,22.17-9.94,22.17-9.94a20.12,20.12,0,0,1,4.64,6.2,21.09,21.09,0,0,1,1.91,13c-1.21,7.65,3,21.82,6.29,31.4,2,5.81,3.72,9.92,3.72,9.92S1897.39,1478,1880.24,1480.3Z"/><path class="cls-12" d="M1884.49,1418.92c-4.75,3.39-14.76,10.08-21.42,11-9,1.24-26-21.63-26-21.63l.19,0c.77,0,4.43,1.1,20.43,14.42,8.27,6.87,22.17-9.94,22.17-9.94A20.12,20.12,0,0,1,1884.49,1418.92Z"/><path class="cls-12" d="M1880.24,1480.3l-20,.14c-6.7-1-11.65-2.91-18.51-3.76-10.43-1.29-15.19,3-16.14,4l-.18.2-84.79.6c-2.16-3-.16-10.11,1.81-15.31,2.56-2.31,3.37,9.92,4.81,11.86s69.17.22,73.07-2.65,15.59-7.93,32-4.14c14.26,3.3,35.19-5.56,40.36-7.92,2,5.81,3.72,9.92,3.72,9.92S1897.39,1478,1880.24,1480.3Z"/><path class="cls-13" d="M1777.33,713.07c.07-94.85-17.29-231.74-41-242.25-20.15-8.93-64.12-21.7-109.44-21-35.77.55-112,17.27-119.77,76.38-4.9,37.41-6.89,68.24-6.89,68.24s8.2,23.87,30.81,30.28c2.81,10.56,4.1,21,7.47,29.91,37.54,98.88,19.1,197.82,19.1,197.82,34.56,28.75,206.55,11.91,223.88.61C1809.7,834.63,1777.25,807.92,1777.33,713.07Z"/><path class="cls-12" d="M1736.11,1363.39l-14.32,13.91c-5.54,3.9-10.43,6-16,10.09-8.42,6.27-8.89,12.68-8.89,14,0,.18,0,.27,0,.27l-60.83,59.08c-3.66-.7-7.1-7.19-9.28-12.31a12.06,12.06,0,0,1,.64-10.74c4.64-8.13,15.74-22.15,17.15-44,.8-12.28,10.5-52.49,10.5-52.49l.1-.16c.56-.53,4-2.27,24.73-3.71,10.73-.76,9.14-22.52,9.14-22.52a20,20,0,0,1,7.64,1.27,21.09,21.09,0,0,1,10.37,8.07c4.42,6.37,17.24,13.71,26.26,18.33,5.48,2.79,9.54,4.59,9.54,4.59S1746.93,1349.89,1736.11,1363.39Z"/><path class="cls-12" d="M1696.73,1316.12c-1.08,5.73-3.69,17.48-7.87,22.76-5.64,7.12-33.74,2.36-33.74,2.36l.1-.16c.56-.53,4-2.27,24.73-3.71,10.73-.76,9.14-22.52,9.14-22.52A20,20,0,0,1,1696.73,1316.12Z"/><path class="cls-12" d="M1736.11,1363.39l-14.32,13.91c-5.54,3.9-10.43,6-16,10.09-8.42,6.27-8.89,12.68-8.89,14,0,.18,0,.27,0,.27l-60.83,59.08c-3.66-.7-7.1-7.19-9.28-12.31.25-3.44,9.3,4.83,11.67,5.24s50.12-47.68,51-52.45,5.77-16.51,20.24-25.1c12.58-7.49,21.56-28.36,23.67-33.64,5.48,2.79,9.54,4.59,9.54,4.59S1746.93,1349.89,1736.11,1363.39Z"/><path class="cls-11" d="M1687,483.33s52.34-.57,77.24,14.84,133.24,131.76,146.92,163.94S1799.1,786,1799.1,786l-17.72-28.22s56-78.6,48.87-88.85S1645.13,552.41,1687,483.33Z"/><path class="cls-11" d="M1788,753.49l20.88,16.08s-18.36,39.66-28.39,43.39l-1,.2c-10.78,2.16-37.54-15.34-42-33.41a10.06,10.06,0,0,1,.25-5.22c4.14-10.93,29.23-17.14,42.34-19.68C1784.79,753.93,1788,753.49,1788,753.49Z"/><path class="cls-11" d="M1361.2,658.05l-10.46,24.2s-43-8.06-49-16.87l-.45-1c-4.74-9.92,5.64-40.16,22.06-48.94a10,10,0,0,1,5.12-1c11.61,1.32,23.8,24.12,29.48,36.21C1360,655.07,1361.2,658.05,1361.2,658.05Z"/><path class="cls-13" d="M1667.2,452.43s48.53,2.18,83.37,23.81c16,10,77.68,68.36,77.68,68.36s-6.83,61-80.24,77.56c-74.72,16.84-86.73-108-86.73-108Z"/><path class="cls-11" d="M1653.9,453.31a10.41,10.41,0,0,1,.2,11.41c-6.52,10.33-24.76,28.19-72.28,24.92-16.28-1.12-20-13.43-9.71-26.09,2.51-3.08,1.66-20.81,1.39-27.92a232.14,232.14,0,0,1-.33-25.67l33.67-23,31.94-22.07C1633.53,416.47,1647.17,443.45,1653.9,453.31Z"/><path class="cls-14" d="M1637.62,390.77s-23.5,36.82-64.12,44.86a232.14,232.14,0,0,1-.33-25.67l33.67-23Z"/><path class="cls-11" d="M1558.66,407.89s78.26,18.19,88.92-30,27.92-78.23-21.6-91.88-63.33,2.61-70.85,17.83S1538.57,401.92,1558.66,407.89Z"/><path class="cls-15" d="M1682.69,284c.77-.78,2.47-1.33,6.17-1.29a15,15,0,0,0-6.76-2.4c-.43-5.17-2.55-14.43-11.23-17.22a11.08,11.08,0,0,1,4.83,8.33c-9.52-11.17-30.92-20.26-91.87-19.49-80.34,1-57.39,53.92-47.45,60.71s37.09-8.21,56.27-5.41,21,30.91,27.28,35.16,4.16-2.67,13.28-6.08,9,11.3,5.79,20.67,8.14,22.74,8.14,22.74l13.16-12.42c13.16-12.41,28.45-67.69,23.66-80Z"/><path class="cls-16" d="M1551.93,377.45a12.1,12.1,0,0,0,10.06,8.06,16.39,16.39,0,0,0,13.12-4.73S1562.1,374.73,1551.93,377.45Z"/><path class="cls-17" d="M2022.54,796.87h-6.46l.06-.51,1.94-17.21a1.11,1.11,0,0,1,1.1-1l.2,0a1.69,1.69,0,0,1,1.51,1.54Z"/><path class="cls-18" d="M2016.7,793h-.23l1.61-13.82a1.11,1.11,0,0,1,1.1-1l.2,0a1.29,1.29,0,0,1,.17.16,1.63,1.63,0,0,1,.46,1.15l.1,9.94A3.5,3.5,0,0,1,2016.7,793Z"/><rect class="cls-17" x="2014.2" y="873.48" width="12.45" height="549.6"/><rect class="cls-18" x="2014.2" y="873.48" width="5.75" height="549.6"/><rect class="cls-17" x="2000.6" y="1335.38" width="39.64" height="145.42"/><rect class="cls-18" x="2000.6" y="1335.38" width="23.63" height="145.42"/><path class="cls-17" d="M2042.09,805.16c0,6.8-10.2,12.3-22.78,12.3-1,0-1.91,0-2.84-.1-11.24-.75-19.94-5.92-19.94-12.2s8.7-11.44,19.94-12.19c.93-.07,1.88-.1,2.84-.1C2031.89,792.87,2042.09,798.38,2042.09,805.16Z"/><path class="cls-18" d="M2030.3,805.16c0,5.48-5.7,10.18-13.83,12.2-11.24-.75-19.94-5.92-19.94-12.2s8.7-11.44,19.94-12.19C2024.6,795,2030.3,799.69,2030.3,805.16Z"/><polygon class="cls-18" points="2040.2 884.32 2000.56 884.32 1986.58 817.02 2052.04 817.02 2040.2 884.32"/><rect class="cls-17" x="1983.04" y="811.95" width="72.53" height="6.46"/><rect class="cls-18" x="1983.04" y="811.95" width="45.59" height="6.46"/><path class="cls-17" d="M2007.1,1335.38h25.33l-3.71-11.25a2.44,2.44,0,0,0-2.31-1.67h-11.87a3.18,3.18,0,0,0-2.93,2Z"/><polygon class="cls-6" points="1991.27 820.3 2047.17 820.3 2036.25 880.79 2004.15 880.79 1991.27 820.3"/><path class="cls-6" d="M1998,805.89s4.26-9.3,12.67-9c0,0-5.35,4.76-4.86,9S1998,805.89,1998,805.89Z"/><polygon class="cls-17" points="2050.94 811.95 1987.68 811.95 1992.86 804.58 2046.02 804.58 2050.94 811.95"/><polygon class="cls-18" points="2035.36 811.95 1987.68 811.95 1992.86 804.58 2030.44 804.58 2035.36 811.95"/><polygon class="cls-19" points="1994.98 822.41 2007.79 822.41 2011.52 878.9 2007.79 878.9 1994.98 822.41"/><path class="cls-17" d="M749.08,796.87h-6.46l.06-.51,1.94-17.21a1.11,1.11,0,0,1,1.1-1l.2,0a1.76,1.76,0,0,1,1,.43,1.74,1.74,0,0,1,.55,1.11Z"/><path class="cls-18" d="M743.24,793H743l1.61-13.82a1.11,1.11,0,0,1,1.1-1l.2,0a1.29,1.29,0,0,1,.17.16,1.63,1.63,0,0,1,.46,1.15l.09,9.94A3.49,3.49,0,0,1,743.24,793Z"/><rect class="cls-17" x="740.74" y="873.48" width="12.45" height="549.6"/><rect class="cls-18" x="740.74" y="873.48" width="5.75" height="549.6"/><rect class="cls-17" x="727.14" y="1335.38" width="39.64" height="145.42"/><rect class="cls-18" x="727.14" y="1335.38" width="23.63" height="145.42"/><path class="cls-17" d="M768.63,805.16c0,6.8-10.2,12.3-22.78,12.3-1,0-1.91,0-2.84-.1-11.24-.75-19.94-5.92-19.94-12.2S731.77,793.72,743,793c.93-.07,1.88-.1,2.84-.1C758.43,792.87,768.63,798.38,768.63,805.16Z"/><path class="cls-18" d="M756.84,805.16c0,5.48-5.7,10.18-13.83,12.2-11.24-.75-19.94-5.92-19.94-12.2S731.77,793.72,743,793C751.14,795,756.84,799.69,756.84,805.16Z"/><polygon class="cls-18" points="766.74 884.32 727.1 884.32 713.12 817.02 778.58 817.02 766.74 884.32"/><rect class="cls-17" x="709.58" y="811.95" width="72.53" height="6.46"/><rect class="cls-18" x="709.58" y="811.95" width="45.59" height="6.46"/><path class="cls-17" d="M733.64,1335.38H759l-3.71-11.25a2.44,2.44,0,0,0-2.31-1.67H741.08a3.18,3.18,0,0,0-2.93,2Z"/><polygon class="cls-6" points="717.8 820.3 773.71 820.3 762.79 880.79 730.69 880.79 717.8 820.3"/><path class="cls-6" d="M724.57,805.89s4.26-9.3,12.67-9c0,0-5.35,4.76-4.86,9S724.57,805.89,724.57,805.89Z"/><polygon class="cls-17" points="777.48 811.95 714.22 811.95 719.4 804.58 772.56 804.58 777.48 811.95"/><polygon class="cls-18" points="761.9 811.95 714.22 811.95 719.4 804.58 756.98 804.58 761.9 811.95"/><polygon class="cls-19" points="721.52 822.41 734.33 822.41 738.06 878.9 734.33 878.9 721.52 822.41"/><path class="cls-11" d="M1114.58,629.56l-.08.07C1114.33,629.66,1114.36,629.64,1114.58,629.56Z"/><path class="cls-13" d="M1115.66,929.29v.17c0,.1,0,.22,0,.37-.41,16.08-1.56,32.9-3.2,49.88-2.38,24.48-5.81,49.27-9.59,72.68v0c-.66,4.06-1.33,8.09-2,12.06-.53,3.27-1.09,6.53-1.67,9.7-1.29,7.29-2.6,14.37-3.89,21.19-1.06,5.59-2.13,11-3.17,16.22-6.71,33.44-12.68,58.17-14.52,65.56,0,0,0,0,0,0-.36,1.44,1.42,6.21,2,7.57,18.51,42.54,14.23,59.65,10.51,101.15-7.48,83.44-26.88,158.45-26.88,158.45l-32.8,30.84s10.38-57.45-2.43-160.48a1039.76,1039.76,0,0,0-19.83-109.57c-10.64-45.33-36.34-163.29-39.5-250.07-.33-9,2.37-99.54,19.86-136.25,4.54-9.52,40.13,13,40.13,13l36.59.28,36.46.28c.29.56.58,1.13.86,1.71,6.21,12.79,9.94,29.7,11.8,49.2A393.13,393.13,0,0,1,1115.66,929.29Z"/><path class="cls-12" d="M1115.66,929.29v.17c0,.1,0,.22,0,.37-.41,16.08-1.56,32.9-3.2,49.88-2.38,24.48-5.81,49.27-9.59,72.68v0c-.66,4.06-1.33,8.09-2,12.06-.53,3.27-1.09,6.53-1.67,9.7-1.29,7.29-2.6,14.37-3.89,21.19-1.06,5.59-2.13,11-3.17,16.22,0,0-99.72-235.62-100.76-238.72l73.88-40.72,36.46.28c.29.56.58,1.13.86,1.71,6.21,12.79,9.94,29.7,11.8,49.2A393.13,393.13,0,0,1,1115.66,929.29Z"/><path class="cls-9" d="M1026.82,1483.45l.12-.14c.66-.66,3.93-3.54,11-2.57,4.65.64,8,2,12.53,2.72l13.56.09c11.67-1.39,11-4.65,11-4.65s-1.11-2.81-2.43-6.77c-2.17-6.53-4.88-16.19-4-21.38a14.31,14.31,0,0,0-1.18-8.85,13.59,13.59,0,0,0-3.1-4.25s-9.58,11.29-15.14,6.55c-10.74-9.18-13.22-10-13.74-10l-.13,0s-23.84,14.86-30.08,20.42c-11.09,9.91-23.14,11.41-29.26,13.14a8.19,8.19,0,0,0-5.42,4.9c-1.38,3.52-2.81,8.3-1.37,10.38Z"/><path class="cls-11" d="M1002.47,564.39s-22.86,145.19-59.7,200.77C924.24,793.1,796.39,685,796.39,685l14.72-8.77s100.11,49,103.4,43.36,14.38-122,34.44-138.29S1002.47,564.39,1002.47,564.39Z"/><path class="cls-12" d="M1012.16,497s-28.91-1.69-41.89-48c-10-35.8,10.07-79.86,61.69-75.94,0,0,34.15-3.34,45.9,24.68,5.2,12.38,13.65,17.27-1.31,62.86l-3.65,15.31Z"/><path class="cls-12" d="M1070.27,454.52s17.54,20.54,37.48,16.65,59.44-16.77,74.73,1.42-6.1,59.63,9,75.13,3,63-66.07,47.23-66.61-92.14-65.34-102.6S1070.27,454.52,1070.27,454.52Z"/><path class="cls-13" d="M1397,1232.78l-3.1,20.82s-82.84-25.7-175.66-50.32c-29.28-7.77-59.54-15.43-88.52-22.14-29.68-6.88-117.8-385.8-117.8-385.8s130.26-13,164,51c52.75,100.1-6.33,268.32,35,274.53a148.88,148.88,0,0,1,30.22,8.3C1312.5,1156.18,1397,1232.78,1397,1232.78Z"/><path class="cls-9" d="M972.31,563.76s40-19.21,78.73-22.09,84.73,1.75,94.83,12c5.22,5.31,22.24,47,15,80.2-8.2,37.5-11.13,55.76-11.77,79.4-1.26,46.48,12.68,71.27,31.3,123.59,12.23,34.34-114,106.16-205.78,37.8,2.92-38.06,16.62-129.61,6.65-146.53C952.42,679.2,953.42,577.22,972.31,563.76Z"/><path class="cls-11" d="M1146.32,553.94s96.11,110,106.62,141.82-135.69,95.17-135.69,95.17l-6.11-23s84-67.55,81.51-73.59-64.54-61.72-65.35-87.58S1146.32,553.94,1146.32,553.94Z"/><path class="cls-11" d="M1028.49,580.38c-38.24,1.21-23.61-17.66-18.71-24.38a10.59,10.59,0,0,0,1.54-3c2.68-8.1,2.44-24.23,1.67-35.17-.82-11.73-2.37-24-2.9-28.13h0l-.2-1.42,47.88-12.85,8.53,15.24,1.78,3.19a166.15,166.15,0,0,0,4.57,25.25c2.33,9,5.5,17.78,9.39,21.9C1084.71,543.83,1086.67,578.55,1028.49,580.38Z"/><path class="cls-20" d="M1072.65,519.09c-36.69-.91-61.91-28.67-62.56-29.4h0c15.15-4.68,37.27-2.76,56.21,1l1.78,3.19A166.15,166.15,0,0,0,1072.65,519.09Z"/><path class="cls-11" d="M1070.63,507.32s-64.18,5.35-66.89-34.67-12.82-66.28,28-71.39,49.87,9.63,54,22.77S1087.26,504.9,1070.63,507.32Z"/><path class="cls-12" d="M1061,398.33s-14.46,48.13-41,56.87-38.72,2.29-38.72,2.29,19.61-17.83,22-46.84C1003.25,410.65,1046.22,376.87,1061,398.33Z"/><path class="cls-12" d="M1056.87,402.43s13.84,9.61,17.72,19.59,6.72,30.86,12.79,29.74c0,0,11.13-32.8-5-49.86C1065.34,383.81,1056.87,402.43,1056.87,402.43Z"/><path class="cls-16" d="M1053.44,486.88s2.63,5.35,6.64,5.47,14.3-.68,15.06-1.6,2.84-6.48,2.84-6.48S1061.12,483.58,1053.44,486.88Z"/><path class="cls-9" d="M1139,549.47s31.59,11,57.15,56c0,0-4.6,29.93-44,50.87S1116.47,593,1116.47,593Z"/><path class="cls-9" d="M978,561.22S947.24,574,942.13,586.68c-7.82,19.45-16.78,51.62-16.78,51.62s12.52,30,54.92,37.6C1020,683,978,561.22,978,561.22Z"/><path class="cls-11" d="M1117.84,765.16l14.42,13.4s-16.39,28.23-24.11,30.31l-.79.08c-8.16.86-26.86-14-28.94-27.75a7.48,7.48,0,0,1,.54-3.86c3.83-7.85,22.92-10.74,32.85-11.72C1115.43,765.26,1117.84,765.16,1117.84,765.16Z"/><path class="cls-11" d="M819.56,680.3,814.35,696s-16.62-1.69-26.48-5.18c-3.78-1.34-9.22-5.12-9.84-9.08-1.39-8.73-.19-25.32,7.86-31.53a7.51,7.51,0,0,1,3.65-1.4C798.26,648.39,819.56,680.3,819.56,680.3Z"/><path class="cls-9" d="M1424.41,1248.23l-.15-.12c-.73-.57-4-3.49-3.82-10.62.1-4.69,1-8.17,1.25-12.76l-1.48-13.48c-2.72-11.43-5.88-10.43-5.88-10.43s-2.67,1.43-6.45,3.19c-6.24,2.92-15.52,6.73-20.77,6.44a14.31,14.31,0,0,0-8.66,2.19,13.53,13.53,0,0,0-3.86,3.57s12.32,8.22,8.25,14.28c-7.88,11.74-8.37,14.29-8.32,14.81l0,.12s17.51,22,23.75,27.52c11.13,9.87,14,21.67,16.44,27.55a8.21,8.21,0,0,0,5.48,4.82c3.66,1,8.57,1.83,10.47.16Z"/><path class="cls-21" d="M591.76,1487.06,176,1486.93s-13.27-32.27-30.65-85.56c19.39-4.64,72.94-14.73,110.25,4.29,46.3,23.6,40.24,55,97.59,43.49s104.64-16.34,130.32,0S528,1459,560,1458.88C586.47,1458.81,591,1479.86,591.76,1487.06Z"/><rect class="cls-22" y="1480.79" width="2842.43" height="7.54" rx="3.22"/><polygon class="cls-23" points="618.81 1369.2 239.45 1369.2 221.92 1280.04 600.59 1280.04 618.81 1369.2"/><polygon class="cls-24" points="625.29 1369.2 245.93 1369.2 228.4 1280.04 607.07 1280.04 625.29 1369.2"/><path class="cls-23" d="M239.45,1369.21h112a0,0,0,0,1,0,0v10.91a0,0,0,0,1,0,0H247.75a8.3,8.3,0,0,1-8.3-8.3v-2.61A0,0,0,0,1,239.45,1369.21Z"/><rect class="cls-25" x="350.58" y="1369.21" width="344.54" height="10.91"/><path class="cls-25" d="M262.09,1380.12l-6.49,25.54v0l-19.23,75.66a2.22,2.22,0,0,1-2.15,1.67,3.1,3.1,0,0,1-3.05-3.69l17.16-88.25,2.13-11Z"/><path class="cls-23" d="M255.6,1405.66c.62-13.07-7.27-14.58-7.27-14.58l2.13-11h11.63Z"/><path class="cls-25" d="M344.39,1380.12l-6.5,25.54v0l-19.23,75.66a2.21,2.21,0,0,1-2.15,1.67,3.09,3.09,0,0,1-3-3.69l17.15-88.25,2.13-11Z"/><path class="cls-23" d="M337.89,1405.66c.63-13.07-7.27-14.58-7.27-14.58l2.13-11h11.64Z"/><path class="cls-25" d="M663.68,1380.12l6.5,25.54v0l19.22,75.66a2.23,2.23,0,0,0,2.15,1.67,3.1,3.1,0,0,0,3.05-3.69l-17.15-88.25-2.13-11Z"/><path class="cls-23" d="M670.18,1405.66c-.63-13.07,7.27-14.58,7.27-14.58l-2.13-11H663.68Z"/><path class="cls-25" d="M581.39,1380.12l6.5,25.54v0l19.22,75.66a2.23,2.23,0,0,0,2.15,1.67,3.1,3.1,0,0,0,3-3.69l-17.15-88.25-2.14-11Z"/><path class="cls-23" d="M587.89,1405.66c-.63-13.07,7.27-14.58,7.27-14.58l-2.14-11H581.39Z"/><path class="cls-8" d="M293.74,796.46c-7.12,63.57-59.44,47.73-112.45,80.09-2.53,1.6-5.28,3.44-8,5.28-21.8,15.6-48.88,23.41-73.2,27.08a289.68,289.68,0,0,1-34.89,3c.46-10.79,1.15-21.57,1.84-32.36,1.83-22.95,4.59-45.9,8.49-68.16,2.53-15.14,5.74-30.29,9.41-45a509.9,509.9,0,0,1,37.18-103c44.75,3.45,94.32,28.23,128.74,58.3C278.36,746,296.26,773.51,293.74,796.46Z"/><path class="cls-21" d="M465.62,1105.12a104.18,104.18,0,0,1-45.21,13.55c-73.43,4.58-98.91,31.89-158.34,89.72-47.74,46.36-122.55,38.33-159.73,38.56-3-12.85-6-26.39-8.72-39.93C74.8,1116.37,61.26,1013.1,65.16,911.89c.46-10.79,1.15-21.57,1.84-32.36,1.83-22.95,4.59-45.9,8.49-68.16,33.05,10.33,67.93,39.94,105.8,65.18,40.39,27.08,84.22,49.11,132.18,37.41,48.19-11.7,85.37-11,114.52-1.61,37.17,11.7,61.5,37.18,78.94,68.39C531,1023.65,510.15,1079.65,465.62,1105.12Z"/></g></g></svg>