<svg xmlns="http://www.w3.org/2000/svg" viewBox="0 0 500 372.61"><defs><style>.cls-1{fill:#ebebeb;}.cls-2{fill:#e6e6e6;}.cls-3{fill:#f5f5f5;}.cls-10,.cls-11,.cls-12,.cls-4{fill:#fff;}.cls-5{fill:#f0f0f0;}.cls-6{fill:#fafafa;}.cls-7{fill:#e0e0e0;}.cls-8{fill:#263238;}.cls-9{fill:#4c9aff;}.cls-10{opacity:0.7;}.cls-11{opacity:0.4;}.cls-12{opacity:0.1;}.cls-13{fill:#ff8b7b;}.cls-14{opacity:0.2;}.cls-15{fill:#ff5652;}</style></defs><g id="Layer_2" data-name="Layer 2"><g id="Character"><rect class="cls-1" y="327.45" width="500" height="0.25"/><rect class="cls-1" x="359" y="336.97" width="90.9" height="0.25"/><rect class="cls-1" x="306.33" y="334.26" width="24.89" height="0.25"/><rect class="cls-1" x="349.52" y="346.26" width="38.59" height="0.25"/><rect class="cls-1" x="52.46" y="344.58" width="22.64" height="0.25"/><rect class="cls-1" x="84" y="344.58" width="26.89" height="0.25"/><rect class="cls-1" x="178.31" y="340.35" width="46.84" height="0.25"/><path class="cls-1" d="M237,282.85H43.91a5.71,5.71,0,0,1-5.7-5.71V5.71A5.71,5.71,0,0,1,43.91,0H237a5.71,5.71,0,0,1,5.71,5.71V277.14A5.71,5.71,0,0,1,237,282.85ZM43.91.25a5.46,5.46,0,0,0-5.45,5.46V277.14a5.46,5.46,0,0,0,5.45,5.46H237a5.47,5.47,0,0,0,5.46-5.46V5.71A5.47,5.47,0,0,0,237,.25Z"/><path class="cls-1" d="M453.31,282.85H260.21a5.72,5.72,0,0,1-5.71-5.71V5.71A5.72,5.72,0,0,1,260.21,0h193.1A5.71,5.71,0,0,1,459,5.71V277.14A5.71,5.71,0,0,1,453.31,282.85ZM260.21.25a5.47,5.47,0,0,0-5.46,5.46V277.14a5.47,5.47,0,0,0,5.46,5.46h193.1a5.47,5.47,0,0,0,5.46-5.46V5.71A5.47,5.47,0,0,0,453.31.25Z"/><rect class="cls-2" x="316.49" y="24.84" width="104.93" height="116.58" transform="translate(737.91 166.27) rotate(180)"/><rect class="cls-3" x="294.04" y="24.84" width="122.54" height="116.58" transform="translate(710.62 166.27) rotate(180)"/><rect class="cls-4" x="304.51" y="33.91" width="101.6" height="98.46" transform="translate(438.44 -272.18) rotate(90)"/><rect class="cls-3" x="303.21" y="82.5" width="104.2" height="1.28" transform="translate(438.44 -272.18) rotate(90)"/><rect class="cls-2" x="81.11" y="31.43" width="134.04" height="270.4" transform="translate(296.27 333.26) rotate(180)"/><rect class="cls-5" x="71.8" y="31.43" width="140.88" height="270.4" transform="translate(284.48 333.26) rotate(180)"/><rect class="cls-4" x="18.84" y="108" width="246.8" height="117.27" transform="translate(308.87 24.39) rotate(90)"/><polygon class="cls-6" points="127.84 290.03 150.97 43.23 124.27 43.23 101.13 290.03 127.84 290.03"/><polygon class="cls-6" points="148.53 290.03 171.67 43.23 158.31 43.23 135.18 290.03 148.53 290.03"/><rect class="cls-2" x="265.86" y="221.55" width="25.05" height="105.89" transform="translate(556.76 549) rotate(180)"/><polygon class="cls-6" points="280.43 327.45 265.86 327.45 265.86 312.83 295.71 312.83 280.43 327.45"/><rect class="cls-2" x="414.67" y="221.55" width="25.05" height="105.89" transform="translate(854.38 549) rotate(180)"/><rect class="cls-6" x="265.86" y="221.55" width="161.53" height="100.86" transform="translate(693.24 543.97) rotate(180)"/><polygon class="cls-6" points="412.81 327.45 427.39 327.45 427.39 312.83 397.53 312.83 412.81 327.45"/><rect class="cls-5" x="277.16" y="259.14" width="138.92" height="25.24" transform="translate(693.24 543.52) rotate(180)"/><rect class="cls-5" x="277.16" y="289.77" width="138.92" height="25.24" transform="translate(693.24 604.79) rotate(180)"/><path class="cls-6" d="M303.57,257h86.11a4.58,4.58,0,0,1,4.58,4.58v.31a0,0,0,0,1,0,0H299a0,0,0,0,1,0,0v-.31a4.58,4.58,0,0,1,4.58-4.58Z" transform="translate(693.24 518.79) rotate(180)"/><rect class="cls-5" x="277.16" y="228.5" width="138.92" height="25.24" transform="translate(693.24 482.25) rotate(180)"/><path class="cls-6" d="M303.57,226.32h86.11a4.58,4.58,0,0,1,4.58,4.58v.31a0,0,0,0,1,0,0H299a0,0,0,0,1,0,0v-.31A4.58,4.58,0,0,1,303.57,226.32Z" transform="translate(693.24 457.52) rotate(180)"/><path class="cls-6" d="M303.57,287.59h86.11a4.58,4.58,0,0,1,4.58,4.58v.31a0,0,0,0,1,0,0H299a0,0,0,0,1,0,0v-.31a4.58,4.58,0,0,1,4.58-4.58Z" transform="translate(693.24 580.06) rotate(180)"/><rect class="cls-3" x="292.33" y="173.97" width="4.94" height="45.82" transform="translate(589.6 393.76) rotate(180)"/><rect class="cls-6" x="292.97" y="173.93" width="1.39" height="45.82" transform="translate(587.33 393.68) rotate(180)"/><path class="cls-5" d="M283.91,221.55h21.77a2.74,2.74,0,0,0-2.74-2.74H286.66a2.75,2.75,0,0,0-2.75,2.74Z"/><path class="cls-5" d="M285.34,206.49h0a1.43,1.43,0,0,0,1.42-1.42V179.79a1.43,1.43,0,0,0-1.42-1.42h0a1.43,1.43,0,0,0-1.43,1.42v25.28A1.43,1.43,0,0,0,285.34,206.49Z"/><path class="cls-7" d="M272.7,186.1h44.2l-1.57-4.36a14.69,14.69,0,0,0-13.82-9.69H288.09a14.69,14.69,0,0,0-13.82,9.69Z"/><rect class="cls-3" x="405.4" y="173.97" width="4.94" height="45.82" transform="translate(815.73 393.76) rotate(180)"/><rect class="cls-6" x="406.03" y="173.93" width="1.39" height="45.82" transform="translate(813.46 393.68) rotate(180)"/><path class="cls-5" d="M397,221.55h21.77a2.74,2.74,0,0,0-2.74-2.74H399.72a2.74,2.74,0,0,0-2.74,2.74Z"/><path class="cls-5" d="M398.4,206.49h0a1.43,1.43,0,0,0,1.42-1.42V179.79a1.43,1.43,0,0,0-1.42-1.42h0a1.43,1.43,0,0,0-1.42,1.42v25.28A1.43,1.43,0,0,0,398.4,206.49Z"/><path class="cls-7" d="M385.76,186.1H430l-1.58-4.36a14.68,14.68,0,0,0-13.82-9.69H401.16a14.69,14.69,0,0,0-13.82,9.69Z"/><ellipse id="_Path_" data-name="&lt;Path&gt;" class="cls-3" cx="250" cy="361.29" rx="193.89" ry="11.32"/><path class="cls-8" d="M166.53,59l-.63-.78a166.31,166.31,0,0,1,13.7-10l.55.83A166.82,166.82,0,0,0,166.53,59Z"/><path class="cls-8" d="M159.15,65.3l-.68-.74c1.34-1.21,2.72-2.42,4.09-3.59l.65.76C161.84,62.89,160.48,64.09,159.15,65.3Z"/><ellipse class="cls-8" cx="216.41" cy="126.25" rx="115.24" ry="81.19" transform="translate(-29.56 173.91) rotate(-41.22)"/><ellipse class="cls-4" cx="216.41" cy="126.25" rx="99.97" ry="70.43" transform="translate(-29.56 173.91) rotate(-41.22)"/><path class="cls-9" d="M237.15,48.94c-43.29,3.5-87.67,41-99.13,83.66l156.77-12.69C306.25,77.21,280.44,45.44,237.15,48.94Z"/><path class="cls-10" d="M138,132.6l78.39-6.35L175.65,76.07C157.71,91.21,143.75,111.25,138,132.6Z"/><path class="cls-11" d="M237.15,48.94c-21.64,1.75-43.56,12-61.5,27.13l40.76,50.18,20.74-77.31Z"/><path class="cls-12" d="M237.15,48.94l-20.74,77.31L286.5,67.1C276.07,54.26,258.8,47.19,237.15,48.94Z"/><ellipse class="cls-4" cx="216.41" cy="126.25" rx="40.79" ry="28.73" transform="translate(-29.56 173.91) rotate(-41.22)"/><ellipse class="cls-8" cx="216.41" cy="126.25" rx="23.8" ry="16.77" transform="translate(-29.56 173.91) rotate(-41.22)"/><path class="cls-8" d="M275.08,84.9a235.78,235.78,0,0,0-52.63,27.9l7.37,13.2A257.66,257.66,0,0,0,275.08,84.9Z"/><path class="cls-9" d="M147,162.1a1.5,1.5,0,0,1-1.55-1.83,2.73,2.73,0,0,1,2.36-2.16L234,151.27a1.52,1.52,0,0,1,1.7,1.84,2.7,2.7,0,0,1-2.35,2.15L147.2,162.1Z"/><path class="cls-9" d="M221.55,170.31a1.51,1.51,0,0,1-1.55-1.84,2.72,2.72,0,0,1,2.36-2.16l28-2.22a1.51,1.51,0,0,1,1.71,1.83,2.7,2.7,0,0,1-2.36,2.15l-28,2.23Z"/><path class="cls-9" d="M79.15,206.13a1.51,1.51,0,0,1-1.55-1.84A2.73,2.73,0,0,1,80,202.13l28-2.22a1.52,1.52,0,0,1,1.71,1.83,2.72,2.72,0,0,1-2.35,2.16l-28,2.22Z"/><path class="cls-9" d="M104.09,189.76a1.5,1.5,0,0,1-1.54-1.84,2.72,2.72,0,0,1,2.35-2.16l84-6.66a1.52,1.52,0,0,1,1.71,1.83,2.72,2.72,0,0,1-2.36,2.15l-84,6.67Z"/><polygon class="cls-13" points="284.39 279.56 287.95 286.75 305.56 280.42 302 273.23 284.39 279.56"/><polygon class="cls-13" points="198.77 338.69 204.12 344.67 217.72 329.23 211.13 324.64 198.77 338.69"/><path class="cls-8" d="M205.34,344.08,201.7,335a.67.67,0,0,0-.75-.41L193.84,336a1.23,1.23,0,0,0-.86,1.68c1.22,2.9,2.24,5,3.71,8.64.91,2.26,3.41,9.2,4.67,12.32s4.45,2.18,4.22.77c-1.07-6.29-1.1-11.39-.21-13.95A2,2,0,0,0,205.34,344.08Z"/><path class="cls-8" d="M288.76,286.29l-3.89-7.86a.69.69,0,0,0-.79-.37l-7.1,1.75a1.16,1.16,0,0,0-.77,1.66c1.45,2.81,3.64,6.83,5.41,10.39,2.06,4.16,2.34,4.29,4.76,9.18,1.46,2.95,4.85,2.29,4.51.92-1.56-6.23-2.43-7.31-1.83-13.66A3.73,3.73,0,0,0,288.76,286.29Z"/><path class="cls-13" d="M358,150.28c-.37,2.6-.77,5.41-1.08,8.12s-.62,5.47-.85,8.2a116.2,116.2,0,0,0-.48,16.06c0,.65.06,1.3.14,1.91l.18,1.78a2.51,2.51,0,0,0,1.71,2.39,10.94,10.94,0,0,0,2.85.86,34,34,0,0,0,7.44.27c1.31-.08,2.65-.19,4-.34s2.72-.37,4-.56l1.94,5.7a41.65,41.65,0,0,1-4.24,1.74c-1.42.51-2.87,1-4.35,1.36a39.66,39.66,0,0,1-4.59.93,29.37,29.37,0,0,1-4.94.32,20.5,20.5,0,0,1-5.48-.83,13.82,13.82,0,0,1-5.74-3.45,13,13,0,0,1-3.32-6.28c-.07-.3-.1-.47-.13-.67l-.1-.58-.21-1.18c-.15-.79-.25-1.56-.34-2.32a103.34,103.34,0,0,1-.38-18c.19-2.94.4-5.86.76-8.76s.71-5.76,1.27-8.76Z"/><path class="cls-9" d="M345.19,143c-5.26,5.59-3.14,19.7-3.14,19.7l14.78,2.39s3.43-8.05,2.14-16.25C357.39,138.78,350.94,136.89,345.19,143Z"/><path class="cls-14" d="M350,149.24c-2.44-3.15-5-4.26-6.36-4-3.27,6.41-1.61,17.47-1.61,17.47l10.47,1.69C353.7,161.16,353.85,154.15,350,149.24Z"/><path class="cls-13" d="M373.94,189.84l8.57-5.63,1.9,8.71s-5.33,5.39-9.77,1.59Z"/><polygon class="cls-13" points="387.78 182.34 388.77 189.86 384.41 192.92 382.5 184.21 387.78 182.34"/><polygon class="cls-14" points="305.55 280.42 296.48 283.69 292.92 276.49 301.99 273.23 305.55 280.42"/><polygon class="cls-14" points="211.13 324.65 217.72 329.23 211.34 336.47 204.75 331.88 211.13 324.65"/><path class="cls-9" d="M314.74,123.76c-6.08,31.11-22.27,59.18-24.53,65.38,5.8,2.43,27.69,11.55,39.62,16.52,22.25-33.12,25.66-57.07,26.17-62.87a2.38,2.38,0,0,0-1-2.15c-.95-.7-2.47-1.78-4.32-3-1-.64-2.07-1.31-3.22-2-.63-.37-1.28-.72-1.94-1.07a157,157,0,0,0-16.85-7c-1.08-.39-2.19-.76-3.28-1.1s-2-.61-2.95-.87C318.18,124.44,314.74,123.76,314.74,123.76Z"/><path class="cls-13" d="M338.29,109.5c-1.19,5.86-4.27,16.23-9.57,18.27,1.72,4.16,4.16,9.14,10.51,12s7.06-2,6.33-5c-5.44-4-3.41-8.38-.61-12.15Z"/><path class="cls-14" d="M341,114.86l3.94,7.77a18.68,18.68,0,0,0-1.76,2.77c-2.17-1.29-4.29-5.15-3.53-7.67A8.73,8.73,0,0,1,341,114.86Z"/><path class="cls-8" d="M354.28,109.72c6.27.45,11.82-15.18,2.67-17-6.17-1.23-6.11,2.46-6.76,6.49S350.31,109.43,354.28,109.72Z"/><path class="cls-13" d="M339,101.8c-1.61,7.8-2.95,12.28-.15,17.27,4.22,7.51,14.64,6.57,18.56-.59,3.52-6.44,5.57-18.12-1.11-23.21A10.87,10.87,0,0,0,339,101.8Z"/><path class="cls-8" d="M337.67,107.38c6.27.45,10.47-13.85,1.32-15.67-6.17-1.23-6.69,2.38-6.59,6.24C332.5,102,333.69,107.09,337.67,107.38Z"/><path class="cls-8" d="M342.73,96.44c4.23,2,24.62,6.44,23.45-2.34s-12.06-12.83-12.06-12.83,6.34,6.94,1.11,5.28-6.73-2.89-13-4c0,0,6.16,5.11-1,3.66a17,17,0,0,0-12.16,2,12.09,12.09,0,0,1,5.28,11.27C333.86,107.13,342.73,96.44,342.73,96.44Z"/><path class="cls-13" d="M334,107.74a7,7,0,0,0,2.72,4.56c1.92,1.41,3.67-.22,3.8-2.56.11-2.1-.75-5.38-3-5.86S333.7,105.48,334,107.74Z"/><path class="cls-8" d="M303.92,194.86l-8.34,26.85,42.93,27c-7.41,12.37-45.06,24.67-45.06,24.67l6,12.18s52.43-4,63.06-27.18c10.23-22.26-32.7-52.72-32.7-52.72Z"/><path class="cls-14" d="M309.49,230.47,302,225.78l9.22-13.4S311.48,223.12,309.49,230.47Z"/><path class="cls-14" d="M309.49,230.47,302,225.78l9.22-13.4S311.48,223.12,309.49,230.47Z"/><path class="cls-8" d="M320.53,201.78S285.91,259.36,271.62,278c-15.65,20.46-56.17,59-56.17,59l-12.07-8.39s35-38.58,48.19-59.93c15.05-24.32,38.64-79.6,38.64-79.6Z"/><polygon class="cls-9" points="216.71 338.33 202.5 328.44 205.45 324.2 221.53 334.97 216.71 338.33"/><polygon class="cls-9" points="299.95 287.23 292.76 272.71 297.45 270.39 305.73 286.5 299.95 287.23"/><path class="cls-8" d="M350.07,107.11c-.17.62,0,1.22.43,1.33s.88-.31,1.05-.93,0-1.22-.44-1.33S350.24,106.48,350.07,107.11Z"/><path class="cls-8" d="M357.13,109c-.17.62,0,1.22.43,1.33s.88-.31,1.05-.93,0-1.22-.43-1.33S357.3,108.4,357.13,109Z"/><path class="cls-15" d="M354.8,108.73a23.14,23.14,0,0,0,1.53,6.15,3.75,3.75,0,0,1-3.14-.25Z"/><path class="cls-8" d="M350.11,115.59a5.38,5.38,0,0,1-3-3,.19.19,0,0,1,.37-.12,5.1,5.1,0,0,0,3.5,3,.19.19,0,0,1,.14.24.19.19,0,0,1-.24.13A7.29,7.29,0,0,1,350.11,115.59Z"/><path class="cls-8" d="M348.51,104.23a.33.33,0,0,1-.15-.11.38.38,0,0,1,.07-.54,3.8,3.8,0,0,1,3.4-.7.39.39,0,0,1,.23.49.38.38,0,0,1-.48.23h0a3,3,0,0,0-2.69.59A.37.37,0,0,1,348.51,104.23Z"/><path class="cls-8" d="M360.83,107.43a.37.37,0,0,1-.22-.28,3,3,0,0,0-1.62-2.22.38.38,0,1,1,.29-.71,3.79,3.79,0,0,1,2.07,2.79.37.37,0,0,1-.3.44A.53.53,0,0,1,360.83,107.43Z"/><path class="cls-9" d="M205.05,347.11a9,9,0,0,1-.52-2.06.2.2,0,0,1,.09-.2.18.18,0,0,1,.2,0c.28.2,2.69,1.95,2.61,3a.64.64,0,0,1-.37.52,1.11,1.11,0,0,1-1.07.05A2.32,2.32,0,0,1,205.05,347.11Zm-.07-1.66c.25,1.38.69,2.33,1.19,2.59a.75.75,0,0,0,.72-.05c.14-.07.16-.14.16-.2C207.1,347.26,205.92,346.18,205,345.45Z"/><path class="cls-9" d="M204.54,345.09a.2.2,0,0,1,0-.11.18.18,0,0,1,.13-.15c.09,0,2.27-.8,3.32-.25a1,1,0,0,1,.52.65h0a.65.65,0,0,1-.23.77c-.75.52-3-.25-3.68-.84A.18.18,0,0,1,204.54,345.09Zm3.57.17a.68.68,0,0,0-.31-.34,4.45,4.45,0,0,0-2.65.15c.88.51,2.47.92,2.92.61,0,0,.13-.1.07-.34h0Z"/><path class="cls-9" d="M288.12,287.49a.18.18,0,0,1,.08-.18.18.18,0,0,1,.22,0c.33.24,3.22,2.41,3.17,3.53a.6.6,0,0,1-.31.5h0a1,1,0,0,1-1,.09c-1.09-.44-1.83-2.64-2.17-3.92Zm3.09,3.25c-.08-.63-1.46-1.91-2.57-2.78.53,1.72,1.18,2.87,1.79,3.12a.67.67,0,0,0,.65-.07.21.21,0,0,0,.13-.19Z"/><path class="cls-9" d="M288.12,287.49a.06.06,0,0,1,0-.06.17.17,0,0,1,.12-.14c.08,0,2.12-.8,3.32-.26a1.42,1.42,0,0,1,.76.8h0c.18.49,0,.75-.16.87-.75.54-3.16-.41-4-1.09A.17.17,0,0,1,288.12,287.49Zm3.89.67A.54.54,0,0,0,292,288h0a1,1,0,0,0-.56-.59,4.39,4.39,0,0,0-2.68.15c1,.62,2.77,1.18,3.22.86A.21.21,0,0,0,292,288.16Zm.13-.26Z"/><path class="cls-13" d="M315.05,137.37l-3.16-2.11c-1.09-.71-2.2-1.41-3.31-2.09q-3.34-2.05-6.77-3.92c-2.28-1.23-4.59-2.4-6.92-3.41-1.16-.53-2.33-1-3.5-1.45l-1.75-.62-.44-.15-.22-.08c-.06,0,0,0,0,0s-.07,0-.16-.06a8.65,8.65,0,0,0-2.51.14,27.79,27.79,0,0,0-3.4.86,74.82,74.82,0,0,0-7.23,2.71c-4.85,2.1-9.79,4.48-14.59,6.91l-3.39-5a105.86,105.86,0,0,1,13.83-10,68.1,68.1,0,0,1,7.83-4.11,40,40,0,0,1,4.49-1.63,18.37,18.37,0,0,1,5.68-.78,12.17,12.17,0,0,1,1.88.23l.47.1.28.07.55.14,2.2.58c1.44.43,2.89.86,4.27,1.39a77.09,77.09,0,0,1,8.13,3.44c2.63,1.26,5.18,2.65,7.67,4.14,1.23.76,2.46,1.53,3.67,2.33s2.37,1.59,3.67,2.57Z"/><path class="cls-9" d="M327,128.88c-1.77-4.38-18.5-10.37-18.5-10.37l-5.41,14.12s5.85,3.86,10.7,6.77C323,145,330.46,137.5,327,128.88Z"/><path class="cls-13" d="M262.7,132l-3.39,7.35-5.17-6.7s3.9-6.57,6.68-4Z"/><polygon class="cls-13" points="252.16 141.63 249.54 135.76 254.14 132.63 259.31 139.33 252.16 141.63"/></g></g></svg>