<svg xmlns="http://www.w3.org/2000/svg" viewBox="0 0 2589.27 1361.02"><defs><style>.cls-1{fill:#ebf3fa;}.cls-2{fill:#ffb93e;}.cls-3{fill:#ffa412;}.cls-4{fill:#82b378;}.cls-19,.cls-5{fill:#e2810e;}.cls-6{fill:#ffb27d;}.cls-7{fill:#ed975d;}.cls-8{fill:#a9453d;}.cls-9{fill:#2c3a64;}.cls-10{fill:#2b478b;}.cls-11{fill:#233862;}.cls-12{fill:#1e3d70;}.cls-13{fill:#2a4e96;}.cls-14,.cls-15{fill:#ed9f4a;}.cls-14{opacity:0.2;}.cls-15{opacity:0.6;}.cls-16{fill:#f9ddbf;}.cls-17{fill:#f1a34f;}.cls-18{fill:#e5c1a1;}.cls-19{opacity:0.5;}.cls-20{fill:#ed985f;}.cls-21{fill:#ed7d2b;}.cls-22{fill:#f99746;}.cls-23{fill:#2e3552;}</style></defs><g id="Layer_2" data-name="Layer 2"><g id="_Layer_" data-name="&lt;Layer&gt;"><path class="cls-1" d="M160.33,1357.76S-141,1034.27,109.37,684c222.12-310.74,481.09-289.5,671.09-163.4,80.92,53.71,314.23,6.62,512.81-309.57,270.8-431.2,1209.51-169.68,1038.36,493.74-82.83,321,252.07,332.71,81.43,653.63Z"/><path class="cls-2" d="M1584.37,1012.73l23.11,3.8a9.93,9.93,0,0,1,4.76,2.16,8.27,8.27,0,0,1,2.73,4.2,7.06,7.06,0,0,1,.22,1.51,6.68,6.68,0,0,1-.09,1.4l-53.17,322.25c-.68,4.15-5,7-9.73,6.39l-.46-.06-23.11-3.8-.46-.09c-4.65-1-7.85-5-7.16-9.17l53.17-322.25a7,7,0,0,1,.37-1.36,7.16,7.16,0,0,1,.69-1.35,8.32,8.32,0,0,1,3.94-3.11A9.88,9.88,0,0,1,1584.37,1012.73Z"/><path class="cls-3" d="M1590.28,1176.24l-28.49,172.64c-.61,3.71-4.87,6.15-9.59,5.56l-.46-.06-23.11-3.8-.46-.09c-4.65-1-7.91-4.63-7.3-8.34l25-151.44C1558.3,1190.28,1575.9,1187.38,1590.28,1176.24Z"/><rect class="cls-3" x="1587.3" y="1034.94" width="3.71" height="41.47" transform="translate(288.48 2451.43) rotate(-80.62)"/><rect class="cls-3" x="1585.26" y="1047.34" width="3.71" height="41.47" transform="matrix(0.16, -0.99, 0.99, 0.16, 275.21, 2460.41)"/><rect class="cls-3" x="1582.8" y="1062.21" width="3.71" height="41.47" transform="translate(258.09 2470.07) rotate(-80.63)"/><rect class="cls-3" x="1579.04" y="1084.99" width="3.71" height="41.47" transform="translate(232.56 2485.53) rotate(-80.63)"/><rect class="cls-3" x="1575.07" y="1109.09" width="3.71" height="41.47" transform="translate(205.41 2501.75) rotate(-80.63)"/><rect class="cls-3" x="1568.97" y="1146.03" width="3.71" height="41.47" transform="matrix(0.16, -0.99, 0.99, 0.16, 164.16, 2526.97)"/><rect class="cls-3" x="1563.26" y="1180.62" width="3.71" height="41.47" transform="translate(124.63 2549.64) rotate(-80.62)"/><rect class="cls-3" x="1558.17" y="1211.51" width="3.71" height="41.47" transform="translate(90.25 2570.85) rotate(-80.63)"/><rect class="cls-3" x="1589.25" y="1023.14" width="3.71" height="41.47" transform="matrix(0.16, -0.99, 0.99, 0.16, 302.4, 2444.07)"/><rect class="cls-3" x="1590.53" y="1015.34" width="3.71" height="41.47" transform="translate(310.86 2438.52) rotate(-80.63)"/><rect class="cls-3" x="1591.78" y="1007.81" width="3.71" height="41.47" transform="matrix(0.16, -0.99, 0.99, 0.16, 319.64, 2433.73)"/><path class="cls-3" d="M1573.8,1021.35l40.93,6.73.37-2.28a6.68,6.68,0,0,0,.09-1.4l-40.64-6.69a7,7,0,0,0-.37,1.36Z"/><path class="cls-3" d="M1575.24,1016.36l39.73,6.53a8.27,8.27,0,0,0-2.73-4.2l-33.06-5.44A8.32,8.32,0,0,0,1575.24,1016.36Z"/><path class="cls-2" d="M1626.3,1012.73l23.11,3.8a9.9,9.9,0,0,1,4.75,2.16,8.2,8.2,0,0,1,2.73,4.2,6.48,6.48,0,0,1,.22,1.51,6.66,6.66,0,0,1-.08,1.4l-53.17,322.25c-.69,4.15-5,7-9.73,6.39l-.46-.06-23.12-3.8-.45-.09c-4.65-1-7.85-5-7.17-9.17l53.18-322.25a7,7,0,0,1,.36-1.36,7.21,7.21,0,0,1,.7-1.35,8.27,8.27,0,0,1,3.94-3.11A9.88,9.88,0,0,1,1626.3,1012.73Z"/><path class="cls-3" d="M1632.21,1176.24l-28.49,172.64c-.61,3.71-4.88,6.15-9.59,5.56l-.46-.06-23.12-3.8-.45-.09c-4.66-1-7.91-4.63-7.3-8.34l25-151.44C1600.23,1190.28,1617.82,1187.38,1632.21,1176.24Z"/><rect class="cls-3" x="1629.23" y="1034.94" width="3.71" height="41.47" transform="translate(323.57 2492.79) rotate(-80.62)"/><rect class="cls-3" x="1627.18" y="1047.34" width="3.71" height="41.47" transform="translate(310.35 2501.82) rotate(-80.64)"/><rect class="cls-3" x="1624.73" y="1062.2" width="3.71" height="41.47" transform="translate(293.19 2511.43) rotate(-80.63)"/><rect class="cls-3" x="1620.97" y="1084.99" width="3.71" height="41.47" transform="translate(267.62 2526.86) rotate(-80.63)"/><rect class="cls-3" x="1616.99" y="1109.09" width="3.71" height="41.47" transform="translate(240.51 2543.11) rotate(-80.63)"/><rect class="cls-3" x="1610.9" y="1146.03" width="3.71" height="41.47" transform="translate(198.9 2567.96) rotate(-80.63)"/><rect class="cls-3" x="1605.19" y="1180.62" width="3.71" height="41.47" transform="translate(160.05 2591.35) rotate(-80.63)"/><rect class="cls-3" x="1600.09" y="1211.51" width="3.71" height="41.47" transform="translate(125.31 2612.18) rotate(-80.63)"/><rect class="cls-3" x="1631.17" y="1023.14" width="3.71" height="41.47" transform="translate(337.13 2485.09) rotate(-80.63)"/><rect class="cls-3" x="1632.46" y="1015.34" width="3.71" height="41.47" transform="translate(346.34 2480.23) rotate(-80.64)"/><rect class="cls-3" x="1633.7" y="1007.81" width="3.71" height="41.47" transform="translate(354.75 2475.1) rotate(-80.64)"/><path class="cls-3" d="M1615.73,1021.35l40.92,6.73.38-2.28a6.66,6.66,0,0,0,.08-1.4l-40.64-6.69a7,7,0,0,0-.36,1.36Z"/><path class="cls-3" d="M1617.17,1016.36l39.72,6.53a8.2,8.2,0,0,0-2.73-4.2l-33.05-5.44A8.27,8.27,0,0,0,1617.17,1016.36Z"/><path class="cls-2" d="M1473,1322.1l0,23.42a9.81,9.81,0,0,1-1.36,5,8.28,8.28,0,0,1-3.72,3.37,6.71,6.71,0,0,1-1.44.46,7.23,7.23,0,0,1-1.4.14l-326.61-.77c-4.21,0-7.67-3.84-7.87-8.59,0-.15,0-.31,0-.46l0-23.42c0-.16,0-.31,0-.47.22-4.74,3.7-8.55,7.91-8.54l326.61.78a7.12,7.12,0,0,1,1.39.14,7.44,7.44,0,0,1,1.45.47,8.27,8.27,0,0,1,3.7,3.39A9.82,9.82,0,0,1,1473,1322.1Z"/><path class="cls-3" d="M1312.53,1354.17l-175-.42c-3.76,0-6.85-3.83-7-8.58,0-.15,0-.31,0-.46l0-23.42c0-.16,0-.31,0-.47.2-4.74,3.31-8.55,7.06-8.54l153.49.36C1293.55,1324.86,1299.23,1341.76,1312.53,1354.17Z"/><rect class="cls-3" x="1410.62" y="1331.86" width="41.47" height="3.71" transform="matrix(0, -1, 1, 0, 94.25, 2761.9)"/><rect class="cls-3" x="1398.05" y="1331.83" width="41.47" height="3.71" transform="matrix(0, -1, 1, 0, 81.74, 2749.31)"/><rect class="cls-3" x="1382.98" y="1331.79" width="41.47" height="3.71" transform="translate(66.37 2733.84) rotate(-89.85)"/><rect class="cls-3" x="1359.89" y="1331.74" width="41.47" height="3.71" transform="translate(43.8 2711.09) rotate(-89.87)"/><rect class="cls-3" x="1335.46" y="1331.68" width="41.47" height="3.71" transform="matrix(0, -1, 1, 0, 19.45, 2686.57)"/><rect class="cls-3" x="1298.02" y="1331.59" width="41.47" height="3.71" transform="matrix(0, -1, 1, 0, -17.81, 2649.04)"/><rect class="cls-3" x="1262.96" y="1331.51" width="41.47" height="3.71" transform="translate(-52.7 2613.9) rotate(-89.86)"/><rect class="cls-3" x="1231.66" y="1331.43" width="41.47" height="3.71" transform="translate(-84.16 2582.2) rotate(-89.85)"/><rect class="cls-3" x="1422.58" y="1331.89" width="41.47" height="3.71" transform="translate(106.15 2773.89) rotate(-89.86)"/><rect class="cls-3" x="1430.48" y="1331.91" width="41.47" height="3.71" transform="translate(114.41 2782.17) rotate(-89.88)"/><rect class="cls-3" x="1438.11" y="1331.92" width="41.47" height="3.71" transform="matrix(0, -1, 1, 0, 121.61, 2789.46)"/><path class="cls-3" d="M1462.77,1313.05l-.08,41.47H1465a7.23,7.23,0,0,0,1.4-.14l.07-41.19a7.12,7.12,0,0,0-1.39-.14Z"/><path class="cls-3" d="M1467.93,1313.67l-.08,40.26a8.28,8.28,0,0,0,3.72-3.37l.06-33.5A8.27,8.27,0,0,0,1467.93,1313.67Z"/><path class="cls-2" d="M1438.13,1280.55l0,23.42a9.9,9.9,0,0,1-1.37,5,8.14,8.14,0,0,1-3.71,3.37,6.79,6.79,0,0,1-1.45.46,6.43,6.43,0,0,1-1.39.14l-326.61-.77c-4.21,0-7.67-3.83-7.88-8.58,0-.16,0-.31,0-.47l0-23.42c0-.15,0-.31,0-.46.22-4.75,3.69-8.55,7.91-8.55l326.6.78.63,0,.26,0,.3,0,.21,0a6.74,6.74,0,0,1,1.44.47l.21.09.2.1.39.22.23.15a1.37,1.37,0,0,1,.2.13l.37.27.41.35.3.28,0,0,.2.21c.2.21.39.44.57.67l.16.21.15.22.29.46A9.87,9.87,0,0,1,1438.13,1280.55Z"/><path class="cls-3" d="M1277.69,1312.61l-175-.41c-3.76,0-6.84-3.83-7-8.58,0-.16,0-.31,0-.47l0-23.42c0-.15,0-.31,0-.46.2-4.75,3.3-8.56,7.06-8.55l153.48.37.21,1C1259,1284.23,1264.75,1300.55,1277.69,1312.61Z"/><rect class="cls-3" x="1375.77" y="1290.3" width="41.47" height="3.71" transform="translate(101.08 2685.63) rotate(-89.87)"/><rect class="cls-3" x="1363.21" y="1290.27" width="41.47" height="3.71" transform="translate(88.58 2673.04) rotate(-89.87)"/><rect class="cls-3" x="1348.14" y="1290.24" width="41.47" height="3.71" transform="matrix(0, -1, 1, 0, 73.54, 2657.9)"/><rect class="cls-3" x="1325.04" y="1290.18" width="41.47" height="3.71" transform="matrix(0, -1, 1, 0, 50.55, 2634.75)"/><rect class="cls-3" x="1300.62" y="1290.12" width="41.47" height="3.71" transform="translate(26.6 2610.62) rotate(-89.88)"/><rect class="cls-3" x="1263.18" y="1290.03" width="41.47" height="3.71" transform="translate(-11.33 2572.42) rotate(-89.85)"/><rect class="cls-3" x="1228.12" y="1289.95" width="41.47" height="3.71" transform="matrix(0, -1, 1, 0, -45.91, 2537.6)"/><rect class="cls-3" x="1196.81" y="1289.88" width="41.47" height="3.71" transform="translate(-76.74 2506.57) rotate(-89.88)"/><rect class="cls-3" x="1387.73" y="1290.33" width="41.47" height="3.71" transform="translate(112.99 2697.62) rotate(-89.87)"/><rect class="cls-3" x="1395.63" y="1290.35" width="41.47" height="3.71" transform="translate(120.81 2705.51) rotate(-89.86)"/><rect class="cls-3" x="1403.26" y="1290.37" width="41.47" height="3.71" transform="matrix(0, -1, 1, 0, 128.41, 2713.16)"/><path class="cls-3" d="M1427.92,1271.49l-.07,41.48h2.32a6.43,6.43,0,0,0,1.39-.14l.08-41.18a6.53,6.53,0,0,0-1.4-.15Z"/><path class="cls-3" d="M1433.08,1272.12l-.07,40.25a8.19,8.19,0,0,0,3.71-3.37l.06-33.5A8.15,8.15,0,0,0,1433.08,1272.12Z"/><path class="cls-2" d="M1455.08,1240.14l0,23.42a9.8,9.8,0,0,1-1.36,5A8.19,8.19,0,0,1,1450,1272a6.79,6.79,0,0,1-1.45.46,6.49,6.49,0,0,1-1.39.14l-326.61-.77a7.09,7.09,0,0,1-3.64-1,9.17,9.17,0,0,1-4.21-7.15,2.69,2.69,0,0,1,0-.4c0-.16,0-.31,0-.47l.05-23.42v-.46c.23-4.75,3.7-8.56,7.91-8.55l326.61.78a6.37,6.37,0,0,1,1.39.15,6.15,6.15,0,0,1,1.45.47,8.25,8.25,0,0,1,3.7,3.38A10,10,0,0,1,1455.08,1240.14Z"/><path class="cls-3" d="M1294.64,1272.2l-175-.41a5.93,5.93,0,0,1-3.25-1,9.39,9.39,0,0,1-3.75-7.15,2.69,2.69,0,0,1,0-.4c0-.16,0-.31,0-.47l.05-23.42v-.46c.21-4.75,3.31-8.56,7.07-8.55l153.48.37c2.37,11.88,7.81,28.19,20.34,40.5Z"/><path class="cls-2" d="M1463,1198.68l0,23.42a9.81,9.81,0,0,1-1.36,5,8.28,8.28,0,0,1-3.72,3.37,6.53,6.53,0,0,1-1.44.46,7.23,7.23,0,0,1-1.4.14l-326.6-.78c-4.21,0-7.68-3.83-7.88-8.58,0-.15,0-.31,0-.46l0-23.42c0-.16,0-.31,0-.47.21-4.39,3.2-8,7-8.48a7,7,0,0,1,.93-.06l326.61.78a7,7,0,0,1,1.39.14,6.64,6.64,0,0,1,1.45.47,8.27,8.27,0,0,1,3.7,3.39A9.9,9.9,0,0,1,1463,1198.68Z"/><path class="cls-3" d="M1302.54,1230.75l-175-.42c-3.76,0-6.85-3.83-7-8.58,0-.15,0-.31,0-.46l0-23.42c0-.16,0-.31,0-.47.19-4.39,2.86-8,6.23-8.48a5.73,5.73,0,0,1,.84-.06l153.48.36s0,0,0,.07C1283.57,1201.49,1289.26,1218.36,1302.54,1230.75Z"/><path class="cls-2" d="M1439,1157.21l0,23.43a9.9,9.9,0,0,1-1.37,5,8.14,8.14,0,0,1-3.71,3.37,6.62,6.62,0,0,1-1.45.46l-.46.08-.26,0-.25,0h-.42l-326.61-.77c-4.21,0-7.67-3.83-7.88-8.58,0-.16,0-.31,0-.47l.05-23.42c0-.15,0-.31,0-.46s0-.26,0-.38a8.81,8.81,0,0,1,5.94-7.89l.24-.07a7.41,7.41,0,0,1,1.71-.21l326.6.78c.24,0,.48,0,.71,0l.32,0h0l.37.07a6.71,6.71,0,0,1,1.44.46,8.23,8.23,0,0,1,3.7,3.39A9.86,9.86,0,0,1,1439,1157.21Z"/><path class="cls-3" d="M1278.6,1189.28l-175-.41c-3.75,0-6.84-3.83-7-8.58,0-.16,0-.31,0-.47l.05-23.42c0-.15,0-.31,0-.46s0-.26,0-.38c.29-3.91,2.55-7.11,5.49-8l.3-.08a5.7,5.7,0,0,1,1.25-.14l153.49.37c0,.1,0,.19.06.29,2.45,12.17,8.13,28.86,21.28,41.17Z"/><path class="cls-2" d="M1438.43,1116l0,23.42a9.81,9.81,0,0,1-1.36,5,8.25,8.25,0,0,1-3.71,3.37,7.54,7.54,0,0,1-1.13.39h0l-.31.07a7.12,7.12,0,0,1-1.39.14l-326.61-.77a5.69,5.69,0,0,1-1-.09,2.66,2.66,0,0,1-.39-.07c-3.55-.74-6.29-4.22-6.47-8.42,0-.16,0-.31,0-.47l0-23.42c0-.15,0-.31,0-.46.22-4.75,3.69-8.56,7.91-8.55l326.6.78.63,0,.26,0,.3,0,.21,0a6.71,6.71,0,0,1,1.44.46l.21.1.2.1.39.22.43.28.37.27.41.35.3.28,0,0,.2.21c.2.21.39.44.57.67l.16.21.15.22.29.46A9.83,9.83,0,0,1,1438.43,1116Z"/><path class="cls-3" d="M1278,1148.1l-175-.42h-.41a3.25,3.25,0,0,1-.45-.06c-3.37-.53-6-4.12-6.17-8.5,0-.16,0-.31,0-.47l0-23.42c0-.15,0-.31,0-.46.2-4.75,3.3-8.56,7.06-8.55l153.48.37q.11.5.21,1c2.52,12,8.18,28.16,20.89,40.2Z"/><path class="cls-2" d="M1455.38,1075.62l-.05,23.42a9.81,9.81,0,0,1-1.36,5,8.31,8.31,0,0,1-3.71,3.37,6.79,6.79,0,0,1-1.45.46,7.2,7.2,0,0,1-1.39.14l-326.61-.77a7.1,7.1,0,0,1-3.64-1,9.13,9.13,0,0,1-4.21-7.14,2.73,2.73,0,0,1,0-.41c0-.15,0-.3,0-.46l0-23.42c0-.15,0-.31,0-.46.23-4.75,3.7-8.56,7.91-8.55l326.61.78a6.37,6.37,0,0,1,1.39.15,6.62,6.62,0,0,1,1.45.46,8.33,8.33,0,0,1,3.7,3.39A9.93,9.93,0,0,1,1455.38,1075.62Z"/><path class="cls-3" d="M1294.94,1107.69l-175-.42a5.77,5.77,0,0,1-3.25-1,9.35,9.35,0,0,1-3.75-7.14,2.73,2.73,0,0,1,0-.41c0-.15,0-.3,0-.46l0-23.42c0-.15,0-.31,0-.46.21-4.75,3.31-8.56,7.07-8.55l153.48.36c2.37,11.89,7.81,28.2,20.34,40.5C1294.22,1107,1294.57,1107.35,1294.94,1107.69Z"/><path class="cls-2" d="M1482.14,1034.21l0,23.42a9.91,9.91,0,0,1-1.36,5A8.33,8.33,0,0,1,1477,1066a6.62,6.62,0,0,1-1.45.46,7,7,0,0,1-1.39.14l-326.61-.77c-4.21,0-7.67-3.83-7.87-8.59,0-.15,0-.3,0-.46l0-23.42c0-.15,0-.31,0-.46.2-4.39,3.19-8,7-8.48a5.86,5.86,0,0,1,.94-.07l326.61.78a6.43,6.43,0,0,1,1.39.15,6.53,6.53,0,0,1,1.44.46,8.3,8.3,0,0,1,3.71,3.39A9.92,9.92,0,0,1,1482.14,1034.21Z"/><path class="cls-3" d="M1321.7,1066.28l-175-.42c-3.76,0-6.85-3.82-7-8.58,0-.15,0-.3,0-.46l0-23.42c0-.15,0-.31,0-.46.18-4.39,2.85-8,6.23-8.49a5.69,5.69,0,0,1,.83-.06l153.49.36s0,0,0,.07C1302.74,1037,1308.42,1053.89,1321.7,1066.28Z"/><path class="cls-2" d="M1439.34,992.7l0,23.42a9.91,9.91,0,0,1-1.37,5,8.31,8.31,0,0,1-3.71,3.37,6.79,6.79,0,0,1-1.45.46l-.46.08-.37,0h-.56l-326.61-.78c-4.21,0-7.67-3.83-7.88-8.58,0-.15,0-.3,0-.46l0-23.42c0-.16,0-.31,0-.46.22-4.75,3.69-8.56,7.91-8.55l326.6.78h.42a8,8,0,0,1,1,.13,7.35,7.35,0,0,1,1.44.47,7.43,7.43,0,0,1,.69.35l.4.25,0,0,.39.29a.18.18,0,0,1,.07,0l.35.29a8.41,8.41,0,0,1,.79.79c.07.09.15.17.22.27l0,0a1,1,0,0,1,.13.16l0,0a2.75,2.75,0,0,1,.23.33c.11.16.21.32.31.49A9.83,9.83,0,0,1,1439.34,992.7Z"/><path class="cls-3" d="M1278.9,1024.77l-175-.42c-3.75,0-6.85-3.83-7-8.58,0-.15,0-.3,0-.46l0-23.42c0-.16,0-.31,0-.46.2-4.75,3.3-8.56,7.06-8.55l153.49.36c.06.32.12.64.2,1,2.52,12.11,8.23,28.42,21.14,40.5Z"/><path class="cls-2" d="M1463.42,952.24l0,23.43a9.8,9.8,0,0,1-1.36,5,8.17,8.17,0,0,1-3.72,3.37,7,7,0,0,1-2.84.6l-326.6-.77a7.06,7.06,0,0,1-3.53-1,9.14,9.14,0,0,1-4.33-7.25c0-.12,0-.24,0-.36s0-.31,0-.47l0-23.42c0-.15,0-.31,0-.46.21-4.4,3.2-8,7-8.48a5.65,5.65,0,0,1,.93-.07l326.61.78a6.43,6.43,0,0,1,1.39.15,6.79,6.79,0,0,1,1.45.46,8.33,8.33,0,0,1,3.7,3.39A9.82,9.82,0,0,1,1463.42,952.24Z"/><path class="cls-3" d="M1303,984.31l-175-.42a5.72,5.72,0,0,1-3.15-1,9.35,9.35,0,0,1-3.86-7.25c0-.12,0-.24,0-.36s0-.31,0-.47l0-23.42c0-.15,0-.31,0-.46.19-4.39,2.86-8,6.23-8.49a5.69,5.69,0,0,1,.83-.06l153.49.37a.13.13,0,0,1,0,.06c2.38,11.9,7.84,28.21,20.4,40.5C1302.31,983.68,1302.64,984,1303,984.31Z"/><path class="cls-2" d="M1439.49,910.78l0,23.42a9.85,9.85,0,0,1-1.37,5,8.19,8.19,0,0,1-3.71,3.37,6.82,6.82,0,0,1-1.45.47l-.46.07-.26,0-.25,0-.42,0-326.61-.78c-4.21,0-7.67-3.83-7.88-8.58,0-.15,0-.31,0-.46l0-23.42v-.47c.23-4.75,3.7-8.55,7.91-8.54l326.61.77a7,7,0,0,1,1.39.15,6.64,6.64,0,0,1,1.45.47,8.22,8.22,0,0,1,3.7,3.39A9.8,9.8,0,0,1,1439.49,910.78Z"/><path class="cls-3" d="M1279.05,942.84l-175-.41c-3.76,0-6.85-3.83-7-8.58,0-.15,0-.31,0-.46l0-23.42v-.47c.21-4.75,3.31-8.55,7.07-8.54l153.48.36c2.43,12.2,8.09,29,21.35,41.46Z"/><rect class="cls-3" x="1392.72" y="1249.89" width="41.47" height="3.71" transform="translate(158.36 2662.23) rotate(-89.86)"/><rect class="cls-3" x="1380.16" y="1249.86" width="41.47" height="3.71" transform="translate(146.23 2649.98) rotate(-89.88)"/><rect class="cls-3" x="1365.09" y="1249.83" width="41.47" height="3.71" transform="translate(131.2 2634.84) rotate(-89.88)"/><rect class="cls-3" x="1341.99" y="1249.77" width="41.47" height="3.71" transform="translate(107.87 2611.38) rotate(-89.86)"/><rect class="cls-3" x="1317.57" y="1249.71" width="41.47" height="3.71" transform="translate(83.57 2586.9) rotate(-89.86)"/><rect class="cls-3" x="1280.13" y="1249.62" width="41.47" height="3.71" transform="translate(46.3 2549.37) rotate(-89.86)"/><rect class="cls-3" x="1245.07" y="1249.54" width="41.47" height="3.71" transform="translate(11.75 2514.57) rotate(-89.88)"/><rect class="cls-3" x="1213.76" y="1249.47" width="41.47" height="3.71" transform="translate(-19.74 2482.85) rotate(-89.86)"/><rect class="cls-3" x="1404.68" y="1249.92" width="41.47" height="3.71" transform="matrix(0, -1, 1, 0, 170.27, 2674.22)"/><rect class="cls-3" x="1412.58" y="1249.94" width="41.47" height="3.71" transform="translate(178.52 2682.48) rotate(-89.88)"/><rect class="cls-3" x="1420.21" y="1249.96" width="41.47" height="3.71" transform="matrix(0, -1, 1, 0, 185.73, 2689.79)"/><path class="cls-3" d="M1444.87,1231.08l-.07,41.48h2.32a7.12,7.12,0,0,0,1.39-.14l.07-41.18a6.37,6.37,0,0,0-1.39-.15Z"/><path class="cls-3" d="M1450,1231.7,1450,1272a8.19,8.19,0,0,0,3.71-3.37l.06-33.5A8.33,8.33,0,0,0,1450,1231.7Z"/><rect class="cls-3" x="1288.02" y="1208.17" width="41.47" height="3.71" transform="matrix(0, -1, 1, 0, 95.64, 2515.91)"/><rect class="cls-3" x="1252.97" y="1208.08" width="41.47" height="3.71" transform="translate(60.78 2480.8) rotate(-89.87)"/><rect class="cls-3" x="1221.66" y="1208.01" width="41.47" height="3.71" transform="translate(29.59 2449.4) rotate(-89.86)"/><path class="cls-3" d="M1435.13,1231.06l.08-41.47H1432l.51-.08.08-41.18a5.5,5.5,0,0,0-.69-.11l.07-40.19h1.45l-.07,39.84a8.19,8.19,0,0,0,3.71-3.37l.06-33.5a8.45,8.45,0,0,0-2.94-3h1.3l.07-41.47h-3.71l-.07,40.56a6.67,6.67,0,0,0-1.19-.11h-2.32l-.07,41.48h.68l-.07,41.18h2.32l.42,0-.08,41.43Z"/><rect class="cls-3" x="1420.48" y="1208.48" width="41.47" height="3.71" transform="translate(227.47 2648.68) rotate(-89.86)"/><rect class="cls-3" x="1428.11" y="1208.5" width="41.47" height="3.71" transform="matrix(0, -1, 1, 0, 234.71, 2656.04)"/><path class="cls-3" d="M1452.77,1189.63l-.07,41.47H1455a6.53,6.53,0,0,0,1.4-.15l.07-41.18a6.37,6.37,0,0,0-1.39-.15Z"/><path class="cls-3" d="M1457.93,1190.25l-.08,40.25a8.2,8.2,0,0,0,3.72-3.36l.06-33.5A8.27,8.27,0,0,0,1457.93,1190.25Z"/><polygon class="cls-3" points="1399.24 1189.57 1399.31 1148.09 1398.63 1148.09 1398.7 1106.91 1394.99 1106.91 1394.91 1148.38 1395.6 1148.38 1395.53 1189.49 1391.9 1189.48 1391.83 1230.96 1395.54 1230.97 1395.62 1189.56 1399.24 1189.57"/><polygon class="cls-3" points="1371.68 1148.03 1370.99 1148.03 1371.07 1106.85 1367.36 1106.84 1367.28 1148.31 1367.97 1148.32 1367.89 1189.49 1368.81 1189.49 1368.73 1230.9 1372.44 1230.91 1372.52 1189.44 1371.61 1189.44 1371.68 1148.03"/><path class="cls-3" d="M1434,1148.78l-.07,40.26a8.25,8.25,0,0,0,3.71-3.37l.06-33.5A8.23,8.23,0,0,0,1434,1148.78Z"/><polygon class="cls-3" points="1347.97 1106.79 1344.26 1106.79 1344.18 1148.26 1344.87 1148.26 1344.8 1189.37 1344.38 1189.37 1344.31 1230.84 1348.02 1230.85 1348.1 1189.44 1348.51 1189.45 1348.58 1147.97 1347.9 1147.97 1347.97 1106.79"/><polygon class="cls-3" points="1323.55 1106.74 1319.84 1106.73 1319.76 1148.2 1320.45 1148.2 1320.37 1189.38 1324.09 1189.39 1324.16 1147.91 1323.47 1147.91 1323.55 1106.74"/><polygon class="cls-3" points="1286.11 1106.65 1282.39 1106.64 1282.32 1148.11 1283.01 1148.11 1282.93 1189.29 1286.64 1189.3 1286.72 1147.83 1286.03 1147.82 1286.11 1106.65"/><polygon class="cls-3" points="1251.05 1106.56 1247.34 1106.56 1247.26 1148.03 1247.95 1148.03 1247.87 1189.21 1251.59 1189.22 1251.66 1147.74 1250.97 1147.74 1251.05 1106.56"/><polygon class="cls-3" points="1219.74 1106.49 1216.03 1106.48 1215.96 1147.95 1216.64 1147.95 1216.57 1189.13 1220.28 1189.14 1220.36 1147.67 1219.67 1147.67 1219.74 1106.49"/><polygon class="cls-3" points="1410.66 1106.94 1406.95 1106.93 1406.88 1148.41 1407.56 1148.41 1407.49 1189.52 1406.97 1189.52 1406.9 1230.99 1410.61 1231 1410.68 1189.59 1411.2 1189.6 1411.27 1148.12 1410.59 1148.12 1410.66 1106.94"/><polygon class="cls-3" points="1418.56 1106.96 1415.58 1106.95 1415.65 1066.5 1411.94 1066.49 1411.86 1107.97 1414.85 1107.98 1414.78 1148.43 1415.46 1148.43 1415.39 1189.61 1419.1 1189.61 1419.18 1148.14 1418.49 1148.14 1418.56 1106.96"/><rect class="cls-3" x="1380.46" y="1085.35" width="41.47" height="3.71" transform="translate(310.67 2485.82) rotate(-89.86)"/><polygon class="cls-3" points="1384.23 1106.88 1382.42 1106.88 1382.35 1148.35 1383.04 1148.35 1382.96 1189.53 1386.67 1189.54 1386.75 1148.06 1386.06 1148.06 1386.13 1107.91 1387.94 1107.91 1388.02 1066.44 1384.31 1066.43 1384.23 1106.88"/><rect class="cls-3" x="1342.29" y="1085.26" width="41.47" height="3.71" transform="translate(272.32 2447.27) rotate(-89.85)"/><rect class="cls-3" x="1317.87" y="1085.2" width="41.47" height="3.71" transform="translate(248.38 2423.08) rotate(-89.86)"/><rect class="cls-3" x="1280.42" y="1085.11" width="41.47" height="3.71" transform="translate(211.15 2385.58) rotate(-89.87)"/><rect class="cls-3" x="1245.37" y="1085.03" width="41.47" height="3.71" transform="translate(176.53 2350.67) rotate(-89.88)"/><rect class="cls-3" x="1214.06" y="1084.96" width="41.47" height="3.71" transform="translate(145.07 2319.03) rotate(-89.86)"/><polygon class="cls-3" points="1423.83 1106.97 1422.48 1106.97 1422.41 1148.44 1423.09 1148.45 1423.02 1189.56 1419.54 1189.55 1419.46 1231.02 1423.17 1231.03 1423.25 1189.62 1426.73 1189.63 1426.81 1148.16 1426.12 1148.16 1426.19 1108 1427.54 1108.01 1427.61 1066.53 1423.9 1066.52 1423.83 1106.97"/><rect class="cls-3" x="1420.51" y="1085.45" width="41.47" height="3.71" transform="matrix(0, -1, 1, 0, 350.53, 2525.97)"/><path class="cls-3" d="M1448.81,1107.91l.07-41.18a6.37,6.37,0,0,0-1.39-.15h-2.32l-.07,41.48h2.32A7.2,7.2,0,0,0,1448.81,1107.91Z"/><path class="cls-3" d="M1454,1104.08l.06-33.5a8.33,8.33,0,0,0-3.7-3.39l-.07,40.26A8.19,8.19,0,0,0,1454,1104.08Z"/><rect class="cls-3" x="1419.79" y="1043.97" width="41.47" height="3.71" transform="translate(391.29 2483.87) rotate(-89.86)"/><rect class="cls-3" x="1369.06" y="1043.85" width="41.47" height="3.71" transform="matrix(0, -1, 1, 0, 340.8, 2433.02)"/><rect class="cls-3" x="1344.63" y="1043.79" width="41.47" height="3.71" transform="translate(316.49 2408.54) rotate(-89.86)"/><rect class="cls-3" x="1307.19" y="1043.7" width="41.47" height="3.71" transform="translate(279.22 2371) rotate(-89.86)"/><rect class="cls-3" x="1272.13" y="1043.62" width="41.47" height="3.71" transform="translate(244.33 2335.86) rotate(-89.86)"/><rect class="cls-3" x="1240.83" y="1043.54" width="41.47" height="3.71" transform="translate(213.52 2304.77) rotate(-89.88)"/><rect class="cls-3" x="1431.75" y="1044" width="41.47" height="3.71" transform="translate(403.19 2495.86) rotate(-89.86)"/><rect class="cls-3" x="1439.65" y="1044.02" width="41.47" height="3.71" transform="matrix(0, -1, 1, 0, 411.05, 2503.78)"/><rect class="cls-3" x="1447.28" y="1044.03" width="41.47" height="3.71" transform="translate(418.69 2511.45) rotate(-89.87)"/><path class="cls-3" d="M1471.94,1025.16l-.08,41.48h2.32a7.23,7.23,0,0,0,1.4-.14l.07-41.19a7.12,7.12,0,0,0-1.39-.14Z"/><path class="cls-3" d="M1477.1,1025.78,1477,1066a8.28,8.28,0,0,0,3.72-3.37l.06-33.5A8.27,8.27,0,0,0,1477.1,1025.78Z"/><polygon class="cls-3" points="1395.83 1025.05 1399.54 1025.06 1399.61 983.58 1395.99 983.57 1396.06 943.12 1399.69 943.13 1399.76 901.66 1396.05 901.65 1395.97 943.06 1392.35 943.05 1392.28 984.52 1395.9 984.53 1395.83 1025.05"/><rect class="cls-3" x="1364.42" y="1002.43" width="41.47" height="3.71" transform="translate(377.21 2386.78) rotate(-89.85)"/><rect class="cls-3" x="1301.83" y="1002.28" width="41.47" height="3.71" transform="translate(315.3 2324.32) rotate(-89.86)"/><rect class="cls-3" x="1264.39" y="1002.19" width="41.47" height="3.71" transform="translate(278.07 2286.81) rotate(-89.87)"/><rect class="cls-3" x="1229.33" y="1002.11" width="41.47" height="3.71" transform="matrix(0, -1, 1, 0, 243.14, 2251.65)"/><rect class="cls-3" x="1198.03" y="1002.03" width="41.47" height="3.71" transform="translate(212.02 2220.3) rotate(-89.87)"/><polygon class="cls-3" points="1407.79 1025.08 1411.07 1025.08 1411 1066.49 1414.71 1066.5 1414.79 1025.03 1411.5 1025.02 1411.57 983.61 1411.06 983.61 1411.13 943.16 1411.65 943.16 1411.72 901.69 1408.01 901.68 1407.93 943.09 1407.42 943.08 1407.35 984.56 1407.86 984.56 1407.79 1025.08"/><rect class="cls-3" x="1396.84" y="1002.51" width="41.47" height="3.71" transform="translate(410.62 2420.1) rotate(-89.89)"/><path class="cls-3" d="M1434.93,984.62h.65l.08-41.48h-3.26a4.34,4.34,0,0,0,.52-.08l.08-41.18a6.53,6.53,0,0,0-1.4-.15h-2.32l-.07,41.47h2.32l.42,0-.08,40.5-.42,0h-2.32l-.07,41.41h-2l.07-41.41h-3.47l.07-40.45h3.48l.07-41.48h-3.71l-.07,41.41H1420l-.08,41.48h3.48l-.07,40.51h2.82l-.08,41.41h3.72l.07-41.41h1.53a7.12,7.12,0,0,0,1.39-.14l.07-40.37h1.45l-.07,39.91a8.31,8.31,0,0,0,3.71-3.37l.06-33.5A8.33,8.33,0,0,0,1434.93,984.62Z"/><rect class="cls-3" x="1288.47" y="961.73" width="41.47" height="3.71" transform="translate(342.87 2270.77) rotate(-89.88)"/><rect class="cls-3" x="1253.42" y="961.65" width="41.47" height="3.71" transform="matrix(0, -1, 1, 0, 307.63, 2235.37)"/><rect class="cls-3" x="1222.11" y="961.57" width="41.47" height="3.71" transform="translate(276.47 2203.99) rotate(-89.86)"/><rect class="cls-3" x="1420.93" y="962.05" width="41.47" height="3.71" transform="translate(474.39 2403.31) rotate(-89.87)"/><rect class="cls-3" x="1428.56" y="962.07" width="41.47" height="3.71" transform="matrix(0, -1, 1, 0, 481.94, 2410.93)"/><path class="cls-3" d="M1453.22,943.19l-.08,41.48h2.32a7.23,7.23,0,0,0,1.4-.14l.07-41.18a6.43,6.43,0,0,0-1.39-.15Z"/><path class="cls-3" d="M1462,980.7l.06-33.5a8.27,8.27,0,0,0-3.7-3.39l-.08,40.26A8.22,8.22,0,0,0,1462,980.7Z"/><rect class="cls-3" x="1364.57" y="920.5" width="41.47" height="3.71" transform="translate(459.66 2305.47) rotate(-89.86)"/><polygon class="cls-3" points="1372.13 901.59 1368.42 901.58 1368.34 943.06 1369.26 943.06 1369.18 983.51 1368.27 983.51 1368.19 1024.98 1371.9 1024.99 1371.98 984.47 1372.89 984.48 1372.97 943 1372.05 943 1372.13 901.59"/><polygon class="cls-3" points="1345.24 942.94 1344.83 942.94 1344.76 984.41 1345.17 984.41 1345.1 1024.93 1348.81 1024.94 1348.88 983.46 1348.47 983.46 1348.55 943.01 1348.96 943.01 1349.03 901.54 1345.32 901.53 1345.24 942.94"/><rect class="cls-3" x="1301.98" y="920.36" width="41.47" height="3.71" transform="matrix(0, -1, 1, 0, 397.37, 2242.74)"/><rect class="cls-3" x="1264.54" y="920.27" width="41.47" height="3.71" transform="matrix(0, -1, 1, 0, 360.11, 2205.21)"/><rect class="cls-3" x="1229.48" y="920.18" width="41.47" height="3.71" transform="translate(324.91 2169.84) rotate(-89.85)"/><rect class="cls-3" x="1198.17" y="920.11" width="41.47" height="3.71" transform="translate(294.39 2138.94) rotate(-89.88)"/><rect class="cls-3" x="1396.99" y="920.58" width="41.47" height="3.71" transform="translate(491.55 2337.73) rotate(-89.85)"/><path class="cls-3" d="M1434.44,902.35l-.07,40.25a8.19,8.19,0,0,0,3.71-3.37l.06-33.5A8.2,8.2,0,0,0,1434.44,902.35Z"/><path class="cls-2" d="M1543.26,1012.92l23.06,4.09a9.86,9.86,0,0,1,4.73,2.22,8.24,8.24,0,0,1,2.67,4.24,6.37,6.37,0,0,1,.2,1.5,6,6,0,0,1-.1,1.4l-57.29,321.55c-.74,4.14-5.1,6.89-9.81,6.27l-.46-.07-23.06-4.1-.46-.09c-4.63-1-7.78-5.12-7-9.26L1533,1019.12a6,6,0,0,1,.14-.61c0-.08,0-.17.07-.26s.06-.19.1-.28,0-.13.08-.2a6.38,6.38,0,0,1,.71-1.34l.12-.18c0-.06.09-.13.14-.18l.28-.36.19-.2.17-.17c.1-.11.21-.21.32-.32l.41-.34.34-.25h0l.24-.16a5.84,5.84,0,0,1,.76-.45l.24-.12.24-.11c.16-.07.33-.15.5-.21A9.83,9.83,0,0,1,1543.26,1012.92Z"/><path class="cls-3" d="M1547.08,1176.49l-30.7,172.26c-.66,3.7-5,6.08-9.66,5.44l-.46-.07-23.06-4.1-.46-.09c-4.64-1-7.85-4.73-7.19-8.43l26.92-151.11q.52,0,1,0C1515.89,1190,1533,1187.14,1547.08,1176.49Z"/><rect class="cls-3" x="1545.64" y="1035.18" width="3.71" height="41.47" transform="translate(236.07 2393.78) rotate(-79.88)"/><rect class="cls-3" x="1543.44" y="1047.55" width="3.71" height="41.47" transform="translate(222.75 2402.48) rotate(-79.91)"/><rect class="cls-3" x="1540.79" y="1062.39" width="3.71" height="41.47" transform="translate(205.68 2411.82) rotate(-79.9)"/><rect class="cls-3" x="1536.74" y="1085.13" width="3.71" height="41.47" transform="translate(179.95 2426.58) rotate(-79.9)"/><rect class="cls-3" x="1532.46" y="1109.17" width="3.71" height="41.47" transform="translate(153.03 2442.49) rotate(-79.91)"/><rect class="cls-3" x="1525.89" y="1146.03" width="3.71" height="41.47" transform="translate(111.01 2466.09) rotate(-79.89)"/><rect class="cls-3" x="1519.74" y="1180.55" width="3.71" height="41.47" transform="translate(72.27 2488.84) rotate(-79.91)"/><rect class="cls-3" x="1514.25" y="1211.37" width="3.71" height="41.47" transform="translate(36.81 2508.17) rotate(-79.88)"/><rect class="cls-3" x="1547.74" y="1023.41" width="3.71" height="41.47" transform="translate(249.78 2386.52) rotate(-79.9)"/><rect class="cls-3" x="1549.12" y="1015.63" width="3.71" height="41.47" transform="translate(258.55 2381.44) rotate(-79.89)"/><rect class="cls-3" x="1550.46" y="1008.12" width="3.71" height="41.47" transform="translate(267.08 2376.59) rotate(-79.9)"/><path class="cls-3" d="M1532.58,1021.4l40.83,7.26.41-2.29a6,6,0,0,0,.1-1.39l-40.55-7.21a6.94,6.94,0,0,0-.38,1.35Z"/><path class="cls-3" d="M1534.08,1016.43l39.64,7a8.19,8.19,0,0,0-2.68-4.24l-33-5.86A8.32,8.32,0,0,0,1534.08,1016.43Z"/><path class="cls-4" d="M2321.68,1354.15H2181.32c-7.52-6.38,5.21-20.87,18.5-21.85,5.78-.43,13.08.78,21.43,2.54,1.93-25.65,13-141,54.53-136.34,46.74,5.19,0,50.79-13.22,77.78-9.78,20-20.11,48.67-24.83,62.2,3.8.82,7.73,1.63,11.74,2.37,6.19-19,29.24-83,58.56-79.28,34.41,4.37,20.58,30-3.81,45.25-17.9,11.2-39.88,27.11-50.32,34.8a148.46,148.46,0,0,0,27.45,2.2C2305.39,1343.25,2317.13,1350.34,2321.68,1354.15Z"/><path class="cls-4" d="M491.64,1349.49c-5.57-8.76-22.35-31.49-44.69-28.48-24.35,3.28,26.88,19.33,42.57,28.54a26.1,26.1,0,0,1-8.68-1c-10.49-3.74-28.44,3.43-34.19,5.94h99.83a15.82,15.82,0,0,0-7.14-9.12c-1.63-1-4.93-1.15-9.18-.82,5.93-7,10.05-29.35-6.47-23.6-12.07,4.2-12,17.86-10.85,25.94-2.57.4-5.18.81-7.75,1.18-5-25.33-22.55-99.57-58.18-101.55-36.12-2,30.63,77,52.86,102.26C496.92,1349.11,494.18,1349.37,491.64,1349.49Z"/><circle class="cls-5" cx="1379.87" cy="617.3" r="143.76" transform="translate(-32.34 1156.52) rotate(-45)"/><circle class="cls-2" cx="1368.89" cy="623.35" r="143.76" transform="translate(418.25 1789) rotate(-75.28)"/><path class="cls-3" d="M1369.93,755.8a131,131,0,1,1,114.49-194.19c34.86,63.25,11.77,143.07-51.48,177.94A130.19,130.19,0,0,1,1369.93,755.8Zm-.39-254.18a123.54,123.54,0,1,0,34.4,4.91A122.53,122.53,0,0,0,1369.54,501.62Z"/><path class="cls-3" d="M1403.85,649.43a21.41,21.41,0,0,0-3.94-6.51,15.79,15.79,0,0,0-5.86-4,29.71,29.71,0,0,0-8.37-1.87,79.12,79.12,0,0,0-11.42-.07q-11.35.54-21,0a65.44,65.44,0,0,1-17.46-3.17,38.39,38.39,0,0,1-13.71-8,43.23,43.23,0,0,1-12.73-30.35,36.24,36.24,0,0,1,3.44-14.78,45.48,45.48,0,0,1,9.39-13.07,60.38,60.38,0,0,1,14.88-10.6l-8.18-20.14,16.21-6.58,8.29,20.42a54.47,54.47,0,0,1,17.68-1.8,41.1,41.1,0,0,1,28.71,14.16,54.86,54.86,0,0,1,9.59,15.9l-29.29,11.89q-4.57-11.29-11.87-14.86t-15.7-.15a23.62,23.62,0,0,0-7.34,4.46,16,16,0,0,0-4,5.69,14.85,14.85,0,0,0-1,6.5,21.64,21.64,0,0,0,1.63,6.9,19.92,19.92,0,0,0,3.57,5.9,14.78,14.78,0,0,0,5.62,3.8,29.77,29.77,0,0,0,8.42,1.85,101.45,101.45,0,0,0,12,.24q11.31-.32,20.94.27a65.43,65.43,0,0,1,17.44,3.28,38.83,38.83,0,0,1,13.73,8.07,43.47,43.47,0,0,1,12.76,30.56,36,36,0,0,1-3.53,14.71A44,44,0,0,1,1423.1,681a65.48,65.48,0,0,1-15,10.49l7.61,18.73-16.12,6.54L1392,698.11a73.43,73.43,0,0,1-17.76,2.93,46.6,46.6,0,0,1-17.24-2.48,41.62,41.62,0,0,1-15.17-9.47q-6.93-6.62-11.52-17.91l29.28-11.89a31.18,31.18,0,0,0,6.41,10.39,20,20,0,0,0,7.92,5.12,19.6,19.6,0,0,0,8.67.87,33.84,33.84,0,0,0,8.6-2.23,28.13,28.13,0,0,0,7.86-4.62,18.61,18.61,0,0,0,4.65-5.84,14.84,14.84,0,0,0,1.57-6.61A18.16,18.16,0,0,0,1403.85,649.43Z"/><path class="cls-6" d="M1512,539.93c-6-4.24-19.66-13.59-20.36-11.51-.51,1.5.21,4.05,1.85,6.69-8.25-3.08-16.63-5.1-36.43-1.3a14.88,14.88,0,0,0-9.75,6.42c-2,3.14-2.77,7.07,2.28,10.22,10.11,6.28,7.18,2.52,21.23,11.67s31.24,11.49,41.52,5.06l13.79-2.29,1.71-22.69S1519.93,541.27,1512,539.93Z"/><path class="cls-6" d="M1873.32,349.68s-32.51,38.57-73.91,22.43c0,0-8.91-21.54-9-37.42,0-1.95,0-3.85-.07-5.65-.22-17.88-.83-27.91-.83-27.91h0c1.88-.78,63.29-26,63.23-23.9C1851.71,325.58,1873.32,349.68,1873.32,349.68Z"/><path class="cls-7" d="M1846.6,288.75c-5.92,11-26.24,32.45-56.29,40.29-.22-17.88-.83-27.91-.83-27.91h0C1791.23,300.66,1848.36,285.51,1846.6,288.75Z"/><path class="cls-6" d="M1776.62,299.27s69.06,16.24,78.51-26.93,24.73-70.13-19-82.32-55.89,2.4-62.55,16S1758.9,293.93,1776.62,299.27Z"/><path class="cls-8" d="M1852.77,284.1c.94.61,15.8,5.17,43.94-50.89,4.42-8.8,7.43-27.83-2.87-44.66s-46.81-30-77.14-35.8-37.62,11.32-44.77,28.47c-7.5,18-29.15,32.84-29.15,32.84,26.16,14.61,57.66-6.29,68.58-2.85s14.77,20.63,15.59,26.15,2.08,10.1,15.8,5.17,6.21,19.45,4,24.11C1846.76,266.64,1844.89,279.06,1852.77,284.1Z"/><path class="cls-9" d="M2030.67,1360.47h41.81c8.77,0,18.51-8.78,20.95-24.85s20.45-24.85,24.35-38-16.07-31.67-16.07-31.67l-3.35-4.29-3.47-4.48-33.12,7.79s-.82,7.89-1.33,17.93a229,229,0,0,0-.14,23c1,17.54-4.91,36.43-20.49,39.84S2030.67,1360.47,2030.67,1360.47Z"/><path class="cls-9" d="M1739.56,1360.47H1850.4a9.93,9.93,0,0,0,2.36-.69c7.4-3.7,5.08-32,4.19-40.79-.17-1.62-.29-2.57-.29-2.57s-39-31.17-44.34-7.3c-.17.74-.37,1.47-.57,2.19h0c-6.77,22.34-37,32.48-54.49,35.31C1743.91,1348.8,1740.45,1356.58,1739.56,1360.47Z"/><path class="cls-10" d="M1761.9,721.27s5.92,73.85,12.88,162.63c9.45,120.59,20.83,268.72,22,296.78,2,48.73,9.75,126.68,9.75,126.68s18.5,18.52,55.54,10.71c0,0,33-111.27,42.43-229q.21-2.89.44-5.81c8.77-119.85,22.4-372.22,22.4-372.22Z"/><path class="cls-11" d="M1761.9,721.27s5.92,73.85,12.88,162.63l129.67,205.17q.21-2.89.44-5.81c8.77-119.85,22.4-372.22,22.4-372.22Z"/><path class="cls-10" d="M1788.93,730s106.7,267.47,176.85,393.16S2057.86,1284,2057.86,1284s40.2-16.07,43.85-27c0,0-26.83-242.66-73.81-301.81-26.55-33.43-57.73-133.73-59.19-168.81s-9.5-104.5-9.5-104.5Z"/><path class="cls-6" d="M2032.25,681.44l1.13,17.2s-11.34,30.56,20.44,46.24c0,0,13.61,5.49,14.16-5.11s-1.19-6.6-.08-21.52-4.76-29-14.63-33.76l-8.09-9.34Z"/><path class="cls-12" d="M2044.67,694c-11.81,3.79-13.7,2.93-13.7,2.93s-57.48-104.65-63.3-114.23-122-117.35-122-117.35L1875.49,354S2007.68,525.12,2022,549.68c23.59,40.59,37.41,134.86,37.41,134.86A34.64,34.64,0,0,1,2044.67,694Z"/><path class="cls-13" d="M1739.38,509.05c.41,22.87,1.74,48.58,3.53,74.69l.33,4.65c1.15,16.18,2.39,32.39,3.82,48.2.57,6.34,1.18,12.61,1.82,18.77l.09.83c0,2.3.33,4.8.59,7.08,5.82,59.22,11.93,106,13.07,106.73a6.55,6.55,0,0,0,4.54,1.16c15.54-1.95,61.87,1.57,99.81-6.68,32-6.75,59.58-19.55,88.79-36.82,3.88-2.29,12.72-8.36,12-12.9-.71-5-2-12.19-3.67-21.24-5.75-31.51-15.69-85.7-19.08-149.12q-1-17.71-2.86-34.95c-3.26-29.88-8.48-58.26-15.47-83.47-13-46.84-32.13-82.71-56.11-96.74-3.13-1.76-20,9-35.48,18.91-14.3,9.17-29.35,11.7-44,10.42l-12.89,14.25c-15.61,18.14-32.22,42.29-36.76,76.63q-.51,3.8-.88,8.09C1739.33,471.52,1739,489.22,1739.38,509.05Z"/><path class="cls-12" d="M1739.38,509.05c.41,22.87,1.74,48.58,3.53,74.69l.33,4.65c88.72-55.53,102.39-157.15,102.39-157.15-43.65,1.92-78.32,11.95-105.05,26.3C1739.33,471.52,1739,489.22,1739.38,509.05Z"/><path class="cls-13" d="M1515.22,552.79c-.91-13.16,5.9-15.35,5.9-15.35s133.76-24.24,145.13-27.81S1774.86,404.9,1774.86,404.9s37.27-42,67.78-32.75c26.52,8.07,36.89,28.75,40.42,48.46a58,58,0,0,1-27,59.58c-45.65,28-137,83.17-158.56,89.48-47.9,14-176.6,1.12-176.6,1.12A41.48,41.48,0,0,1,1515.22,552.79Z"/><path class="cls-14" d="M1672.61,809.71v497.2a52.9,52.9,0,0,1-52.73,52.74H1108.81a53.61,53.61,0,0,1-36.29-14.14,54.41,54.41,0,0,1-11.55-15c-.16-.3-.31-.6-.46-.91a53.12,53.12,0,0,1-5.47-20.14c-.09-1.23-.14-2.47-.14-3.72V812.9a81.6,81.6,0,0,1,37.92-68.69l.06,0a70.63,70.63,0,0,0,29.31-80.71h483.14a70.64,70.64,0,0,0,26.91,79.11h0c1.21.85,2.46,1.66,3.73,2.42h0A75.83,75.83,0,0,1,1672.61,809.71Z"/><path class="cls-14" d="M1672.61,809.71v497.2a52.9,52.9,0,0,1-49,52.6c-1.23.09-2.47.14-3.73.14h-225a54.07,54.07,0,0,1-53.91-53.91V812.9a81.6,81.6,0,0,1,37.92-68.69,70.63,70.63,0,0,0,29.37-80.75h197.1A70.65,70.65,0,0,0,1636,745,75.83,75.83,0,0,1,1672.61,809.71Z"/><path class="cls-15" d="M1632.24,742.57c-15.78-9.45-84.15-42.94-258-41.53-199.14,1.63-278.91,41.88-281.36,43.13a70.63,70.63,0,0,0,29.31-80.71h483.14a70.64,70.64,0,0,0,26.91,79.11Z"/><path class="cls-10" d="M1616.27,660v22.55a4,4,0,0,1-4,4h-497a4,4,0,0,1-4-4V660a4.05,4.05,0,0,1,4-4h497A4,4,0,0,1,1616.27,660Z"/><path class="cls-11" d="M1616.27,660v22.55a4,4,0,0,1-4,4H1424.13a4.05,4.05,0,0,1-4-4V660a4.06,4.06,0,0,1,4-4h188.11A4,4,0,0,1,1616.27,660Z"/><path class="cls-16" d="M1284.71,771.64s-12.81,18-24.55,18.29-29.61-8.36-29.61-8.36-10.78-24-3.47-33.43a15.7,15.7,0,0,1,15,2.46,22.87,22.87,0,0,1,4,3.8,12.57,12.57,0,0,0,6.17,4.18c8.38,2.55,18.32-3.44,22,2.34a39.62,39.62,0,0,0,6.48,7.67A29.4,29.4,0,0,0,1284.71,771.64Z"/><path class="cls-16" d="M1117.72,901.71S1163,792,1244.49,789.93c0,0,75.22,8.35,79.4,111.78Z"/><path class="cls-17" d="M1222.16,793.28s32.67,7.26,42.74,3c0,0,1.53-13.66-12.23-11.74-9.41,1.31-15.55-3.22-19.15-5C1228.41,776.88,1220.81,787.56,1222.16,793.28Z"/><path class="cls-18" d="M1250.59,772.69c-2.09,1.56-8.51-22.09-8.51-22.09a22.87,22.87,0,0,1,4,3.8,12.57,12.57,0,0,0,6.17,4.18C1252.24,759.27,1252.62,771.16,1250.59,772.69Z"/><path class="cls-18" d="M1280.74,768.59c-.46.27-15.57,9.32-17.61,9.32s11.13-17,11.13-17A39.62,39.62,0,0,0,1280.74,768.59Z"/><path class="cls-18" d="M1162,871.07c-.84-.72,32-48.41,41.09-48.76s29.4,10.45,44.13,11.84,29-2.78,31.79,5.92,10.45,39.58,5.75,44.52S1180,886.51,1162,871.07Z"/><path class="cls-19" d="M1125.34,1322.08c-2.62,1.38-5.25,2.68-7.91,3.94-2.52,1.46-5.1,2.9-7.72,4.26a210.36,210.36,0,0,1-37.19,15.23,54.41,54.41,0,0,1-11.55-15c-2,1.08-4,2.11-6.07,3.12V958.49a213.79,213.79,0,0,1,27.56,5.55c50.68,13.69,95.81,45.94,123.26,93.37C1260.25,1151.63,1224.26,1270.13,1125.34,1322.08Z"/><path class="cls-5" d="M1159.61,1042.63c-54.52-98.92-178.92-134.9-277.83-80.37s-134.91,178.92-80.38,277.83,178.92,134.91,277.84,80.38S1214.14,1141.55,1159.61,1042.63Z"/><path class="cls-2" d="M1071.3,1324.62q-3.78,2.31-7.69,4.46c-.88.49-1.76,1-2.64,1.43-2,1.08-4,2.11-6.07,3.12-97.39,47.83-216.18,11.12-269.13-84.92-50.5-91.61-23.35-205.08,59.51-264.66a205.11,205.11,0,0,1,20.87-13.18q3.93-2.18,7.92-4.15c2.58-1.28,5.18-2.51,7.79-3.67a204.67,204.67,0,0,1,61.39-16.5A204.63,204.63,0,0,1,1144,1051.24C1197.08,1147.56,1164.37,1268,1071.3,1324.62Z"/><path class="cls-3" d="M966.32,1338.51a187,187,0,0,1-52.05-7.42,185.27,185.27,0,1,1,52.05,7.42ZM812.6,1236.68a175.22,175.22,0,1,0-14.87-133.28A174,174,0,0,0,812.6,1236.68Z"/><path class="cls-3" d="M1056.17,1169.89c-.4-1-.83-2-1.27-2.94a53.62,53.62,0,0,0-12.4-17.72,55.27,55.27,0,0,0-19.53-11.49,93.48,93.48,0,0,0-24.81-4.66q-13.7-.84-29.8-.39a143.49,143.49,0,0,1-17-.34,42.65,42.65,0,0,1-12-2.62,21.1,21.1,0,0,1-8-5.42,28.56,28.56,0,0,1-5.08-8.38,31.14,31.14,0,0,1-2.31-9.83,21.05,21.05,0,0,1,1.46-9.24,22.44,22.44,0,0,1,5.7-8.08,33.23,33.23,0,0,1,10.43-6.35q12-4.87,22.34.21t16.89,21.14l41.67-16.92a77.94,77.94,0,0,0-13.64-22.62A58.47,58.47,0,0,0,968,1044.09a77.28,77.28,0,0,0-25.14,2.57L931,1017.6,908,1027l11.64,28.66a86.47,86.47,0,0,0-21.18,15.06,64.91,64.91,0,0,0-13.34,18.61,51.75,51.75,0,0,0-4.91,21,55.94,55.94,0,0,0,4.4,22.39q5.32,13.13,13.73,20.79a54.57,54.57,0,0,0,19.5,11.42,92.51,92.51,0,0,0,24.83,4.5,291.75,291.75,0,0,0,29.87,0,110.77,110.77,0,0,1,16.25.11,42.5,42.5,0,0,1,11.91,2.64,22.59,22.59,0,0,1,8.34,5.66,30.68,30.68,0,0,1,5.61,9.27,25.51,25.51,0,0,1,2,9.87,20.93,20.93,0,0,1-2.22,9.41,26.65,26.65,0,0,1-6.62,8.31,40.12,40.12,0,0,1-11.19,6.57,48.31,48.31,0,0,1-12.23,3.17,28,28,0,0,1-12.33-1.23,28.77,28.77,0,0,1-11.27-7.29q-5.25-5.27-9.11-14.78L910,1218q6.51,16.07,16.39,25.47A59.11,59.11,0,0,0,948,1257a66,66,0,0,0,24.53,3.54,104,104,0,0,0,25.26-4.17l10.76,26.51,22.92-9.3-10.82-26.65A92.68,92.68,0,0,0,1042,1232a62.88,62.88,0,0,0,12.9-16.86c.26-.48.5-1,.73-1.47a51,51,0,0,0,5-20.91A56.33,56.33,0,0,0,1056.17,1169.89Z"/><path class="cls-9" d="M812.92,430c.62-2.5-54.47,24.91-57.27,28C729.81,486.63,737.18,524,752,524.39c9.48.23,7.64,16,7.64,16L865.25,495.7S852.54,421.53,812.92,430Z"/><path class="cls-9" d="M825.93,435.75s3.78-41.15-42.21-41.15c0,0,13.94,3.78,21.15,11.34,0,0-29.33-17.22-61.25,9.23S731.54,508,721.83,520.58,674.33,535.7,679,576.43,798.9,668.18,791.5,701.89c0,0,45.19-66.44,12.87-96.76,0,0,15.76,14.84,17.36,32.47,0,0,4.28-34.43-17.64-45.45-19.39-9.74-35.27-45.39-33.59-51.76S825.93,435.75,825.93,435.75Z"/><path class="cls-20" d="M784.18,629.36c-7.09-34.14-51.36-44.73-72.31-16.85a37,37,0,0,0-7.28,17.94c-4.78,38.76,57.18,196.62,66.06,210.92,16.15,26,111.29,115.22,111.29,115.22L899.47,946S832,831.72,821.54,821C809.46,808.67,797.64,694.19,784.18,629.36Z"/><path class="cls-20" d="M875.27,946s25.59-16.8,35.28-15.72,37.73,9.15,38.07,13.28-31.24,6.69-33.36,8.94-23.57,16.57-31.34,12.08S875.27,946,875.27,946Z"/><path class="cls-10" d="M696.77,1325.61l-22.86-3.36S597,1261.16,585.6,1147.18a204,204,0,0,1-.55-35.24,6.16,6.16,0,0,0-.8-3.89l0,0c-2.46-3.77-8.59-13.22-16.88-26.66-8.17-13.24-22.15-38.27-37.54-66.35-27.71-50.58-60-111.07-71-130.33C423.49,823.27,440.49,782,440.49,782s98.39-9.72,125.34-33.31l9.71,15s21.32,94.37,20.31,94.81q1.57,4.81,3.2,9.8c16.83,51.92,36.18,116.82,46.73,169.67,5.92,29.74,9.07,55.65,7.38,73.31-.58,6,.12,15.36,1.74,26.85C664.42,1205.81,696.77,1325.61,696.77,1325.61Z"/><path class="cls-11" d="M744.73,1354.53H649.35S647.06,1340,652,1329c4.78-10.59,11.58-10.92.87-27.51,6.06,6.24,25.55,8.82,39.34,7,1.69,2.74,10.89,21.11,16.53,25.17C715,1338.07,742.81,1336.48,744.73,1354.53Z"/><path class="cls-11" d="M599.05,868.25c-8.33,46-28,122.42-69.24,146.76-27.71-50.58-60-111.07-71-130.33C423.49,823.27,440.49,782,440.49,782s98.39-9.72,125.34-33.31l9.71,15s21.32,94.37,20.31,94.81Q597.42,863.26,599.05,868.25Z"/><path class="cls-21" d="M774,608.18s13.49,14,19.65,30.82c0,0-21.51,61.78-71.79,69.53C721.83,708.53,761.61,608.16,774,608.18Z"/><path class="cls-10" d="M532.16,789.08l.32-17.84c-35.54,4.48-122.54-42.47-122.54-42.47s-37.19,24.73-42.27,95.36c-2.49,34.47-18.21,180.25-19.94,223.78-.64,15.78-.85,27-.92,31.54a0,0,0,0,1,0,0,6.17,6.17,0,0,1-1.51,3.67A204.13,204.13,0,0,0,326,1112.69c-54.23,100.9-25.87,238-25.87,238l12.6-3.2s45.85-142.14,75.82-203.62c5.09-10.42,9.71-18.54,13.58-23.23,11.27-13.69,23.15-36.93,34.86-64.91,22.14-52.88,43.64-122.67,59-176.7C497.08,879.24,532.16,789.08,532.16,789.08Z"/><path class="cls-6" d="M740.15,670c-58.11-13.33-21-95-17.62-93.54,8.05-1.64,25.73-15.77,41.55-43.38l2.13,1.85,35.69,31.29s-8.25,12.17-15.19,24.09c-5.42,9.33-10,18.52-9.3,21.68C780.28,614.27,755.64,673.59,740.15,670Z"/><path class="cls-20" d="M801.9,566.25s-8.25,12.15-15.19,24.09c-22.19-13.68-22.21-41.15-20.5-55.38Z"/><path class="cls-6" d="M802.89,581.92s-53.87-30-34.69-63.24,25.15-59.53,60.36-41.8,34.51,34.25,30.8,46.91S817.4,588.86,802.89,581.92Z"/><path class="cls-9" d="M868.46,504.39c-2.46-14.77-10-16.18-15.2-15.19-19.89-32.9-52.39-20.06-52.39-20.06-17.36,21.78-42.46,25.5-42.46,25.5s6.25,11.63,32,18.83c7.86,2.2,16.79.87,25.41-2a144,144,0,0,1-36.56,13.78c33.94,3.11,66.24-27.92,69.59-31.24,1.56,4.81,4.31,14.87,2.66,22.23-2.23,10-11.11,28.12-5.69,30.47C845.83,546.68,872.17,526.54,868.46,504.39Z"/><path class="cls-11" d="M376,1354.53H280.64s-2.28-14.54,2.7-25.56c4.77-10.59,12.25-15.4,10.46-28.2,6.06,6.24,15.94,13.23,29.72,11.37,1.69,2.74,10.91,17.4,16.55,21.46C346.31,1338.07,374.1,1336.48,376,1354.53Z"/><path class="cls-22" d="M747,734.75c-12.27,4.28-29.5,6.63-47.12,8.54-25.08,2.74-51,4.61-64.53,10-5,2-8.26,4.41-9.29,7.53-5.88,17.67-31.79,44.95-31.79,44.95-166.08-7.55-184.31-77-184.31-77C521.67,598.84,710.87,561.23,710.87,561.23s13.51-5.73,47.54,21.32c22.71,18.05,19.72,25,19.72,25S783.1,722.15,747,734.75Z"/><path class="cls-21" d="M699.86,743.29c-25.08,2.74-51,4.61-64.53,10-5.55-82.83,33.54-145.13,33.54-145.13S694.37,712,699.86,743.29Z"/><path class="cls-6" d="M725.68,592.15s-62.86,6.21-67.9,47.06S718,846.4,727.39,861.46c17,27.42,117.28,121.42,117.28,121.42l18.48-11.2S792,851.3,781,840C763.75,822.35,747,606.3,725.68,592.15Z"/><path class="cls-22" d="M659.6,663.78c.16.93,58,18.89,95.23,0,0,0,8-85.89-36.48-81.23s-70.76,18.66-71.88,39.93S659.6,663.78,659.6,663.78Z"/><path class="cls-6" d="M839,970.94s22.55-20.7,32.28-21.2,38.71,3,39.71,7-29.75,11.64-31.48,14.2-20.59,20.15-29,17S839,970.94,839,970.94Z"/><rect class="cls-23" y="1354.15" width="2589.27" height="6.87" rx="2.93"/></g></g></svg>