<svg xmlns="http://www.w3.org/2000/svg" viewBox="0 0 500 389.23"><defs><style>.cls-1{isolation:isolate;}.cls-2{fill:#ebebeb;}.cls-10,.cls-3{fill:#e6e6e6;}.cls-4{fill:#f0f0f0;}.cls-15,.cls-5{fill:#fafafa;}.cls-17,.cls-6{fill:#fff;}.cls-15,.cls-7{opacity:0.4;}.cls-8{fill:#e0e0e0;}.cls-9{fill:#f5f5f5;}.cls-10{opacity:0.7;mix-blend-mode:multiply;}.cls-11{fill:#263238;}.cls-12{fill:#ff8b7b;}.cls-13,.cls-17{opacity:0.2;}.cls-14{fill:#4c9aff;}.cls-16{fill:#ff5652;}.cls-18{opacity:0.1;}</style></defs><g class="cls-1"><g id="Layer_2" data-name="Layer 2"><g id="Plant"><rect class="cls-2" y="344.07" width="500" height="0.25"/><rect class="cls-2" x="396.83" y="360.16" width="53.07" height="0.25"/><rect class="cls-2" x="272.56" y="357.03" width="58.66" height="0.25"/><rect class="cls-2" x="380.2" y="355.58" width="19.19" height="0.25"/><rect class="cls-2" x="100.47" y="352.56" width="43.19" height="0.25"/><rect class="cls-2" x="79.46" y="352.56" width="15.44" height="0.25"/><rect class="cls-2" x="131.47" y="356.78" width="54.2" height="0.25"/><path class="cls-2" d="M237,299.47H43.91a5.71,5.71,0,0,1-5.7-5.71V22.33a5.71,5.71,0,0,1,5.7-5.71H237a5.71,5.71,0,0,1,5.71,5.71V293.76A5.71,5.71,0,0,1,237,299.47ZM43.91,16.87a5.46,5.46,0,0,0-5.45,5.46V293.76a5.46,5.46,0,0,0,5.45,5.46H237a5.47,5.47,0,0,0,5.46-5.46V22.33A5.47,5.47,0,0,0,237,16.87Z"/><path class="cls-2" d="M453.31,299.47H260.21a5.72,5.72,0,0,1-5.71-5.71V22.33a5.72,5.72,0,0,1,5.71-5.71h193.1A5.71,5.71,0,0,1,459,22.33V293.76A5.71,5.71,0,0,1,453.31,299.47ZM260.21,16.87a5.47,5.47,0,0,0-5.46,5.46V293.76a5.47,5.47,0,0,0,5.46,5.46h193.1a5.47,5.47,0,0,0,5.46-5.46V22.33a5.47,5.47,0,0,0-5.46-5.46Z"/><rect class="cls-3" x="277.7" y="29.66" width="142.16" height="133.04"/><rect class="cls-4" x="278.74" y="29.66" width="148.81" height="133.04"/><rect class="cls-3" x="277.7" y="162.7" width="142.16" height="6.55"/><rect class="cls-4" x="291.53" y="162.7" width="148.81" height="6.55"/><rect class="cls-5" x="297.37" y="32.53" width="111.55" height="127.31" transform="translate(449.32 -256.96) rotate(90)"/><polygon class="cls-6" points="309.97 151.96 323.15 40.41 368.22 40.41 355.04 151.96 309.97 151.96"/><rect class="cls-3" x="360.34" y="95.5" width="111.55" height="1.36" transform="translate(512.3 -319.93) rotate(90)"/><g class="cls-7"><polygon class="cls-8" points="430.08 41.58 285.37 41.58 284.38 38.32 429.1 38.32 430.08 41.58"/><polygon class="cls-8" points="430.08 47.01 285.37 47.01 284.38 43.75 429.1 43.75 430.08 47.01"/><polygon class="cls-8" points="430.08 52.44 285.37 52.44 284.38 49.18 429.1 49.18 430.08 52.44"/><polygon class="cls-8" points="430.08 57.87 285.37 57.87 284.38 54.61 429.1 54.61 430.08 57.87"/><polygon class="cls-8" points="430.08 63.3 285.37 63.3 284.38 60.04 429.1 60.04 430.08 63.3"/><polygon class="cls-8" points="430.08 68.73 285.37 68.73 284.38 65.47 429.1 65.47 430.08 68.73"/><polygon class="cls-8" points="430.08 74.16 285.37 74.16 284.38 70.9 429.1 70.9 430.08 74.16"/><polygon class="cls-8" points="430.08 79.59 285.37 79.59 284.38 76.33 429.1 76.33 430.08 79.59"/><polygon class="cls-8" points="430.08 85.02 285.37 85.02 284.38 81.76 429.1 81.76 430.08 85.02"/><polygon class="cls-8" points="430.08 90.45 285.37 90.45 284.38 87.19 429.1 87.19 430.08 90.45"/><polygon class="cls-8" points="430.08 95.88 285.37 95.88 284.38 92.62 429.1 92.62 430.08 95.88"/><polygon class="cls-8" points="430.08 101.31 285.37 101.31 284.38 98.05 429.1 98.05 430.08 101.31"/><polygon class="cls-8" points="430.08 106.74 285.37 106.74 284.38 103.48 429.1 103.48 430.08 106.74"/><polygon class="cls-8" points="430.08 112.17 285.37 112.17 284.38 108.91 429.1 108.91 430.08 112.17"/><polygon class="cls-8" points="430.08 117.6 285.37 117.6 284.38 114.34 429.1 114.34 430.08 117.6"/><polygon class="cls-8" points="430.08 123.03 285.37 123.03 284.38 119.77 429.1 119.77 430.08 123.03"/><polygon class="cls-8" points="430.08 128.46 285.37 128.46 284.38 125.2 429.1 125.2 430.08 128.46"/><polygon class="cls-8" points="430.08 133.89 285.37 133.89 284.38 130.63 429.1 130.63 430.08 133.89"/></g><rect class="cls-3" x="81.06" y="33.29" width="117.63" height="116.75"/><rect class="cls-4" x="82.26" y="33.29" width="122.78" height="116.75"/><rect class="cls-6" x="90.94" y="35.95" width="105.42" height="111.44" transform="translate(235.31 -51.98) rotate(90)"/><rect class="cls-3" x="146.31" y="91.32" width="105.42" height="0.7" transform="translate(290.69 -107.35) rotate(90)"/><rect class="cls-4" x="76.31" y="206.3" width="31.94" height="131.56"/><rect class="cls-4" x="82.44" y="337.86" width="122.66" height="6.21"/><rect class="cls-9" x="108.25" y="206.3" width="102.98" height="131.56" transform="translate(319.48 544.15) rotate(180)"/><rect class="cls-4" x="120.81" y="256.01" width="77.86" height="32.13" transform="translate(319.48 544.15) rotate(180)"/><rect class="cls-4" x="120.81" y="294" width="77.86" height="32.13" transform="translate(319.48 620.14) rotate(180)"/><rect class="cls-4" x="120.81" y="218.02" width="77.86" height="32.13" transform="translate(319.48 468.17) rotate(180)"/><rect class="cls-4" x="108.25" y="195.49" width="107.24" height="10.8"/><rect class="cls-3" x="71.85" y="195.49" width="36.4" height="10.8" transform="translate(180.1 401.79) rotate(180)"/><rect class="cls-4" x="88.6" y="172.25" width="31.75" height="23.25" transform="translate(208.95 367.74) rotate(180)"/><rect class="cls-9" x="120.35" y="172.25" width="56.33" height="23.25"/><rect class="cls-10" x="88.6" y="177.12" width="88.41" height="2.61" transform="translate(265.61 356.84) rotate(180)"/><rect class="cls-4" x="86.85" y="170.67" width="33.5" height="7.55" transform="translate(207.2 348.88) rotate(180)"/><rect class="cls-9" x="120.35" y="170.67" width="58.08" height="7.55"/><polygon class="cls-4" points="428.31 195.5 321.03 195.5 332.71 344.06 440 344.06 428.31 195.5"/><polygon class="cls-9" points="433.85 195.5 326.57 195.5 338.25 344.06 445.53 344.06 433.85 195.5"/><polygon class="cls-6" points="357.37 323.33 348.95 216.22 414.73 216.22 423.15 323.33 357.37 323.33"/><circle class="cls-3" cx="319.49" cy="319.29" r="24.77" transform="translate(-132.2 319.43) rotate(-45)"/><path class="cls-10" d="M331.62,304.53c-1.48-1.53-2.07-3.35-1.32-4.07s2.55-.07,4,1.46,2.06,3.35,1.31,4.08S333.09,306.06,331.62,304.53Z"/><path class="cls-10" d="M321.33,299.89c-2.09-.4-3.62-1.55-3.42-2.58s2-1.52,4.13-1.12,3.62,1.56,3.42,2.58S323.42,300.29,321.33,299.89Z"/><path class="cls-10" d="M323.44,308.53c-2-.7-3.28-2.27-2.84-3.5s2.4-1.65,4.41-.95,3.28,2.27,2.84,3.5S325.45,309.24,323.44,308.53Z"/><ellipse id="_Path_" data-name="&lt;Path&gt;" class="cls-9" cx="250" cy="377.9" rx="193.89" ry="11.32"/><path class="cls-11" d="M207.34,120.84c-12.7-4.45-7.62-40.22-38.17-21-6.92,4.36-15.32,33-9.52,39.6C167.76,148.72,222.33,126.08,207.34,120.84Z"/><path class="cls-12" d="M171.58,154.8c-.25.47-.41.73-.61,1.07l-.58.93c-.39.61-.81,1.19-1.23,1.77a40.94,40.94,0,0,1-2.75,3.29,32.6,32.6,0,0,1-6.75,5.5,25.18,25.18,0,0,1-8.38,3.32,23.17,23.17,0,0,1-4.54.47c-.76,0-1.51-.05-2.27-.08l-1.11-.13-.56-.07-.78-.14a11.24,11.24,0,0,1-5-2.74,19.58,19.58,0,0,1-3-3.59,38.05,38.05,0,0,1-3.7-7.46,72.94,72.94,0,0,1-3.84-15.26l4.3-1a110.16,110.16,0,0,0,5.64,13.52,35,35,0,0,0,3.63,5.81,12,12,0,0,0,2,2.06,3.42,3.42,0,0,0,1.6.77l1.32.06c.51,0,1,0,1.52-.05a17.47,17.47,0,0,0,3-.48,19.47,19.47,0,0,0,5.56-2.49,25.52,25.52,0,0,0,4.85-4.19A30.2,30.2,0,0,0,162,153.2c.33-.44.65-.89.95-1.34l.44-.66.35-.57Z"/><path class="cls-11" d="M174,144.41c-9,0-16.09,8.32-16.09,8.32l11,14.8s8.87-8.34,9.82-13.06C179.67,149.55,179.4,144.38,174,144.41Z"/><path class="cls-12" d="M130.3,142.83l3.92-6.49-9.09.23s-.72,4.29,1.68,7Z"/><polygon class="cls-12" points="133.86 128.72 127.14 130.16 125.13 136.57 134.22 136.34 133.86 128.72"/><polygon class="cls-12" points="219.1 368.67 210.51 369.49 206.13 349.47 214.72 348.65 219.1 368.67"/><polygon class="cls-12" points="297.08 342.75 290.57 348.53 275.08 335.32 281.58 329.54 297.08 342.75"/><path class="cls-11" d="M288.22,347.43l3.78-9a.7.7,0,0,1,.82-.41l7.57,2a1.4,1.4,0,0,1,.89,1.89c-1.37,3.12-2.19,4.56-3.85,8.53-1,2.44-2.92,8-4.33,11.36s-4.82,2.16-4.54.63c1.28-6.86.49-10.52-.4-13.38A2.29,2.29,0,0,1,288.22,347.43Z"/><path class="cls-11" d="M209.43,366.89h10.33a.86.86,0,0,1,.82.63l2.24,8.17a1.28,1.28,0,0,1-1.26,1.64c-3.61-.07-5.37-.28-9.91-.28-2.8,0-10,.29-13.88.29s-4.57-3.81-3-4.16c7-1.55,11-3.69,13.2-5.72A2.11,2.11,0,0,1,209.43,366.89Z"/><polygon class="cls-13" points="206.13 349.48 208.39 359.8 217.16 359.8 214.73 348.65 206.13 349.48"/><polygon class="cls-13" points="281.59 329.54 275.08 335.33 283.07 342.13 289.58 336.35 281.59 329.54"/><path class="cls-11" d="M165.6,146.82s-3.61,2.52,18.1,49.51l34.07-9.48c-4.43-13.71-6.83-22.25-8.13-52.55a103.6,103.6,0,0,0-15,2.12,112.9,112.9,0,0,0-15.47,4.3C172.7,143.18,165.6,146.82,165.6,146.82Z"/><path class="cls-12" d="M188.26,119.42c.41,5.25,2,14.65,6.39,17a29.44,29.44,0,0,1-7.09,21.39c-11.82-6.14-8.38-17.09-8.38-17.09,5.18-2.87,3.89-6.94,1.84-10.54Z"/><path class="cls-13" d="M190.08,129.41l-5.94-2a9.67,9.67,0,0,0,.88,3.39c1,1.95,4.31,2.68,6.67,2.44A18.81,18.81,0,0,1,190.08,129.41Z"/><path class="cls-12" d="M171,113.93c2.3,8.33,3.09,11.91,8.26,15.34,7.79,5.17,17.52.53,17.76-8.32.22-8-3.57-20.25-12.54-21.87A11.78,11.78,0,0,0,171,113.93Z"/><path class="cls-11" d="M183.45,97.72c-.68,5.66-4.9,25.12-12.86,25-6.57-5.73-3.33-16.53-1.29-20.91S183.45,97.72,183.45,97.72Z"/><path class="cls-11" d="M180.1,101.73c4,2.12,11.87,3,10.62-.2s-.89-5.94-6.31-5.87S180.1,101.73,180.1,101.73Z"/><path class="cls-12" d="M171.32,121.82a6.33,6.33,0,0,0,3.14,3.67c2,1,3.39-.68,3.19-2.77-.18-1.88-1.43-4.66-3.59-4.78A2.84,2.84,0,0,0,171.32,121.82Z"/><path class="cls-14" d="M183.7,196.33s-2,68.83,3.55,94.81c5.73,27,16.93,65.65,16.93,65.65L220.5,356s-7.9-49-9.82-69.89c-2.64-28.8-2-96.72-2-96.72Z"/><path class="cls-15" d="M183.7,196.33s-2,68.83,3.55,94.81c5.73,27,16.93,65.65,16.93,65.65L220.5,356s-7.9-49-9.82-69.89c-2.64-28.8-2-96.72-2-96.72Z"/><path class="cls-13" d="M208.6,215.28c-2.54-6.37-4.77-9.88-5-3.54-.58,13.44,1.76,28.79,5.42,36.4C208.74,236.75,208.65,225.14,208.6,215.28Z"/><polygon class="cls-11" points="221.64 356.79 203.03 357.69 200.84 350.89 221 349.32 221.64 356.79"/><path class="cls-14" d="M192.7,193.83s20.89,56.22,35,87.26c11.37,25.07,51.68,60.11,51.68,60.11l9.16-7.74s-29.14-39.94-37-56.95c-25.18-54.44-18.61-77.49-33.75-89.66Z"/><path class="cls-15" d="M192.7,193.83s20.89,56.22,35,87.26c11.37,25.07,51.68,60.11,51.68,60.11l9.16-7.74s-29.14-39.94-37-56.95c-25.18-54.44-18.61-77.49-33.75-89.66Z"/><polygon class="cls-11" points="289.28 333.36 279.04 342.41 273.83 338.64 285.9 328.34 289.28 333.36"/><path class="cls-14" d="M217.72,184.71l2.39,2.62c.18.2,0,.52-.43.63L184,197.91c-.31.08-.61,0-.68-.18l-1.16-3c-.08-.2.14-.46.48-.55l34.49-9.6A.65.65,0,0,1,217.72,184.71Z"/><path class="cls-11" d="M214.16,189.86l.93-.26c.18,0,.29-.19.25-.3l-1.54-3.84c0-.11-.23-.16-.41-.11l-.93.26c-.18,0-.3.18-.25.29l1.54,3.84C213.79,189.86,214,189.91,214.16,189.86Z"/><path class="cls-11" d="M186.64,197.52l.93-.26c.18,0,.3-.19.25-.3l-1.54-3.84c0-.11-.23-.16-.41-.11l-.93.26c-.18,0-.29.18-.25.29l1.54,3.84C186.27,197.52,186.46,197.57,186.64,197.52Z"/><path class="cls-11" d="M200.4,193.69l.93-.26c.18-.05.29-.19.25-.3L200,189.29c0-.11-.23-.16-.41-.11l-.93.26c-.18.05-.29.18-.25.29l1.54,3.84C200,193.69,200.22,193.74,200.4,193.69Z"/><path class="cls-11" d="M184.33,113.6c.14.68.63,1.16,1.07,1.07s.7-.73.56-1.42-.63-1.16-1.08-1.07S184.18,112.91,184.33,113.6Z"/><path class="cls-11" d="M192.1,112c.14.69.62,1.17,1.07,1.07s.7-.72.55-1.41-.62-1.17-1.07-1.07S192,111.27,192.1,112Z"/><path class="cls-11" d="M192.46,110.63l1.55-.83S193.43,111.27,192.46,110.63Z"/><path class="cls-16" d="M190.29,113.57a18.72,18.72,0,0,0,3.38,3.88,3.05,3.05,0,0,1-2.36,1Z"/><path class="cls-11" d="M189.54,121.6a.18.18,0,0,0,.08-.21.21.21,0,0,0-.24-.16,5.56,5.56,0,0,1-4.89-1.19.21.21,0,0,0-.29.29,5.88,5.88,0,0,0,5.26,1.31A.2.2,0,0,0,189.54,121.6Z"/><path class="cls-11" d="M181.61,111.52a.43.43,0,0,0,.14-.16,3.32,3.32,0,0,1,2.3-1.9.41.41,0,1,0-.11-.81A4.1,4.1,0,0,0,181,111a.41.41,0,0,0,.2.55A.4.4,0,0,0,181.61,111.52Z"/><path class="cls-11" d="M195,107.57l.06,0a.41.41,0,0,0,0-.58,4.09,4.09,0,0,0-3.58-1.19.41.41,0,0,0-.31.49.43.43,0,0,0,.49.32,3.25,3.25,0,0,1,2.82,1A.4.4,0,0,0,195,107.57Z"/><path class="cls-12" d="M215.76,142.15c.77.9,1.73,1.94,2.63,2.9s1.87,1.94,2.83,2.87c1.93,1.88,3.91,3.71,6,5.4a61.4,61.4,0,0,0,13.19,8.54c4.4,2,9.75,2.85,15.12,3.23,2.7.2,5.44.27,8.19.21s5.55-.16,8.23-.36l.81,4.34a82.27,82.27,0,0,1-17.33,2.51,60,60,0,0,1-9-.33,37.83,37.83,0,0,1-9.13-2.16,53.6,53.6,0,0,1-8.23-4,67.14,67.14,0,0,1-7.39-5.09,83.31,83.31,0,0,1-6.72-5.83c-1.07-1-2.1-2.08-3.12-3.16s-2-2.15-3-3.42Z"/><path class="cls-12" d="M270.83,169.71l8.61-1.35-7.1-6.77S269,164.33,269,168Z"/><polygon class="cls-12" points="284.08 161.5 278.09 158.12 272.33 161.59 279.44 168.36 284.08 161.5"/><path class="cls-11" d="M209.64,134.3c3.71.08,11.08,10.7,11.08,10.7l-10.61,13.15s-6.18-8.66-6-13.47C204.35,139.67,205.42,134.2,209.64,134.3Z"/><path class="cls-14" d="M286.58,352.16l-.3-.15a.67.67,0,0,1-.38-.6c0-1.11,2.56-2.89,2.86-3.09a.18.18,0,0,1,.22,0,.2.2,0,0,1,.1.2c-.19,1.15-.66,3.14-1.66,3.6A1.07,1.07,0,0,1,286.58,352.16Zm2-3.21c-1,.74-2.28,1.86-2.27,2.45a.3.3,0,0,0,.18.26.8.8,0,0,0,.75.09C287.79,351.5,288.27,350.46,288.58,349Z"/><path class="cls-14" d="M285.3,349.52a.82.82,0,0,1-.23-.11.71.71,0,0,1-.26-.86,1.08,1.08,0,0,1,.59-.7c1.14-.55,3.46.41,3.55.45a.21.21,0,0,1,.13.16.19.19,0,0,1-.08.19A5.43,5.43,0,0,1,285.3,349.52Zm3.05-1a4.54,4.54,0,0,0-2.77-.3.69.69,0,0,0-.38.44c-.07.26,0,.36.1.41.51.34,2.19,0,3.12-.53Z"/><path class="cls-14" d="M204.85,368.6a3.44,3.44,0,0,1-2-.49,1.27,1.27,0,0,1-.52-1,.59.59,0,0,1,.26-.56c.93-.63,4.45,1,5.15,1.29a.21.21,0,0,1-.05.39A14.23,14.23,0,0,1,204.85,368.6Zm-1.65-1.79a.74.74,0,0,0-.4.09c-.05,0-.09.08-.08.2a.83.83,0,0,0,.36.68c.61.46,2,.52,3.88.18A12.89,12.89,0,0,0,203.2,366.81Z"/><path class="cls-14" d="M207.63,368.24h-.08c-1.16-.48-3.52-2.36-3.38-3.34,0-.21.17-.48.7-.54,2-.25,2.92,3.48,3,3.64a.19.19,0,0,1-.07.2A.17.17,0,0,1,207.63,368.24Zm-2.57-3.49h-.14c-.22,0-.33.09-.35.19-.07.56,1.55,2.05,2.74,2.7C207,366.75,206.3,364.75,205.06,364.75Z"/><path class="cls-11" d="M184.69,112.26l1.55-.82S185.67,112.91,184.69,112.26Z"/><path class="cls-14" d="M235.93,206.15s-17.77,14.53-11.16,46.46c3.9,18.83,15.65,28.4,25.94,26.31s17.38-15.49,13.62-34.34C258,212.59,235.93,206.15,235.93,206.15Z"/><path class="cls-17" d="M235.93,206.15s-17.77,14.53-11.16,46.46c3.9,18.83,15.65,28.4,25.94,26.31s17.38-15.49,13.62-34.34C258,212.59,235.93,206.15,235.93,206.15Z"/><path class="cls-14" d="M348,144.2s-32.63-7.26-63.23,29.08c-18,21.43-18.41,43.51-6.75,53.4s33.39,5.94,51.59-15.36C360.43,175.22,348,144.2,348,144.2Z"/><path class="cls-14" d="M305.1,0s-7.29,2-9.55,12.51c-1.34,6.2.93,10.65,4.31,11.39s7.3-2.35,8.68-8.54C310.88,4.88,305.1,0,305.1,0Z"/><path class="cls-14" d="M247.3,323.25a156.68,156.68,0,0,1-5.84-45.71A180,180,0,0,1,248,233.25a214.16,214.16,0,0,1,6.9-20.82c1.31-3.39,2.71-6.73,4.17-10,.7-1.66,1.5-3.28,2.24-4.92l1.12-2.37,1.09-2.3c5.83-12.26,11.38-24.58,16.39-37.09a382.19,382.19,0,0,0,13.13-38.13,233.89,233.89,0,0,0,7.75-39.42,142.19,142.19,0,0,0-1.24-40.09A100.27,100.27,0,0,0,284.5.51,102.4,102.4,0,0,1,304,37,148.47,148.47,0,0,1,310,78.55a243.8,243.8,0,0,1-3.49,42,390.77,390.77,0,0,1-9.19,41c-3.72,13.49-8,26.78-12.54,39.91l-.85,2.46-.43,1.23-.39,1.16c-.5,1.55-1.06,3.09-1.52,4.65-1,3.1-1.88,6.22-2.7,9.35a188.78,188.78,0,0,0-4,18.82,150.35,150.35,0,0,0-1.33,37.39,122.23,122.23,0,0,0,8.51,35Z"/><path class="cls-13" d="M247.3,323.25a156.68,156.68,0,0,1-5.84-45.71A180,180,0,0,1,248,233.25a214.16,214.16,0,0,1,6.9-20.82c1.31-3.39,2.71-6.73,4.17-10,.7-1.66,1.5-3.28,2.24-4.92l1.12-2.37,1.09-2.3c5.83-12.26,11.38-24.58,16.39-37.09a382.19,382.19,0,0,0,13.13-38.13,233.89,233.89,0,0,0,7.75-39.42,142.19,142.19,0,0,0-1.24-40.09A100.27,100.27,0,0,0,284.5.51,102.4,102.4,0,0,1,304,37,148.47,148.47,0,0,1,310,78.55a243.8,243.8,0,0,1-3.49,42,390.77,390.77,0,0,1-9.19,41c-3.72,13.49-8,26.78-12.54,39.91l-.85,2.46-.43,1.23-.39,1.16c-.5,1.55-1.06,3.09-1.52,4.65-1,3.1-1.88,6.22-2.7,9.35a188.78,188.78,0,0,0-4,18.82,150.35,150.35,0,0,0-1.33,37.39,122.23,122.23,0,0,0,8.51,35Z"/><path class="cls-14" d="M316.23,287.5l-1,11.44-6.66,74.34a5.08,5.08,0,0,1-5.06,4.63H219.05a5.09,5.09,0,0,1-5.06-4.63l-6.65-74.34-1-11.44Z"/><rect class="cls-14" x="300.94" y="341.74" width="26.79" height="1" transform="translate(-54.55 624.83) rotate(-84.89)"/><rect class="cls-14" x="313.34" y="317.43" width="6.33" height="1" transform="matrix(0.09, -1, 1, 0.09, -28.36, 604.86)"/><path class="cls-14" d="M244.68,52s-18.86,25.1.37,65.37c11.34,23.73,30.09,32.6,43.07,26.46s18-26.26,6.86-50.08C276.05,53.36,244.68,52,244.68,52Z"/><path class="cls-13" d="M244.68,52s-18.86,25.1.37,65.37c11.34,23.73,30.09,32.6,43.07,26.46s18-26.26,6.86-50.08C276.05,53.36,244.68,52,244.68,52Z"/><polygon class="cls-13" points="316.23 287.5 315.2 298.94 207.34 298.94 206.31 287.5 316.23 287.5"/><rect class="cls-14" x="197.38" y="273.39" width="127.77" height="19.83" rx="2.39"/><circle class="cls-14" cx="346.35" cy="76.92" r="40.04" transform="translate(23.36 223.72) rotate(-36.96)"/><path class="cls-18" d="M378.47,86.86a32.8,32.8,0,1,0-58.66,10.71,33.63,33.63,0,1,1,58.66-10.71Z"/><path class="cls-5" d="M358.69,82.73l-4,8.47a2.61,2.61,0,0,1-1.56,1.36,2.69,2.69,0,0,1-2.1-.1l-7.45-3.52-2.82,6a2.53,2.53,0,0,1-1.54,1.38,2.63,2.63,0,0,1-2.06-.09,2.71,2.71,0,0,1-1.44-1.55,2.6,2.6,0,0,1,.09-2.08l2.85-6-7.39-3.49a2.61,2.61,0,0,1-1.38-1.53,2.57,2.57,0,0,1,.09-2.07,2.67,2.67,0,0,1,3.59-1.29l17.29,8.16,1.66-3.52-17.22-8.14a2.65,2.65,0,0,1-1.3-3.59l4-8.44a2.61,2.61,0,0,1,1.53-1.4,2.58,2.58,0,0,1,2.07.11l7.33,3.46,2.82-6a2.67,2.67,0,0,1,3.68-1.25,2.57,2.57,0,0,1,1.37,1.52,2.62,2.62,0,0,1-.1,2.07l-2.82,6,7.51,3.55a2.65,2.65,0,0,1,1.41,1.56,2.54,2.54,0,0,1-.06,2.06,2.66,2.66,0,0,1-1.58,1.41,2.62,2.62,0,0,1-2.11-.08l-17.29-8.17L340.12,71l17.22,8.13a2.67,2.67,0,0,1,1.42,1.56A2.53,2.53,0,0,1,358.69,82.73Z"/></g></g></g></svg>