<svg xmlns="http://www.w3.org/2000/svg" viewBox="0 0 500 372.61"><defs><style>.cls-1{fill:#ebebeb;}.cls-2{fill:#f5f5f5;}.cls-3{fill:#f0f0f0;}.cls-4{fill:#fafafa;}.cls-5{fill:#4c9aff;}.cls-12,.cls-13,.cls-6{fill:#263238;}.cls-10,.cls-14,.cls-6,.cls-7{opacity:0.2;}.cls-7,.cls-8,.cls-9{fill:#fff;}.cls-8{opacity:0.7;}.cls-11{fill:#7f3e3b;}.cls-13{opacity:0.4;}.cls-15{fill:#630f0f;}</style></defs><g id="Layer_2" data-name="Layer 2"><g id="Character"><rect class="cls-1" y="327.45" width="500" height="0.25"/><rect class="cls-1" x="396.83" y="343.54" width="53.07" height="0.25"/><rect class="cls-1" x="272.56" y="340.41" width="58.66" height="0.25"/><rect class="cls-1" x="380.2" y="338.96" width="19.19" height="0.25"/><rect class="cls-1" x="100.47" y="335.94" width="43.19" height="0.25"/><rect class="cls-1" x="79.46" y="335.94" width="15.44" height="0.25"/><rect class="cls-1" x="131.47" y="340.16" width="54.2" height="0.25"/><path class="cls-1" d="M237,282.85H43.92a5.71,5.71,0,0,1-5.71-5.71V5.71A5.71,5.71,0,0,1,43.92,0H237a5.71,5.71,0,0,1,5.71,5.71V277.14A5.71,5.71,0,0,1,237,282.85ZM43.92.25a5.47,5.47,0,0,0-5.46,5.46V277.14a5.47,5.47,0,0,0,5.46,5.46H237a5.47,5.47,0,0,0,5.46-5.46V5.71A5.47,5.47,0,0,0,237,.25Z"/><path class="cls-1" d="M453.31,282.85H260.21a5.72,5.72,0,0,1-5.71-5.71V5.71A5.72,5.72,0,0,1,260.21,0h193.1A5.71,5.71,0,0,1,459,5.71V277.14A5.71,5.71,0,0,1,453.31,282.85ZM260.21.25a5.47,5.47,0,0,0-5.46,5.46V277.14a5.47,5.47,0,0,0,5.46,5.46h193.1a5.47,5.47,0,0,0,5.46-5.46V5.71A5.47,5.47,0,0,0,453.31.25Z"/><path class="cls-2" d="M372.78,222.82c-25.58-33.16-37.42-65.66-68.52-17.83-14-14.78-26.29-29.57-35.25-43.52-48.45-75.47-97.16-29-136.72,22.26S47,327.44,47,327.44H458.77S398.51,256.19,372.78,222.82Z"/><path class="cls-3" d="M285,249.46c-13.25-24.86-19.34-49.26-35.58-12.66-15.44,34.8-55,90.64-55,90.64H329.26S298.23,274.33,285,249.46Z"/><path class="cls-4" d="M66.17,34.5a4.43,4.43,0,0,1,2.78.86c6.11-3,13.2-4.8,19.13-4.6a14.66,14.66,0,0,1,7,1.71c6.51-4.48,14.9-7.66,21.08-7.66,3.51,0,5.74,1,6.58,2.75,6.74-3,13.71-4.86,19.4-4.86,9.06,0,12.18,4.69,8.74,11.29,4.27.12,7.87,2.73,4.8,5.07H55.64c.12-.15.24-.29.38-.44A15,15,0,0,1,66.17,34.5Z"/><path class="cls-4" d="M169.52,63.62a2.13,2.13,0,0,1,1.59.62c3.7-2.16,7.92-3.49,11.37-3.34a6.94,6.94,0,0,1,4,1.24h0c4-3.26,9-5.57,12.66-5.57,2,0,3.31.75,3.72,2C207,56.37,211.13,55,214.46,55c4.12,0,6,2.07,5.57,5.25a13.4,13.4,0,0,1,5.47-1.47c2.2,0,3.27,1,3.16,2.68a5.63,5.63,0,0,1,.58,0c3.36.27,4.74,2.39,3.21,4.81H163.64A8.46,8.46,0,0,1,169.52,63.62Z"/><path class="cls-4" d="M78.13,94.6a1.44,1.44,0,0,1,1.09.43,15.27,15.27,0,0,1,7.87-2.31,4.72,4.72,0,0,1,2.79.86h0c2.76-2.26,6.25-3.85,8.75-3.85,1.43,0,2.29.51,2.58,1.38a18,18,0,0,1,8-2.45c2.85,0,4.16,1.43,3.86,3.63a9.25,9.25,0,0,1,3.78-1c1.52,0,2.26.72,2.18,1.86a2.68,2.68,0,0,1,.4,0c2.33.18,3.27,1.65,2.22,3.32H74.06A5.87,5.87,0,0,1,78.13,94.6Z"/><circle class="cls-3" cx="398.81" cy="50.21" r="34.89"/><path class="cls-4" d="M313.65,49.2a4.37,4.37,0,0,1,2.78.85c6.11-3,13.2-4.8,19.12-4.59a14.67,14.67,0,0,1,7,1.71c6.5-4.49,14.9-7.67,21.08-7.67,3.51,0,5.74,1,6.58,2.75,6.74-3,13.71-4.86,19.4-4.86,9.06,0,12.18,4.7,8.74,11.3,4.27.12,7.87,2.72,4.8,5.06H303.12c.12-.14.24-.29.38-.44A14.89,14.89,0,0,1,313.65,49.2Z"/><path class="cls-4" d="M380.33,105.17a2.1,2.1,0,0,1,1.59.62c3.71-2.16,7.93-3.49,11.38-3.34a6.82,6.82,0,0,1,4,1.25h0c4-3.26,9-5.58,12.65-5.58,2.06,0,3.32.75,3.73,2,4.07-2.19,8.23-3.54,11.55-3.54,4.12,0,6,2.07,5.58,5.25a13.52,13.52,0,0,1,5.47-1.47c2.2,0,3.27,1,3.16,2.68a5.44,5.44,0,0,1,.57,0c3.37.27,4.74,2.39,3.22,4.81H374.46A8.5,8.5,0,0,1,380.33,105.17Z"/><ellipse id="_Path_" data-name="&lt;Path&gt;" class="cls-2" cx="250" cy="361.29" rx="193.89" ry="11.32"/><rect class="cls-5" x="391.73" y="229.67" width="1" height="8.12" transform="translate(-51.3 125.3) rotate(-17.05)"/><rect class="cls-5" x="384.89" y="199.34" width="1" height="24.16" transform="translate(-45.05 122.3) rotate(-17.05)"/><path class="cls-5" d="M349,103H313.43L239.28,344.78a12.6,12.6,0,0,0,12.05,16.28H411.11a12.6,12.6,0,0,0,12.05-16.28Z"/><path class="cls-6" d="M349,103H331.22l-22.55,258H411.11a12.6,12.6,0,0,0,12.05-16.28Z"/><path class="cls-6" d="M349,103h-8.35l25.45,258h45a12.6,12.6,0,0,0,12.05-16.28Z"/><path class="cls-7" d="M313.43,103H322l-61.33,258h-9.34a12.6,12.6,0,0,1-12.05-16.28Z"/><path class="cls-5" d="M330.94,93.44h0a23.6,23.6,0,0,1,22.8,17.47l11.48,42.69-3.05,13.5L350.49,156l-11.07,25.42-10.08-17.67-12.52,17.67-5.44-26.5L300,170.05l-2.7-17.45,10.82-41.51A23.6,23.6,0,0,1,330.94,93.44Z"/><path class="cls-8" d="M330.94,93.44h0a23.6,23.6,0,0,1,22.8,17.47l11.48,42.69-3.05,13.5L350.49,156l-11.07,25.42-10.08-17.67-12.52,17.67-5.44-26.5L300,170.05l-2.7-17.45,10.82-41.51A23.6,23.6,0,0,1,330.94,93.44Z"/><path class="cls-9" d="M308.67,362.06a1,1,0,0,1-.91-.58l-16.95-36.74a1,1,0,0,1,.23-1.14l66-61.82-41-79.89a1,1,0,0,1-.1-.62l14.34-85.33a1,1,0,0,1,2,.33l-14.29,85,41.18,80.27a1,1,0,0,1-.2,1.18l-66,61.84,16.64,36.09a1,1,0,0,1-.48,1.32A.91.91,0,0,1,308.67,362.06Z"/><circle class="cls-5" cx="358.24" cy="261.99" r="10.17" transform="translate(20.95 550.46) rotate(-76.72)"/><path class="cls-9" d="M358.24,273.16A11.17,11.17,0,1,1,369.41,262,11.18,11.18,0,0,1,358.24,273.16Zm0-20.33a9.17,9.17,0,1,0,9.17,9.16A9.17,9.17,0,0,0,358.24,252.83Z"/><circle class="cls-5" cx="291.72" cy="324.33" r="10.17" transform="matrix(0.16, -0.99, 0.99, 0.16, -75.14, 560.33)"/><path class="cls-9" d="M291.72,335.49a11.17,11.17,0,1,1,11.17-11.16A11.18,11.18,0,0,1,291.72,335.49Zm0-20.33a9.17,9.17,0,1,0,9.17,9.17A9.18,9.18,0,0,0,291.72,315.16Z"/><circle class="cls-5" cx="316.91" cy="181.44" r="10.17"/><path class="cls-9" d="M316.91,192.6a11.17,11.17,0,1,1,11.17-11.16A11.18,11.18,0,0,1,316.91,192.6Zm0-20.33a9.17,9.17,0,1,0,9.17,9.17A9.18,9.18,0,0,0,316.91,172.27Z"/><circle class="cls-5" cx="331.25" cy="96.1" r="10.17" transform="matrix(0.16, -0.99, 0.99, 0.16, 183.33, 407.68)"/><path class="cls-9" d="M331.25,107.27A11.17,11.17,0,1,1,342.42,96.1,11.18,11.18,0,0,1,331.25,107.27Zm0-20.33a9.17,9.17,0,1,0,9.17,9.16A9.18,9.18,0,0,0,331.25,86.94Z"/><path class="cls-5" d="M331.22,96.16a1,1,0,0,1-1-1V50.21a1,1,0,1,1,2,0V95.16A1,1,0,0,1,331.22,96.16Z"/><path class="cls-5" d="M290.89,68.91c9,3,17.92-3.06,26.89,0V53.63c-9-3.05-17.93,3.06-26.89,0Z"/><path class="cls-10" d="M300.71,54.2V69.47c5.69-.75,11.38-2.5,17.07-.56V53.63C312.09,51.69,306.4,53.44,300.71,54.2Z"/><path class="cls-5" d="M304.33,65.49c9,3.06,17.93-3,26.89,0V50.21c-9-3.05-17.92,3.06-26.89,0Z"/><path class="cls-11" d="M158.72,160.68l3.11,5-8.93,1.14a41.24,41.24,0,0,1,.85-4.89,2.28,2.28,0,0,1,2.71-1.74Z"/><polygon class="cls-11" points="161.09 173.7 154.14 171.56 152.9 166.82 161.83 165.68 161.09 173.7"/><path class="cls-11" d="M184.77,104.69c1.06-.33,2.34-.78,3.52-1.18s2.4-.86,3.59-1.32c2.37-1,4.72-1.91,7-3a46,46,0,0,0,12-7.66,15.5,15.5,0,0,0,2-2.28l.2-.29c.05,0,.26-.51-.15.43a3.75,3.75,0,0,0-.2,1.67,2.54,2.54,0,0,0,0,.29l.05.21a1.18,1.18,0,0,0,.07.2l0,.11c.13.3.17.28.15.23a4.13,4.13,0,0,0-.24-.37,17.45,17.45,0,0,0-2.24-2.3c-.91-.8-1.87-1.63-2.87-2.42-4-3.2-8.41-6.35-12.68-9.49l2.6-4.87a105.41,105.41,0,0,1,15,7.14c1.22.73,2.45,1.46,3.67,2.33a27.48,27.48,0,0,1,3.76,3.08,9.6,9.6,0,0,1,2.16,3.19l.13.35.13.44c0,.15.07.28.11.45s.05.37.07.55a6.15,6.15,0,0,1-.32,2.66,6,6,0,0,1-.64,1.3l-.33.57a26.1,26.1,0,0,1-3,4c-4.42,4.72-9.48,7.79-14.58,10.43a84.75,84.75,0,0,1-7.82,3.48c-1.32.52-2.65,1-4,1.47s-2.64.87-4.16,1.29Z"/><polygon class="cls-11" points="188.83 70.79 183.51 74.27 191.13 76.01 193.08 70.64 188.83 70.79"/><path class="cls-11" d="M199.61,73.46l-6.53-2.82-2,5.37s5.19,5.44,8.48,1.81Z"/><path class="cls-11" d="M160.73,114.24c-2.46,4.45-4.95,9.06-7.32,13.62s-4.7,9.17-6.64,13.75c-.5,1.15-1,2.28-1.37,3.41l-.15.37a.33.33,0,0,0,0-.1c0-.07,0-.09,0-.08a.83.83,0,0,0,0,.51,8.23,8.23,0,0,0,1.07,2.38,27.14,27.14,0,0,0,1.92,2.76,103.38,103.38,0,0,0,10.41,10.82l-3.08,4.57a61.54,61.54,0,0,1-13.71-9.47,31,31,0,0,1-3.09-3.33,18.21,18.21,0,0,1-2.69-4.54,10.6,10.6,0,0,1-.76-3.34,8.91,8.91,0,0,1,.1-2,7.84,7.84,0,0,1,.23-1.07l.17-.56c.4-1.37.83-2.72,1.29-4a152.66,152.66,0,0,1,6.38-15c2.38-4.84,4.85-9.52,7.61-14.21Z"/><path class="cls-11" d="M167.74,82.21c-.65,6.75.31,13.3-1.2,19.17,0,0,1.68,5.45,11.66,5.45,11,0,5-5.45,5-5.45-6.05-1.43-6.06-5.88-5.18-10Z"/><path class="cls-12" d="M165.17,103.25c-.85-1.72-1.8-3.7,0-4.32,2-.68,12.72-1.37,16.49-.1a4,4,0,0,1,2.85,4.78Z"/><path class="cls-5" d="M143.76,349.12a9.12,9.12,0,0,1-2-.72.18.18,0,0,1-.1-.18.18.18,0,0,1,.12-.17c.33-.12,3.19-1.13,4-.5a.6.6,0,0,1,.21.59,1.13,1.13,0,0,1-.59.9A2.38,2.38,0,0,1,143.76,349.12Zm-1.4-.87c1.28.56,2.31.73,2.82.46a.76.76,0,0,0,.39-.62.22.22,0,0,0-.07-.25C145.1,347.51,143.52,347.88,142.36,348.25Z"/><path class="cls-5" d="M141.81,348.42a.21.21,0,0,1-.1-.06.17.17,0,0,1-.05-.18c0-.1.7-2.32,1.77-2.87a1.06,1.06,0,0,1,.85-.08h0a.61.61,0,0,1,.48.62c0,.91-1.95,2.29-2.86,2.56Zm2.26-2.85a.68.68,0,0,0-.46.07,4.55,4.55,0,0,0-1.45,2.27c.93-.45,2.21-1.53,2.22-2.07,0,0,0-.16-.23-.25h0Z"/><path class="cls-5" d="M195.29,354.36a9.76,9.76,0,0,1-2.1-.29.19.19,0,0,1-.05-.35c.29-.18,2.88-1.77,3.77-1.31a.61.61,0,0,1,.32.53,1.13,1.13,0,0,1-.39,1A2.47,2.47,0,0,1,195.29,354.36Zm-1.55-.56c1.37.28,2.42.23,2.85-.14a.76.76,0,0,0,.26-.69.25.25,0,0,0-.12-.23C196.27,352.51,194.8,353.19,193.74,353.8Z"/><path class="cls-5" d="M193.24,354.07a.23.23,0,0,1-.11,0,.18.18,0,0,1-.08-.17c0-.1.2-2.41,1.13-3.18a1.06,1.06,0,0,1,.81-.24h0a.62.62,0,0,1,.6.5c.17.89-1.43,2.65-2.26,3.1A.15.15,0,0,1,193.24,354.07Zm1.62-3.25a.7.7,0,0,0-.44.17,4.62,4.62,0,0,0-.95,2.51c.83-.62,1.85-1.95,1.75-2.48,0,0,0-.16-.28-.19h-.08Z"/><polygon class="cls-11" points="184.6 353.78 191.94 353.78 192.02 336.77 184.67 336.77 184.6 353.78"/><polygon class="cls-11" points="133.13 347.03 140.15 348.39 145.99 331.71 138.97 330.35 133.13 347.03"/><path class="cls-12" d="M141.1,347.41,133,345.69a.6.6,0,0,0-.69.36l-2.54,6.14a1.13,1.13,0,0,0,.83,1.51c2.83.55,4.23.68,7.78,1.43,2.18.47,6.64,1.65,9.66,2.3s3.93-2.28,2.74-2.82c-5.33-2.4-7.12-4.53-8.61-6.51A1.83,1.83,0,0,0,141.1,347.41Z"/><path class="cls-12" d="M191.86,352.93h-8a.62.62,0,0,0-.61.51L182,360a1.12,1.12,0,0,0,1.11,1.3c2.89,0,7.07-.22,10.71-.22,4.25,0,4.46.24,9.45.24,3,0,3.73-3.05,2.46-3.33-5.8-1.26-7-1.39-12.11-4.45A3.43,3.43,0,0,0,191.86,352.93Z"/><path class="cls-12" d="M154.44,102.85c-6.76,1.84-14.75,20.54-14.75,20.54l15.52,8.77s3.63-6.62,7.21-14.82C166.17,108.75,165.72,99.77,154.44,102.85Z"/><path class="cls-12" d="M198.35,135.86c0,8.2-.55,18.4-1.77,31.06h-39.3c-.48-5.71,1.87-32.35-3.72-59.27a4.52,4.52,0,0,1,3.76-5.42c2.38-.35,5.36-.71,8.29-.85a145.28,145.28,0,0,1,16.7,0,66.37,66.37,0,0,1,6.86,1,8.61,8.61,0,0,1,6.66,6.11,75.73,75.73,0,0,1,2.24,15.63C198.27,127.5,198.38,131.38,198.35,135.86Z"/><path class="cls-12" d="M180.68,117c6.12,3.38,20.19-.48,20.19-.48l-.73-19.06a55.93,55.93,0,0,0-14.82,4C175.74,105.4,173.78,113.22,180.68,117Z"/><path class="cls-5" d="M188.72,99.83s-2.84,1-3.89,1.3c-3.77,4.14-6.12,13.14-6.12,13.14l4.8,6.33C181.69,111.21,188.72,99.83,188.72,99.83Z"/><path class="cls-10" d="M188.72,99.83s-2.84,1-3.89,1.3c-3.77,4.14-6.12,13.14-6.12,13.14l4.8,6.33C181.69,111.21,188.72,99.83,188.72,99.83Z"/><path class="cls-5" d="M198.36,147c-3.75,2.89-11.2-3.83-11.2-3.83l.22,3.41c6.83,5.71,10.87,2.87,10.87,2.87A8.62,8.62,0,0,0,198.36,147Z"/><path class="cls-10" d="M198.36,147c-3.75,2.89-11.2-3.83-11.2-3.83l.22,3.41c6.83,5.71,10.87,2.87,10.87,2.87A8.62,8.62,0,0,0,198.36,147Z"/><path class="cls-5" d="M163.42,101.13a20.79,20.79,0,0,0-3.33.54A23.49,23.49,0,0,0,159,115.19l4.32-1.93S161.92,106.72,163.42,101.13Z"/><path class="cls-10" d="M163.42,101.13a20.79,20.79,0,0,0-3.33.54A23.49,23.49,0,0,0,159,115.19l4.32-1.93S161.92,106.72,163.42,101.13Z"/><path class="cls-5" d="M158.35,114.3c2.35-3.67,20.39-3.26,24.29-.25s8.61,35.83,2.84,39.5-32.39,5.41-32.58-2,5.87-20.32,5.15-24.59S155.16,119.3,158.35,114.3Z"/><path class="cls-13" d="M158.6,125.76s6.58,2.56,20.5-.55C176.39,126.63,162.09,129.86,158.6,125.76Z"/><path class="cls-13" d="M166.55,124.8c.08.61-.26,1.11-.77,1.11a1.23,1.23,0,0,1-1.07-1.11c-.08-.62.26-1.11.76-1.11A1.22,1.22,0,0,1,166.55,124.8Z"/><path class="cls-13" d="M181.88,154.08l-.07,0a.24.24,0,0,1-.17-.31c2.12-6.95,1.86-16.53-.78-28.48-1.1-5,.15-9.76.81-10.75a.25.25,0,0,1,.35-.07.26.26,0,0,1,.07.35c-.68,1-1.76,5.78-.75,10.36,2.67,12,2.93,21.7.78,28.74A.26.26,0,0,1,181.88,154.08Z"/><g class="cls-14"><polygon points="192.02 336.78 191.98 345.55 184.63 345.55 184.67 336.78 192.02 336.78"/><polygon points="138.97 330.35 145.99 331.71 142.97 340.31 135.95 338.95 138.97 330.35"/></g><path class="cls-5" d="M182.64,166.92s-6.17,56.14-9.94,77.17c-4.12,23-25.47,95.33-25.47,95.33l-13.16-2.8s14.7-67.64,16.68-90.44c2.14-24.75,6.53-79.26,6.53-79.26Z"/><path class="cls-12" d="M150.18,335s-2.24,4.81-2.24,4.81l-14.81-3.16,1.06-4.49Z"/><path class="cls-10" d="M178.14,186.92c-9.56,1.89-7.16,37.84-5.28,56.33,2.27-13.07,5.37-38.22,7.46-56.07A3.33,3.33,0,0,0,178.14,186.92Z"/><path class="cls-5" d="M196.58,166.92s3.13,54.92,3.2,77.33c.06,23.3-5.13,99.6-5.13,99.6H182.21s-3.35-74.94-4.79-97.82c-1.57-24.95-6.67-79.11-6.67-79.11Z"/><path class="cls-12" d="M196.85,338.89c.06,0-.5,5.17-.5,5.17H181.21l-.58-4.61Z"/><path class="cls-12" d="M184.42,75.21c.08.59.46,1,.85,1s.63-.55.55-1.13-.47-1-.85-1S184.34,74.62,184.42,75.21Z"/><path class="cls-15" d="M184.83,76.25A22.15,22.15,0,0,0,188.36,81a3.36,3.36,0,0,1-2.75.81Z"/><path class="cls-12" d="M184.66,71.38a.38.38,0,0,0,.22-.24.35.35,0,0,0-.25-.43,3.4,3.4,0,0,0-3,.86.35.35,0,1,0,.47.51,2.76,2.76,0,0,1,2.39-.7A.37.37,0,0,0,184.66,71.38Z"/><path class="cls-11" d="M164.58,76c1.47,7.16,2,11.42,6.14,14.74a9.48,9.48,0,0,0,15.47-6.58c.64-6.64-1.87-17.24-9.36-19.39A9.59,9.59,0,0,0,164.58,76Z"/><path class="cls-12" d="M180,77c-1.22,3.79-8,11-10.41,11.56s-9-5.14-9.59-8.11c-2.4-.28-5-5.07-1.36-6.95-2.7-1.37-2-8.51,3.49-8-3.34-3.21.67-8.66,5.23-7.21,1.09-2.78,7.25-4.56,10.8-.28,2.77-1.56,7.62,1.58,7.26,6.28a7.61,7.61,0,0,1-5.34,6.31C181.27,72.06,180,77,180,77Z"/><path class="cls-11" d="M176.37,76.05a8.66,8.66,0,0,0,2.77,4.62c1.85,1.57,3.33.29,3.29-1.88,0-2-1.05-5.13-3.13-5.87S175.91,73.9,176.37,76.05Z"/></g></g></svg>