<svg xmlns="http://www.w3.org/2000/svg" viewBox="0 0 2677.7 1407.49"><defs><style>.cls-1{fill:#fcecdb;}.cls-2{fill:#82b378;}.cls-3{fill:#ffb27d;}.cls-4{fill:#bc3f3f;}.cls-5{fill:#4a75cb;}.cls-6{fill:#233862;}.cls-7{fill:#ed985f;}.cls-8{fill:#2c3a64;}.cls-9{fill:#2b478b;}.cls-10{fill:#739af0;}.cls-11{fill:#ee9849;}.cls-12{fill:#bbd4ff;}.cls-13{fill:#678fe5;}.cls-14{fill:#b56f40;}.cls-15{fill:#99592e;}.cls-16{fill:#74acbe;}.cls-17{fill:#578e9b;}.cls-18{fill:#e58638;}.cls-19{fill:#fff0e6;}.cls-20{fill:#163560;}.cls-21{fill:#5fabb7;}.cls-22{fill:#ef9e67;}.cls-23{fill:#a53d38;}.cls-24{fill:#c45446;}.cls-25{fill:#912f2f;}.cls-26{fill:#d9935c;}.cls-27{fill:#f1a34f;}.cls-28,.cls-33{fill:#d86713;}.cls-29{fill:#cb7d45;}.cls-30{fill:#b64c41;}.cls-31{fill:#466aa5;}.cls-32{fill:#d37129;}.cls-33{opacity:0.4;}.cls-34{fill:#ffb93e;}.cls-35{fill:#ffa412;}.cls-36{fill:#d17a33;}.cls-37{fill:#d2e4ff;}.cls-38{fill:#f9ddbf;}.cls-39{fill:#2e3552;}</style></defs><g id="Layer_2" data-name="Layer 2"><g id="_Layer_" data-name="&lt;Layer&gt;"><path class="cls-1" d="M171.27,1404.13s-311.58-334.54-52.7-696.73c229.71-321.35,497.52-299.39,694-169,83.69,55.55,325,6.85,530.33-320.14,280-445.93,1250.81-175.47,1073.81,510.6-85.65,332,260.69,344.07,84.21,675.95Z"/><path class="cls-2" d="M2423.44,1400.39h-98.72c-5.29-4.49,3.66-14.68,13-15.36,4.07-.31,9.2.54,15.07,1.78,1.36-18,9.12-99.16,38.36-95.9,32.87,3.65,0,35.72-9.3,54.71-6.88,14.07-14.14,34.24-17.46,43.75,2.67.58,5.43,1.15,8.25,1.67,4.36-13.38,20.57-58.38,41.19-55.76,24.21,3.07,14.48,21.11-2.68,31.82-12.59,7.88-28,19.07-35.39,24.48a104.82,104.82,0,0,0,19.31,1.55C2412,1392.73,2420.24,1397.71,2423.44,1400.39Z"/><path class="cls-2" d="M271.5,1396.88c-3.92-6.16-15.72-22.15-31.44-20-17.12,2.3,18.91,13.59,29.95,20.07a18.23,18.23,0,0,1-6.11-.71c-7.37-2.63-20,2.41-24,4.18h70.21a11.1,11.1,0,0,0-5-6.42c-1.15-.71-3.47-.8-6.46-.58,4.18-4.92,7.07-20.64-4.55-16.59-8.49,3-8.47,12.56-7.63,18.24-1.81.28-3.64.57-5.45.83-3.5-17.82-15.86-70-40.92-71.43-25.41-1.41,21.54,54.16,37.17,71.93C275.21,1396.61,273.28,1396.79,271.5,1396.88Z"/><polygon class="cls-3" points="2058.97 1278.86 2051.33 1310.98 2041.2 1353.57 2009.54 1353.57 2007.66 1312.77 2006.2 1281.3 2058.97 1278.86"/><path class="cls-4" d="M2159.29,579.78s25.05-26.8,41.33-5.78S2235,609.2,2260,625.37s-22.09,142.87-53.4,140.26S2047.51,663.14,2159.29,579.78Z"/><path class="cls-5" d="M2034.56,567c6.25-4.68,63.82-24.44,120-5S2111,635.63,2111,635.63L2078.75,637Z"/><path class="cls-6" d="M1997,1400.36s0-15.5,2.21-20.65,10.31-26.14,10.31-26.14h31.66s5.89,19.14,6.26,25.4,0,21.39,0,21.39Z"/><path class="cls-6" d="M2198,1400.36s0-15.5-2.21-20.65-10.31-26.14-10.31-26.14h-31.66s-5.89,19.14-6.26,25.4,0,21.39,0,21.39Z"/><path class="cls-3" d="M2071.2,530.43s-1.11,34.51-5.53,50l-35,75.36,131.61-31.27-31.39-43.37s-9.48-46.27-4.51-63.39S2071.2,530.43,2071.2,530.43Z"/><path class="cls-7" d="M2071,535.19s10.41,25.06,30,24.51S2125.09,537,2125.09,537Z"/><path class="cls-8" d="M2059.31,514.91s-6.33-31.6-10.75-41.17-8.1-52.28,40.86-54.49c0,0,18.78,2.21,29.09-4.05,0,0,0,6.26-2.58,8.47a32.55,32.55,0,0,1,30.19,10.68c13.25,14.72-8.84,66.26-7.73,78.41Z"/><path class="cls-3" d="M2098.77,550c-14.2-.25-40.34-19.16-40.34-42.58V470.88c0-8.55,6-15.55,13.25-15.55h54.19c7.29,0,13.25,7,13.25,15.55v34.48C2139.12,529.92,2115.06,550.3,2098.77,550Z"/><path class="cls-8" d="M2058.43,490.39s.07-22,17.47-25.33,56.32,10.7,61.84-5.31-75.25-15.74-79.31-5.53S2058.43,490.39,2058.43,490.39Z"/><path class="cls-9" d="M2119.08,871c8.71-27.12,8.53,112.26-26.44,269-5.34,23.93-17.29,81.63-25.87,137.47h-71.66c-1-45.1-5.82-108-8.87-155.19C1976.7,974.51,2001,863.6,2001,863.6Z"/><path class="cls-9" d="M2211,1122.29c-.79,45.18-10,105.21-10.8,149.21h-72.7c-4.88-31.94-12.64-64.83-18.21-91.36-4-18.84-6.83-34.47-6.79-44.29.08-19.2-12.06-74.54-19.29-123.34l0-.19q-.42-2.82-.81-5.61c-9.69-68.59-6.27-135.73-6.27-135.73l122.66-7.67S2213.13,1001.78,2211,1122.29Z"/><path class="cls-6" d="M1991.28,920.44s27.59,33.44,102.57,28.62,110.76-17.88,110.76-17.88Z"/><path class="cls-10" d="M2204.61,931.18c-24.5,3.33-191.12,12-213.33-10.74s36.26-332.77,36.26-332.77,6.62-1.92,17.8-4c5.69-1.08,12.56-2.19,20.34-3.13.1,2.42,2,39,32.37,54.07,0,0,36.45-14.6,32.88-53.47,0-.46-.1-.9-.16-1.34,4.86.52,9.79,1.2,14.74,2.05a209.09,209.09,0,0,1,30.16,7.47S2229.1,927.86,2204.61,931.18Z"/><path class="cls-10" d="M1992.68,771.11c-1,1.29,5.66,10.83,15,23.1,19.28,25.2,50.12,61.87,50.12,61.87a127.34,127.34,0,0,1-2.15,20.45c-42.36-20-71-38.74-90-53.77-26.7-21.15-34.35-35-34.35-35,42.8-181.06,97.71-199.91,97.71-199.91L2047,696.93S1995.68,767.19,1992.68,771.11Z"/><path class="cls-11" d="M2145.51,581.83l-11,33.58L2119.75,637l-21.12,11.45L2078.75,637l-33.41-53.37c5.69-1.08,12.56-2.19,20.34-3.13.1,2.42,2,39,32.37,54.07,0,0,36.45-14.6,32.88-53.47,0-.46-.1-.9-.16-1.34C2135.63,580.3,2140.56,581,2145.51,581.83Z"/><path class="cls-3" d="M2057.83,856.09c0,.35,0,.69,0,1-.09,2.29-.23,4.43-.4,6.38a34.64,34.64,0,0,1-3.52,4.15,37.25,37.25,0,0,1-6.19,5c-1.07-.5-2.15-1-3.2-1.56-36.28-18-61.52-34.68-78.79-48.35,11-3.37,26.3-11.08,42-28.55C2027,819.41,2057.83,856.09,2057.83,856.09Z"/><path class="cls-10" d="M2268.21,781.08s-7.39,14-33.67,35.67c-18.69,15.4-47,34.67-88.94,55.49a125.62,125.62,0,0,1-2.55-20.41S2173.19,814.58,2192,789c9.13-12.44,15.59-22.11,14.58-23.38-2.38-3-34.54-45.29-48.88-64.15l-6.82-9L2169,585.23S2222,600.88,2268.21,781.08Z"/><path class="cls-3" d="M2234.54,816.75c-17.06,14-42.1,31.31-78.22,50l-2.72,1.4a50.13,50.13,0,0,1-9.12-18.12c.6-.75,1.38-1.74,2.34-2.92,8.65-10.8,30.4-38.08,45.15-58.15C2208,806.18,2223.52,813.59,2234.54,816.75Z"/><path class="cls-3" d="M2130.77,579.78a292.33,292.33,0,0,0-65.09.74,1.09,1.09,0,0,1,0-.12S2125.92,543.14,2130.77,579.78Z"/><polygon class="cls-12" points="2070.35 685.16 2069.11 685.16 2068.2 627.09 2071.33 627.09 2070.35 685.16"/><path class="cls-11" d="M2069,683.65c-1.13,1.7-3.66,7.32-2,7.91s4.63.63,5.42-.16S2071.12,680.45,2069,683.65Z"/><polygon class="cls-12" points="2127.38 685.16 2126.14 685.16 2125.23 627.09 2128.36 627.09 2127.38 685.16"/><path class="cls-11" d="M2126,683.65c-1.13,1.7-3.66,7.32-2,7.91s4.63.63,5.42-.16S2128.14,680.45,2126,683.65Z"/><path class="cls-5" d="M2078.75,637l-51.21-49.35s-11.53-8.19,6.69-20.43S2078.75,637,2078.75,637Z"/><path class="cls-5" d="M2119.75,637,2171,587.67s11.53-8.19-6.69-20.43S2119.75,637,2119.75,637Z"/><path class="cls-13" d="M2184,877.28c-10,.84-18.3-1.66-24.72-7.4a28.91,28.91,0,0,1-3-3.08c-5.06-5.91-7.91-13.36-9.5-19.64a66.44,66.44,0,0,1-2-12.93l0-1.45H2062l0,1.54c.32,8.89-1.11,16.53-4.29,22.81a32.47,32.47,0,0,1-6,8.4,34.84,34.84,0,0,1-7.29,5.58c-11.07,6.42-23.39,6.17-23.54,6.17l-1.54,0v34.94h166.24v-35Z"/><path class="cls-13" d="M2206.56,765.63s-46.11-60.5-9.61-78.12c14.49-7,34.89,76,24,83.85S2192,789,2192,789Z"/><path class="cls-13" d="M1998,755.66s16-76,2-68.15-34.89,76-24,83.85S2004.93,789,2004.93,789Z"/><path class="cls-4" d="M2200.1,765.46c-21.06-26.14-28.92-68.59-27.85-112.39a513.68,513.68,0,0,1,5.61-63.61l17.27,13.45c-.07.25-9.91,18.24-10.68,50.25-.69,29.27-2.08,51.55,14.46,102.5Z"/><path class="cls-6" d="M2040.22,1293.64l-37.1,0c-3.28.37-8.42-4.44-8.42-11.32,0,0-.08-16.47-1.17-19.4-4.77-12.85,2.33-13.54,9.2-13.54h67.69c6.88,0-3.65,21.24-3.65,28.12l2.43,9C2069.2,1293.36,2047.1,1293.64,2040.22,1293.64Z"/><path class="cls-6" d="M2051.33,1311l-10.13,42.59h-31.66l-1.88-40.8C2012.37,1314.5,2028.26,1318.92,2051.33,1311Z"/><polygon class="cls-3" points="2136.16 1278.86 2143.79 1310.49 2153.92 1352.45 2185.58 1352.45 2187.46 1312.26 2188.92 1281.26 2136.16 1278.86"/><path class="cls-6" d="M2154.9,1293.64l37.1,0c3.28.37,8.42-4.44,8.42-11.32,0,0,.08-16.47,1.17-19.4,4.77-12.85-2.33-13.54-9.2-13.54H2124.7c-6.87,0,3.66,21.24,3.66,28.12l-2.44,9C2125.92,1293.36,2148,1293.64,2154.9,1293.64Z"/><path class="cls-6" d="M2143.79,1311l10.13,42.59h31.66l1.88-40.8C2182.75,1314.5,2166.87,1318.92,2143.79,1311Z"/><path class="cls-8" d="M569.58,449.83c-2.5-2.71-8.07-5.78-15.4-8.29,12.88-5.79,23.85-12.63,16.26-16.8-3.27-1.81-7.19-1.55-11.31-.05,6.34-6.42,9.4-11.95,3.21-13.39-9.4-2.2-19.18,9.91-26,21.08,4.43-9.58,6.71-19.07-1.55-19.21-9.52-.17-11.38,12.47-11.22,23.39-.79,0-1.57,0-2.37.05-2.68-12.08-7.88-27.11-16.75-23.1-4.47,2-4.31,6.36-2,11.37-4.2-3.22-8.35-4.33-11.65-.93-5,5.2,1.16,11.37,9.32,16.52a50.23,50.23,0,0,0-16.07,9.36c-27.73,24.21,2.5,79,2.5,79l79.15-2C590.52,487.35,578.56,459.59,569.58,449.83Z"/><path class="cls-9" d="M488.85,827.19l-47.27,6c-31.08,3.92-59.17-14-62.43-39.82l-18-142.66c-3.26-25.81,10.35-46.16,41.6-47.45,18.52-.76,49.42-4.84,82.67-15.9,29.47-9.81,32.77,17.33,36,43.15l18,142.66C542.7,798.94,519.93,823.27,488.85,827.19Z"/><path class="cls-6" d="M426.34,1404.69s0-15.2,2.17-20.26,10.11-25.63,10.11-25.63h31.05s5.78,18.77,6.14,24.91,0,21,0,21Z"/><path class="cls-6" d="M623.51,1404.69s0-15.2-2.17-20.26-10.11-25.63-10.11-25.63H580.18s-5.78,18.77-6.14,24.91,0,21,0,21Z"/><path class="cls-14" d="M499.1,551.42s-1.09,33.85-5.43,49l-34.29,23.92,129.09,19.32-30.79-42.54s-9.29-45.39-4.42-62.17S499.1,551.42,499.1,551.42Z"/><path class="cls-15" d="M498.91,556.1s10.21,24.57,29.44,24S552,557.84,552,557.84Z"/><path class="cls-14" d="M526.14,570.63c-13.93-.24-39.57-18.79-39.57-41.77V493c0-8.38,5.85-15.25,13-15.25h53.15c7.15,0,13,6.87,13,15.25v33.82C565.72,550.92,542.12,570.91,526.14,570.63Z"/><path class="cls-11" d="M430.23,878.21s5.44,165.91-2.69,260.57.06,226.4.06,226.4,26,14.32,54.15,0c0,0,30.89-182.88,30.69-226.4-.21-46.35,33.62-253.33,33.62-253.33Z"/><path class="cls-11" d="M622.38,1365.17s-26,14.33-54.14,0c0,0-30.88-182.87-30.68-226.4.08-19.57-5.9-67.8-12.84-117-9.5-67.28-20.79-136.34-20.79-136.34l120.32-7.52s-9.93,166.19-1.8,260.84S622.38,1365.17,622.38,1365.17Z"/><path class="cls-16" d="M601.56,609.17v.07a341.92,341.92,0,0,0-43.89-8.1c-12,15.91-20.58,19.61-31.53,23.94-17.63-2.44-32.48-24.14-32.48-24.64-25.58,2.62-40.07,8-40.07,8-9.73,4.09-22.52,80.16-24.51,122.42-.25,5.31-.33,10.07-.22,14.1,1,36.25,2.51,71.48-2.16,110.49-6.15,51.27,4.25,50.36,4.25,50.36s14,2.74,33.52,5.33c17.66,2.37,39.83,4.61,60.24,4.61,46.8,0,98.09-9.94,98.09-9.94,14.76.19-4.14-91.87-6.9-147.25-.64-12.86-1.24-24.61-1.8-35.34,17.73,15.28,69.92,43.12,71.1,46.67,0,0-11.38,20.79-14.84,31.87-13.29,42.54-36.13,70.66-36.13,70.66,3.11,11.8,2.24,17,2.24,17,36.13-28.4,59.43-52.55,74.31-71.07,20.9-26.06,25.19-41,25.19-41C655.52,613.6,601.56,609.17,601.56,609.17Z"/><path class="cls-17" d="M464.48,911.14C445,908.55,431,905.81,431,905.81s-10.4.91-4.25-50.36c4.67-39,3.2-74.24,2.16-110.49-.11-4,0-8.79.22-14.1,3,4.79,36.31,58.6,45.28,98.6C480.9,858.63,471.05,893,464.48,911.14Z"/><path class="cls-18" d="M537.56,1138.77c.08-19.57-5.9-67.8-12.84-117,7.2-29.38,24.75-57.65,24.75-57.65C571.68,1026.42,537.56,1138.77,537.56,1138.77Z"/><path class="cls-14" d="M634.24,872.42s-19.5-18-27.44-7.94-9.39,26-3.25,24.91,18.77-6.86,20.58-4,9.89,8.41,12.35,4S634.24,872.42,634.24,872.42Z"/><path class="cls-14" d="M634.24,872.42c3.11,11.8,2.23,17,2.23,17,36.14-28.4,59.44-52.55,74.31-71.07-11.21-.84-21.58-3.34-40.41-16.62C654.81,849.2,634.24,872.42,634.24,872.42Z"/><path class="cls-17" d="M680.71,766.23c-2.89-2.41-49.24-27.93-66.79-43.17,0,0,17.52-13.13,28.35,6S680.71,766.23,680.71,766.23Z"/><path class="cls-17" d="M736,777.38s-4.29,14.94-25.19,41C686.59,818,736,777.38,736,777.38Z"/><path class="cls-8" d="M486.57,507.55s9.67-29.52,41.35-24.91,34.43,11.37,37.8,19.22,9.87-28.7,9.87-28.7l-37.38-11.11S493,467.2,489.74,474.78l-3.25,7.59Z"/><path class="cls-9" d="M429.4,822l.54-25.16c35.85-27.22,50.44-59.49,51.82-115.3,1.05-42.32-13.17-76.83-13.27-77.18,0,0,6.35-1.52,8.51-1.89,2.33-.4,9.46-1.22,9.46-1.22.43,1.48,9.88,35.88,8.85,80.24C493.92,741,468.23,792.55,429.4,822Z"/><path class="cls-16" d="M528.81,814.75c-12.12,1.83-74.17,16.23-118.4,21.81-24.93,3.14-44.2,3.5-45.69-2.78-4.11-17.42,9.89-128.4,32.13-173.07s63.47-54.32,63.47-54.32l11.73,70.72L412.43,795.85l14.52.26,99.63,1.77Z"/><rect class="cls-6" x="532.68" y="770.63" width="32.3" height="50.45" rx="4.94"/><rect class="cls-9" x="532.68" y="774.69" width="32.3" height="50.45" rx="4.94"/><path class="cls-14" d="M514.93,801.78S547.7,779.2,558.45,787s11.61,26.53-33,28.08Z"/><path class="cls-14" d="M528.81,814.75c-12.12,1.83-74.17,16.23-118.4,21.81,3.87-18.87,10-31.71,16.54-40.45l99.63,1.77Z"/><path class="cls-8" d="M560.87,510.78a9.64,9.64,0,0,0-7.59-3.23H537.33c-3,0-5.16.87-6.3,2.59a5.74,5.74,0,0,0-.9,2.65,14.92,14.92,0,0,0-7.1.12,5.76,5.76,0,0,0-.91-2.77c-1.14-1.72-3.26-2.59-6.29-2.59h-16a9.67,9.67,0,0,0-7.6,3.23,8.17,8.17,0,0,0-1.48,7c1.81,9,12.2,10.17,17.39,10.17a25.54,25.54,0,0,0,2.91-.14c4.86,0,8.27-2.78,10.76-8.71a15.76,15.76,0,0,0,1.21-4.9,13.72,13.72,0,0,1,7-.15,15.53,15.53,0,0,0,1.21,5c2.49,5.93,5.91,8.7,10.76,8.71A25.62,25.62,0,0,0,545,528c5.18,0,15.57-1.16,17.38-10.17A8.14,8.14,0,0,0,560.87,510.78Zm-40,7.93c-2.3,5.51-5.42,8.07-9.82,8.07H511a31.8,31.8,0,0,1-8.85-.42c-5.93-1.2-9.4-4.16-10.33-8.78a7.14,7.14,0,0,1,1.27-6.15,8.61,8.61,0,0,1,6.78-2.84h16c2.66,0,4.48.71,5.42,2.12a5,5,0,0,1,.75,2.49c-.81.26-1.33.49-1.4.52a.62.62,0,0,0-.31.83.63.63,0,0,0,.57.37.58.58,0,0,0,.26-.06s.33-.15.86-.33A15.69,15.69,0,0,1,520.88,518.71Zm40.45-1.12c-.93,4.62-4.4,7.58-10.33,8.78a31.8,31.8,0,0,1-8.85.42h-.06c-4.39,0-7.51-2.56-9.82-8.07a15,15,0,0,1-1.1-4.28c.3.13.6.26.9.42a.63.63,0,1,0,.59-1.11,11.45,11.45,0,0,0-1.5-.64,4.93,4.93,0,0,1,.74-2.38c.94-1.41,2.76-2.12,5.43-2.12h15.95a8.61,8.61,0,0,1,6.78,2.84A7.14,7.14,0,0,1,561.33,517.59Z"/><path class="cls-19" d="M513.4,547.46s17.53-1.91,25.68,0c0,0-4.34,7.11-11.45,7.11S515.13,552,513.4,547.46Z"/><path class="cls-20" d="M1318.36,492.34c-8.55-2.81-17.83-1.44-24.18.24,1.31-2,4.44-3.32,4.44-3.32-4.11.21-12.21,6-12.21,6-59.75-10.19-52,73.2-47,91.93s-23.88,73-43.79,99.53c-55.88,74.33,33.46,151.73,33.46,151.73,72.44,60.84,39.52-57.12,39.52-57.12-4.49-15,49.93-110.19,81.94-141.85,6.32-15,4.8-39,4.67-40.92,2.18,18.83,1.11,29.86-.55,36.28C1380.09,599.75,1341,499.79,1318.36,492.34Z"/><path class="cls-4" d="M1467.06,766.39c0,8.06-4,18.38-9.85,29-14.4,26.5-39.59,54.9-39.59,54.9L1403,829.51s8.87-22,14.76-40.18c3.54-10.92,6-20.43,4.8-22.94-3.2-6.67-66.41-81.45-66.41-81.45L1339,627.08s42,2.22,60,28.44S1467.06,744.68,1467.06,766.39Z"/><path class="cls-3" d="M1457.21,795.4c-14.4,26.5-39.59,54.9-39.59,54.9L1403,829.51s8.87-22,14.76-40.18C1424.86,793.52,1437.12,797.51,1457.21,795.4Z"/><polygon class="cls-3" points="1282.48 1287.88 1297.61 1351.6 1320.27 1351.47 1321.1 1287.88 1282.48 1287.88"/><polygon class="cls-3" points="1473.09 1290.6 1516.13 1351.6 1532.91 1330.06 1507.01 1282.21 1473.09 1290.6"/><path class="cls-3" d="M1342,645.76c.19.09-18.17,9.62-32,5.84-13-3.54-21.48-20.38-21.3-20.42,5.5-1.09,7.09-8.66,7-41.14l2.49.49,41.82,8.28s-1,13.16-1,25.56C1339,634.78,1339.62,644.65,1342,645.76Z"/><path class="cls-21" d="M1274.92,515s15.89-25.61,45.39-10.3C1320.31,504.71,1305,505.13,1274.92,515Z"/><path class="cls-22" d="M1340,598.81s-1,13.16-1,25.56c-23.41-.66-35.77-22-40.84-33.84Z"/><path class="cls-20" d="M1289.57,592s-15.85-16.57-22-32.23c-4.4-11.18-7.15-55.35,37.29-57.87a59.87,59.87,0,0,1,26.19,4.3c10.65,4.44,26.94,15.39,19.37,55.94L1349,575.6Z"/><path class="cls-23" d="M1528.88,1316.12s-11.12,1.92-20.24,2.61c-2,.16-4,.25-5.64.25-4.39,0-12.3-1.66-17.62-2.89l-.4-.1c-2.33-.55-4.11-1-4.78-1.17l-.27-.07s-55.44-61.71-86.52-160.62c-.72-2.31-1.49-4.63-2.3-7-17-49.62-52.29-111.89-70.87-168.26-3-9-5.62-17.42-8-25.42-.77-2.56-1.51-5.07-2.21-7.55-13.7-47.6-17.67-78.84-21.32-112.23l111.76,28.43S1447.39,1065.53,1528.88,1316.12Z"/><path class="cls-3" d="M1347.31,605.42s-54.09,11.84-60.94-22-18.45-55,15.8-64,43.59,2.55,48.62,13.28S1361.21,601.47,1347.31,605.42Z"/><path class="cls-20" d="M1326.72,513.62s-6.86,42.66-28.49,53.12-32.75,6.35-32.75,6.35,14.7-17.42,13.44-42.41C1278.92,530.68,1311.71,497,1326.72,513.62Z"/><path class="cls-20" d="M1323.69,517.58s12.88,6.62,17.32,14.69,9.23,25.54,14.27,23.9c0,0,5.77-29.22-9.89-41.94C1328.79,500.75,1323.69,517.58,1323.69,517.58Z"/><path class="cls-3" d="M1296.85,1348a61.44,61.44,0,0,1-2.89,26.12s-3.71,16.9,12.94,17.21,20.72-1.25,18.84-11.62-5.47-28.28-5.47-28.28Z"/><path class="cls-24" d="M1294,1374.16s-3.69,17.75-1.81,26.23c0,0,5.64,2,17.73,2,11.46,0,18.2-2,18.2-2s-.42-19.28-3.48-26.66C1324.6,1373.73,1312.8,1391.43,1294,1374.16Z"/><path class="cls-3" d="M1573,1381.45s-30.69-34.06-40.11-51.39l-22.81,11.69,51,47.89,11.93-1.57Z"/><path class="cls-24" d="M1592.51,1401.41s-33,0-38.63-.63-10.2-8.79-16.32-21c-2.51-5-8.13-7.77-13.9-9.29l.11,29.94h-9.07l-8-31.72c-5.43-10-.43-19,3.4-26.92,4.44,0,16.41,3,39.07,28.57,7.45,8.38,15.68,11.38,23.85,11.13a1.54,1.54,0,0,0,.34.17C1592.2,1390.1,1592.51,1401.41,1592.51,1401.41Z"/><path class="cls-25" d="M1508.64,1318.73c-2,.16-4,.25-5.64.25-4.39,0-12.3-1.66-17.62-2.89l-.4-.1-4.78-1.17-.27-.07s-55.44-61.71-86.52-160.62c-.72-2.31-1.49-4.63-2.3-7-17-49.62-52.29-111.89-70.87-168.26-3-9-5.62-17.42-8-25.42-.77-2.56-1.51-5.07-2.21-7.55l19.76-15s59.34,96.09,77.71,186.52C1422.73,1192.39,1488.29,1289.57,1508.64,1318.73Z"/><path class="cls-23" d="M1331.86,1125.87c.33,44-1.89,145.07-7.62,186.93,0,0-5.43,4.81-18.9,4.86-13.79.06-20-5-20-5-14.37-72.78-24.59-133-32-184.88-6.11-42.58-11.53-79.09-15.7-110.52-3.7-27.85-6.41-51.71-7.72-72.29q-.26-4.19-.45-8.19c-.16-3.53-.29-7-.35-10.27s-.08-6.61-.05-9.76l.48-.05,27.76-2.7,87.72-8.56C1343.58,982.47,1331.67,1100.31,1331.86,1125.87Z"/><path class="cls-25" d="M1305.34,1317.66a34.3,34.3,0,0,1-20-5c-14.37-72.78-24.59-133-32-184.88-6.11-42.58-11.53-79.09-15.7-110.52-3.7-27.85-6.41-51.71-7.72-72.29-.15-10.14-.26-19.85-.37-28.27s-.27-15.76-.5-20.79L1257.32,914l29.74,19s-42.19,38.37-31.82,110.91S1290.92,1307.39,1305.34,1317.66Z"/><path class="cls-4" d="M1415.9,925.1c-33.66,8.75-190.7,26-192.05-13.32-.34-9.6,0-21.18.76-33.73,2.34-38.85,8.72-86.86,11.77-113.28,1.4-12.11-3.25-66.34.32-95.9a66.83,66.83,0,0,1,2.17-11.3c6.78-22.3,37.26-28.35,52.91-28.88l47.2-1.61s48.76,54.46,55.54,71.19,9,74,14.27,101.75S1432.26,920.85,1415.9,925.1Z"/><path class="cls-23" d="M1323.15,792.17s-26.25,80.61-98.54,85.88c2.34-38.85,8.72-86.86,11.77-113.28,1.4-12.11-3.25-66.34.32-95.9.94.2,1.79.72,2.78.91C1319.09,685.16,1330.38,775.37,1323.15,792.17Z"/><rect class="cls-9" x="1296.33" y="706" width="84.32" height="128.33" transform="translate(89.1 -137.43) rotate(6.08)"/><polygon class="cls-20" points="1303.36 701.9 1297.98 701.47 1285.35 828.98 1289.77 829.51 1303.36 701.9"/><path class="cls-3" d="M1232.66,758.39s59.15,18.08,115.69,26.17c0,0,18.66,8.06,9.9,10.27-2.25.57-115.46,25.25-132.25,9.24Z"/><path class="cls-4" d="M1291.78,628.69s-31.1.17-44.39,15.32c-24.24,27.66-29,145.29-21.39,160.06,3.29,6.35,28.53,6.86,39.17-23.9C1270.69,764.22,1294.81,657.7,1291.78,628.69Z"/><path class="cls-3" d="M1342.78,783.73s7-.65,8.27-2.87c2.64-4.44,6.81-4.39,10.28-5s7.39-4.39,8.08-3.63-2.57,5-4.38,6.53a15.3,15.3,0,0,0,6.2-.95c2.46-1.18,10-10.9,11.17-6.81,3.12,10.76-.12,21.1-8.75,21.94-9.31.91-32.42,5.37-32.42,5.37Z"/><path class="cls-26" d="M1633.43,833.69c-44.19-11.25-92.76-79.8-92.76-79.8l12.44-10.79c12.89,15.18,66.45,41.34,66.45,41.34-.29-13.9.07-26.58,1-38.11,5.94-78.42,35.5-104.55,43.57-110.28a19.27,19.27,0,0,1,2.05-1.32s0,.57.08,1.65c.12,2.33.33,7,.55,13.47C1668.4,697.84,1670.36,843.09,1633.43,833.69Z"/><path class="cls-26" d="M1553.11,743.1c-.18-1.86-1.43-28.8-6.78-33.93s-15.92-12.11-19-11.55-13.35,17.72-8.48,29.54,21.78,26.73,21.78,26.73Z"/><path class="cls-27" d="M1564.09,746.23l-29.1,1.22a1.75,1.75,0,0,1-1.82-1.68l-2.32-55.49a1.75,1.75,0,0,1,1.67-1.82l29.11-1.22a1.75,1.75,0,0,1,1.82,1.67l2.32,55.5A1.75,1.75,0,0,1,1564.09,746.23Z"/><path class="cls-28" d="M1556.53,746.54l-26.4,1.11a3.11,3.11,0,0,1-3.23-3l-2.2-52.79a3.09,3.09,0,0,1,3-3.23l26.39-1.1a3.1,3.1,0,0,1,3.24,3l2.2,52.78A3.1,3.1,0,0,1,1556.53,746.54Z"/><path class="cls-26" d="M1525.17,699.68s7.93-8.85,15.86-2.09-.52,21.23-7.41,25.18-9.08,6-9.08,6Z"/><path class="cls-29" d="M1729.65,1289.6c-2.69,10.7-5.65,20.89-8.67,30.38-.65,2-1.28,4-1.93,6-.32,1-.65,1.93-1,2.88-.64,1.87-1.26,3.72-1.89,5.52-.82,2.34-1.63,4.63-2.44,6.85q-.88,2.46-1.76,4.82c-9,24-16.47,39.26-16.47,39.26l-17.85-1.22s6.7-31.89,8-77.57c0-1.63.09-3.27.12-4.93q.11-5.32.11-10.84c0-1.51,0-3,0-4.58-.36-39.34-5.23-85.83-20.77-130.22a849.1,849.1,0,0,1-28.42-100.37c-21.38-98.49-16.36-163.21-16.36-163.21l100.45,11.76,4.68.54c.42,46.14,1.61,108.77,2.64,157.74.18,8.5.35,16.59.52,24.11.69,31.44,1.22,52.94,1.22,52.94C1749.2,1181,1742.19,1239.73,1729.65,1289.6Z"/><path class="cls-6" d="M1700.9,547.5s23.76,20.23,2,43.52c0,0,18.16,1.78,24.3-3.25a17,17,0,0,1-2.33,3.56s20.3.72,28.68-5.61,3-110.18-53.34-98.57c0,0-47.75-3.6-43.3,51.65s-13.58,55.25-13.58,55.25,5,2.47,7.43,2.47c0,0,3.54-1.35,4.24-3.3,0,0-.7,3.07-1.61,4,0,0,19.46,1.84,29.18-5.5S1703.67,558.9,1700.9,547.5Z"/><path class="cls-26" d="M1777.58,881.09c-19-42.57-28.06-54.61-28.38-68-.25-10.59,5-22,15.12-50a105.56,105.56,0,0,0,5-20.26c8-54-23.22-112.43-42.64-116.41-5.4-1.43-14.56-20.94-14.45-52.38l-2.43.48L1669,582.57s.93,12.87,1,25c0,10.1-.51,20.38-2.8,21.59-2.95.26-5.62.8-5.62.8s-34.6,24.3-36.84,57.26c-3,44,28.06,96.21.53,184.21C1597.08,961.29,1788.07,904.62,1777.58,881.09Z"/><path class="cls-29" d="M1669,582.57s.93,12.87,1,25c22.88-.64,35-21.52,39.93-33.08Z"/><path class="cls-6" d="M1714.07,570s12-18.94,14.87-35.14c2.06-11.56-3.83-54.43-46.91-48.26a58.45,58.45,0,0,0-24.27,9.18c-9.36,6.31-22.86,19.95-7.76,57.36l3.92,12.64Z"/><path class="cls-26" d="M1661.32,594.05s54.14.89,54.18-32.83,7-56.31-27.52-58.31-41.29,10.87-44,22.12S1647.24,593,1661.32,594.05Z"/><path class="cls-6" d="M1663.33,502.09s14.82,39.56,37.57,45.41,32.61-.25,32.61-.25-17.45-13.86-21.07-38.05C1712.44,509.2,1674.51,483.26,1663.33,502.09Z"/><path class="cls-6" d="M1667,505.3s-11.07,8.83-13.77,17.42-3.91,26.26-9.06,25.66c0,0-11.17-26.89,1.38-42.1C1658.86,490.15,1667,505.3,1667,505.3Z"/><path class="cls-26" d="M1848,926.31l-16.25,4.87s-53.61-88.94-58.48-112.09c-1.59-7.53-5.49-22.61-10-39.5-9.41-35-21.56-77.8-21.56-77.8l-4-17.33L1724,625.37s26.13,2.67,41.41,9.06c5.07,2.11,8.93,4.63,10.27,7.59,11.23,24.69,22.44,87,30.32,131.44,4.39,24.77,7.74,44,9.49,48.07C1820.36,832.9,1835.26,895.45,1848,926.31Z"/><path class="cls-6" d="M1665,506.64s10.56,41.42,39.26,54.69c0,0-28.7-25.45-31.14-52.8S1665,506.64,1665,506.64Z"/><path class="cls-26" d="M1787.27,1281c-5.78,61.63-31.21,101.49-31.21,101.49l-8.68,7.9s-7.91-45.12-13.62-96.79c-5.44-49.1-12.9-101.06-21.34-116.93-12.61-23.7-21.91-72.17-28.6-123.37-11.06-84.73-15-177-15-177l101.84-5c10.24,17.22,14.7,45.46,15.76,77.58,1.12,33.76-1.54,71.8-5.23,105.8-5.15,47.6-12.32,87.27-14,96.19,0,0,0,0,0,0a5.33,5.33,0,0,0,.68,3.41C1788.15,1194.34,1791.08,1240.23,1787.27,1281Z"/><path class="cls-11" d="M1668.43,739.58c-2.29,55.94-10.66,111.33-35,107.77-29.85-4.36-37.63-32.22-39.22-52.94a119,119,0,0,1,.44-23s14.69-.07,17.07-2.26c11.29-10.42,7.93-112.66,13.52-123.27s41.83-17.43,41.83-17.43S1670.7,684.28,1668.43,739.58Z"/><path class="cls-18" d="M1668.43,739.58c-2.29,55.94-10.66,111.33-35,107.77-29.85-4.36-37.63-32.22-39.22-52.94,7.33-.37,20.24-2.15,25.37-10,7.34-11.19,30.24-83.26,30.24-83.26S1658.81,717.35,1668.43,739.58Z"/><path class="cls-6" d="M1729.65,1289.6c-2.69,10.7-5.65,20.89-8.67,30.38-.65,2-1.28,4-1.93,6-.32,1-.65,1.93-1,2.88-.64,1.87-1.26,3.72-1.89,5.52-.82,2.34-1.63,4.63-2.44,6.85q-.88,2.46-1.76,4.82c-9,24-16.47,39.26-16.47,39.26l-17.85-1.22s6.7-31.89,8-77.57c0-1.63.09-3.27.12-4.93q.11-5.32.11-10.84c0-1.51,0-3,0-4.58-.36-39.34-5.23-85.83-20.77-130.22a849.1,849.1,0,0,1-28.42-100.37c10.61,2.19,20,0,47.08-2.32,2.85-.24,16.48,16.64,29.94,39,.7,31.44,16.13,47.23,16.13,47.23C1749.2,1181,1742.19,1239.73,1729.65,1289.6Z"/><path class="cls-9" d="M1787.27,1281c-5.78,61.63-31.21,101.49-31.21,101.49l-8.68,7.9s-7.91-45.12-13.62-96.79c-5.44-49.1-12.9-101.06-21.34-116.93-12.61-23.7-21.91-72.17-28.6-123.37,9.38,3.9,41.27,14,97.39,1.34-5.15,47.6-12.32,87.27-14,96.19,0,0,0,0,0,0a5.33,5.33,0,0,0,.68,3.41C1788.15,1194.34,1791.08,1240.23,1787.27,1281Z"/><path class="cls-9" d="M1806.78,981.05s-21.31,6.58-52.7,10.93c-38.86,5.37-93.19,7.31-141.71-10.93,0,0-4-72.2,7.5-109.83s16.87-55.66,16.87-55.66,46.06,11.55,92.84,2.6a152.87,152.87,0,0,0,19.62-5.07s28.85,61.26,36.79,87.52S1806.78,981.05,1806.78,981.05Z"/><path class="cls-6" d="M1806.78,981.05s-21.31,6.58-52.7,10.93c-57.56-32.64-29.49-170-29.49-170q2.57-2.07,5-3.84a152.87,152.87,0,0,0,19.62-5.07s28.85,61.26,36.79,87.52S1806.78,981.05,1806.78,981.05Z"/><path class="cls-11" d="M1853.89,843.63c0,14-14.33,22.69-29.72,26.89-14.79,4-30.54,4-35.47.69-8.5-5.7-22.36-69-26.4-88.33-.73-3.5-1.14-5.54-1.14-5.54s-11.05,26.37-11.4,28.83c-.15,1.1-.29,2.62-.39,4-.11,1.62-.18,3-.18,3s-60,30.27-112.45,2.47c0,0-21.34-123.32-12.08-144.55,4.61-10.55,28.61-32.31,38.22-41.7,2.16-2.11,1.95-6.29,1.11-10.11a4.42,4.42,0,0,1,5.41-5.24c6.18,1.61,17.29,1.33,29.2-2.58a70.17,70.17,0,0,0,17.86-8.73,2.72,2.72,0,0,1,4.23,1.94c.91,7.35,3.13,20.78,7.19,20.78,5.58,0,43.7,4.65,46.5,9.36,1,1.64,10.88,24.07,23.39,53.78a.31.31,0,0,1,0,.07C1821.28,744.31,1853.89,825.65,1853.89,843.63Z"/><path class="cls-18" d="M1761.16,777.34s-11.05,26.37-11.4,28.83c-.15,1.1-.29,2.62-.39,4A54.43,54.43,0,0,1,1731,819.8c-18.69,5.66-26.81-30.17-25.7-48s27.56-68.9,36.36-70S1761.16,777.34,1761.16,777.34Z"/><path class="cls-18" d="M1762.3,782.88c-.73-3.5-1.14-5.54-1.14-5.54A28.44,28.44,0,0,1,1762.3,782.88Z"/><path class="cls-30" d="M1685.65,829.16c-34.12,0-48.18-11.75-49.22-12.55l-2.21-16.07c.33.25,46.11,27.74,117,1.41l-1.51,12.17C1722.43,824.25,1703.37,829.16,1685.65,829.16Z"/><path class="cls-18" d="M1853.89,843.63c0,14-14.33,22.69-29.72,26.89,21.21-25.25-25.19-178-26.38-181.94C1821.28,744.31,1853.89,825.65,1853.89,843.63Z"/><path class="cls-18" d="M1727.88,625.37s-28.55,18.08-50.15,13.8c0,0-5.18-3.28,2-6.57,6.71-3.09,22.33-12.22,18.9-21.22a70.17,70.17,0,0,0,17.86-8.73,2.72,2.72,0,0,1,4.23,1.94C1721.6,611.94,1723.82,625.37,1727.88,625.37Z"/><path class="cls-6" d="M1705.81,1400.28h-11.4c-3.82-.61-6.64-1.71-10.55-2.22-5.95-.78-8.68,1.66-9.23,2.22l-.1.11h-48.42c-1.21-1.74,0-5.77,1.1-8.73a6.86,6.86,0,0,1,4.53-4.14c5.14-1.49,15.26-2.81,24.53-11.21,5.21-4.71,25.18-17.32,25.18-17.32l.1,0c.44,0,2.53.65,11.61,8.32,4.7,4,12.7-5.59,12.7-5.59a11.51,11.51,0,0,1,2.62,3.56,12,12,0,0,1,1,7.43c-.72,4.37,1.61,12.47,3.47,18,1.13,3.33,2.08,5.68,2.08,5.68S1715.61,1399.05,1705.81,1400.28Z"/><path class="cls-31" d="M1708.48,1365.25c-2.72,1.92-8.46,5.7-12.27,6.19-5.15.68-14.76-12.45-14.76-12.45l.1,0c.44,0,2.53.65,11.61,8.32,4.7,4,12.7-5.59,12.7-5.59A11.51,11.51,0,0,1,1708.48,1365.25Z"/><path class="cls-31" d="M1705.81,1400.28h-11.4c-3.82-.61-6.64-1.71-10.55-2.22-5.95-.78-8.68,1.66-9.23,2.22l-.1.11h-48.42c-1.21-1.74,0-5.77,1.1-8.73,1.47-1.31,1.89,5.68,2.7,6.79s39.49.4,41.73-1.22,8.93-4.47,18.27-2.23c8.13,1.94,20.11-3,23.08-4.37,1.13,3.33,2.08,5.68,2.08,5.68S1715.61,1399.05,1705.81,1400.28Z"/><path class="cls-6" d="M1766.62,1400.28h-11.39c-3.82-.61-6.64-1.71-10.55-2.22-6-.78-8.69,1.66-9.23,2.22a.84.84,0,0,0-.11.11h-48.41c-1.22-1.74,0-5.77,1.1-8.73a6.86,6.86,0,0,1,4.53-4.14c5.13-1.49,15.25-2.81,24.52-11.21,5.22-4.71,25.18-17.32,25.18-17.32l.11,0c.44,0,2.53.65,11.61,8.32,4.69,4,12.69-5.59,12.69-5.59a11.62,11.62,0,0,1,2.63,3.56,12,12,0,0,1,1,7.43c-.72,4.37,1.61,12.47,3.47,18,1.13,3.33,2.08,5.68,2.08,5.68S1776.43,1399.05,1766.62,1400.28Z"/><path class="cls-31" d="M1769.3,1365.25c-2.73,1.92-8.47,5.7-12.28,6.19-5.14.68-14.76-12.45-14.76-12.45l.11,0c.44,0,2.53.65,11.61,8.32,4.69,4,12.69-5.59,12.69-5.59A11.62,11.62,0,0,1,1769.3,1365.25Z"/><path class="cls-31" d="M1766.62,1400.28h-11.39c-3.82-.61-6.64-1.71-10.55-2.22-6-.78-8.69,1.66-9.23,2.22a.84.84,0,0,0-.11.11h-48.41c-1.22-1.74,0-5.77,1.1-8.73,1.47-1.31,1.88,5.68,2.69,6.79s39.5.4,41.73-1.22,8.94-4.47,18.28-2.23c8.13,1.94,20.11-3,23.07-4.37,1.13,3.33,2.08,5.68,2.08,5.68S1776.43,1399.05,1766.62,1400.28Z"/><path class="cls-32" d="M1888.25,995.56a16.5,16.5,0,0,0-10.52-12.26c-8.77-3.26-23.13-6.19-40.8-1-29.81,8.76-32.73,27.09-30.75,40.27s-3.87,34.18-3,49.13,5.14,52.49,27.22,50.52,93.22-21.1,93.22-21.1,12.29-23.39-13-57.28C1895.66,1023.74,1890.21,1005.43,1888.25,995.56Z"/><path class="cls-32" d="M1874.58,978.29l-5.9.53a13.24,13.24,0,0,0-3.39-6.64c-2.08-2-5-2.69-8.55-2.1-3.41.54-5.85,2.1-7.09,4.62-1.75,3.53-.78,8.08-.77,8.13l-5.75,1.33c-.07-.31-1.74-7.71,1.28-13.92,2.07-4.3,5.78-6.77,10.9-7.74,5.29-.84,9.76.45,13.3,3.84C1873.49,971,1874.54,978,1874.58,978.29Z"/><path class="cls-27" d="M1938.23,1097.78s-71.16,19.17-93.25,21.1-26.37-35.53-27.18-50.53,5-35.92,3-49.13a36.49,36.49,0,0,1-.45-8.05c.57-11.76,7.16-25.12,31.16-32.17a64.11,64.11,0,0,1,40.84,1,16.53,16.53,0,0,1,10.52,12.23c.26,1.15.5,2.55.81,3.93,2.54,10.49,8.4,26.77,21.59,44.38C1950.54,1074.41,1938.23,1097.78,1938.23,1097.78Z"/><path class="cls-33" d="M1828.54,1071.51l42.89-9.71s10,30.71-10.29,36.31S1832.46,1091.81,1828.54,1071.51Z"/><path class="cls-32" d="M1828.54,1071.51s9.9,9.53,23.27,6.17,19.62-15.88,19.62-15.88Z"/><path class="cls-33" d="M1880.14,1059.83l42.88-9.7s10,30.71-10.29,36.31S1884.06,1080.14,1880.14,1059.83Z"/><path class="cls-32" d="M1880.14,1059.83s9.89,9.54,23.26,6.18,19.62-15.88,19.62-15.88Z"/><path class="cls-33" d="M1902.88,992.25c.26,1.15.5,2.55.81,3.93-5.67,11.7-16.41,26.65-34.61,30.12-30.93,6-48.72-15.13-48.72-15.13.57-11.76,7.16-25.12,31.16-32.17a64.11,64.11,0,0,1,40.84,1A16.53,16.53,0,0,1,1902.88,992.25Z"/><path class="cls-28" d="M1869.52,1032.79h0a3.63,3.63,0,0,1-4.32-2.73l-.72-3.2a3.62,3.62,0,0,1,2.72-4.32h0a3.63,3.63,0,0,1,4.32,2.73l.73,3.2A3.63,3.63,0,0,1,1869.52,1032.79Z"/><path class="cls-26" d="M1846.83,923.61s4.94,11.64,10.08,14.89,10,11,11.11,17.33c2,11.53-6.88,18.68-13.38,18.68s-12.71-8.86-16.53-30c-.21-1.17-6.38-13.3-6.38-13.3Z"/><path class="cls-6" d="M997.2,486.94c-7.76-11.79-38.59-5.19-68.85,14.74s-48.51,45.64-40.74,57.43,38.59,5.19,68.85-14.73S1005,498.73,997.2,486.94Z"/><path class="cls-4" d="M839.1,925l6,.36c-.05-.13,2.33-104.34,11.47-146.5,17-78.56,61.54-140.05,62-140.57l-10.69-3.43c-.53.57-9,13.64-20.93,37.77-11,22.23-28.73,59.26-36.55,102.39C842.68,817.62,838.88,924.44,839.1,925Z"/><path class="cls-23" d="M947.08,486s-39.05-8.34-57.8,23.43S869.5,596.4,857,614.45s-34.54,94.24-11.11,111.29,167.78-.62,175.88-8.4-.49-87.78-14.59-111S1027.44,474.21,947.08,486Z"/><path class="cls-3" d="M1005.26,833.69c44.18-11.25,92.76-79.8,92.76-79.8l-12.44-10.79c-12.89,15.18-66.45,41.34-66.45,41.34.29-13.9-.07-26.58-1-38.11-5.94-78.42-35.5-104.55-43.57-110.28a20.63,20.63,0,0,0-2.05-1.32s0,.57-.08,1.65c-.12,2.33-.33,7-.55,13.47C970.29,697.84,968.33,843.09,1005.26,833.69Z"/><path class="cls-3" d="M1085.58,743.1c.18-1.86,1.43-28.8,6.78-33.93s15.92-12.11,19-11.55,13.35,17.72,8.48,29.54S1098,753.89,1098,753.89Z"/><path class="cls-3" d="M909,1289.6c2.69,10.7,5.65,20.89,8.67,30.38.65,2,1.28,4,1.93,6,.32,1,.65,1.93,1,2.88.64,1.87,1.26,3.72,1.89,5.52.82,2.34,1.63,4.63,2.44,6.85q.89,2.46,1.76,4.82c9,24,16.47,39.26,16.47,39.26l17.85-1.22s-6.7-31.89-8-77.57c-.05-1.63-.09-3.27-.12-4.93-.07-3.55-.12-7.16-.12-10.84,0-1.51,0-3,0-4.58.35-39.34,5.22-85.83,20.77-130.22A851,851,0,0,0,1002,1055.57c21.38-98.49,16.36-163.21,16.36-163.21L917.86,904.12l-4.68.54c-.42,46.14-1.61,108.77-2.65,157.74-.17,8.5-.34,16.59-.51,24.11-.69,31.44-1.22,52.94-1.22,52.94C889.48,1181,896.5,1239.73,909,1289.6Z"/><path class="cls-3" d="M861.11,881.09c19-42.57,28.06-54.61,28.38-68,.25-10.59-5-22-15.12-50a105.56,105.56,0,0,1-5-20.26c-8-54,23.22-112.43,42.64-116.41,5.4-1.43,14.56-20.94,14.44-52.38l2.44.48,40.88,8.09s-.93,12.87-1,25c0,10.1.51,20.38,2.8,21.59,2.94.26,35,6,40.88,15.21,5.73,9.06-.66,9.89,1.58,42.85,3,44-28.06,96.21-.53,184.21C1041.61,961.29,850.62,904.62,861.11,881.09Z"/><path class="cls-22" d="M969.72,582.57s-.93,12.87-1,25c-22.88-.64-35-21.52-39.93-33.08Z"/><path class="cls-3" d="M977.36,594.05s-54.13.89-54.17-32.83-7-56.31,27.52-58.31,41.29,10.87,44,22.12S991.44,593,977.36,594.05Z"/><path class="cls-23" d="M975.36,502.09s-14.82,39.56-37.57,45.41-32.61-.25-32.61-.25,17.45-13.86,21.07-38.05C926.25,509.2,964.18,483.26,975.36,502.09Z"/><path class="cls-23" d="M971.69,505.3s11.07,8.83,13.76,17.42,3.92,26.26,9.07,25.66c0,0,11.17-26.89-1.38-42.1C979.83,490.15,971.69,505.3,971.69,505.3Z"/><path class="cls-3" d="M790.71,926.31,807,931.18s53.61-88.94,58.48-112.09c1.59-7.53,5.49-22.61,10-39.5,9.41-35,21.56-77.8,21.56-77.8l4-17.33,13.65-59.09s-26.13,2.67-41.42,9.06c-5.06,2.11-8.92,4.63-10.26,7.59-11.23,24.69-22.44,87-30.32,131.44-4.39,24.77-7.74,44-9.49,48.07C818.33,832.9,803.43,895.45,790.71,926.31Z"/><path class="cls-23" d="M973.74,506.64s-10.56,41.42-39.26,54.69c0,0,28.7-25.45,31.14-52.8S973.74,506.64,973.74,506.64Z"/><path class="cls-3" d="M851.42,1281c5.78,61.63,31.21,101.49,31.21,101.49l8.68,7.9s7.91-45.12,13.62-96.79c5.44-49.1,12.9-101.06,21.34-116.93,12.61-23.7,21.91-72.17,28.6-123.37,11.06-84.73,15-177,15-177l-101.84-5c-10.24,17.22-14.7,45.46-15.76,77.58-1.12,33.76,1.54,71.8,5.22,105.8,5.16,47.6,12.33,87.27,14,96.19a.08.08,0,0,0,0,0,5.27,5.27,0,0,1-.67,3.41C850.54,1194.34,847.61,1240.23,851.42,1281Z"/><path class="cls-34" d="M1044.49,794.41c-1.58,20.72-9.36,48.59-39.21,52.94-10.56,1.54-18.11-8-23.47-23.85-7-20.72-10.26-52.24-11.55-83.93-1.24-30-.73-60.2,0-81.52,12.25-1.38,34.72-11.75,41.62-14.34.19.21.39.43.57.65a6.54,6.54,0,0,1,.4.52,9,9,0,0,1,.62,1c3,5.66,3.41,37.39,4.89,67.34,1.28,26.21,3.37,51.06,8.63,55.93,2.38,2.19,17.06,2.26,17.06,2.26A118,118,0,0,1,1044.49,794.41Z"/><path class="cls-35" d="M970.26,739.58c2.29,55.94,10.66,111.33,35,107.77,29.85-4.36,37.63-32.22,39.22-52.94-7.33-.37-20.24-2.15-25.37-10-7.34-11.19-30.24-83.26-30.24-83.26S979.88,717.35,970.26,739.58Z"/><path class="cls-9" d="M1002,815.56s-59.91,15-112.46-2.47c0,0-28.85,61.26-36.79,87.52s-67.9,362.29-67.9,362.29,132,38.16,219.67,5.2c0,0,25.85-359.25,14.35-396.89S1002,815.56,1002,815.56Z"/><path class="cls-34" d="M1018.36,713C1014,756.28,1002,815,1002,815a97.35,97.35,0,0,1-20.14,7.91c-46.55,12.64-92.31-10.37-92.31-10.37s-.07-1.34-.19-3c-.09-1.34-.22-2.85-.38-4-.35-2.45-11.39-28.74-11.39-28.74s-.42,2.05-1.15,5.54c-4,19.21-17.9,82.37-26.4,88.06-4.92,3.28-20.68,3.33-35.47-.69C799.13,865.63,784.8,857,784.8,843c0-17.93,32.61-99,56.1-154.58a.33.33,0,0,1,0-.08c12.51-29.63,19.77-50.23,29.34-52.54,0,0,64.35,26.2,100,22.18,12.25-1.38,34.72-11.73,41.62-14.3l.57.64c.14.17.28.35.4.52l.38.57c5.22,7.7,4.4,20.47,4.67,25.34C1018.41,680.28,1020.32,693.59,1018.36,713Z"/><path class="cls-35" d="M877.53,777.34s11.05,26.37,11.4,28.83c.15,1.1.29,2.62.39,4a54.43,54.43,0,0,0,18.38,9.67c18.69,5.66,26.81-30.17,25.69-48s-27.55-68.9-36.35-70S877.53,777.34,877.53,777.34Z"/><path class="cls-18" d="M876.39,782.88c.73-3.5,1.14-5.54,1.14-5.54A28.44,28.44,0,0,0,876.39,782.88Z"/><path class="cls-20" d="M953.56,827c34.13,0,47.66-9.58,48.7-10.38l2.21-16.07c-.33.25-46.11,27.74-117,1.41l1.5,12.17C916.26,824.25,935.84,827,953.56,827Z"/><path class="cls-35" d="M784.8,843.63c0,14,14.33,22.69,29.72,26.89-21.21-25.25,25.19-178,26.38-181.94C817.41,744.31,784.8,825.65,784.8,843.63Z"/><path class="cls-6" d="M932.88,1400.28h11.4c3.82-.61,6.63-1.71,10.55-2.22,5.94-.78,8.68,1.66,9.23,2.22l.1.11h48.41c1.22-1.74,0-5.77-1.09-8.73a6.88,6.88,0,0,0-4.53-4.14c-5.14-1.49-15.26-2.81-24.53-11.21-5.21-4.71-25.18-17.32-25.18-17.32l-.1,0c-.44,0-2.53.65-11.61,8.32-4.7,4-12.7-5.59-12.7-5.59a11.51,11.51,0,0,0-2.62,3.56,12,12,0,0,0-1,7.43c.72,4.37-1.61,12.47-3.47,18-1.13,3.33-2.08,5.68-2.08,5.68S923.08,1399.05,932.88,1400.28Z"/><path class="cls-31" d="M930.21,1365.25c2.72,1.92,8.46,5.7,12.27,6.19,5.15.68,14.76-12.45,14.76-12.45l-.1,0c-.44,0-2.53.65-11.61,8.32-4.7,4-12.7-5.59-12.7-5.59A11.51,11.51,0,0,0,930.21,1365.25Z"/><path class="cls-31" d="M932.88,1400.28h11.4c3.82-.61,6.63-1.71,10.55-2.22,5.94-.78,8.68,1.66,9.23,2.22l.1.11h48.41c1.22-1.74,0-5.77-1.09-8.73-1.47-1.31-1.89,5.68-2.7,6.79s-39.49.4-41.73-1.22-8.93-4.47-18.27-2.23c-8.13,1.94-20.11-3-23.08-4.37-1.13,3.33-2.08,5.68-2.08,5.68S923.08,1399.05,932.88,1400.28Z"/><path class="cls-6" d="M872.07,1400.28h11.39c3.82-.61,6.64-1.71,10.55-2.22,6-.78,8.69,1.66,9.23,2.22a.84.84,0,0,1,.11.11h48.41c1.22-1.74,0-5.77-1.1-8.73a6.86,6.86,0,0,0-4.53-4.14c-5.13-1.49-15.26-2.81-24.52-11.21-5.22-4.71-25.18-17.32-25.18-17.32l-.11,0c-.44,0-2.53.65-11.61,8.32-4.69,4-12.69-5.59-12.69-5.59a11.62,11.62,0,0,0-2.63,3.56,12,12,0,0,0-1,7.43c.73,4.37-1.6,12.47-3.46,18-1.13,3.33-2.08,5.68-2.08,5.68S862.26,1399.05,872.07,1400.28Z"/><path class="cls-31" d="M869.39,1365.25c2.72,1.92,8.47,5.7,12.28,6.19,5.14.68,14.76-12.45,14.76-12.45l-.11,0c-.44,0-2.53.65-11.61,8.32-4.69,4-12.69-5.59-12.69-5.59A11.62,11.62,0,0,0,869.39,1365.25Z"/><path class="cls-31" d="M872.07,1400.28h11.39c3.82-.61,6.64-1.71,10.55-2.22,6-.78,8.69,1.66,9.23,2.22a.84.84,0,0,1,.11.11h48.41c1.22-1.74,0-5.77-1.1-8.73-1.47-1.31-1.88,5.68-2.69,6.79s-39.5.4-41.73-1.22-8.94-4.47-18.28-2.23c-8.13,1.94-20.11-3-23.07-4.37-1.13,3.33-2.08,5.68-2.08,5.68S862.26,1399.05,872.07,1400.28Z"/><path class="cls-3" d="M791.86,923.61s-4.94,11.64-10.09,14.89-10,11-11.1,17.33c-2,11.53,6.88,18.68,13.38,18.68s12.71-8.86,16.53-30c.21-1.17,6.38-13.3,6.38-13.3Z"/><polygon class="cls-11" points="1110.15 683.02 1109.39 690.83 1107 715.43 1105.47 731.18 1074.06 731.18 1072.13 715.43 1069.11 690.83 1068.15 683.02 1110.15 683.02"/><polygon class="cls-36" points="1112.38 683.02 1065.68 683.02 1066.59 678.33 1111.24 678.33 1112.38 683.02"/><polygon class="cls-36" points="1109.39 690.83 1107 715.43 1072.13 715.43 1069.11 690.83 1109.39 690.83"/><path class="cls-3" d="M1113.52,699.68s-7.93-8.85-15.86-2.09.52,21.23,7.4,25.18,9.09,6,9.09,6Z"/><path class="cls-4" d="M933.49,925.48l-6-.44c.07-.13,11.68-104.41,8.27-147.7-6.35-80.66-42.22-148-42.64-148.6l11.06-2c.45.64,7.06,14.82,15.67,40.5,7.94,23.67,20.53,63,22.5,107.08C944.34,817.87,933.79,925,933.49,925.48Z"/><path class="cls-37" d="M861.17,902.55s5.8-14.27,15-17.84l47.07,8.88s-11.62,11-12.71,18.26Z"/><path class="cls-25" d="M920.27,983.1l-80.46-15.16a7,7,0,0,1-5.55-8.14l10-53.34a7,7,0,0,1,8.13-5.56l80.46,15.17a7,7,0,0,1,5.56,8.13l-10.05,53.34A7,7,0,0,1,920.27,983.1Z"/><rect class="cls-18" x="852.62" y="873.1" width="38.48" height="49.32" transform="translate(7.89 -7.6) rotate(0.5)"/><rect class="cls-11" x="850.41" y="873.08" width="38.48" height="49.32" transform="translate(7.87 -7.56) rotate(0.5)"/><rect class="cls-17" x="863.01" y="885.95" width="38.48" height="49.32" transform="translate(735.15 -348.73) rotate(37.43)"/><rect class="cls-16" x="859.59" y="883.33" width="38.48" height="49.32" transform="translate(732.83 -347.19) rotate(37.43)"/><path class="cls-4" d="M900.61,979.39l-77-14.51a8.71,8.71,0,0,1-7-10.17L826,904.79a8.71,8.71,0,0,1,10.17-6.95l77,14.52a8.71,8.71,0,0,1,6.94,10.17l-9.41,49.92A8.69,8.69,0,0,1,900.61,979.39Z"/><path class="cls-6" d="M882.4,529.85s-24.63-49,9.79-68.4,59.61-11.77,78.54,11.93Z"/><path class="cls-9" d="M1021.05,468c-7.08-11.35-31.87-9.52-61.78,2.73a246.52,246.52,0,0,0-36.64,18.95,236.35,236.35,0,0,0-39.71,30.69c-19.81,19.37-29.47,37.91-23.06,48.2,2,3.13,4.91,5.16,9.32,6.34,4.39-9.45,17-18.29,20.54-25.65,5-10.4,17.78-29.25,41.09-43.8,17.92-11.18,35.73-17.75,48-18.54,7.13-.46,12.39,1,14.71,4.74,1.8,2.89,1.61,6.81-.25,11.34a56.19,56.19,0,0,1,5.36,12.58C1018,496.43,1027.4,478.16,1021.05,468Z"/><path class="cls-38" d="M1831.73,126.14c-79.24,0-143.7,64.47-143.7,143.71s64.46,143.7,143.7,143.7,143.71-64.46,143.71-143.7S1911,126.14,1831.73,126.14Zm0,278c-74.07,0-134.33-60.26-134.33-134.33s60.26-134.33,134.33-134.33,134.34,60.26,134.34,134.33S1905.81,404.18,1831.73,404.18Z"/><path class="cls-38" d="M1831.73,160.91a5.73,5.73,0,1,0-5.72-5.73A5.73,5.73,0,0,0,1831.73,160.91Z"/><path class="cls-38" d="M1831.73,380.64a5.73,5.73,0,1,0,5.73,5.73A5.73,5.73,0,0,0,1831.73,380.64Z"/><path class="cls-38" d="M1941.6,265.05a5.73,5.73,0,1,0,5.73,5.73A5.73,5.73,0,0,0,1941.6,265.05Z"/><path class="cls-38" d="M1885.19,361.74a5.73,5.73,0,1,0,8.1-.19A5.73,5.73,0,0,0,1885.19,361.74Z"/><path class="cls-38" d="M1922.68,326.1a5.73,5.73,0,1,0,8.1-.19A5.73,5.73,0,0,0,1922.68,326.1Z"/><path class="cls-38" d="M1929.31,221.26a5.73,5.73,0,1,0-7.64-2.67A5.72,5.72,0,0,0,1929.31,221.26Z"/><path class="cls-38" d="M1892.44,172.37a5.73,5.73,0,1,0,1.71,7.92A5.72,5.72,0,0,0,1892.44,172.37Z"/><path class="cls-38" d="M1730.17,263.13a5.73,5.73,0,1,0,5.73,5.73A5.73,5.73,0,0,0,1730.17,263.13Z"/><path class="cls-38" d="M1778.48,359.63a5.73,5.73,0,1,0,8.1.19A5.72,5.72,0,0,0,1778.48,359.63Z"/><path class="cls-38" d="M1741,324a5.73,5.73,0,1,0,8.1.2A5.72,5.72,0,0,0,1741,324Z"/><path class="cls-38" d="M1742.46,219.34a5.73,5.73,0,1,0-2.68-7.64A5.71,5.71,0,0,0,1742.46,219.34Z"/><path class="cls-38" d="M1779.32,170.45a5.73,5.73,0,1,0,7.92,1.71A5.73,5.73,0,0,0,1779.32,170.45Z"/><path class="cls-38" d="M1885.72,227.84l-46.81,32.35a5.29,5.29,0,0,0-.52-.29l-5-88.44v88.45a5.73,5.73,0,1,0,8.25,5.14,5.85,5.85,0,0,0-.07-.85Z"/><rect class="cls-39" y="1400.39" width="2677.7" height="7.1" rx="3.03"/></g></g></svg>