<svg xmlns="http://www.w3.org/2000/svg" viewBox="0 0 2767 1228.6"><defs><style>.cls-1{fill:#ebf3fa;}.cls-2{fill:#e2eef9;}.cls-3{fill:#deedff;}.cls-4{fill:#c7ddea;}.cls-5{fill:#d7e9f2;}.cls-6{fill:#f99746;}.cls-7{fill:#ffb278;}.cls-8{fill:#c2d9ef;}.cls-9{fill:#9abedb;}.cls-10{fill:#d3e3ef;}.cls-11{fill:#d1a586;}.cls-12{fill:#e5bd9e;}.cls-13{fill:#dfb697;}.cls-14{fill:#a0795f;}.cls-15{fill:#ffb27d;}.cls-16{fill:#c65447;}.cls-17{fill:#aa413e;}.cls-18{fill:#b5453c;}.cls-19{fill:#ed975d;}.cls-20{fill:#699dee;}.cls-21{fill:#fff;}.cls-22{fill:#4a75cb;}.cls-23{fill:#1c468a;}.cls-24{fill:#163560;}.cls-25,.cls-46{fill:#e37970;}.cls-26{fill:#2b478b;}.cls-27{fill:#e7f1fd;}.cls-28{fill:#c45446;}.cls-29{fill:#233862;}.cls-30{fill:#ed7d2b;}.cls-31{fill:#c69d7f;}.cls-32{fill:#e0b594;}.cls-33{fill:#f4a269;}.cls-34{fill:#9e332e;}.cls-35{fill:#6bb7bf;}.cls-36{fill:#599dad;}.cls-37{fill:#d86713;}.cls-38{fill:#f1a34f;}.cls-39{fill:#e78b37;}.cls-40{fill:#ee9849;}.cls-41{fill:#e9f3fe;}.cls-42{fill:#afcdfb;}.cls-43{fill:#e49963;}.cls-44{fill:#e58638;}.cls-45{fill:#dde3f2;}.cls-46{opacity:0.2;}.cls-47{fill:#b2cee7;}.cls-48{fill:#82b378;}.cls-49{fill:#a8d29f;}.cls-50{fill:#ffb973;}.cls-51{fill:#2e3552;}</style></defs><g id="Layer_2" data-name="Layer 2"><g id="Слой_2" data-name="Слой 2"><path class="cls-1" d="M2565.25,1225.86,162,1225.24s-1.48-1.35-4.17-4q-1.61-1.56-3.77-3.72c-3.8-3.81-8.8-9-14.67-15.44-2.28-2.5-4.7-5.21-7.22-8.09a602.78,602.78,0,0,1-38.75-49.21q-5.2-7.35-10.47-15.31l-.44-.66c-1.16-1.74-2.3-3.51-3.47-5.29h0q-2.55-4-5.1-8c-6.22-10-12.38-20.58-18.32-31.71-.37-.7-.75-1.39-1.11-2.1-4.13-7.79-8.16-15.86-12-24.16-.33-.69-.65-1.4-1-2.1-.45-1-.89-2-1.34-3s-.76-1.69-1.14-2.53c-.94-2.11-1.86-4.24-2.78-6.38-.08-.21-.17-.42-.26-.63-.26-.59-.52-1.19-.77-1.79Q31,1031,27.16,1020.5q-1.86-5-3.6-10.16a424.36,424.36,0,0,1-12.89-46c-2.5-11.35-4.54-23-6-34.81L4.56,929a367.59,367.59,0,0,1-2.89-53.4c1.52-80,29.84-168.17,106-258.32,38.74-45.85,78.55-83.7,118.9-114.42a608,608,0,0,1,51.47-35.24c85.92-52.46,173.39-75,257.79-75.89q5.11-.06,10.21,0c99.66.95,194.74,31.64,277.54,78.13,53,29.76,167.39,25.22,296.82-48.84q25.39-14.53,51.46-32.72c43-30.08,86.87-67.94,130.15-114.8q4-4.34,8-8.77,30.66-34,60.64-74.23c.39-.53.77-1.05,1.17-1.55q9.39-12.54,19.77-24.19c156.5-176.09,472.51-204.58,727.28-116q26.21,9.1,51.47,19.85c59.65,25.39,114.8,57.6,162.25,96.17q14.41,11.7,27.85,24.19a481.57,481.57,0,0,1,66.5,75.78c2,2.9,4,5.82,6,8.77,65.24,97.91,88.93,219.93,45.43,362.55C2390,925.73,2747.29,936.26,2565.25,1225.86Z"/><polygon class="cls-2" points="2042.63 691.83 2042.63 630.93 2024.79 630.93 2024.79 526.21 1929.1 526.21 1929.1 630.93 1839.63 630.93 1839.63 460.3 1740.91 460.3 1740.91 571.06 1718.4 571.06 1718.4 438.82 1619.68 438.82 1619.68 686.76 1494.83 686.76 1494.83 831.35 1448.18 831.35 1448.18 766.98 1341.03 766.98 1341.03 805.05 1279.5 805.05 1279.5 634.62 1203.51 634.62 1203.51 760.77 1127.51 760.77 1127.51 1222.99 1203.51 1222.99 1268.65 1222.99 1279.5 1222.99 1341.03 1222.99 1375.8 1222.99 1431.5 1222.99 1448.18 1222.99 1494.83 1222.99 1538.65 1222.99 1619.68 1222.99 1644.5 1222.99 1693.87 1222.99 1718.4 1222.99 1740.91 1222.99 1792.59 1222.99 1827.77 1222.99 1839.63 1222.99 1929.1 1222.99 2023.19 1222.99 2024.79 1222.99 2042.63 1222.99 2118.88 1222.99 2118.88 691.83 2042.63 691.83"/><polygon class="cls-2" points="1137.6 775.96 1137.6 1222.33 264.19 1222.33 264.19 833.9 331.15 833.9 331.15 727.89 398.1 727.89 398.1 871.11 452.3 871.11 452.3 839.11 546.71 839.11 546.71 893.21 587.8 893.21 587.8 771.71 697.8 771.71 697.8 563.35 784.77 563.35 784.77 674.48 804.61 674.48 804.61 581.39 891.58 581.39 891.58 724.78 970.4 724.78 970.4 636.79 1054.71 636.79 1054.71 724.78 1070.43 724.78 1070.43 775.96 1137.6 775.96"/><path class="cls-3" d="M2170.34,68.56V1219.69h-51.47V48.71Q2145.08,57.82,2170.34,68.56Z"/><path class="cls-3" d="M278.05,467.62v752.07H226.58V502.86A608,608,0,0,1,278.05,467.62Z"/><path class="cls-3" d="M1171.87,388.27v831.42h-51.46V421Q1145.8,406.46,1171.87,388.27Z"/><path class="cls-4" d="M1513.3,1074.25h-39c3.63-29.7,9.55-49.33,9.64-49.61a2.5,2.5,0,0,0,.1-.72s1.32-8.14-12.63-8.33c-13-.18-19.34,5.2-20.49,7.17-3.65-16.68-8.77-30.51-15.08-32.46a32.17,32.17,0,0,0-9.12-1.2c-.33-1-1.15-3.13-2.47-3.64a1.77,1.77,0,0,0-.49-.08,40.61,40.61,0,0,1-2.72-8.69c0-.14.09-.28.13-.43,5.13-6.85,8.12-21.08,5.72-23.56-8.9-9.19-40.46-3.23-28.27,7.62-.15.39-.27.78-.38,1.17-1,3.69.44,22.43,5.07,22.93a31.51,31.51,0,0,0,3.61-.1c.08.94.2,2.42.34,4.13l-1.79.43a12.12,12.12,0,0,0-5.22,4.48h0s-15.75,8.22-17.82,16-9.63,45.26-12.54,47.89-36.37,8.73-36.37,8.73a12.63,12.63,0,0,0-1,1.27c-2.3-1.26-6-3.17-7.53-3.4-2.09-.31-11.29,7.31-11.84,9.3-1,.66-1.61,1.14-1.61,1.14h-5.15v-1.43h-10l0,0,5.18,0c-.44,0-3.8-.08-4.28-2.61a2.64,2.64,0,0,1,0-.64c0-.4.17-2.47.46-5.72.08-.83.16-1.73.25-2.71.17-1.84.37-3.94.58-6.22l.16-1.1h68.17l3.86-2.27h0l-5.19-19.48h0l-.29-1.08h.07l-22.52-84.09,0-.07H1203.73v.08l-2,.68L1227,1053.78h41.82l-1.31,15.62s-.7,4.81,2.88,4.82h5.73v0H1143.06l.22,0h.47a2,2,0,0,0,2-2.2l-2.1-20.94h37.45l11.17-91H1069.37l-9.61,78.21c-1.78-6.57-3.17-12.07-3.17-12.07-1-2.52-5-16.78-7-18.93h0a10,10,0,0,0-4.31-2,4.52,4.52,0,0,0,.66-2.73c-.46-5.53,6-5.07,9.94-11.41,3.46-5.55-2.71-7,.59-15.92,2.41-6.57-3.89-8.17-3.7-13.66,0,0-.8-10.21-15.49-7.55-3.88.7-6.55-6.23-12.9-3.76-13.69,5.31-14.49-1.7-18.45,8.14-1.66,4.12-12.18,8.92-9,16s-2.16,11.91,1.62,17.49c1.95,2.89,1.16,8,10.39,8.23a10.26,10.26,0,0,1,5,2.13c-3,.58-6.88,1.66-9.62,3.57h0a9.62,9.62,0,0,0-1.68,1.48l-.08.09a9.73,9.73,0,0,0-1.68,3.33h0s-2,5.26-4.12,12a32,32,0,0,0-7.45-.71c-.34,0-.67,0-1,0-.72,0-1.46,0-2.23,0-12.51.18-11.32,8.05-11.32,8.05a2.43,2.43,0,0,0,.09.7c.08.26,4.83,17.24,8.09,43.38H936.87a7.69,7.69,0,0,0-7.67,7.67h0a7.69,7.69,0,0,0,7.67,7.66h31.62l-.28,2.08-8.89,66.26L951,1219.86a1.24,1.24,0,0,0,1.25,1.38,1.75,1.75,0,0,0,1.74-1.44l9.64-54.63,10.79-61.12h0l2.55-14.47h7.57c.94,11,1.51,23,1.39,35.75v.16a2,2,0,0,0-.09.55v1.26a2,2,0,0,0,0,.35c0,.2,0,.39,0,.56h.19a2,2,0,0,0,1.74,1.06h.45a1.23,1.23,0,0,0,0,.25c0,.44,2.92,35-8.37,91.39H982c15.53-45.22,14.79-85,14.12-91.64h10.33a.79.79,0,0,0,0,.25c0,.44,2.92,35-8.37,91.39h2.11c15.53-45.22,14.78-85,14.11-91.64h40.32c-.67,6.63-1.41,46.42,14.12,91.64h2.11c-11.29-56.36-8.39-91-8.37-91.39a1.23,1.23,0,0,0-.05-.25h10.21c-.67,6.63-1.41,46.42,14.12,91.64h2.1c-8.09-40.41-8.89-69.62-8.69-83.08.23,2.39.48,5,.9,7.64,1.67,10.7,29.57,54,29.57,54l.74.21c.3,1.1.57,2.1.76,2.89.59,2.4-.28,5.08-1,7.12a13.67,13.67,0,0,0-.94,3.45c-.32,3.42,4.44,4.25,9.94,4.52s3.85,1.4,11.39,2.77,10.57-.7,11.12-1.72c.23-.43-.46-1-1.66-1.62.84.08,1.71.14,2.6.19,5.51.27,3.84,1.4,11.39,2.77s10.57-.7,11.12-1.72-3-2.32-6.76-3.92l-1.42-.61c-4.2-1.85-6.57-5.63-9.85-9.12-1.41-1.51-2.78-4.51-3.87-7.34a6.21,6.21,0,0,0,1.7-.81s-20.57-94.32-33.4-102.42c-1.84-1.16-4.82-2-8.56-2.71.19-.18-.47-.91-1.51-1.85h271.17c-20.91,4.57-42.73,10.45-46.43,15.71-7.42,10.54-19,100.31-19,100.31l.32.08c-4.75,5.44-12.45,8.44-17.44,9.31-6.17,1.08-6.31,6.16-6.31,6.16l21.11.13s16.54,0,17,0c2.35-.17,3.58-8.75,4.1-13.85q.54-.14,1-.3s27.58-71.13,29.82-78.83a3.44,3.44,0,0,1,2.23-2,2.06,2.06,0,0,0,.79.15h5.5a.8.8,0,0,0,0,.26c0,.09.12,1.44.23,4a13,13,0,0,0-3.06,6.48c-.53,4.87.2,22.35,1,38.2-1.19,10.75-3,23.1-5.69,36.85a34.15,34.15,0,0,1-8.48,2.78c-6.17,1.08-6.31,6.16-6.31,6.16l12.93.08v0h2.35v0l5.84,0h14.25v0c1.55,0,2.61,0,2.72,0,2.82-.21,4-12.49,4.34-16.38a3.51,3.51,0,0,0,1.43-.83s.48-6.38,1.1-15.12a255.36,255.36,0,0,0,6.45-51.39c6.8-3,21.54-7.63,33.56-11.06H1440c-.75,6.86-1.57,48,15.75,94.82h2.36c-12.6-58.32-9.36-94.11-9.35-94.56a.6.6,0,0,0,0-.26h11.53c-.75,6.86-1.58,48,15.75,94.82h2.35c-12.59-58.32-9.35-94.11-9.34-94.56a.8.8,0,0,0,0-.26h.58a2.1,2.1,0,0,0,1.85-1.1h.22c0-.2,0-.42,0-.65a1.5,1.5,0,0,0,0-.37v-1.16a2.34,2.34,0,0,0-.09-.59,1.62,1.62,0,0,1,0-.22c-.12-11.57.36-22.59,1.19-32.79h7.54l2.09,11.86,12.32,69.82,8.56,48.54a1.77,1.77,0,0,0,1.75,1.44,1.24,1.24,0,0,0,1.25-1.38l-6.34-47.21L1489.23,1093l-.46-3.42h24.53a7.69,7.69,0,0,0,7.66-7.66h0A7.69,7.69,0,0,0,1513.3,1074.25ZM1230,1051.51Zm-128.86,19.39a1.72,1.72,0,0,0-1.68,1.22,1.68,1.68,0,0,0,1.62,2.13H1073.8c-1.47-1.52-2.87-3-4.11-4.36l.78-1.14c1.23-1.87,2.1-3.43,2.43-3.79,1-1.11-4-3.31-6.11-5-.66-.53-1.94-4.18-3.38-8.9h54.94l-.51,15.77a4.17,4.17,0,0,1-4.17,4h-12.5ZM1134,1196.82c.58,2,1.13,4,1.47,5.4.59,2.4-.28,5.08-1,7.12a12.88,12.88,0,0,0-.94,3.45,2.86,2.86,0,0,0,.08,1c-3.74-2-6-5.45-9.1-8.73a17.6,17.6,0,0,1-2.72-4.55,5.62,5.62,0,0,0,1.33-.61s-2-11-5-25.9c7.69,11.94,15.15,22.58,15.15,22.58Zm-85.6-131.9a18.72,18.72,0,0,0,1.34,2.33,34.84,34.84,0,0,0,4.81,5.63c.52.49,1,.95,1.54,1.37h-1.06c1.41,0-4.39-4.88-7-5.68,0-.6.1-1.23.17-1.9h0C1048.29,1066.1,1048.36,1065.52,1048.44,1064.92Zm21.27,24.66h0Zm27.24.92h.07l.2,0Zm-9.94-.67c1.08,0,4.32.13,5.21.28h0c-5-.33-10.42-.49-16-.53h9.4A5.89,5.89,0,0,0,1087,1089.83Zm309.92-38.28c3,10.77,3.16,17.82,2.62,22.7h-16.41A257.35,257.35,0,0,0,1396.93,1051.55Zm-66.85,22.7Zm33.07,135.38q1.45-4.62,2.69-9.11c.14,2.16.22,3.41.22,3.41s1,.2,2.63.45A23.25,23.25,0,0,1,1363.15,1209.63Z"/><path class="cls-5" d="M2683.82,1072.93h-39.33c3.66-30,9.63-49.78,9.72-50.06a2.63,2.63,0,0,0,.1-.73s1.34-8.21-12.74-8.41c-13.13-.18-19.51,5.25-20.67,7.24-3.69-16.83-8.85-30.78-15.22-32.75a32.36,32.36,0,0,0-9.2-1.22c-.33-1-1.17-3.15-2.49-3.67a1.52,1.52,0,0,0-.5-.07,40.73,40.73,0,0,1-2.74-8.78c.05-.14.09-.28.13-.43,5.17-6.91,8.19-21.27,5.77-23.77-9-9.28-40.83-3.26-28.53,7.68-.15.4-.27.8-.38,1.19-1,3.72.44,22.63,5.12,23.14a33.83,33.83,0,0,0,3.64-.11c.08,1,.2,2.45.34,4.17-1.07.25-1.75.42-1.8.44a12.25,12.25,0,0,0-5.28,4.52h0s-15.89,8.29-18,16.1-9.72,45.67-12.65,48.32-36.7,8.81-36.7,8.81a12.63,12.63,0,0,0-1,1.28c-2.33-1.27-6-3.2-7.6-3.43-2.11-.31-11.4,7.37-11.95,9.38-1,.67-1.62,1.16-1.62,1.16h-5.2v-1.45H2465l0,0,5.22,0c-.43,0-3.83-.08-4.31-2.63a2.72,2.72,0,0,1-.05-.65c0-.4.17-2.49.47-5.77.07-.84.16-1.75.25-2.73.17-1.87.37-4,.58-6.28l.16-1.11h68.79L2540,1050h0l-5.24-19.66h0l-.29-1.08h.06l-22.72-84.85,0-.07H2371.47v.07l-2,.69L2395,1052.27h42.2l-1.32,15.76s-.71,4.86,2.9,4.87h5.79v0H2310.25l.22,0h.47a2,2,0,0,0,2-2.23l-2.12-21.12h37.79l11.27-91.81h-124l-9.69,78.92c-1.8-6.63-3.2-12.18-3.2-12.18-1-2.54-5-16.94-7.05-19.1h0c-.78-.84-2.51-1.49-4.36-2a4.52,4.52,0,0,0,.67-2.76c-.46-5.57,6-5.1,10-11.51,3.49-5.6-2.74-7,.59-16.05,2.44-6.64-3.91-8.25-3.72-13.79,0,0-.81-10.3-15.63-7.62-3.92.7-6.61-6.28-13-3.79-13.81,5.36-14.62-1.72-18.61,8.21-1.67,4.16-12.29,9-9,16.18s-2.18,12,1.63,17.65c2,2.92,1.17,8.12,10.48,8.31,1.47,0,3.19.91,5,2.14-3,.59-6.94,1.68-9.7,3.61h0a9.08,9.08,0,0,0-1.7,1.49l-.08.09a9.86,9.86,0,0,0-1.69,3.37h0s-2,5.31-4.16,12.12a33.15,33.15,0,0,0-7.52-.72c-.35,0-.68,0-1,0-.73,0-1.48-.05-2.26,0-12.62.19-11.42,8.12-11.42,8.12a2.45,2.45,0,0,0,.09.71c.08.26,4.87,17.4,8.17,43.78h-46.49a7.75,7.75,0,0,0-7.73,7.73h0a7.76,7.76,0,0,0,7.73,7.74h31.92l-.28,2.09-9,66.86-8.39,62.49a1.26,1.26,0,0,0,1.26,1.4,1.77,1.77,0,0,0,1.76-1.45l9.73-55.13,10.88-61.67h0l2.58-14.59h7.63c.95,11,1.53,23.21,1.41,36.06v.17a2,2,0,0,0-.09.55v1.28a2,2,0,0,0,0,.34c0,.2,0,.4,0,.57h.19a2,2,0,0,0,1.76,1.07h.46a.59.59,0,0,0,0,.25c0,.44,2.94,35.34-8.45,92.22h2.13c15.67-45.64,14.92-85.78,14.24-92.47h10.42a.77.77,0,0,0,0,.25c0,.44,2.94,35.34-8.45,92.22H2166c15.66-45.64,14.92-85.78,14.24-92.47h40.68c-.67,6.69-1.42,46.83,14.25,92.47h2.12c-11.39-56.88-8.46-91.78-8.44-92.22a1.23,1.23,0,0,0-.05-.25h10.3c-.68,6.69-1.42,46.83,14.24,92.47h2.13c-8.16-40.77-9-70.25-8.77-83.84.23,2.41.49,5,.91,7.71,1.68,10.8,29.84,54.51,29.84,54.51l.74.22c.3,1.1.57,2.11.77,2.91.59,2.42-.28,5.13-1.06,7.19a13.5,13.5,0,0,0-.95,3.48c-.32,3.45,4.48,4.28,10,4.56s3.88,1.41,11.5,2.79,10.66-.7,11.21-1.73c.24-.44-.46-1-1.67-1.64.85.09,1.72.15,2.62.19,5.56.28,3.88,1.42,11.5,2.8s10.66-.71,11.21-1.74-3.05-2.34-6.82-3.95l-1.42-.62c-4.25-1.86-6.63-5.67-9.95-9.2-1.42-1.52-2.8-4.55-3.9-7.41a6.18,6.18,0,0,0,1.72-.82s-20.77-95.16-33.71-103.33c-1.86-1.17-4.86-2.07-8.64-2.74.2-.18-.47-.92-1.52-1.86h273.62c-21.1,4.6-43.12,10.54-46.86,15.85-7.48,10.63-19.13,101.21-19.13,101.21l.32.08c-4.79,5.48-12.57,8.52-17.6,9.39-6.23,1.09-6.37,6.22-6.37,6.22l21.31.13s16.68,0,17.13,0c2.38-.17,3.62-8.83,4.15-14a7.59,7.59,0,0,0,1-.3s27.84-71.77,30.09-79.53a3.49,3.49,0,0,1,2.25-2,2.15,2.15,0,0,0,.8.16h5.56a.76.76,0,0,0-.06.26c0,.08.12,1.45.23,4a13.12,13.12,0,0,0-3.09,6.55c-.53,4.91.21,22.54,1.06,38.54-1.2,10.84-3,23.3-5.74,37.17a34.07,34.07,0,0,1-8.55,2.81c-6.23,1.09-6.37,6.22-6.37,6.22l13.05.08a.07.07,0,0,0,0,0h2.37v0l5.89,0h14.38v0c1.56,0,2.64,0,2.75,0,2.84-.21,4.06-12.6,4.37-16.53a3.54,3.54,0,0,0,1.45-.84s.48-6.44,1.11-15.25a257.76,257.76,0,0,0,6.5-51.85c6.87-3,21.74-7.71,33.87-11.16h11.23c-.76,6.91-1.59,48.45,15.89,95.67h2.38c-12.71-58.85-9.45-95-9.43-95.41a.75.75,0,0,0-.05-.26h11.63c-.76,6.91-1.59,48.45,15.89,95.67h2.38c-12.71-58.85-9.45-95-9.43-95.41a.75.75,0,0,0-.05-.26h.59a2.12,2.12,0,0,0,1.86-1.11h.23c0-.2,0-.42,0-.65a1.58,1.58,0,0,0,0-.38v-1.16a2.35,2.35,0,0,0-.09-.6c0-.08,0-.15,0-.22-.12-11.68.37-22.8,1.21-33.08h7.6l2.11,12,12.43,70.45,8.64,49a1.77,1.77,0,0,0,1.76,1.45,1.25,1.25,0,0,0,1.26-1.4l-6.39-47.63-10.79-80.36-.46-3.45h24.74a7.76,7.76,0,0,0,7.74-7.74h0A7.76,7.76,0,0,0,2683.82,1072.93ZM2398,1050Zm-130,19.56a1.73,1.73,0,0,0-1.69,1.23,1.7,1.7,0,0,0,1.63,2.16h-27.56c-1.48-1.54-2.89-3-4.14-4.41l.78-1.15c1.24-1.89,2.12-3.45,2.46-3.82,1-1.12-4.08-3.34-6.17-5-.67-.54-2-4.22-3.41-9h55.43l-.51,15.91a4.21,4.21,0,0,1-4.21,4.07H2268Zm33.17,127.06c.59,2.06,1.14,4.06,1.48,5.45.59,2.42-.28,5.12-1.06,7.18a13.5,13.5,0,0,0-1,3.48,3,3,0,0,0,.08,1c-3.77-2-6.08-5.51-9.18-8.82a17.38,17.38,0,0,1-2.74-4.58,5.8,5.8,0,0,0,1.34-.63s-2-11.12-5.08-26.13c7.75,12.05,15.28,22.79,15.28,22.79ZM2566.41,1050c3.07,10.87,3.19,18,2.64,22.91H2552.5A263,263,0,0,0,2566.41,1050ZM2499,1072.93h0Zm33.36,136.59c1-3.1,1.89-6.17,2.72-9.19.14,2.18.22,3.45.22,3.45s1,.19,2.66.45A23.1,23.1,0,0,1,2532.32,1209.52Z"/><path class="cls-4" d="M44.66,1019.76h0l-.31-1.14h.07l-24-89.53,0-.08H4.56l.06.57c1.51,11.85,3.55,23.46,6.05,34.81a424.36,424.36,0,0,0,12.89,46q1.74,5.13,3.6,10.16Q31,1031,35.27,1041.13c.25.6.51,1.2.77,1.79h10l4.11-2.42Zm163.06,47.36a8.16,8.16,0,0,0-5.77-2.4H160.44c3.86-31.62,10.17-52.53,10.27-52.83a2.88,2.88,0,0,0,.1-.77s1.41-8.66-13.45-8.87c-13.85-.2-20.59,5.53-21.82,7.63-3.89-17.75-9.34-32.48-16.06-34.56a34.72,34.72,0,0,0-9.7-1.27c-.37-1.1-1.24-3.34-2.64-3.87a1.35,1.35,0,0,0-.52-.09,42.63,42.63,0,0,1-2.89-9.26c0-.15.09-.29.14-.46,5.46-7.29,8.63-22.45,6.08-25.08-9.47-9.79-43.08-3.44-30.11,8.11-.15.42-.27.83-.39,1.25-1.08,3.93.46,23.89,5.4,24.42a34.39,34.39,0,0,0,3.84-.11c.09,1,.21,2.58.35,4.39l-1.89.46c-2.59.94-4.58,3.37-5.57,4.77A78.46,78.46,0,0,0,72.92,984c-4.46,3.21-9.21,7.47-10.31,11.59-2.2,8.24-10.25,48.2-13.36,51-1,.86-5,2.08-10.17,3.36.38.84.75,1.69,1.14,2.53s.89,2,1.34,3c.33.7.65,1.41,1,2.1,3.84,8.3,7.87,16.37,12,24.16.36.71.74,1.4,1.11,2.1,5.94,11.13,12.1,21.71,18.32,31.71q2.55,4.1,5.1,8h0c1.17,1.78,2.31,3.55,3.47,5.29l.44.66c8.08-2.91,19.41-6.43,29.07-9.18h11.86c-.65,5.91-1.35,36,8.29,73.7,2.52,2.88,4.94,5.59,7.22,8.09-8.95-50.68-6.2-81.1-6.18-81.53a.88.88,0,0,0-.06-.26h12.28c-.81,7.3-1.68,51.13,16.77,101h2.5c-13.41-62.09-10-100.2-9.95-100.69a.65.65,0,0,0-.06-.26h.63a2.26,2.26,0,0,0,2-1.18h.23c0-.22,0-.45,0-.69a1.72,1.72,0,0,0,0-.39v-1.24a2.58,2.58,0,0,0-.09-.62c0-.09,0-.18,0-.24-.12-12.33.4-24.07,1.28-34.92h8l2.24,12.63L182.15,1168l9.11,51.69a1.9,1.9,0,0,0,1.87,1.53,1.31,1.31,0,0,0,1.32-1.48l-6.75-50.26-11.38-84.82-.48-3.64H202a8.15,8.15,0,0,0,5.77-13.92Zm-126.89-2.4H63.36A273.82,273.82,0,0,0,78,1040.55C81.28,1052,81.4,1059.52,80.83,1064.72Z"/><path class="cls-6" d="M2013,195.35V388.77c0,1.69,0,3.36-.07,5-.36,15.09-2.34,26.68-4.71,26.68h-.67c-2.2,0-4.06-10-4.61-23.46,0-1.11-.08-2.24-.11-3.4v-.25c0-1.48,0-3,0-4.54V194.46Q2008,194.79,2013,195.35Z"/><path class="cls-6" d="M2005.26,393.27c-37.2,0-67.36,31.89-67.36,71.23h134.72C2072.62,425.16,2042.46,393.27,2005.26,393.27Z"/><path class="cls-7" d="M2010.63,394.13a27.88,27.88,0,0,0-5.92-.64c-24.24,0-43.89,31.79-43.89,71h11.83C1972.65,428.53,1989.18,398.81,2010.63,394.13Z"/><path class="cls-6" d="M1516.38,195.35V388.77c0,1.69,0,3.36-.06,5-.36,15.09-2.34,26.68-4.71,26.68h-.68c-2.2,0-4.06-10-4.6-23.46,0-1.11-.09-2.24-.11-3.4,0-.08,0-.16,0-.25,0-1.48,0-3,0-4.54V194.46C1509.61,194.68,1513,195,1516.38,195.35Z"/><path class="cls-6" d="M1508.61,393.27c-37.2,0-67.36,31.89-67.36,71.23H1576C1576,425.16,1545.82,393.27,1508.61,393.27Z"/><path class="cls-7" d="M1514,394.13a27.88,27.88,0,0,0-5.92-.64c-24.24,0-43.89,31.79-43.89,71H1476C1476,428.53,1492.54,398.81,1514,394.13Z"/><path class="cls-6" d="M546.05,391.7v38.75c0,1.68,0,3.35-.06,5v0c-.37,15.08-2.33,26.68-4.71,26.68h-.68c-2.2,0-4.06-10-4.6-23.46v0c0-1.1-.08-2.24-.11-3.39,0-.07,0-.15,0-.24h0c0-1.48,0-3,0-4.54V391.73Q541,391.67,546.05,391.7Z"/><path class="cls-6" d="M538.29,435c-37.21,0-67.37,31.89-67.37,71.23H605.65C605.65,466.84,575.49,435,538.29,435Z"/><path class="cls-7" d="M543.65,435.82a27.79,27.79,0,0,0-5.91-.64c-24.24,0-43.89,31.79-43.89,71h11.83C505.68,470.21,522.21,440.5,543.65,435.82Z"/><path class="cls-8" d="M2129.94,1194.2h570.45a127.49,127.49,0,0,1-78.59,27.07H1811c-70.57,0-128.31-57.73-128.31-128.3V676c0-70.58,57.74-128.31,128.31-128.31H2621.8a127.66,127.66,0,0,1,85.84,33.17h-577.7c-60.28,0-109.6,49.31-109.6,109.59v394.19C2020.34,1144.89,2069.66,1194.2,2129.94,1194.2Z"/><path class="cls-9" d="M2144.33,1194.2h564.29a125.24,125.24,0,0,1-77.74,27.07h-802c-69.81,0-126.92-57.73-126.92-128.3V676c0-70.58,57.11-128.31,126.92-128.31h802a125.56,125.56,0,0,1,84.92,33.17H2144.33c-59.63,0-108.41,49.31-108.41,109.59v394.19C2035.92,1144.89,2084.7,1194.2,2144.33,1194.2Z"/><path class="cls-10" d="M2426.94,264.7H1310q30.66-34,60.64-74.23c.39-.53.77-1.05,1.17-1.55q9.39-12.54,19.77-24.19h941q14.41,11.7,27.85,24.19A481.57,481.57,0,0,1,2426.94,264.7Z"/><path class="cls-11" d="M1524.25,991.26c1.34-33,4.23-61.62,7.69-81.61,5.51-31.86,10.47-50.19,10.53-50.39.72-2.8,11.21-14.14,34.52-13.79s21.11,15.22,21.11,15.22h0a5,5,0,0,1-.17,1.32c-.22.77-21.63,78.37-20.7,178.56,0,1.41.17,3.84.07,5.46,0,0-54,1.39-54,0C1521.38,1037.27,1522.3,1013,1524.25,991.26Z"/><path class="cls-12" d="M1517.46,1040.07c0,1.4.75,2.52,1.65,2.52h0c.9,0,1.62-1.14,1.63-2.52h46.3c0,1.4.75,2.52,1.65,2.52h0c.92,0,1.65-1.18,1.63-2.59a697.82,697.82,0,0,1,3.85-79.1c6.15-58.94,17.53-98.34,17.69-98.88a5.06,5.06,0,0,0,.17-1.33s2.21-14.87-21.1-15.22-33.81,11-34.53,13.8c0,.14-2.85,10.52-6.59,29.18-1.24,6.19-2.57,13.28-3.94,21.2-3.46,20-6.35,48.66-7.69,81.6C1516.27,1013,1515.58,1031.32,1517.46,1040.07Z"/><path class="cls-13" d="M1517.46,1040.07c0,1.4.75,2.52,1.65,2.52h0c.9,0,1.62-1.14,1.63-2.52h46.3c0,1.4.75,2.52,1.65,2.52h0c.92,0,1.65-1.18,1.63-2.59a697.82,697.82,0,0,1,3.85-79.1c-7.66-37.4-37.25-66-44.36-72.45-1.24,6.19-2.57,13.28-3.94,21.2-3.46,20-6.35,48.66-7.69,81.6C1516.27,1013,1515.58,1031.32,1517.46,1040.07Z"/><path class="cls-11" d="M1564.15,1039.55H1564l-.08-.07a.29.29,0,0,1-.08-.21h0v-.12c-.06-1.88-3.91-2.25-10.09-2.25l-4.44,0c-1.78,0-3.66,0-5.64,0a124.62,124.62,0,0,1-21.37-1.53c-5-.87-1.62-39.14,1.91-75,.6-6.09,1.08-10.89,1.29-13.72,2.27-30,15.59-84.52,15.72-84.95.58-2.24,8.58-10.74,25.92-10.45,6.52.1,11.15,1.71,13.77,4.8a9.15,9.15,0,0,1,2.18,6.82,3.4,3.4,0,0,1-.13,1c-.07.29-12,70.19-14,87-3.34,28.57-4.56,87.24-4.57,88.12v.38Zm-10.36-3.18c5.43,0,8.89.27,10.12,1.55.19-8.61,1.47-60.59,4.55-87,2-17.21,14-86.88,14-87.1a3.54,3.54,0,0,0,.11-.91,8.81,8.81,0,0,0-2.06-6.45c-2.52-3-7-4.5-13.36-4.6h-.78c-16.52,0-24.08,7.93-24.63,10.06-.13.5-13.41,54.48-15.7,84.85-.22,2.84-.69,7.64-1.29,13.73-2.35,23.86-7.25,73.52-2.35,74.38a124.48,124.48,0,0,0,21.28,1.52c2,0,3.86,0,5.63,0Z"/><path class="cls-12" d="M1573.79,1042.59H1392.26s4.23-17.11,109.35-14.56C1576,1029.83,1573.79,1042.59,1573.79,1042.59Z"/><path class="cls-11" d="M1588.56,1221.27c-21-106.55-15.63-171.93-15.61-172.75,0-1.64-3-3.13-4.59-3.19s-8.92-.48-9.76.92c-1.1,1.84-5.34,82.4,26,175Z"/><path class="cls-11" d="M1419.07,1221.27c21-106.55,15.64-171.93,15.61-172.75,0-1.64,3-3.13,4.6-3.19s8.91-.48,9.75.92c1.1,1.84,5.34,82.4-26,175Z"/><path class="cls-14" d="M1385.48,1221.27c21-106.55,15.64-171.93,15.61-172.75,0-1.64,3-3.13,4.6-3.19s8.91-.48,9.75.92c1.1,1.84,5.34,82.4-26,175Z"/><path class="cls-14" d="M1554.75,1221.27c-21-106.55-15.64-171.93-15.61-172.75,0-1.64-3-3.13-4.6-3.19s-8.91-.48-9.75.92c-1.1,1.84-5.34,82.4,26,175Z"/><rect class="cls-11" x="1388.43" y="1038.17" width="188.96" height="9.88" rx="3.72" transform="translate(2965.83 2086.22) rotate(180)"/><path class="cls-15" d="M1357.47,884.33c-7.71-4.48-11.54-8.09-17.15-8.9s-15.77-1.44-17.18-3.58c-3.48-5.24-7.13-15.47-4.56-14.8s12.17,7.29,15.19,6.25-4.61-3.48-2.77-5,10.24,2.24,12.17,6.53c.67,1.5,24.56,8.93,24.56,8.93Z"/><path class="cls-15" d="M1466.56,1156.66a5.37,5.37,0,0,1,1,5.73l0,0c-1.38,3.82-6,8.09-11.26,12.36-.68.54-1.28,1-1.81,1.5l-.4.37-.31.28c-5,4.56-3.09,5.61-12,14.87-10.14,10.55-17.12,10.73-19.11,9.77-1.68-.82,1.73-6.41,5.51-12.7.19-.3.37-.61.56-.92l1.5-2.52c4.43-7.57,3.3-11.12,2.24-22.39-.85-9.15-14.24-51.14-14.24-51.14l19.43-3.34s5.86,33.43,12.3,38.58c3.45,2.74,7.31,2.78,10.62,4.81.24.14.47.29.69.44A25.14,25.14,0,0,1,1466.56,1156.66Z"/><path class="cls-16" d="M1466.56,1156.66a5.37,5.37,0,0,1,1,5.73l0,0c-1.69,3.82-6.15,8.07-11.28,12.32-.67.55-1.26,1.06-1.79,1.54l-.4.37-.31.28c-5,4.56-3.09,5.61-12,14.87-10.14,10.55-17.12,10.73-19.11,9.77-1.68-.82,1.73-6.41,5.51-12.7a43.15,43.15,0,0,0,18.08-13.32c6.11-7.79,10.18-17.8,14.33-23.6.24.14.47.29.69.44A25.14,25.14,0,0,1,1466.56,1156.66Z"/><path class="cls-15" d="M1309.88,1144.52c-1.2,6-9.75,5-19.31,2.67s-7.28.44-20.87-1.07-17.72-6.57-18.13-8.59c-.37-1.8,6.35-2.43,13.55-3.26l2.73-.33c8.13-1,14.09-6.27,21.48-10.58,7-4.08,17.44-20.72,17.44-20.72l18.65,1.48s-9.79,14.86-13.57,21.32c-2.23,3.8-2.11,8.83-1.83,12.71A24.28,24.28,0,0,1,1309.88,1144.52Z"/><path class="cls-16" d="M1290.57,1147.19c-9.55-2.34-7.28.44-20.87-1.07s-17.72-6.57-18.13-8.59c-.37-1.8,6.35-2.43,13.55-3.26l.07.14a38.31,38.31,0,0,0,19.47,6c9.22.23,19-2.42,25.36-2.31a24.28,24.28,0,0,1-.14,6.37C1308.68,1150.52,1300.13,1149.52,1290.57,1147.19Z"/><path class="cls-17" d="M1381.32,1025.31l40.19,108.13a36.83,36.83,0,0,0,12.09-1.1c5.44-1.57,11.68-5.69,11.68-5.69s-10-103.83-28.24-125.43S1381.32,1025.31,1381.32,1025.31Z"/><path class="cls-16" d="M1540.25,981.56s-115.46-39-141.2-30.73S1296,1113,1296,1113s1.74,2.32,6.51,4.11c4.43,1.66,15.15,1.56,15.15,1.56s69.78-59.81,78.08-77.25,11.63-34.06,19.94-32.4,107.15,40.7,129.58,17.45,16.56-53.48,16.56-53.48Z"/><path class="cls-18" d="M1469.7,799.94c-1.85-3.8-3.91-10.57-4.92-22.62.16,1.2,2.23,16.4,8.08,25,24,15.76,70,68.4,69.13,78.37,0,0,16.21-27.49,16.49-27.66,0,0,29.9-38-5.54-59.81-18-11.07-17.92-25.27-17.17-37.62s-4.91-65.47-41-51.57c0,0-5.79-2.57-8.38-2.18a7,7,0,0,1,3.19,1.51c-4.18-.24-10.16.07-15.15,2.9C1461.2,713.79,1449.36,781.23,1469.7,799.94Z"/><path class="cls-15" d="M1474.28,803.11c-.12,0,11.6,6.14,20.41,3.73,8.28-2.26,13.7-13,13.59-13-3.51-.7-4.53-5.52-4.45-26.25l-1.59.31-26.68,5.28s.61,8.4.63,16.31C1476.21,796.1,1475.8,802.4,1474.28,803.11Z"/><path class="cls-19" d="M1475.56,773.15s.61,8.4.63,16.31c14.93-.42,22.82-14,26-21.59Z"/><path class="cls-18" d="M1505,765s7.82-12.36,9.7-22.94c1.34-7.54-2.5-35.51-30.61-31.49a38.25,38.25,0,0,0-15.84,6c-6.11,4.12-14.91,13-5.07,37.43l2.56,8.25Z"/><path class="cls-15" d="M1470.58,780.65s35.32.58,35.34-21.42,4.6-36.75-18-38.05-26.94,7.09-28.74,14.43S1461.39,779.93,1470.58,780.65Z"/><path class="cls-18" d="M1471.88,720.64s9.67,25.81,24.52,29.63,21.28-.16,21.28-.16a42,42,0,0,1-13.75-24.83S1479.18,708.35,1471.88,720.64Z"/><path class="cls-18" d="M1474.28,722.73s-7.22,5.77-9,11.37-2.56,17.14-5.92,16.74c0,0-7.28-17.54.9-27.47C1469,712.85,1474.28,722.73,1474.28,722.73Z"/><path class="cls-20" d="M1552.94,898.14c3.48-14.61-8.37-43-20.74-66.43-11.23-21.27-22.88-38.52-23.92-37.9-29.61,17.57-32.28,3-32.28,3s-26.9,3.57-34.51,16.68c-10.53,18.12-22,72.52-33.27,71.71-5.17-.37-57.23-19.93-57.23-19.93s-8.67,8.12-7,18.09c0,0,25.7,17.21,47.44,28.19,11.49,5.81,21.88,9.88,26.77,8.72,9.9-2.33,25.36-25.28,33.72-38.79l.06-.09c10.66,60.37-3.84,74.12,3.5,80.49,7.75,6.72,18.83-3.2,43.2,7.36,16,6.93,38.16,17,53.09,18.7,7.83.92,13.67-.44,15.58-5.73C1572.87,966.8,1546.29,926,1552.94,898.14Z"/><path class="cls-21" d="M1478.43,767.31s-.66,2.79-7.61,2.36c0,0-5.84-.36-5.66-3.43C1465.16,766.24,1470.82,764.05,1478.43,767.31Z"/><path class="cls-22" d="M1567.34,982.17c-1.91,5.29-7.75,6.65-15.58,5.73-10.34-4.5-55-21.79-54.48-33.51.74-17.35,8.59-17.91,3-39.32-4.45-17.2,36.8-49.17,43.38-56.12,12.37,23.47,12.71,24.58,9.23,39.19C1546.29,926,1572.87,966.8,1567.34,982.17Z"/><path class="cls-22" d="M1451.91,881.44c-8.36,13.51-23.82,36.46-33.72,38.79-4.89,1.16-15.28-2.91-26.77-8.72,8.39,2.17,16.54,2.11,24.46,1.34,8.58-.83,11.07-11.35,24.64-27.13C1449.32,875.48,1451.48,878.06,1451.91,881.44Z"/><path class="cls-15" d="M1493.27,914.65s-7.48-5.81-14.54-4.43-10.52,6.23-10.24,8.45,4,8.44,9.41,9,20.77-3.33,20.77-3.33Z"/><path class="cls-20" d="M1508.28,793.81s28.78,1.77,38.75,15.67c14,19.57,38.4,99.45,31.75,117.73l-87.59-.37s-2.12-9.93.83-14.73,51-12.55,53.16-14.76-27.68-43.2-27.68-49.84S1508.28,793.81,1508.28,793.81Z"/><polygon class="cls-23" points="1480.81 947.97 1374.77 947.97 1355.65 881.31 1461.53 881.31 1480.81 947.97"/><rect class="cls-24" x="1375.13" y="945.37" width="138.63" height="2.6"/><path class="cls-24" d="M1408.44,913.56c-.67-2.35.68-4.25,3-4.25a6.07,6.07,0,0,1,5.46,4.25c.68,2.34-.68,4.24-3,4.24A6.07,6.07,0,0,1,1408.44,913.56Z"/><polygon class="cls-16" points="1171.32 947.97 1277.36 947.97 1296.48 881.31 1190.6 881.31 1171.32 947.97"/><rect class="cls-16" x="1138.37" y="945.37" width="138.63" height="2.6" transform="translate(2415.37 1893.34) rotate(180)"/><path class="cls-17" d="M1243.69,913.56c.67-2.35-.68-4.25-3-4.25a6.07,6.07,0,0,0-5.46,4.25c-.68,2.34.68,4.24,3,4.24A6.07,6.07,0,0,0,1243.69,913.56Z"/><path class="cls-15" d="M1200.29,828.58s10.77-8.8,14.63-8.84,11.22-2,10.93-.72-6.48,2.9-5.42,3.48,10.06-1.84,12.57-.39,8.42,7.44,3.68,10-19,6.77-22.63,6.29-12-1.06-12-1.06Z"/><polygon class="cls-15" points="1062.81 1155.72 1071.84 1193.75 1085.36 1193.67 1085.86 1155.72 1062.81 1155.72"/><polygon class="cls-15" points="1176.56 1157.35 1202.63 1193.26 1212.26 1180.89 1196.8 1152.34 1176.56 1157.35"/><path class="cls-24" d="M1123.92,697.58h0c0-.09,0-.18,0-.28q-.26-2.84-.65-5.63h0a121.82,121.82,0,0,0-3.24-16.08c-.78-2.8-1.63-5.43-2.55-7.79-.14-.36-.28-.7-.41-1h0c-2.19-5.36-4.7-9.21-7.26-10.66-4.67-2.66-10.26-2.94-14.18-2.72a6.72,6.72,0,0,1,3-1.41c-2.43-.37-7.85,2-7.85,2-33.75-13-39.06,36.69-38.35,48.24s-11.34,15.32-28.9,24.41c-33.51,17.36-36.45,40.6-36.45,40.6.26.16.53.34.82.54,1.66-2.82,5.09-8.11,8-8.91a119.63,119.63,0,0,0-4.64,11.3c4.23,3.23,10,8.11,16.29,13.58h0c8.39,7.31,17.6,15.65,25,22.41,0-2.31,0-5.58.88-7.31l1.41,8.47.19,1.11c4.7,4.32,8.4,7.77,10.28,9.54l.52.48.85.79c-.27-3,3.89-10,10.41-18.6.45-.6.92-1.21,1.4-1.83,2.09-2.73,4.41-5.58,6.87-8.51.89-1.06,1.79-2.12,2.72-3.2h0c.74-.87,1.49-1.73,2.26-2.6h0c1.83-2.07,3.71-4.15,5.62-6.23,4.95-5.39,10.13-10.71,15.19-15.54,7.35-7,14.42-13,20.16-16.8.22-.32.43-.65.62-1a34.47,34.47,0,0,0,2.76-5.69c.24-.6.47-1.22.68-1.83a83.1,83.1,0,0,0,3.47-14.62,84.09,84.09,0,0,1-2.41,14.9c-.21.79-.43,1.52-.65,2.19h0a31.36,31.36,0,0,1-1.51,3.79,21,21,0,0,0,2.71-3.06q.81-1.12,1.53-2.37C1124.07,728.43,1125.29,712.7,1123.92,697.58Z"/><path class="cls-15" d="M1109.92,746.64c.11.05-10.85,5.74-19.09,3.49-7.75-2.12-12.82-12.17-12.71-12.19,3.28-.66,4.23-5.17,4.16-24.55l1.48.29,25,4.94s-.57,7.85-.59,15.25C1108.12,740.08,1108.49,746,1109.92,746.64Z"/><path class="cls-25" d="M1081.69,664.2s12.32-13.11,27.77-.68C1109.46,663.52,1100.47,662,1081.69,664.2Z"/><path class="cls-19" d="M1108.72,718.62s-.57,7.85-.59,15.25c-14-.39-21.34-13.13-24.37-20.19Z"/><path class="cls-24" d="M1081.19,711s-7.32-11.56-9.08-21.45c-1.25-7.06,2.34-33.23,28.64-29.46a35.85,35.85,0,0,1,14.81,5.6c5.71,3.86,14,12.18,4.74,35l-2.4,7.71Z"/><path class="cls-26" d="M1208.19,1170.92l-13.23.4-14.32.44s-33.07-36.82-51.63-95.86c-.43-1.37-.89-2.76-1.37-4.16-10.15-29.61-31.2-66.77-42.29-100.41-1.77-5.35-3.35-10.4-4.78-15.17-.45-1.53-.9-3-1.32-4.51-8.17-28.4-10.54-47-12.72-67l80.1.64S1159.56,1021.37,1208.19,1170.92Z"/><path class="cls-27" d="M1135.41,839.29c-.2,38.12,5.59,54.47,5.59,54.47s-34.29,17.42-75,4.6c-.48-.15-33.75-7.75-33.75-7.75.68-1.54,6.75-27.22,7.41-28.64,8.61-18.48,15.14-26.58,16.16-32.27a120.69,120.69,0,0,0,1-31.93,256.32,256.32,0,0,0-9.89-50.15c11.11-2.52,21.79-6.83,33.35-11.17,2.66,3.31,10.5,6.65,17.56,6.49,8.11-.18,10.75-3.65,10.33-7.45,8.65,4.82,15.55,9.36,15.55,9.36,7.35,12.78,22.27,25.18,23.35,44.77C1147.29,794.44,1135.42,838.23,1135.41,839.29Z"/><path class="cls-15" d="M1113.38,725.63s-33,.54-33.06-20-4.3-34.37,16.79-35.59,25.2,6.63,26.88,13.5S1122,725,1113.38,725.63Z"/><path class="cls-24" d="M1112.16,669.49s-9.05,24.15-22.93,27.72-19.91-.15-19.91-.15a39.32,39.32,0,0,0,12.86-23.23S1105.34,658,1112.16,669.49Z"/><path class="cls-24" d="M1109.92,671.45s6.75,5.4,8.4,10.64,2.39,16,5.53,15.66c0,0,6.82-16.41-.84-25.7C1114.89,662.21,1109.92,671.45,1109.92,671.45Z"/><path class="cls-15" d="M1071.39,1191.62a36.64,36.64,0,0,1-1.72,15.59s-2.22,10.09,7.71,10.27,12.37-.74,11.25-6.93-3.27-16.88-3.27-16.88Z"/><path class="cls-28" d="M1089.94,1223.47h-21.75c-.89-4.47,1.07-14,1.4-15.84,0-.14.05-.24.06-.31a.65.65,0,0,1,0-.1c11.24,10.3,18.27-.27,18.27-.27l0,.06C1089.62,1211.05,1090,1221.9,1089.94,1223.47Z"/><path class="cls-15" d="M1236.2,1211.56s-18.31-20.32-23.94-30.66l-13.61,7,30.43,28.58,7.13-.93Z"/><path class="cls-28" d="M1247.83,1223.47h-23c-3.39,0-6.1-5.62-9.75-12.93-1.5-3-4.86-4.63-8.3-5.54l.09,18.47h-5.31l-4.9-19.53c-3.24-6-.26-11.36,2-16.07,2.65,0,9.79,1.81,23.32,17.05,4.44,5,9.35,6.79,14.23,6.64a.78.78,0,0,0,.2.11C1247.64,1216.73,1247.83,1223.47,1247.83,1223.47Z"/><path class="cls-29" d="M1195,1171.32l-14.32.44s-33.07-36.82-51.63-95.86c-.43-1.37-.89-2.76-1.37-4.16-10.15-29.61-31.2-66.77-42.29-100.41-1.77-5.35-3.35-10.4-4.78-15.17-.45-1.53-.9-3-1.32-4.51l11.8-8.95s35.41,57.35,46.37,111.31C1147,1100.89,1185.09,1157.29,1195,1171.32Z"/><path class="cls-26" d="M1092.28,1059c.2,26.24-1.13,86.58-4.54,111.56h-12.69c-7,0-10.5-.11-10.5-.11-8.58-43.43-14.68-79.36-19.12-110.33-3.64-25.41-6.88-47.19-9.37-66s-4.25-34.68-4.88-48c-.09-2.1-.16-4.15-.2-6.13s0-3.94,0-5.82l69.21-6.75C1099.28,973.46,1092.17,1043.78,1092.28,1059Z"/><path class="cls-29" d="M1075.05,1170.6c-7,0-10.5-.11-10.5-.11-8.58-43.43-14.68-79.36-19.12-110.33-3.64-25.41-6.88-47.19-9.37-66s-4.25-34.68-4.88-48l25.4,14.94s-16.21,5.72-10,49S1066.45,1164.47,1075.05,1170.6Z"/><path class="cls-6" d="M1078.32,945.75s-4.87,17.62-21.74,15.37-40.85-12.37-40.85-12.37,7.21-22.77,16.17-52.69c10.85-36.23,13.55-87.14,19.88-116.59,1.78-8.25,13.72-10.93,14.17-15.87l14.28-27.15s20.58,46.83,21.7,58.63S1078.32,945.75,1078.32,945.75Z"/><path class="cls-30" d="M1066.53,829.85c-.75,19.12-7.44,51.72-34.31,66l-.32.16c10.85-36.23,10.71-71,17-100.43C1063.38,792.62,1066.94,819.33,1066.53,829.85Z"/><path class="cls-28" d="M1241,818.42h-25.9c0,.12,0,.62-.08,1.32-.1,2.34-.26,6.94-.23,7.37.36,5.49,4.18,8.52,7.88,10h0l0,0a16.63,16.63,0,0,0,2.56.76,14,14,0,0,0,1.75.28c.37,0,.7.05,1,.05a12.9,12.9,0,0,0,5.31-1.14,13.09,13.09,0,0,0,7.75-11.92v-5.09A12.63,12.63,0,0,0,1241,818.42Z"/><path class="cls-25" d="M1238.91,818.42h-3.51a12.51,12.51,0,0,1,.11,1.63v5.09a13.06,13.06,0,0,1-3.74,9.14,13.22,13.22,0,0,1-4,2.78,12.38,12.38,0,0,1-2.43.81c-.36.09-.73.15-1.11.21a12.69,12.69,0,0,0,1.76.12c.37,0,.74,0,1.1-.05a12.58,12.58,0,0,0,4.2-1.09,13.26,13.26,0,0,0,5.85-5.16h0a13,13,0,0,0,1.88-6.75v-5.09A12.52,12.52,0,0,0,1238.91,818.42Z"/><rect class="cls-28" x="1222.76" y="837.06" width="10.66" height="1.6" transform="translate(2456.18 1675.72) rotate(180)"/><path class="cls-6" d="M1203.64,823.82s-37.12,12.37-41.76,11.34-11.27-51.34-14.86-68.58c-4.61-22.21-22.21-26.62-22.21-26.62l-16.69-4.47s19.11,47.23,19.67,56.78,2.25,156.3,2.25,156.3-1.12,6.74,11.81,3.93,16.3-5.62,16.3-5.62-5.6-41-8.24-77.44c13.18-2.25,55.54-23.72,55.54-23.72C1212,835.4,1203.64,823.82,1203.64,823.82Z"/><path class="cls-15" d="M1036.61,873.57s14.61-2.57,18.22,1,8.59,18.9,4.47,19.76-13.76-9.62-16.16-8.76-6.76,2.17-7.79-.12-8.26-9-8.26-9Z"/><path class="cls-15" d="M1047.26,869.79s-8.94,3.9-10.65,3.78,3.78,3.44,3.78,3.44l2.75-2.63S1048.07,872.89,1047.26,869.79Z"/><path class="cls-6" d="M1080.23,736.45s-32.49,1.43-40.3,8.69-54.61,63.34-55.39,78,41,56.47,41,56.47,11.6-2.8,16.63-10.1c0,0-25.91-46.2-24.37-48.22s45.45-38,49-30C1069.94,798.19,1080.23,736.45,1080.23,736.45Z"/><path class="cls-31" d="M1067.37,962.46,1060,1004.3h0l-20.39,115.55-18.23,103.3a3.32,3.32,0,0,1-3.29,2.71,2.34,2.34,0,0,1-2.36-2.62l15.72-117.1,16.81-125.25,2.54-18.9Z"/><path class="cls-14" d="M1060,1004.3c1-18-11.74-23.41-11.74-23.41l2.54-18.9,16.58.47Z"/><path class="cls-31" d="M1636.65,1225.86a3.34,3.34,0,0,1-3.31-2.71l-16.19-91.78-23.29-132-6.51-36.91,16.59-.47,2.87,21.43L1627,1134l12,89.25A2.33,2.33,0,0,1,1636.65,1225.86Z"/><path class="cls-14" d="M1606.81,983.42c-10.74,4.74-13,16-13,16l-6.51-36.91,16.59-.47Z"/><rect class="cls-32" x="970.57" y="947.97" width="678.18" height="28.98" rx="12.49"/><path class="cls-6" d="M2099.93,1149.54c-6.39,23.08-53.58,36.67-105.2,44.64H1802.1c-46.43-22-46.36-48.21-50.09-120.6-7.69-149.53,73.65-221.72,109.92-209.8,1.51.49,3,1,4.61,1.65,10.54,4.1,22.35,11.34,33.83,28.58,0,0,36.06,58.1,65.73,92.76,9.55,11.16,18.44,19.9,25.25,23.47a1.34,1.34,0,0,0,.24.12c.36.19.71.35,1.06.51,15.72,7,37.88,21.54,58.12,39.94h0C2082.17,1079.34,2108.93,1117,2099.93,1149.54Z"/><path class="cls-30" d="M2050.77,1050.81c-27,8-166,46.83-198.73,5.69-23.69-29.8-8.94-106.13,4.14-155.53,5.37-20.24,32.14-24.84,43.85-7.48l.34.52s36.06,58.1,65.73,92.76c8.58,11,17.05,19.39,25.25,23.47a1.34,1.34,0,0,0,.24.12c.35.19.71.35,1.06.51C2008.37,1017.83,2030.53,1032.41,2050.77,1050.81Z"/><path class="cls-33" d="M1975.18,912.71s7.89,11.68,12.4,36.25c3.94,21.52,7.4,29.46,13.1,33.87s37.43,17.44,37.43,17.44l-2.37,5.56s-46.52-6.34-51.75-14.11-25.14-53.71-23.6-64.29S1975.18,912.71,1975.18,912.71Z"/><path class="cls-15" d="M2089.1,1169.34c-.42,4.54,5.9,5.64,13.21,6s5.11,1.86,15.13,3.68,14-.93,14.77-2.28-4-3.09-9-5.21l-1.88-.81c-5.59-2.46-8.73-7.47-13.09-12.12-4.12-4.41-8-18.51-8-18.51l-13.63-2.91s3.83,12.69,5.16,18.11c.78,3.19-.38,6.75-1.4,9.46A17.78,17.78,0,0,0,2089.1,1169.34Z"/><path class="cls-16" d="M2102.31,1175.35c7.32.36,5.11,1.86,15.13,3.68s14-.93,14.77-2.28-4-3.09-9-5.21l-.08.08a28.54,28.54,0,0,1-15.19.19c-6.63-1.81-13-5.77-17.61-7a17.78,17.78,0,0,0-1.25,4.58C2088.68,1173.88,2095,1175,2102.31,1175.35Z"/><path class="cls-24" d="M1953.43,1007.78s90.53-6.81,107.57,4,44.38,136,44.38,136a11.1,11.1,0,0,1-5.45,1.76c-3.51.38-11.22-1.68-11.22-1.68s-39.29-56.06-42.06-70.19-2.09-26.72-8.39-27.06-84.85,9.55-96.73-11.38-2.06-41.65-2.06-41.65Z"/><path class="cls-15" d="M2054.45,1183.89c-.41,4.53,5.9,5.64,13.22,6s5.1,1.86,15.13,3.68,14-.93,14.77-2.28c.64-1.2-4-3.08-9-5.21-.63-.26-1.25-.54-1.88-.81-5.59-2.46-8.73-7.47-13.09-12.12-4.13-4.41-8-18.5-8-18.5l-13.62-2.91s3.82,12.69,5.15,18.1c.78,3.19-.37,6.75-1.39,9.46A18.17,18.17,0,0,0,2054.45,1183.89Z"/><path class="cls-16" d="M2067.67,1189.89c7.31.37,5.1,1.86,15.13,3.68s14-.93,14.77-2.28c.64-1.2-4-3.08-9-5.21l-.08.09a28.6,28.6,0,0,1-15.19.18c-6.63-1.8-13-5.77-17.61-7a18.17,18.17,0,0,0-1.26,4.59C2054,1188.42,2060.35,1189.53,2067.67,1189.89Z"/><path class="cls-23" d="M1935.69,1013.39s80.43,3.81,97,15.22,39.05,137.68,39.05,137.68a11.16,11.16,0,0,1-5.52,1.54c-3.51.25-11.15-2.11-11.15-2.11s-37.07-57.55-39.28-71.77-1-26.79-7.34-27.37-85.15,6.24-96.21-15.14S1935.69,1013.39,1935.69,1013.39Z"/><path class="cls-18" d="M1964.35,836.42c-3.57-2.36-8-2.89-11.12-2.91a5.34,5.34,0,0,1,2.45-1c-1.91-.41-6.34,1.21-6.34,1.21-26.13-12.12-33,27.09-33,36.3s-.69,19.78-14.63,27.11c-27.42,14.43-7.08,44.18-7.08,44.18.2.14,10.89,21.38,10.89,21.38-.19-7.46,36.63-44.31,55.26-54.83,4.77-6.11,7.07-17.31,7.24-18.19-1.35,8.91-3.21,13.83-4.77,16.57C1979.27,893.37,1973.81,842.66,1964.35,836.42Z"/><path class="cls-15" d="M1960.29,902.51c-.46-.19-1-.4-1.55-.6,0-1.19.09-2.46.18-3.75.41-5.88,1.28-12.09,1.28-12.09l-19.57-5.25-1.17-.31a60.74,60.74,0,0,1-3.83,18.52c-2,.1-3.32.22-3.32.22-.33,1.17,8.32,19,19.74,19.51C1955.78,918.92,1966,904.9,1960.29,902.51Z"/><path class="cls-33" d="M1960.2,886.07s-.87,6.21-1.28,12.09c-11.07-1-16.26-11.57-18.29-17.34Z"/><path class="cls-18" d="M1938.72,878.53s-5.2-9.58-6.07-17.53c-.62-5.68,3.62-26.28,24.31-21.89a28.4,28.4,0,0,1,11.48,5.24c4.33,3.36,10.44,10.41,1.91,28.07l-2.31,6Z"/><path class="cls-15" d="M1963.53,891.88s-26.28-1.31-25.21-17.67-1.6-27.54,15.23-27.39,19.67,6.61,20.64,12.15S1970.39,891.81,1963.53,891.88Z"/><path class="cls-18" d="M1965.53,847.22s-8.47,18.71-19.69,20.81-15.8-1.18-15.8-1.18a31.34,31.34,0,0,0,11.44-17.77S1960.72,837.73,1965.53,847.22Z"/><path class="cls-18" d="M1963.65,848.66s5.08,4.64,6.11,8.89,1,12.86,3.57,12.74c0,0,6.28-12.68.69-20.46C1968.09,841.57,1963.65,848.66,1963.65,848.66Z"/><path class="cls-23" d="M1989.83,1009.15c-2.13,2.54-8.77,3.32-15.87,4.49-5.58.92-11.45,2.08-15.62,4.53-9.48,5.56-40.43,24.36-49.5,23.51-3.52-.33-2.86-7-.73-16,3.35-14.07,10.37-33.61,10.37-42.1,0-4.64,1.54-15.61,3.6-28.16q.26-1.51.51-3.06c4.08-24.39,9.72-53.15,9.72-53.15s6.3,13.73,18.57,13.73,9.41-10.47,9.41-10.47,11.19,1.32,13.84,4.16,9.35,15.16,10.68,18.52c0,0,.27,4.27-10.31,6.31,0,0,2.58,11.59,2.88,19.32.23,5.72-3.89,23.59-5.08,34.71-.42,3.94-.48,7,.16,8.43.82,1.79,3.47,3.58,6.48,5.34C1984.92,1002.78,1992.35,1006.13,1989.83,1009.15Z"/><path class="cls-24" d="M1978.94,999.3c6.79,11.57-18.41,15.05-22.58,17.5-9.48,5.56-38.45,25.73-47.52,24.88-3.52-.33-2.86-7-.73-16,3.35-14.07,10.37-33.61,10.37-42.1,0-4.64,1.54-15.61,3.6-28.16L1933,945s11.71,30.24,22.86,35.2a94.25,94.25,0,0,0,16.44,5.35c-.42,3.94-.48,7,.16,8.43C1973.28,995.75,1975.93,997.54,1978.94,999.3Z"/><path class="cls-15" d="M1929,908.3s-9.34-5.67-18.37,5.09,6.42,87.65,19.8,91.6c14.85,4.39,57.78-.7,57.78-.7l-.83-6.71s-45.69-8.76-47.59-11.21S1933.7,909.54,1929,908.3Z"/><path class="cls-23" d="M1932.31,899.25s-19.17,1.73-24.74,8-7.2,23.4-7.2,23.4,16.89,13.63,37.23,8.34Z"/><rect class="cls-34" x="1992.65" y="1007.88" width="25.33" height="2.99"/><path class="cls-34" d="M2012.6,1010.46c.25-1,23.28-37.16,23.28-37.16h51.26l-25.71,36.19Z"/><path class="cls-18" d="M2014.76,1010.87c.24-1,23.35-37.57,23.35-37.57h49l-24.46,37.57Z"/><path class="cls-34" d="M2058,992.21a4.09,4.09,0,0,1-3.56,2.65,1.82,1.82,0,0,1-1.74-2.65,4.08,4.08,0,0,1,3.56-2.66A1.83,1.83,0,0,1,2058,992.21Z"/><path class="cls-15" d="M1983.61,997.18s14.88-2.88,16.56-2.16,11,9.12,10.08,10.8-4.8,2.88-9.12,1.44-13.68-2.16-15.36-4.32A14.1,14.1,0,0,1,1983.61,997.18Z"/><path class="cls-11" d="M317.35,1068.29c-.9-22-2.85-41-5.19-54.36-3.72-21.23-7.07-33.45-7.11-33.58-.49-1.86-7.57-9.42-23.32-9.18s-14.26,10.14-14.26,10.14h0a3.23,3.23,0,0,0,.12.88c.15.51,14.6,52.21,14,119,0,.93-.12,2.56-.05,3.63,0,0,36.49.93,36.5,0C319.29,1099,318.67,1082.78,317.35,1068.29Z"/><path class="cls-12" d="M321.94,1100.82c0,.93-.51,1.67-1.12,1.67h0c-.61,0-1.09-.76-1.1-1.67H288.44c0,.93-.51,1.67-1.12,1.67h0c-.62,0-1.11-.78-1.1-1.72a460.33,460.33,0,0,0-2.6-52.7c-4.16-39.27-11.84-65.52-11.95-65.88a3.25,3.25,0,0,1-.11-.88s-1.5-9.91,14.25-10.14,22.83,7.32,23.32,9.19c0,.09,1.93,7,4.45,19.44.84,4.12,1.74,8.85,2.66,14.12,2.34,13.32,4.29,32.42,5.19,54.37C322.75,1082.78,323.21,1095,321.94,1100.82Z"/><path class="cls-13" d="M321.94,1100.82c0,.93-.51,1.67-1.12,1.67h0c-.61,0-1.09-.76-1.1-1.67H288.44c0,.93-.51,1.67-1.12,1.67h0c-.62,0-1.11-.78-1.1-1.72a460.33,460.33,0,0,0-2.6-52.7c5.17-24.92,25.16-44,30-48.27.84,4.12,1.74,8.85,2.66,14.12,2.34,13.32,4.29,32.42,5.19,54.37C322.75,1082.78,323.21,1095,321.94,1100.82Z"/><path class="cls-11" d="M290.34,1100.48l-.11-.1v-.1a.11.11,0,0,1,0-.08c0-.59-.87-39.94-3.09-58.71-1.32-11.17-9.42-57.78-9.47-58a2.43,2.43,0,0,1-.09-.7,6,6,0,0,1,1.44-4.48c1.77-2.08,4.9-3.17,9.33-3.23h.54c11.36,0,16.59,5.49,17,7,.08.28,9.06,36.27,10.61,56.6.15,1.88.47,5.09.87,9.14,2.39,23.86,4.65,49.35,1.3,49.93a85.09,85.09,0,0,1-14.45,1l-3.8,0-3,0c-4.18,0-6.77.25-6.82,1.5v.06h0c0,.09,0,.2-.17.2Zm-1.45-125h-.53c-4.32.07-7.37,1.11-9.06,3.11a5.71,5.71,0,0,0-1.36,4.23,2.33,2.33,0,0,0,.07.63c.05.14,8.13,46.59,9.48,58,2.05,17.33,2.94,52.19,3.07,57.94.83-.86,3.17-1,6.84-1l3,0c1.19,0,2.46,0,3.79,0h0a85.29,85.29,0,0,0,14.38-1c3.31-.57,0-33.65-1.59-49.54-.41-4.06-.73-7.27-.87-9.16-1.56-20.34-10.52-56.2-10.61-56.53C305.15,980.73,300,975.45,288.89,975.45Z"/><path class="cls-12" d="M283.89,1102.49H406.51s-2.86-11.39-73.87-9.7C282.39,1094,283.89,1102.49,283.89,1102.49Z"/><path class="cls-11" d="M273.91,1221.54c14.22-71,10.57-114.55,10.55-115.1,0-1.09,2-2.08,3.1-2.12s6-.32,6.59.62c.74,1.22,3.61,54.89-17.58,116.6Z"/><path class="cls-11" d="M388.4,1221.54c-14.22-71-10.56-114.55-10.55-115.1,0-1.09-2-2.08-3.1-2.12s-6-.32-6.59.62c-.74,1.22-3.6,54.89,17.58,116.6Z"/><path class="cls-14" d="M411.09,1221.54c-14.22-71-10.57-114.55-10.55-115.1,0-1.09-2-2.08-3.1-2.12s-6-.32-6.59.62c-.74,1.22-3.61,54.89,17.58,116.6Z"/><path class="cls-14" d="M296.76,1221.54c14.21-71,10.56-114.55,10.54-115.1,0-1.09,2-2.08,3.1-2.12s6-.32,6.59.62c.74,1.22,3.61,54.89-17.58,116.6Z"/><rect class="cls-11" x="281.46" y="1099.55" width="127.64" height="6.58" rx="2.49"/><path class="cls-15" d="M381.3,1025s22.42,25.6,27,25.19,7.55-1.91,11.63,0c2.93,1.36,12.2,8.82,9.71,8.32s-7-1.07-8.18-1.18c-1.63-.16-4.26-.19-6-.5-1.13-.2-5.2-.31-6.56-.36-5.9-.19-33.8-16.49-33.8-16.49Z"/><path class="cls-23" d="M365.75,895s-1-12.86-19.51-9.52c-4.89.88-8.25-7.83-16.25-4.73-17.24,6.69-18.25-2.14-23.23,10.26-2.09,5.19-15.35,11.23-11.3,20.19s-2.73,15,2,22c2.47,3.64,1.47,10.14,13.09,10.37,5.79.11,14.8,10.84,21.3,12.79s26-.87,25.26-9.78c-.57-7,7.54-6.37,12.52-14.36,4.35-7-3.42-8.75.74-20.05C373.44,903.9,365.51,901.88,365.75,895Z"/><path class="cls-15" d="M467.42,1211.3c-.4,4.3,5.59,5.34,12.53,5.69s4.84,1.76,14.34,3.49,13.31-.88,14-2.17c.61-1.14-3.8-2.92-8.51-4.93l-1.78-.77c-5.3-2.33-8.28-7.09-12.41-11.49-3.91-4.18-7.63-17.54-7.63-17.54l-12.91-2.76s3.62,12,4.88,17.16c.74,3-.35,6.4-1.32,9A17.1,17.1,0,0,0,467.42,1211.3Z"/><path class="cls-16" d="M480,1217c6.93.34,4.84,1.76,14.34,3.49s13.31-.88,14-2.17c.61-1.14-3.8-2.92-8.51-4.93l-.08.08a27,27,0,0,1-14.39.17c-6.29-1.71-12.37-5.47-16.7-6.68a17.1,17.1,0,0,0-1.19,4.35C467,1215.6,473,1216.64,480,1217Z"/><path class="cls-24" d="M338.81,1058.14s85.82-6.46,102,3.74,42.07,129,42.07,129a10.57,10.57,0,0,1-5.17,1.67c-3.32.36-10.64-1.59-10.64-1.59s-37.24-53.15-39.86-66.54-2-25.33-8-25.65-80.43,9-91.7-10.79-1.95-39.49-1.95-39.49Z"/><path class="cls-15" d="M437.89,1211.78c-.4,4.3,5.59,5.35,12.53,5.69s4.84,1.77,14.34,3.49,13.31-.88,14-2.16-3.8-2.93-8.51-4.94l-1.78-.77c-5.3-2.33-8.28-7.08-12.41-11.49-3.91-4.17-7.63-17.54-7.63-17.54l-12.91-2.76s3.62,12,4.88,17.17c.74,3-.35,6.39-1.32,9A17.1,17.1,0,0,0,437.89,1211.78Z"/><path class="cls-16" d="M450.42,1217.47c6.93.35,4.84,1.77,14.34,3.49s13.31-.88,14-2.16-3.8-2.93-8.51-4.94l-.08.08a27,27,0,0,1-14.39.17c-6.29-1.71-12.37-5.46-16.7-6.68a17.1,17.1,0,0,0-1.19,4.35C437.49,1216.08,443.48,1217.13,450.42,1217.47Z"/><path class="cls-23" d="M325.31,1050.16s76.24,3.61,92,14.42,37,130.52,37,130.52a10.51,10.51,0,0,1-5.24,1.46c-3.33.23-10.56-2-10.56-2s-35.15-54.56-37.25-68-1-25.39-6.95-25.94-80.73,5.91-91.21-14.35S325.31,1050.16,325.31,1050.16Z"/><path class="cls-15" d="M302.49,952.75l.09-.12a12.46,12.46,0,0,1,2.13-1.87l0,0h0c6.22-4.35,17.35-5.28,17.35-5.28h0s1.22-.11,3.15-.2a57.47,57.47,0,0,0,3.63-17.56l1.11.3,18.55,5s-.83,5.89-1.21,11.46c-.09,1.22-.15,2.43-.18,3.55.54.2,1,.39,1.48.58h0s10.6,1.26,13.11,4,7.53,20.67,8.8,23.85l-71.42,1.17S297.32,958.86,302.49,952.75Z"/><path class="cls-35" d="M391.09,1025.12c-.42.46-1.52,2.42-3.07,4.77-.46.7-1,1.44-1.51,2.19-2.26,3.14-5.13,6.41-8.1,7.56a5.54,5.54,0,0,1-3.35.31c-1.67-.41-4.34-2.3-7-4.85a44,44,0,0,1-6-7.09,26.52,26.52,0,0,1-1.7-2.93c-.09.75-.18,1.48-.26,2.17h0c-.39,3.74-.45,6.65.16,8,.78,1.69,3.29,3.38,6.14,5,5.66,3.3,12.72,6.48,10.32,9.34-2,2.41-8.31,3.15-15.05,4.26-5.28.87-10.85,2-14.8,4.3l-.48.27c-9.49,5.6-38,22.81-46.45,22-3.33-.32-2.72-6.68-.69-15.14,3.17-13.33,9.84-31.85,9.84-39.9,0-4.4-9.88-47.94-9.88-47.94s-1.8-18.65,3.37-24.76l2.23-2h0c.33.18,21.92,12.34,34.52,13s22.48-11.27,22.48-11.27c2.5,2.71,7.53,20.67,8.79,23.85,0,0,10.25,40.43,12.85,42.52S392.35,1023.72,391.09,1025.12Z"/><path class="cls-33" d="M348.54,933s-.83,5.89-1.21,11.46c-10.5-1-15.42-11-17.34-16.43Z"/><path class="cls-15" d="M351.7,938.48s-24.92-1.25-23.9-16.75-1.52-26.11,14.43-26,18.65,6.26,19.57,11.51S358.2,938.41,351.7,938.48Z"/><path class="cls-23" d="M352.75,901.28s-6-1.38-7.9,1.51-.56,4.52-4.91,5.73-5.82,1.13-5.38,4.18-4.37,5.3-4.57,7.73a4.26,4.26,0,0,1-4.12,3.82c-1.91.18-1-31.36,6.34-32.75s14.51.26,16.68,2S352.75,901.28,352.75,901.28Z"/><path class="cls-23" d="M352.75,901.28s5.79-.4,6.83,2.9-.35,4.08,1.13,6.08.62,5.55.62,5.55,11.46-21.1-.62-22.49S349,894.39,352.75,901.28Z"/><path class="cls-36" d="M388,1029.89c-.46.7-1,1.44-1.51,2.19-2.26,3.14-5.13,6.41-8.1,7.56a5.54,5.54,0,0,1-3.35.31c-1.67-.41-4.34-2.3-7-4.85a44,44,0,0,1-6-7.09,26.52,26.52,0,0,1-1.7-2.93c-.09.75-.18,1.48-.26,2.17v-3.53s1.4-61.76,3.53-34.6C365.1,1009,380.1,1023.54,388,1029.89Z"/><path class="cls-36" d="M312.55,987.38s-30.61,52.7,33.75,71.1l.48-.28c4-2.32,9.52-3.42,14.8-4.3,6.74-1.1,13-1.84,15.05-4.25,2.39-2.87-4.66-6.05-10.32-9.34-2.85-1.67-8.84-3.28-9.62-5C356.09,1034,312.55,987.38,312.55,987.38Z"/><path class="cls-31" d="M272,1046l-4.92,27.87h0l-13.58,77-12.15,68.81a2.21,2.21,0,0,1-2.19,1.81,1.55,1.55,0,0,1-1.57-1.74l10.47-78,11.2-83.43,1.69-12.59Z"/><path class="cls-14" d="M267.07,1073.89c.64-12-7.82-15.59-7.82-15.59l1.69-12.59L272,1046Z"/><path class="cls-31" d="M935.28,1221.48a2.24,2.24,0,0,1-2.21-1.81l-10.78-61.13-15.52-87.93L902.44,1046l11-.31L915.4,1060l13.47,100.3,8,59.46A1.56,1.56,0,0,1,935.28,1221.48Z"/><path class="cls-14" d="M915.4,1060c-7.16,3.16-8.63,10.63-8.63,10.63L902.44,1046l11-.31Z"/><path class="cls-32" d="M945.71,1055.68H219.77a9.69,9.69,0,0,1-9.66-9.66h0a9.68,9.68,0,0,1,9.66-9.65H945.71a9.68,9.68,0,0,1,9.65,9.65h0A9.68,9.68,0,0,1,945.71,1055.68Z"/><polygon class="cls-37" points="524.21 1007.2 372.56 1007.2 386.63 892.59 538.29 892.59 524.21 1007.2"/><polygon class="cls-38" points="541.43 892.6 527.36 1007.2 375.7 1007.2 378.91 981.07 389.77 892.6 541.43 892.6"/><path class="cls-39" d="M541.43,892.6l-14.07,114.6H375.71l3.2-26.13c125.19,7.55,129.27-71.48,128.7-88.47Z"/><path class="cls-37" d="M470.15,942c-.36-3.64-2.27-7.27-5.9-7.72l-6.39.05a6.6,6.6,0,0,0-7.39,6.33l-2.79,86.38a5.25,5.25,0,0,1-5.25,5.08H426.69a2.16,2.16,0,0,0-2.11,1.54,2.12,2.12,0,0,0,2,2.69H476l.28,0h.59a2.53,2.53,0,0,0,2.53-2.78Z"/><path class="cls-38" d="M473.64,942c-.36-3.64-2.27-7.27-5.9-7.72l-6.39.05a6.58,6.58,0,0,0-7.38,6.33l-2.8,86.38a5.25,5.25,0,0,1-5.25,5.08H430.18a2.16,2.16,0,0,0-2.11,1.54,2.12,2.12,0,0,0,2,2.69h49.33l.28,0h.59a2.53,2.53,0,0,0,2.53-2.78Z"/><path class="cls-37" d="M644.61,930.26l-8.4,100s-.89,6.06,3.62,6.07c7.42,0,36.9,0,36.9,0s-5.58-1.26-5.51-4.1c.08-3.35,9.83-102.91,9.83-102.91Z"/><path class="cls-40" d="M679.12,1034.52c-1.45,0-29.62.09-36.84,0-3.14,0-3.69-2.8-3.72-4.59a8.92,8.92,0,0,1,.1-1.48l.21-2.6.56-6.63.49-5.85.64-7.52.53-6.35,6-71,36.44-1s-4.11,41.67-7,72c-.33,3.38-.63,6.62-.92,9.65-.09,1-.18,1.91-.27,2.83-.27,2.87-.51,5.5-.73,7.83-.11,1.22-.21,2.36-.31,3.41-.37,4.09-.59,6.7-.59,7.2a4.14,4.14,0,0,0,.07.81C674.34,1034.41,678.58,1034.52,679.12,1034.52Z"/><polygon class="cls-38" points="556.13 875.85 576.62 958.13 579.42 969.4 588.96 1007.73 766.22 1007.73 731.05 875.85 556.13 875.85"/><polygon class="cls-40" points="556.13 875.85 553.29 876.79 585.19 1010.59 588.96 1007.73 556.13 875.85"/><polygon class="cls-37" points="585.19 1010.59 761.35 1010.59 766.22 1007.73 588.96 1007.73 585.19 1010.59"/><rect class="cls-38" x="647.05" y="1034.56" width="38.14" height="1.81" transform="translate(1332.25 2070.93) rotate(180)"/><polygon class="cls-38" points="757.63 983.43 728.87 877.59 555.85 877.59 555.85 875.85 731.05 875.85 759.72 983.19 757.63 983.43"/><polygon class="cls-37" points="675.5 1010.59 675.3 1011.98 639.43 1019.22 639.92 1013.37 640.16 1010.59 675.5 1010.59"/><path class="cls-39" d="M679.12,1034.52c-1.45,0-29.62.09-36.84,0-3.14,0-3.69-2.8-3.72-4.59l35.7-6.71c-.37,4.09-.59,6.7-.59,7.2a4.14,4.14,0,0,0,.07.81C674.34,1034.41,678.58,1034.52,679.12,1034.52Z"/><polygon class="cls-39" points="666.83 981.03 588.96 1007.73 579.42 969.4 666.83 981.03"/><polygon class="cls-20" points="556.13 875.85 731.05 875.85 759.43 981.84 581.62 981.84 556.13 875.85"/><path class="cls-37" d="M682.29,995.24a6,6,0,0,0-5.62-4.71,3.77,3.77,0,0,0-3.79,4.71,6,6,0,0,0,5.62,4.7A3.76,3.76,0,0,0,682.29,995.24Z"/><polygon class="cls-41" points="751.18 977.25 587.41 977.25 568.86 903.36 567.44 897.69 566.22 892.86 563.38 881.53 724.8 881.53 727.92 892.86 729.25 897.69 730.81 903.36 751.18 977.25"/><polygon class="cls-42" points="727.92 892.86 566.22 892.86 563.38 881.53 724.8 881.53 727.92 892.86"/><path class="cls-41" d="M570.06,886.65a1.07,1.07,0,0,1,1.06-1.42,1.94,1.94,0,0,1,1.77,1.42,1.07,1.07,0,0,1-1.06,1.41A1.92,1.92,0,0,1,570.06,886.65Z"/><path class="cls-41" d="M574.76,886.65a1.07,1.07,0,0,1,1.07-1.42,1.94,1.94,0,0,1,1.77,1.42,1.07,1.07,0,0,1-1.07,1.41A1.94,1.94,0,0,1,574.76,886.65Z"/><path class="cls-41" d="M579.83,886.65a1.07,1.07,0,0,1,1.07-1.42,1.94,1.94,0,0,1,1.77,1.42,1.07,1.07,0,0,1-1.07,1.41A1.94,1.94,0,0,1,579.83,886.65Z"/><path class="cls-42" d="M609.7,918.32H585a1.9,1.9,0,0,1-1.73-1.38h0a1.05,1.05,0,0,1,1-1.39H609a1.89,1.89,0,0,1,1.73,1.39h0A1,1,0,0,1,609.7,918.32Z"/><path class="cls-42" d="M611,923.61h-24.7a1.91,1.91,0,0,1-1.73-1.39h0a1.05,1.05,0,0,1,1-1.39h24.7a1.91,1.91,0,0,1,1.73,1.39h0A1.05,1.05,0,0,1,611,923.61Z"/><path class="cls-42" d="M612.33,928.89H587.64a1.91,1.91,0,0,1-1.73-1.39h0a1.05,1.05,0,0,1,1-1.39h24.69a1.91,1.91,0,0,1,1.74,1.39h0A1.06,1.06,0,0,1,612.33,928.89Z"/><path class="cls-42" d="M653.85,918.32H629.16a1.9,1.9,0,0,1-1.73-1.38h0a1,1,0,0,1,1-1.39h24.69a1.9,1.9,0,0,1,1.74,1.39h0A1,1,0,0,1,653.85,918.32Z"/><path class="cls-42" d="M655.17,923.61H630.48a1.91,1.91,0,0,1-1.74-1.39h0a1.05,1.05,0,0,1,1-1.39h24.7a1.91,1.91,0,0,1,1.73,1.39h0A1.05,1.05,0,0,1,655.17,923.61Z"/><path class="cls-42" d="M656.49,928.89h-24.7a1.91,1.91,0,0,1-1.73-1.39h0a1.05,1.05,0,0,1,1-1.39h24.7a1.91,1.91,0,0,1,1.73,1.39h0A1.05,1.05,0,0,1,656.49,928.89Z"/><path class="cls-42" d="M696.32,918.32H671.63a1.9,1.9,0,0,1-1.74-1.38h0a1.05,1.05,0,0,1,1-1.39h24.7a1.89,1.89,0,0,1,1.73,1.39h0A1,1,0,0,1,696.32,918.32Z"/><path class="cls-42" d="M697.64,923.61h-24.7a1.91,1.91,0,0,1-1.73-1.39h0a1.05,1.05,0,0,1,1-1.39H697a1.91,1.91,0,0,1,1.73,1.39h0A1.05,1.05,0,0,1,697.64,923.61Z"/><path class="cls-42" d="M699,928.89h-24.7a1.91,1.91,0,0,1-1.73-1.39h0a1.05,1.05,0,0,1,1-1.39h24.69A1.91,1.91,0,0,1,700,927.5h0A1.05,1.05,0,0,1,699,928.89Z"/><path class="cls-42" d="M719.17,900.42l1.22,4.88a1.24,1.24,0,0,1-1.22,1.63H579.46a2.23,2.23,0,0,1-2-1.63l-1.21-4.88a1.22,1.22,0,0,1,1.22-1.62h139.7A2.23,2.23,0,0,1,719.17,900.42Z"/><path class="cls-38" d="M676.47,898.8l2,8.13h-99a2.23,2.23,0,0,1-2-1.63l-1.21-4.88a1.22,1.22,0,0,1,1.22-1.62Z"/><path class="cls-20" d="M696,902h-1.55l-.15-.62h2.37l.13.54-.79,2.75h-.82Z"/><path class="cls-20" d="M697.43,903c-.23-1,.17-1.7,1.05-1.7a2.1,2.1,0,0,1,1.88,1.7c.23,1-.17,1.7-1.05,1.7A2.08,2.08,0,0,1,697.43,903Zm2.18,0c-.14-.6-.55-1-1-1s-.61.44-.45,1,.54,1,1,1S699.77,903.62,699.61,903Z"/><path class="cls-20" d="M700.63,902.17a.61.61,0,0,1,.59-.84,1.08,1.08,0,0,1,1,.84.62.62,0,0,1-.6.84A1.08,1.08,0,0,1,700.63,902.17Zm2.53-.8h.56l-1.58,3.29h-.56Zm-1.43.8a.49.49,0,0,0-.41-.41c-.2,0-.25.18-.2.41s.23.41.42.41S701.79,902.39,701.73,902.17Zm1.34,1.68a.61.61,0,0,1,.59-.84,1.08,1.08,0,0,1,1,.84.62.62,0,0,1-.6.84A1.08,1.08,0,0,1,703.07,903.85Zm1.1,0a.49.49,0,0,0-.41-.41c-.2,0-.25.19-.2.41s.23.42.42.42S704.23,904.07,704.17,903.85Z"/><path class="cls-42" d="M664.88,967.4H652.49a4.3,4.3,0,0,1-3.93-3.15l-6-24a2.37,2.37,0,0,1,2.36-3.15h12.38a4.29,4.29,0,0,1,3.93,3.15l6,24A2.38,2.38,0,0,1,664.88,967.4Z"/><path class="cls-42" d="M686.31,967.4H673.93a4.31,4.31,0,0,1-3.94-3.15l-6-24a2.38,2.38,0,0,1,2.36-3.15h12.39a4.31,4.31,0,0,1,3.93,3.15l6,24A2.37,2.37,0,0,1,686.31,967.4Z"/><path class="cls-42" d="M707.34,967.4H695a4.29,4.29,0,0,1-3.93-3.15l-6-24a2.38,2.38,0,0,1,2.37-3.15h12.38a4.29,4.29,0,0,1,3.93,3.15l6,24A2.38,2.38,0,0,1,707.34,967.4Z"/><path class="cls-42" d="M640.4,967.4H598.48a7.22,7.22,0,0,1-6.6-5.28L587,942.37c-.73-2.92,1-5.28,4-5.28h41.93a7.21,7.21,0,0,1,6.59,5.28l4.92,19.75C645.09,965,643.32,967.4,640.4,967.4Z"/><path class="cls-20" d="M632.32,944.67H593.14a1.65,1.65,0,0,1-1.5-1.2h0a.91.91,0,0,1,.9-1.2h39.18a1.65,1.65,0,0,1,1.5,1.2h0A.91.91,0,0,1,632.32,944.67Z"/><path class="cls-20" d="M633.47,949.29H594.3a1.65,1.65,0,0,1-1.51-1.2h0a.92.92,0,0,1,.91-1.2h39.17a1.64,1.64,0,0,1,1.5,1.2h0A.91.91,0,0,1,633.47,949.29Z"/><path class="cls-20" d="M634.62,953.91H595.45a1.64,1.64,0,0,1-1.5-1.2h0a.91.91,0,0,1,.9-1.21H634a1.65,1.65,0,0,1,1.5,1.21h0A.91.91,0,0,1,634.62,953.91Z"/><path class="cls-20" d="M606,959.08h-9.24a1.64,1.64,0,0,1-1.5-1.2h0a.91.91,0,0,1,.9-1.2h9.24a1.64,1.64,0,0,1,1.5,1.2h0A.91.91,0,0,1,606,959.08Z"/><path class="cls-24" d="M780.27,1092.68s-22.14,11-23.44,22.92,3.46,84.09,3.46,84.09,23.22,4.39,27.33.12c0,0,5.78-77.25,4.75-80.73s63.74-22.54,69.49-22.42S780.27,1092.68,780.27,1092.68Z"/><path class="cls-24" d="M785.92,1199.37s-1.35,21.8-5.57,22.11c-.56,0-21.39,0-21.39,0l-26.59-.16s.17-6.41,7.94-7.76,20.79-6.82,25.49-17.09C770.76,1185.71,785.92,1199.37,785.92,1199.37Z"/><path class="cls-24" d="M711.29,1199.37s-1.35,21.8-5.57,22.11c-.56,0-21.39,0-21.39,0l-26.59-.16s.18-6.41,8-7.76,20.78-6.82,25.49-17.09C696.13,1185.71,711.29,1199.37,711.29,1199.37Z"/><path class="cls-23" d="M873.48,1053.86l-.44.12a8,8,0,0,0-4.08-5.21c-16.42-9.29-47.66-3-47.66-3s-100.82,16.38-110.16,29.66-23.89,126.33-23.89,126.33,17.63,4.6,24.92,1.87c0,0,34.74-89.58,37.56-99.27,2.44-8.4,50.37-2.27,74.55-4,14.49-.45,37.17-1.49,43.34-3.64C876.89,1093.55,873.48,1053.86,873.48,1053.86Z"/><path class="cls-43" d="M837.75,932.73l-8.38,10.43-15.85.78c-.16-1.51-.71-8.08-1.18-13.69-.38-4.58-.69-8.52-.69-8.52l16.74-14.66c0,.1.87,5,1,5.67C831.65,925.36,837.75,932.73,837.75,932.73Z"/><path class="cls-44" d="M809.93,928.85c.35-.12,21.43-5.17,23.65-4.31s3.33,5.3,3.33,5.3l-34.37,5.91S805.5,930.45,809.93,928.85Z"/><path class="cls-43" d="M807.21,923.24s22.47,1,22.9-13,3.61-23.31-10.72-24.56-17.29,4-18.56,8.66S801.37,922.61,807.21,923.24Z"/><path class="cls-24" d="M801.31,892.89s5.3,14.78,8.25,13.3,5.67-2.71,6.41,2-2.22,11.09,7.63,9.36,17.19-30.22,13.31-34.24C825.7,871.71,785.92,879.22,801.31,892.89Z"/><path class="cls-40" d="M873.48,1053.86c-5.67,6.7-53.92,5-68.06-.71a9.91,9.91,0,0,1-2.49-1.33c-8.31-6.65,10.45-12.49-10.53-63.18l0-.08c-15-36.42.91-48.23,11-54.06,0,0,28.75-8.84,44.82-3.86C869.05,937.1,879.58,1046.65,873.48,1053.86Z"/><path class="cls-44" d="M822.74,1029c-1,6.9-6.5,23.93-17.32,24.17a9.91,9.91,0,0,1-2.49-1.33c-8.31-6.65,10.45-12.49-10.53-63.18l0-.08c3.51-2.41,9.19-5.14,12.88-1C810.92,994,823.73,1021.83,822.74,1029Z"/><path class="cls-43" d="M720.6,1028.89s-9.05-5.24-12-5.67-16.78,11.34-14.75,12.24,12.52-3.51,14-2.6,2.69,3.45,4.34,3.48,7.24,0,7.24,0Z"/><path class="cls-40" d="M803.35,934.5s-19.83,10.34-22.43,20.09-12.13,57-15.8,60.32-45.8,11-45.8,11-4.94,5.48-3.39,10.47H781.8s29.68-42.93,27.57-59.13S803.35,934.5,803.35,934.5Z"/><path class="cls-12" d="M890.55,1098.36H753.74s3.19-11.79,82.42-10C892.23,1089.57,890.55,1098.36,890.55,1098.36Z"/><path class="cls-11" d="M901.69,1221.53c-15.86-73.45-11.78-118.52-11.76-119.09,0-1.13-2.24-2.15-3.47-2.19s-6.71-.33-7.35.63c-.83,1.27-4,56.8,19.62,120.65Z"/><path class="cls-11" d="M774,1221.53c15.86-73.45,11.78-118.52,11.76-119.09,0-1.13,2.24-2.15,3.47-2.19s6.71-.33,7.35.63c.83,1.27,4,56.8-19.62,120.65Z"/><path class="cls-14" d="M748.63,1221.53c15.87-73.45,11.79-118.52,11.77-119.09,0-1.13,2.24-2.15,3.46-2.19s6.72-.33,7.35.63c.83,1.27,4,56.8-19.61,120.65Z"/><path class="cls-14" d="M876.2,1221.53c-15.86-73.45-11.78-118.52-11.76-119.09,0-1.13-2.24-2.15-3.46-2.19s-6.72-.33-7.35.63c-.83,1.27-4,56.8,19.61,120.65Z"/><rect class="cls-11" x="750.86" y="1095.31" width="142.42" height="6.81" rx="2.68" transform="translate(1644.13 2197.43) rotate(180)"/><path class="cls-11" d="M853.22,1063c1-22.71,3.19-42.47,5.8-56.24,4.15-22,7.89-34.6,7.93-34.74.55-1.93,8.45-9.75,26-9.51S908.88,973,908.88,973h0a3,3,0,0,1-.13.91c-.17.52-16.3,54-15.6,123.08,0,1,.13,2.64.05,3.76,0,0-40.72,1-40.73,0C851.05,1094.69,851.75,1078,853.22,1063Z"/><path class="cls-23" d="M691.68,1036.37s11-8.52,16.49-5.84,6.8,5.84,6.8,5.84Z"/><path class="cls-15" d="M346.06,1030.57s10.44-2.38,13.74-1.37,10.6,7.14,8.83,7.16-8.83-3.31-9.93-2.67-6,3.2-9.25,1.92S346.06,1030.57,346.06,1030.57Z"/><path class="cls-35" d="M300.37,956.48s-10.24,27.06-11.47,41.94c-1.93,23.27-1.83,37.81-1.83,37.81s6.61.28,23.45,0,36.6,0,36.6,0,5.06-4.91-1.85-8.67-36-10.65-35.24-13.55,10.75-43.31,10.75-43.31Z"/><path class="cls-23" d="M351,1036.37s6.18-4.33,10.51-3.23a21.48,21.48,0,0,1,7.11,3.22Z"/><path class="cls-32" d="M2300.28,1061.47H2128.5a9.91,9.91,0,0,1-9.88-9.88h0a9.91,9.91,0,0,1,9.88-9.89h171.78a9.92,9.92,0,0,1,9.89,9.89h0A9.92,9.92,0,0,1,2300.28,1061.47Z"/><path class="cls-31" d="M2186.12,1061.4l-5.44,21.25h0l-15,58.7-13.44,52.46a2.38,2.38,0,0,1-2.43,1.38c-1.06,0-1.87-.62-1.74-1.33l11.59-59.48,12.39-63.62,1.87-9.6Z"/><path class="cls-14" d="M2180.68,1082.65c.71-9.13-8.66-11.89-8.66-11.89l1.87-9.6,12.23.24Z"/><path class="cls-31" d="M2249.43,1061.4l5.44,21.25h0l15,58.7,13.44,52.46a2.38,2.38,0,0,0,2.43,1.38c1.06,0,1.88-.62,1.74-1.33l-11.59-59.48-12.39-63.62-1.87-9.6Z"/><path class="cls-14" d="M2254.87,1082.65c-.71-9.13,8.66-11.89,8.66-11.89l-1.87-9.6-12.23.24Z"/><path class="cls-6" d="M2273.22,1195.14s-38.89-33.18-5.18-96.21,151.69-81,176.61-128.45l-7.33,236.91Z"/><path class="cls-8" d="M2767,676v417c0,70.57-57.73,128.3-128.3,128.3H1827.91a127.47,127.47,0,0,1-78.58-27.07h570.45c60.28,0,109.59-49.31,109.59-109.59V690.42c0-60.28-49.31-109.59-109.59-109.59,0,0-466.49-1.79-554.46,0-35.91.73-52.74,44.09-52.74,44.09,6.57-54.72,82.4-77.26,115.33-77.26H2638.7C2709.27,547.66,2767,605.39,2767,676Z"/><polygon class="cls-28" points="2278.18 1011.65 2277.86 1019.06 2277.18 1034.57 2276.87 1041.7 2257.2 1041.7 2256.75 1034.57 2255.78 1019.06 2255.32 1011.65 2278.18 1011.65"/><polygon class="cls-45" points="2278.56 1006.64 2255.25 1006.64 2254.29 1011.65 2279.21 1011.65 2278.56 1006.64"/><polygon class="cls-25" points="2277.86 1019.06 2277.18 1034.57 2256.75 1034.57 2255.78 1019.06 2277.86 1019.06"/><path class="cls-25" d="M2178.67,1013.77l-.14,3.05-.1,2.24-.62,14.28,0,1.22-.31,7.14h-19.68l-.45-7.14-.07-1.22-.89-14.28-.14-2.24-.25-4.05.05-.13s4.59-.83,7.34.93,5.76-1.68,8.26-.68,2.68,2.26,4.68,1.43A9.76,9.76,0,0,1,2178.67,1013.77Z"/><polygon class="cls-46" points="2178.76 1011.65 2178.67 1013.77 2178.53 1016.82 2178.43 1019.06 2177.81 1033.34 2177.76 1034.56 2177.45 1041.7 2157.77 1041.7 2157.32 1034.56 2157.25 1033.34 2156.36 1019.06 2156.22 1016.82 2155.97 1012.77 2155.9 1011.65 2178.76 1011.65"/><path class="cls-46" d="M2178.88,1011.64v-.35a11.45,11.45,0,0,0-22.9,0c0,.12,0,.24,0,.35Z"/><path class="cls-28" d="M2165.45,1039.89l-1-.12c.06-.63,3.26-43,3.76-45.82a5.46,5.46,0,0,1,3.69-4.07h0l16-2.84.17,1-16,2.83a4.42,4.42,0,0,0-3,3.27C2168.71,996.91,2165.46,1039.74,2165.45,1039.89Z"/><polygon class="cls-28" points="2178.53 1016.82 2178.43 1019.06 2177.81 1033.34 2157.25 1033.34 2156.36 1019.06 2156.22 1016.82 2178.53 1016.82"/><path class="cls-47" d="M2767,1059.24V1093c0,70.57-57.73,128.3-128.3,128.3H1827.91c-29.54,0-55.11-10.14-76.85-27.09l568.72,0a109.71,109.71,0,0,0,91.76-49.87C2548.57,1152.06,2699.85,1090.52,2767,1059.24Z"/><path class="cls-48" d="M2617,1129.42s-14.7-17.14-.91-28c0,0,10.08-6.1,18.29-5.61,0,0-11.64,19.52-7.87,21.46s11.4-22.68,11.4-22.68,22.92-2.22,30.29,1.32c0,0-19.6,16-15.47,17s25.29-14.78,25.29-14.78,21.33,3.63,20.2,16.64-8.49,17-11.72,16.69-22.13-7.56-22.54-4.92,11,11.3,18.93,11.71c0,0-15,16.58-25,11.8s-10.85-12.38-17.08-15.23-11.55-2.83-9,.07,13.85,5.72,17.41,12,6.76,10.56-3.58,9-27.15-9.12-27.89-17.79Z"/><path class="cls-48" d="M2687.7,1115.08s-57.95-2.23-70.74,14.34a41.92,41.92,0,0,1-11.54,16.19l-1.35,3.7s10-10.58,13.63-11.23C2617.7,1138.08,2612.08,1117.56,2687.7,1115.08Z"/><path class="cls-48" d="M2605.42,1145.61s-12.43,9.2-13.3,25.63l2.26.2s4-17,11.15-23.63S2605.42,1145.61,2605.42,1145.61Z"/><path class="cls-49" d="M2565.58,1107.86s23.38-13.09,12.47-30.86c0,0-8.73-10.91-18.08-13.71,0,0,5,26.49,0,27.11s-3.43-29.92-3.43-29.92-24.62-11.84-34.28-10.9c0,0,15.27,25.86,10.28,25.24s-22.13-26.8-22.13-26.8-25.24-4.68-29.29,10.28,2.49,22.44,6.23,23.38,27.74.62,27.12,3.74-16.83,8.1-25.87,5.3c0,0,10,24.62,23.06,23.37s17.14-9.35,25.25-10,14,1.56,10,3.74-17.76.71-24.31,6.28-11.84,9,.31,11.48,34,.94,38.34-8.41Z"/><path class="cls-48" d="M2492.65,1063s65.45,21.19,72.93,44.88c0,0-.31,10.6,6.24,22.75v4.68s-6.86-15.9-10.6-18.08C2561.22,1117.21,2575.87,1096.64,2492.65,1063Z"/><path class="cls-48" d="M2571.82,1130.61s10.09,15.33,4.33,34l-2.59-.7s2.52-20.55-2.76-30.89S2571.82,1130.61,2571.82,1130.61Z"/><path class="cls-49" d="M2602.77,1089.81s-30.81-17.26-16.43-40.68c0,0,11.5-14.38,23.83-18.08,0,0-6.58,34.93,0,35.75s4.52-39.44,4.52-39.44,32.45-15.62,45.19-14.38c0,0-20.13,34.1-13.56,33.28s29.17-35.34,29.17-35.34,33.28-6.16,38.62,13.56-3.29,29.58-8.22,30.81-36.56.83-35.74,4.93,22.19,10.69,34.1,7c0,0-13.15,32.46-30.4,30.81s-22.6-12.32-33.28-13.14-18.49,2-13.15,4.93,23.42.94,32,8.27,15.61,11.86-.41,15.14-44.79,1.24-50.54-11.09Z"/><path class="cls-48" d="M2698.91,1030.64s-86.28,27.94-96.14,59.17c0,0,.41,14-8.22,30V1126s9-21,14-23.83C2608.52,1102.13,2589.21,1075,2698.91,1030.64Z"/><path class="cls-48" d="M2594.55,1119.8s-13.3,20.2-5.72,44.8l3.43-.92s-3.33-27.09,3.64-40.72S2594.55,1119.8,2594.55,1119.8Z"/><path class="cls-38" d="M2601.73,1217.93a60.35,60.35,0,0,0,60.36-60.36H2541.37A60.36,60.36,0,0,0,2601.73,1217.93Z"/><path class="cls-50" d="M2616.59,1217.47a60.42,60.42,0,0,1-67.86-59.9h15A60.37,60.37,0,0,0,2616.59,1217.47Z"/><path class="cls-38" d="M2662.92,1221H2540.54a7.44,7.44,0,0,1,7.45-7.45h107.49a7.44,7.44,0,0,1,7.44,7.45Z"/><rect class="cls-37" x="2539.39" y="1157.57" width="124.08" height="1.85"/><rect class="cls-51" y="1221.28" width="2762.23" height="7.33" rx="3.13"/></g></g></svg>