<svg xmlns="http://www.w3.org/2000/svg" width="136" height="8"><path fill="#FFF" d="M3.373.324c2.968 1.838 6.071.217 9.04 1.19.105 0 .128-.197.07-.335l-.028-.05.035.038c.439.443.473-.326.694-.496l.038-.022.81.973c.405-.325.135-.54.135-.757 1.484-.216 2.968.757 4.182.216.405.324-.135.757.405.865-.675-.973 1.484-.432 1.08-1.081.539 1.08 1.888.324 1.618 1.73.675.108.54-.65.405-.757.675.108 1.35.108 1.889-.324.358.286 2.722-.188 3.637.447l.108.087-.012-.019c-.145-.24.065-.196.322-.274l.008-.003.025.025.095.06c.415 0 .574-.122.73-.292l.02-.024a.331.331 0 0 0 .132-.068l.062-.048-.052-.042.025-.025c.023-.025.048-.05.075-.074l.087-.075-.135-.108h.405c.27.108-1.215.649-.135.973 0-.216.674-.973.944-.54-.54-.109-.404.324-.27.54l.81.108-.27-.757c2.159.109 4.318.65 6.611.65-.135.648 1.62.107 1.35 1.08l-.135-.108c-.675 0 .134.757.54.649-.406-.325.944-.973-.27-1.19l.944-.432c.54-1.946 2.428.216 3.778-.432l-.104.042-.006.009a.247.247 0 0 0-.025.119v.046c1.214-.649 2.698.54 2.968.216l.135.54c1.08-.864 1.214-.864 2.428-.54 0 .108-.134.216 0 .324.405-.432.675-.756 1.485-.648v.216l1.349-.108c0 1.73 2.293-.973 2.698.865.27-.54 1.214-.649 1.62-.865 0 .108 0 .108.134.216.54-.865 1.484.324 2.024.216.27-.216.135-.432 0-.756.675.756 2.024-.757 2.294-.433.54 0 .135.649.27.973.809-.216-.135-1.513.944-.865-.135.108-.405.108-.27.216.405.217 1.08 2.054 1.484 1.73l-.27-.324c.81-.433 1.754 1.297 1.89.216v-.54c1.214.756.539-.217 1.753.432v.108c.54-.108.81.54 1.08-.324l-.135-.108c.674 0 .81.108 1.484.108.135-.108.405-.217.54 0 .134-.649 1.753-.217 2.023-.217-.54.109-.27.325-.135.65.405-.541.675-.65 1.08-.217.135-.865.135-1.838 1.08-1.838-.136.108-.406.108-.27.324.134.109.27 0 .404-.108 0 .217-.27.325-.135.649.54-.865.945 0 1.889-.324-.27.324-.135.432 0 .756l-.001-.001.02-.095c.187-.716 1.11.79.95-.205l-.025-.131c1.62.865 4.318.108 4.992.973.135.324.675-.216.945-.216v.432c.81-.757.675-.324 1.619-1.08-.405.54-.27.756.135 1.188l.674-.865.135.649c.27-.216.675-.108.945 0-.135 0 0 .108 0 .216.27-.865 1.484-.757 1.619-1.189.405.973.81-.216 1.08.649l.404-.325c-.135-.432-.135-.864.135-.648l.135.54c.27-.108.674-.216.81-.216h.134l.045.036c.122.092.255.156.495-.036.944.757 2.159-1.081 3.238 0l-.001-.001-.043-.031c-.126-.084-.313-.147-.353-.023l-.008.055c.945 0 1.89.757 2.429.324v-.432c.674-.216 1.214-.324 1.754-.324v-.54c.81.215 2.563-.65 2.968.432v-.002l.035-.069c.202-.277.959.113 1.367.084l.082-.013.135.432c.54.108.81 0 1.214-.108 1.08.865 2.16 0 3.239.108v.108l1.079-.324c-.27.432.27-.216.54-.108.27-.217.81-.108 1.214.216h.674c-.674.216.135.648.135 1.08l.405-.432c.135.217-.27.325 0 .433.27-.324 1.08-.216 1.35-.757 0-.108-.136-.216-.27-.324l.014-.054c.034-.059.12-.076.12-.162.192.038.282.035.318.007a.07.07 0 0 0-.018-.005l-.021-.003.045.002c.045-.05-.033-.163-.05-.283l-.004-.043c.058.081.114.149.17.205.235-.096.229-.091.1.012l-.088.002c.384.387.7.265 1.005.688l.044.068-.017-.058c-.084-.473 1.3.099 1.117-.593l-.037-.106.07.123c.298.507.228-.006.424.418l.046.106c-.675-.216-1.215.54-1.754.865l.54.432c-.13.412-.38.358-.637.224l-.041-.024-.005-.037-.007-.015-.027-.14a.373.373 0 0 1-.034.044.32.32 0 0 1 .044.059l.017.037.011.052-.035-.018c-.18-.103-.356-.227-.49-.238l-.05.001.048-.019a.48.48 0 0 1 .423.097.29.29 0 0 1 .051-.076l-.078-.379c-.675-.324-1.214.216-1.754.54.405.217-.675.433-.27.865l.405-.108c.135.217-.135.433-.405.649-1.214-.54-3.373-.108-3.778-.649.27.108.675 0 .945-.216l-.54-.324c.405 0 .81.54 1.484.324-.135-.432.405-1.081-.135-1.622-1.214-.756-1.08 1.082-2.563.865-.135.108.27-.648-.54-.432-.944.432-1.754 1.405-1.754 2.27.54-.216 1.35-.757 1.484-.108-.405.324-1.214.433-1.214.865l-.001-.002-.05-.107c-.218-.561.718-.188.392-.663l-.071-.093c-.27.108-.405.324-.54.433.135-.325-.27-.541-.405-.757-.944 0-1.484-.325-2.563-.433 0-.108-.135-.324-.135-.54-.54.216-1.214 1.405-1.08 1.838-.54 0-.54-.325-1.079-.108.81.756-.135-.109-.27.648-.54.108-.135-.324-.404-.54 0 .108-.27.324-.27.54-.27-.54.674-1.405.27-2.054a1.571 1.571 0 0 0-.27-.302v.843h-.135l.1-.874c-.423-.376-1.077-.774-1.18-.856-.27.649-.27 3.135.135 4 0 .432-.404-.54-.674-.54-.675-.757-1.08.54-1.62.216l.405-.433c-.134-.108-.944.108-1.079.324-.135-.216.405-1.189.135-1.513-.944-.108-1.889 1.19-1.889 1.946l1.484-.757c0 .54-1.08.54-1.08 1.297l-1.348-.216c.27 0 .81-.216.54-.54-.54 0-.27-.108-.675-.433.674-.756 2.024-2.702 2.428-3.675l-.674.432-.135-.324c-.945.432-1.754 2.81-2.024 3.46-.54-.217-.27-1.514-.135-1.73-1.08-.109-1.08 1.837-2.159 1.621l.405.324c-.27.108-1.214-.108-1.08.108l-.007-.019-.025-.064c-.117-.308-.283-.882-.19-1.18l.028-.068-.879 1.107.025-.036c.095-.2.103-.908.104-1.184v-.069c-.404 0-.674 1.19-.404 1.405l-.003-.002-.139-.126c-.61-.54-.575-.29-.98-.913l-.093-.148c-.27 0 0 1.081.135 1.19-.54.216-.81.107-1.08 0a.646.646 0 0 0 .198-.164c-.162-.008-.313.102-.602.488l.54-1.838.21 1.082c.272-.747-.048-2.102.06-2.704l-1.753 3.023.032-.065c.112-.276.216-.983.234-1.184l.002-.044-.044.109c-.381.73-2.121.85-3.065.769l-.129-.013h.135c.207-.248-.218-.433-.61-.361l-.08.018-.05-.061c-.476-.48-.748 1.284-1.336.713l-.082-.093c.54.108.674-.324.674-.649-.54.325-1.754 0-1.484 1.081-.27-.216-.54-.108-.54-.648l-1.214.648c.135-.108.27-.432-.135-.54.675.216 1.35-.865 1.754-.108 0-.649-.27-1.081.135-1.622-1.35.216-2.159 1.406-2.968 2.162l-1.215-.54v.324l-.134-.757c-.135.109-.27.325-.27.217 0-.108.135-.217.135-.325-.135.108-.27.108-.27.217l-.001-.003.009-.183c.028-.309.124-.618.29-.926l.107-.186.202-.162.202-.162c-.135.108-.135.324-.27.432-.09 0-.12-.048-.13-.08l.006.034c.035.115.147.28.26.37.27-.432.404-.864.134-1.08 0 .064-.048.09-.087.124l-.018.019.015-.031c.102-.234.187-.402.126-.505l-.036-.04-.944.324c.135.109.27.325.405.541-.54.54-1.215 1.081-.675 1.622l-.675-.433c-.81.757-.674.649-1.619 1.19-.135-.217.135-.433 0-.65-.674.757-1.754-1.08-1.889-.324-.578.186-.363.53-.545.76l-.035.035.007-.038c0-.04-.019-.08-.057-.099l-.044-.009-.405.54c-.27-.216.405-.432-.135-.648-.81.432-1.349.757-2.024.432-.944.108.405 1.081-.404.973 0-.432-.135-.973-.675-1.08-.27.324-.135.648-.675.864v-.649c-.404.109-.81.217-.81-.324-.404.324-.674.216-.809.108-.54.433.54 1.406.675 1.73-.675-.54-1.08-.216-1.484-1.081l.54-.216c-1.215-.865-1.215.973-1.754-.54.404.107.944-.217.674-.65l-.674.325c0-.216.404-.108.134-.324-.134.216-.54.54-.674.756l-.957.096c.05-.063.05-.168-.059-.196l-.063-.008-.675.324c.27-.216 0-.432-.27-.54-.944-.216-.81 1.622-1.484.865.135 0 .135-.108.27-.108l-.405-.325c-.135 1.514-2.159.108-2.294 1.622-.54-.649 0-.432.675-1.081l-.54-.433c.135 0 .405.109.54.217l-.014-.01-.106-.076c-.717-.453-1.318.238-1.706.574l-.063.052c-.27-.216.27-1.08-.54-.865-1.214.217.135 1.081-.54 1.19l-.539-.757c-.944.54-1.619 0-2.294-.108l-.044.03a.236.236 0 0 1-.005.003c-.116.076-.22.088-.22.183-.81-.324-1.754.649-2.294.432.135-.108-.405-.432-.405-.648l-1.08.432c.406-.216.406-.649.54-1.08-.27 0-.404.323-.674.323.135-.216.27-.324.135-.54l-1.08.757c0 .108.135.108.27.108-.405 0-.944.216-1.349-.108.135-.217.27-.325.27-.54.27.54.54.107.674-.217-.809.108-.134-.108-.54-.433-.539 0-.809.65-.674.973-.674-.216-.81-.324-1.484.108l.135-.54-.54.216.54-.757c-1.08-.432-.27.973-1.484.65v-.541c-.54.216-.675 1.08-1.08.432-.404.324.81.757-.27.865a4.219 4.219 0 0 0-.944-.54c-.329.175-.034.493.233.549l.027.003-.026.003c-1.347.05-.87-1.687-2.101-1.266l-.157.062c.405.324-.54.973.675.973-.675.324-1.214-.757-1.754-.217l.001-.001.404-.647c-.116 0-.33.159-.475.272l-.065.052v-.54c-.674.972-1.35-.433-1.754.756V6.27l.03-.115c.163-.74-.515.026-.801-.173l-.038-.035c.54-.54 1.619.108 1.754-.757-.27-.216-.54.108-.81-.108.135-.108.405-.324.54-.54-.945-.541-1.484.432-2.024.648l.944-.216c0 .757-.404.108-.674.757-.405-.433-.81.216-1.215-.108.135 0 .135-.108.27-.108-1.079 0-1.349-1.406-1.754-1.406-.404-.216-1.214.324-.944.649-.27.216 1.484-.216.81.865-.54-1.298-1.215.432-2.564-.433.675-.432-.27-.757.27-1.08-.675.107-.675.323-.945.648l-.135-.433c-.81.973-.27.865-1.484 1.298.405-.325-.404-.54-.135-.865-.404 0-.674.108-.944.324v-.108c-1.214.216-.945-.54-2.159-.108l.135.216c-1.484.649-3.373.216-4.992.433l.509.203c-.19-.03-.85.36-1.35.083l-.103-.07c.135 0 .27-.108.404-.108 0-.325-.135-.649-.54-.757l-.134.432-.135-.324c-.54-.108.135.54-.405.54-.188-.827-1.355-.608-2.184-.762l-.112-.025.042.038c.035.045.043.112.01.209l-.05.108c-.27-.108-.27-.216-.674-.324l.135.54c-1.754-.324-2.294-.865-3.913-.756v-.109c-.54-.216-.81-.108-1.08.325 0-.216.405-.325.136-.54-1.08 1.297-1.89-.974-2.564-.109.135-.973-1.08-2.054-.54-2.81l-.404.107c.135-.648 1.214.109 1.484-.648l1.214.757c0-.325.135-.65 0-.757.27 0 .54-.108.135-.433zm47.222 7.568c-.122-.783.087-.15.528-.101h.044l-.045.004c-.136.02-.243.065-.379.086zm.675-.108l-.075.009-.028-.002.103-.007zm10.119-.54c.27 0 .405 0 .405.215v.217zM46.817 6.81c0 .216.135.432-.27.432zm42.905-.54c-.135.215.54.324.405.54-.675-.325-.135.648-.81.324-.134-.649.135-.54.405-.865zm-34.135.215l.27.65h-.135l-.135-.65zm-19.833.325a.265.265 0 0 1-.111.016l-.034-.004.145-.012zm20.508-.325l-.27.109c.135-.109.27-.109.27-.109zm4.317-.216c-.27-.108-.404-.432-.674.108.135.325.54 0 .674-.108zm-3.52.096l-.02.02c-.029.02-.066.022-.102-.008l.122-.012zm33.068-.204c-.135.108-.135.216-.27.216 0-.108 0-.108.27-.216zM66.61 6.2a.094.094 0 0 1-.094.07l.075-.05.019-.02zm39.573-.686c.54.216 0 .324-.135.54-.675 0 .135-.324.135-.54zm-34.27.108v.324c-.135-.108-.135-.216 0-.324zm35.754-.649c.135.216.135.324.27.432l-.27.217zm-28.945.541l-.04.015a.666.666 0 0 0-.158.093c0-.078.069-.1.157-.106l.041-.002zm.056-.019l.016.019H78.722l.046-.016.01-.003zm-5.813-.414h-.108c.27.216.405.324.54.108-.135-.108-.27-.108-.54-.108zm14.052.007l-.046.054-.007.013.053-.067zm29.96-3.034c.404.757.809 2.162.269 2.487-.405-.541-1.08-.109-1.08.324-.134-.108 0-.324 0-.433l-.539.325c-.135-.757.944-.973.675-1.514.27.325.135.649.81.433.404-.433-.54-.757-.675-.973.54-.325.54-.433.54-.649zM9.237 4.663l.023.01c.046.017.093.032.142.045l.039.008a.381.381 0 0 0-.13-.05l-.074-.013zm-.468-.447c-.234.438.164.405.463.447h.005l-.106-.047a.748.748 0 0 1-.299-.27zm104.563.216l.405.109.135.108-.54-.217zm4.992-.216v.216c-.135.109-.135 0-.27.109-.27-.109 0-.325.27-.325zm-3.777-.324l.135.54-.405-.108.27-.432zm9.444.324v.108c-.135 0-.135 0 0-.108zm-17.81-.324c0 .216-.134.216-.27.324-.134.108-.27 0-.27-.216zm6.477 0c-.135.108-.135.108-.135.216l-.54-.108c0-.108.27 0 .675-.108zM123.1 3.08l.008.011c.15.2.48.513.75.585l.134-.108c.54.216.135.432 0 .54 0-.108.135-.216 0-.324-.27 0-.27.108-.405.216-.27-.324-.404-.649-.54-1.081l.053.161zm-10.037.812c0 .108-.27.108-.404.108.135-.108.27-.108.404-.108zm16.191-.216c0-.217.405.108.54 0l-.27.216zm-7.96-.54c0 .215 0 .432-.405.432v.216l-.405-.433zm-48.812.575l-.029.069.013-.05.016-.019zm40.174-.052l.002.014-.003-.014h.001zm-.576-.255l-.026.01a.409.409 0 0 0-.07.045.152.152 0 0 1 .091-.054l.005-.001zm12.722-1.026c-.405.433-.135.649-.27.973-.54-.432 0-.756.27-.973zm-10.39.649c.27-.216.675-.432.675.216l-.064.025c-.265.097-.61.158-.61-.241zm.675.216c.27-.108.405-.324.27 0zm16.326-.648l-.27.648-.135-.216c-.54-.216-1.35.649-1.62-.108.406.216 1.35-.216 2.025-.324zm1.08.108v.216l-.406.216.405-.432zm-13.358-.757l.084.047c.48.317-.579.705.32.602-.404.108-.27.54-.809.54-.27-.54.27-.757.405-1.19zm3.913.973l.052.161-.032-.045c-.044-.07-.056-.116-.02-.116zm3.777-.649l-.81.54h-.134l.944-.54zm-3.777.108l-.27.217.135-.217h.135zm.54-.324c-.136.108 0 .324 0 .432l-.54-.108zm-10.643.218l.006.016a.758.758 0 0 0 .044.09l.066.105-.079-.153-.037-.058zm14.15-.542c.81-.108.945.432.135.54.405-.216.135-.324-.135-.54zm-99.602.32l.03.046.06.08.073.091-.07-.114a.817.817 0 0 0-.093-.103zm82.467-.104c.135.108.135.108 0 .216-.27.108-.404 0-.404-.108.134 0 .404 0 .404-.108zm11.064 0c0 .216-.135.324-.405.216l.101-.064c.101-.05.203-.071.304-.152zM89.185 1.84l.267.214-.067-.012c-.073-.031-.095-.118-.202-.204l.002.002zm28.33-.326c.27.324.406.432.675.54h-1.079c0-.216 0-.324.405-.54zm3.779.216s.135.108.135.216c-.135 0-.27.108-.405.108.135-.108.135-.216.27-.324zm-2.16-.108l.096.053c.142.06.337.076.445.163-.135.108-.405.108-.54.108l-.15.029c-.418.077-.552.057-.795-.137l.945-.216zm7.691 0c-.135.108-.27.432-.27.108-.229.367-.263.266-.268.162l-.136.054c.093-.15.122-.144.176-.126zm-22.531-.108c.27.108.54.108.81.324-.136.324-.406 0-.81-.324zM136 1.405c0 .109 0 .54-.135.54 0 .11-.27-.431.135-.54zm-26.905.518l.056.023c-.376-.2-.287-.122-.056-.023zm14.897-.301c.135.216 0 .324-.54.324zm-3.643 0c.27 0 .27.324.135.324-.27 0-.54 0-.81-.108.27 0 .405 0 .675-.216zm-1.215.107l-.006.03c-.042.08-.236.09.007.187l-.001-.217zm-8.23.109c-.944.324.406-.973.136-.433 0-.108 0 .54-.135.433zm11.469-.433c.27.109.405.325.405.433h-.27zm-65.302.109c0 .108 0 .108-.27.324 0-.108.136-.216.27-.324zm59.905-.325l-.135.433-.27.216.405-.649zM27.66.973l.404.649a.729.729 0 0 1-.197.111l-.057.019-.042-.04c-.163-.198-.022-.415-.243-.415 0-.108 0-.108-.27 0l.405-.324zm88.238.324v.433l-.27-.216.27-.217zm-72.722.325l-.104.042.018-.018a.136.136 0 0 1 .086-.024zm46.142-.54c0-.433.27.107.675.54-.135-.108-.405-.217-.54-.108zm24.51.224l-.016.018c-.018.044.023.143-.073.298-.135-.108-.135-.217-.405-.217l.494-.099zm-10.343.208c.27-.325.54-.217.81 0-.27 0-.405 0-.675.108l-.135-.108zm15.246-.109c.135-.108.27.109.405.217-.135 0-.27-.108-.405-.217zm5.127-.432c0 .216.405.324.405.432l-.27.217c0-.217-.135-.433-.135-.649zm-95.119.324l.083.066-.042.047-.061.07-.039.041-.013.001c-.04-.01-.007-.099.072-.225zm82.976.108l.001.03c.024-.007.03-.002 0 .016v.063h-.405c.134 0 .27 0 .404-.109zm14.976-.54c-.134.108.135.108.27.324l-.404.216c-.27-.324-.405-.432.134-.54zm1.066.517c-.031.031-.061.027-.016.007l.016-.007zm.265-.142c-.044-.214.308-.08.113.023l.04.034c-.224.03-.345.06-.405.081l-.013.004.013-.013c.02-.026.032-.068.017-.13l-.016-.05c.096.077.193.1.24.066zm-14.148.057l-.046.009a.098.098 0 0 1 .046-.009zm8.5-.756l-.27.432-.27.216.54-.648zm-109.928.576l.008.007.001.003-.009-.01zM120.889.324c-.27.217.135.433 0 .757-.405-.324-.675-.324-.81-.216.135-.216.54-.433.81-.54zM.269.216l.136.757C.27.865.135.865 0 .865L.27.216zm2.564.649c.27-.108.405-.108.405 0zM.81 0l.404.216-.135.108L.81 0z"/></svg>